MThd 1 16 192
MTrk
0 SeqNr 0
0 Meta SeqName "Music Box"
0 Par ch=6 c=10 v=45
1543 On ch=6 n=103 v=64
2179 Off ch=6 n=103 v=0
2219 On ch=6 n=105 v=64
2990 Off ch=6 n=105 v=0
3093 On ch=6 n=103 v=64
3711 Off ch=6 n=103 v=0
3747 On ch=6 n=105 v=64
4544 Off ch=6 n=105 v=0
4625 On ch=6 n=103 v=64
5297 Off ch=6 n=103 v=0
5364 On ch=6 n=105 v=64
6000 Off ch=6 n=105 v=0
6126 On ch=6 n=110 v=64
6484 Off ch=6 n=110 v=0
6488 On ch=6 n=108 v=64
6748 On ch=6 n=107 v=64
6766 Off ch=6 n=108 v=0
6878 Off ch=6 n=107 v=0
6923 On ch=6 n=105 v=64
7438 Off ch=6 n=105 v=0
7671 On ch=6 n=103 v=64
8392 Off ch=6 n=103 v=0
8428 On ch=6 n=105 v=64
9168 Off ch=6 n=105 v=0
9212 On ch=6 n=110 v=64
9508 Off ch=6 n=110 v=0
9526 On ch=6 n=108 v=64
9790 Off ch=6 n=108 v=0
9799 On ch=6 n=107 v=64
9965 Off ch=6 n=107 v=0
9987 On ch=6 n=105 v=64
10431 Off ch=6 n=105 v=0
10742 On ch=6 n=98 v=64
11320 Off ch=6 n=98 v=0
11516 On ch=6 n=93 v=64
11714 Off ch=6 n=93 v=0
12291 On ch=6 n=96 v=64
12685 Off ch=6 n=96 v=0
13081 On ch=6 n=91 v=64
13469 Off ch=6 n=91 v=0
13814 On ch=6 n=103 v=64
14526 Off ch=6 n=103 v=0
14584 On ch=6 n=105 v=64
15319 Off ch=6 n=105 v=0
15364 On ch=6 n=110 v=64
15637 Off ch=6 n=110 v=0
15678 On ch=6 n=108 v=64
15911 Off ch=6 n=108 v=0
15955 On ch=6 n=107 v=64
16076 Off ch=6 n=107 v=0
16139 On ch=6 n=105 v=64
16721 Off ch=6 n=105 v=0
16903 On ch=6 n=103 v=64
17539 Off ch=6 n=103 v=0
17579 On ch=6 n=105 v=64
18350 Off ch=6 n=105 v=0
18453 On ch=6 n=103 v=64
19071 Off ch=6 n=103 v=0
19107 On ch=6 n=105 v=64
19904 Off ch=6 n=105 v=0
19985 On ch=6 n=103 v=64
20657 Off ch=6 n=103 v=0
20724 On ch=6 n=105 v=64
21360 Off ch=6 n=105 v=0
21486 On ch=6 n=110 v=64
21844 Off ch=6 n=110 v=0
21848 On ch=6 n=108 v=64
22108 On ch=6 n=107 v=64
22126 Off ch=6 n=108 v=0
22238 Off ch=6 n=107 v=0
22283 On ch=6 n=105 v=64
22798 Off ch=6 n=105 v=0
23031 On ch=6 n=103 v=64
23752 Off ch=6 n=103 v=0
23788 On ch=6 n=105 v=64
24528 Off ch=6 n=105 v=0
24572 On ch=6 n=110 v=64
24868 Off ch=6 n=110 v=0
24886 On ch=6 n=108 v=64
25150 Off ch=6 n=108 v=0
25159 On ch=6 n=107 v=64
25325 Off ch=6 n=107 v=0
25347 On ch=6 n=105 v=64
25791 Off ch=6 n=105 v=0
29174 On ch=6 n=103 v=64
29886 Off ch=6 n=103 v=0
29944 On ch=6 n=105 v=64
30679 Off ch=6 n=105 v=0
30724 On ch=6 n=110 v=64
30997 Off ch=6 n=110 v=0
31038 On ch=6 n=108 v=64
31271 Off ch=6 n=108 v=0
31315 On ch=6 n=107 v=64
31436 Off ch=6 n=107 v=0
31499 On ch=6 n=105 v=64
32081 Off ch=6 n=105 v=0
32253 On ch=6 n=110 v=64
32469 Off ch=6 n=110 v=0
32519 On ch=6 n=108 v=64
32753 Off ch=6 n=108 v=0
32803 On ch=6 n=105 v=64
32927 Off ch=6 n=105 v=0
33000 On ch=6 n=103 v=64
33253 Off ch=6 n=103 v=0
33300 On ch=6 n=105 v=64
33576 Off ch=6 n=105 v=0
33761 On ch=6 n=110 v=64
33982 Off ch=6 n=110 v=0
34054 On ch=6 n=108 v=64
34246 Off ch=6 n=108 v=0
34286 On ch=6 n=105 v=64
34446 Off ch=6 n=105 v=0
34512 On ch=6 n=103 v=64
34763 Off ch=6 n=103 v=0
34812 On ch=6 n=105 v=64
35193 Off ch=6 n=105 v=0
35308 On ch=6 n=103 v=64
35581 Off ch=6 n=103 v=0
35584 On ch=6 n=101 v=64
35990 Off ch=6 n=101 v=0
36066 On ch=6 n=98 v=64
36627 Off ch=6 n=98 v=0
36860 On ch=6 n=101 v=64
37102 Off ch=6 n=101 v=0
37141 On ch=6 n=98 v=64
37398 Off ch=6 n=98 v=0
37434 On ch=6 n=105 v=64
37556 Off ch=6 n=105 v=0
37636 On ch=6 n=103 v=64
37879 Off ch=6 n=103 v=0
37923 On ch=6 n=98 v=64
38258 Off ch=6 n=98 v=0
38420 On ch=6 n=103 v=64
38647 Off ch=6 n=103 v=0
38690 On ch=6 n=108 v=64
38947 Off ch=6 n=108 v=0
39002 On ch=6 n=110 v=64
39136 Off ch=6 n=110 v=0
39180 On ch=6 n=108 v=64
39420 Off ch=6 n=108 v=0
39466 On ch=6 n=105 v=64
39886 Off ch=6 n=105 v=0
39944 On ch=6 n=105 v=64
40197 Off ch=6 n=105 v=0
40211 On ch=6 n=103 v=64
40445 Off ch=6 n=103 v=0
40478 On ch=6 n=105 v=64
40646 Off ch=6 n=105 v=0
40708 On ch=6 n=98 v=64
41335 Off ch=6 n=98 v=0
41589 On ch=6 n=93 v=64
41633 Off ch=6 n=93 v=0
41676 On ch=6 n=93 v=64
41715 Off ch=6 n=93 v=0
41760 On ch=6 n=93 v=64
41800 Off ch=6 n=93 v=0
41846 On ch=6 n=93 v=64
41910 Off ch=6 n=93 v=0
42048 On ch=6 n=93 v=64
42101 Off ch=6 n=93 v=0
42238 On ch=6 n=93 v=64
42377 Off ch=6 n=93 v=0
42427 On ch=6 n=96 v=64
42487 Off ch=6 n=96 v=0
42537 On ch=6 n=93 v=64
42765 Off ch=6 n=93 v=0
43102 On ch=6 n=93 v=64
43145 Off ch=6 n=93 v=0
43186 On ch=6 n=93 v=64
43233 Off ch=6 n=93 v=0
43274 On ch=6 n=93 v=64
43318 Off ch=6 n=93 v=0
43376 On ch=6 n=93 v=64
43464 Off ch=6 n=93 v=0
43559 On ch=6 n=93 v=64
43625 Off ch=6 n=93 v=0
43779 On ch=6 n=93 v=64
43896 Off ch=6 n=93 v=0
43952 On ch=6 n=91 v=64
43997 Off ch=6 n=91 v=0
44079 On ch=6 n=86 v=64
44295 Off ch=6 n=86 v=0
44629 On ch=6 n=107 v=64
44685 Off ch=6 n=107 v=0
44734 On ch=6 n=103 v=64
44816 Off ch=6 n=103 v=0
44926 On ch=6 n=107 v=64
45078 Off ch=6 n=107 v=0
45123 On ch=6 n=108 v=64
45256 Off ch=6 n=108 v=0
45314 On ch=6 n=105 v=64
45940 Off ch=6 n=105 v=0
46076 On ch=6 n=110 v=64
46753 Off ch=6 n=110 v=0
46817 On ch=6 n=105 v=64
47491 Off ch=6 n=105 v=0
47605 On ch=6 n=110 v=64
47647 Off ch=6 n=110 v=0
47654 On ch=6 n=110 v=64
47683 Off ch=6 n=110 v=0
47708 On ch=6 n=110 v=64
47726 Off ch=6 n=110 v=0
47737 On ch=6 n=110 v=64
47764 Off ch=6 n=110 v=0
47811 On ch=6 n=110 v=64
47837 Off ch=6 n=110 v=0
47851 On ch=6 n=110 v=64
47870 Off ch=6 n=110 v=0
47889 On ch=6 n=110 v=64
47910 Off ch=6 n=110 v=0
47956 On ch=6 n=110 v=64
47984 Off ch=6 n=110 v=0
48041 On ch=6 n=110 v=64
48057 Off ch=6 n=110 v=0
48110 On ch=6 n=110 v=64
48125 Off ch=6 n=110 v=0
48166 On ch=6 n=110 v=64
48190 Off ch=6 n=110 v=0
48241 On ch=6 n=110 v=64
48766 Off ch=6 n=110 v=0
49169 On ch=6 n=103 v=64
49841 Off ch=6 n=103 v=0
49908 On ch=6 n=105 v=64
50544 Off ch=6 n=105 v=0
50670 On ch=6 n=110 v=64
51028 Off ch=6 n=110 v=0
51032 On ch=6 n=108 v=64
51292 On ch=6 n=107 v=64
51310 Off ch=6 n=108 v=0
51422 Off ch=6 n=107 v=0
51467 On ch=6 n=105 v=64
51982 Off ch=6 n=105 v=0
52215 On ch=6 n=103 v=64
52241 On ch=6 n=103 v=64
52913 Off ch=6 n=103 v=0
52936 Off ch=6 n=103 v=0
52980 On ch=6 n=105 v=64
53616 Off ch=6 n=105 v=0
53742 On ch=6 n=110 v=64
54100 Off ch=6 n=110 v=0
54104 On ch=6 n=108 v=64
54364 On ch=6 n=107 v=64
54382 Off ch=6 n=108 v=0
54494 Off ch=6 n=107 v=0
54539 On ch=6 n=105 v=64
55054 Off ch=6 n=105 v=0
55287 On ch=6 n=103 v=64
56008 Off ch=6 n=103 v=0
56044 On ch=6 n=105 v=64
56784 Off ch=6 n=105 v=0
56828 On ch=6 n=110 v=64
57124 Off ch=6 n=110 v=0
57142 On ch=6 n=108 v=64
57406 Off ch=6 n=108 v=0
57415 On ch=6 n=107 v=64
57581 Off ch=6 n=107 v=0
57603 On ch=6 n=105 v=64
58047 Off ch=6 n=105 v=0
61430 On ch=6 n=103 v=64
62142 Off ch=6 n=103 v=0
62200 On ch=6 n=105 v=64
62935 Off ch=6 n=105 v=0
62980 On ch=6 n=110 v=64
63253 Off ch=6 n=110 v=0
63294 On ch=6 n=108 v=64
63527 Off ch=6 n=108 v=0
63571 On ch=6 n=107 v=64
63692 Off ch=6 n=107 v=0
63692 SeqSpec 24 24 00 08 00 00 00 00 00 00 7c 7f 00 00 f9 00 00 00 7c\
	80 00 00 f8 ff 00 00 f9 00
63692 SeqSpec 24 24 00 01 05
63692 SeqSpec 24 24 00 06 04 04
63692 SeqSpec 24 24 00 02 05
63744 Meta TrkEnd
TrkEnd
MTrk
0 SeqNr 1
0 Meta TrkName "Strings"
4620 On ch=7 n=69 v=68
5364 Off ch=7 n=69 v=0
5382 On ch=7 n=71 v=68
6117 Off ch=7 n=71 v=0
6152 On ch=7 n=72 v=68
6735 On ch=7 n=71 v=68
6739 Off ch=7 n=72 v=0
6892 Off ch=7 n=71 v=0
6923 On ch=7 n=69 v=68
7586 Off ch=7 n=69 v=0
7680 On ch=7 n=69 v=68
8433 Off ch=7 n=69 v=0
8455 On ch=7 n=71 v=68
9190 Off ch=7 n=71 v=0
9217 On ch=7 n=72 v=68
9799 Off ch=7 n=72 v=0
9804 On ch=7 n=71 v=68
9969 Off ch=7 n=71 v=0
9987 On ch=7 n=69 v=68
10668 Off ch=7 n=69 v=0
10744 On ch=7 n=74 v=68
11470 Off ch=7 n=74 v=0
11501 On ch=7 n=76 v=68
12249 Off ch=7 n=76 v=0
12280 On ch=7 n=79 v=68
13038 Off ch=7 n=79 v=0
13078 On ch=7 n=81 v=68
13768 Off ch=7 n=81 v=0
13817 On ch=7 n=83 v=68
14561 Off ch=7 n=83 v=0
14588 On ch=7 n=84 v=68
15139 Off ch=7 n=84 v=0
15143 On ch=7 n=83 v=68
15322 Off ch=7 n=83 v=0
15336 On ch=7 n=81 v=68
16769 Off ch=7 n=81 v=0
16881 On ch=7 n=81 v=68
16976 On ch=7 n=79 v=68
16984 Off ch=7 n=81 v=0
17056 Off ch=7 n=79 v=0
17092 On ch=7 n=77 v=68
17244 Off ch=7 n=77 v=0
17276 On ch=7 n=79 v=68
17441 Off ch=7 n=79 v=0
17468 On ch=7 n=77 v=68
17544 Off ch=7 n=77 v=0
17549 On ch=7 n=76 v=68
17634 Off ch=7 n=76 v=0
17670 On ch=7 n=77 v=68
17840 On ch=7 n=76 v=68
17854 Off ch=7 n=77 v=0
18006 Off ch=7 n=76 v=0
18024 On ch=7 n=74 v=68
18104 Off ch=7 n=74 v=0
18122 On ch=7 n=76 v=68
18208 On ch=7 n=74 v=68
18208 Off ch=7 n=76 v=0
18306 On ch=7 n=72 v=68
18315 Off ch=7 n=74 v=0
18378 Off ch=7 n=72 v=0
18405 On ch=7 n=74 v=68
18611 On ch=7 n=72 v=68
18620 Off ch=7 n=74 v=0
18794 Off ch=7 n=72 v=0
18799 On ch=7 n=71 v=68
18884 Off ch=7 n=71 v=0
18893 On ch=7 n=72 v=68
18983 On ch=7 n=71 v=68
18992 Off ch=7 n=72 v=0
19153 Off ch=7 n=71 v=0
19171 On ch=7 n=69 v=68
19892 Off ch=7 n=69 v=0
19980 On ch=7 n=69 v=68
20724 Off ch=7 n=69 v=0
20742 On ch=7 n=71 v=68
21477 Off ch=7 n=71 v=0
21512 On ch=7 n=72 v=68
22095 On ch=7 n=71 v=68
22099 Off ch=7 n=72 v=0
22252 Off ch=7 n=71 v=0
22283 On ch=7 n=69 v=68
22946 Off ch=7 n=69 v=0
23040 On ch=7 n=69 v=68
23793 Off ch=7 n=69 v=0
23815 On ch=7 n=71 v=68
24550 Off ch=7 n=71 v=0
24577 On ch=7 n=72 v=68
25159 Off ch=7 n=72 v=0
25164 On ch=7 n=71 v=68
25329 Off ch=7 n=71 v=0
25347 On ch=7 n=69 v=68
26028 Off ch=7 n=69 v=0
26104 On ch=7 n=74 v=68
26830 Off ch=7 n=74 v=0
26861 On ch=7 n=76 v=68
27609 Off ch=7 n=76 v=0
27640 On ch=7 n=79 v=68
28398 Off ch=7 n=79 v=0
28441 On ch=7 n=81 v=68
29144 Off ch=7 n=81 v=0
29149 On ch=7 n=83 v=68
29911 Off ch=7 n=83 v=0
29915 On ch=7 n=84 v=68
30278 On ch=7 n=83 v=68
30309 Off ch=7 n=84 v=0
30708 On ch=7 n=81 v=68
30712 Off ch=7 n=83 v=0
32218 Off ch=7 n=81 v=0
32226 On ch=7 n=69 v=68
32874 On ch=7 n=67 v=68
32876 Off ch=7 n=69 v=0
32997 Off ch=7 n=67 v=0
33019 On ch=7 n=69 v=68
33717 Off ch=7 n=69 v=0
33763 On ch=7 n=69 v=68
34337 Off ch=7 n=69 v=0
34354 On ch=7 n=67 v=68
34503 Off ch=7 n=67 v=0
34535 On ch=7 n=69 v=68
35230 Off ch=7 n=69 v=0
35297 On ch=7 n=69 v=68
35605 On ch=7 n=67 v=68
35620 Off ch=7 n=69 v=0
36105 On ch=7 n=62 v=68
36109 Off ch=7 n=67 v=0
36807 Off ch=7 n=62 v=0
36857 On ch=7 n=69 v=68
37133 On ch=7 n=67 v=68
37150 Off ch=7 n=69 v=0
37450 Off ch=7 n=67 v=0
37455 On ch=7 n=64 v=68
37600 Off ch=7 n=64 v=0
37653 On ch=7 n=62 v=68
38356 Off ch=7 n=62 v=0
38392 On ch=7 n=69 v=68
38956 Off ch=7 n=69 v=0
38972 On ch=7 n=67 v=68
39162 Off ch=7 n=67 v=0
39170 On ch=7 n=62 v=68
39905 Off ch=7 n=62 v=0
39936 On ch=7 n=69 v=68
40204 On ch=7 n=67 v=68
40212 Off ch=7 n=69 v=0
40489 Off ch=7 n=67 v=0
40491 On ch=7 n=64 v=68
40667 Off ch=7 n=64 v=0
40721 On ch=7 n=62 v=68
41415 Off ch=7 n=62 v=0
41484 On ch=7 n=74 v=68
42030 Off ch=7 n=74 v=0
42035 On ch=7 n=72 v=68
42213 Off ch=7 n=72 v=0
42220 On ch=7 n=74 v=68
42809 On ch=7 n=72 v=68
42816 Off ch=7 n=74 v=0
43000 On ch=7 n=74 v=68
43000 Off ch=7 n=72 v=0
43526 Off ch=7 n=74 v=0
43548 On ch=7 n=77 v=68
43754 Off ch=7 n=77 v=0
43763 On ch=7 n=74 v=68
44475 Off ch=7 n=74 v=0
44532 On ch=7 n=79 v=68
45072 Off ch=7 n=79 v=0
45093 On ch=7 n=77 v=68
45252 Off ch=7 n=77 v=0
45281 On ch=7 n=79 v=68
45566 Off ch=7 n=79 v=0
45572 On ch=7 n=81 v=68
45880 On ch=7 n=79 v=68
45893 Off ch=7 n=81 v=0
46083 On ch=7 n=77 v=68
46091 Off ch=7 n=79 v=0
46366 On ch=7 n=79 v=68
46388 Off ch=7 n=77 v=0
46615 On ch=7 n=77 v=68
46643 Off ch=7 n=79 v=0
46804 Off ch=7 n=77 v=0
46806 On ch=7 n=74 v=68
47538 Off ch=7 n=74 v=0
48377 On ch=7 n=69 v=68
49026 Off ch=7 n=69 v=0
49042 On ch=7 n=67 v=68
49122 Off ch=7 n=67 v=0
49141 On ch=7 n=69 v=68
49346 On ch=7 n=67 v=68
49362 Off ch=7 n=69 v=0
49426 Off ch=7 n=67 v=0
49457 On ch=7 n=64 v=68
50601 Off ch=7 n=64 v=0
50681 On ch=7 n=55 v=68
50957 Off ch=7 n=55 v=0
50993 On ch=7 n=62 v=68
51425 Off ch=7 n=62 v=0
51447 On ch=7 n=67 v=68
52148 Off ch=7 n=67 v=0
52236 On ch=7 n=69 v=68
52980 Off ch=7 n=69 v=0
52998 On ch=7 n=71 v=68
53733 Off ch=7 n=71 v=0
53768 On ch=7 n=72 v=68
54351 On ch=7 n=71 v=68
54355 Off ch=7 n=72 v=0
54508 Off ch=7 n=71 v=0
54539 On ch=7 n=69 v=68
55202 Off ch=7 n=69 v=0
55296 On ch=7 n=69 v=68
56049 Off ch=7 n=69 v=0
56071 On ch=7 n=71 v=68
56806 Off ch=7 n=71 v=0
56833 On ch=7 n=72 v=68
57415 Off ch=7 n=72 v=0
57420 On ch=7 n=71 v=68
57585 Off ch=7 n=71 v=0
57603 On ch=7 n=69 v=68
58284 Off ch=7 n=69 v=0
58360 On ch=7 n=74 v=68
59086 Off ch=7 n=74 v=0
59117 On ch=7 n=76 v=68
59865 Off ch=7 n=76 v=0
59896 On ch=7 n=79 v=68
60654 Off ch=7 n=79 v=0
60694 On ch=7 n=81 v=68
61384 Off ch=7 n=81 v=0
61433 On ch=7 n=83 v=68
62177 Off ch=7 n=83 v=0
62204 On ch=7 n=84 v=68
62755 Off ch=7 n=84 v=0
62759 On ch=7 n=83 v=68
62938 Off ch=7 n=83 v=0
62952 On ch=7 n=81 v=68
64385 Off ch=7 n=81 v=0
64524 On ch=7 n=69 v=68
65287 Off ch=7 n=69 v=0
65294 On ch=7 n=71 v=68
66028 Off ch=7 n=71 v=0
66049 On ch=7 n=72 v=68
66623 On ch=7 n=71 v=68
66639 Off ch=7 n=72 v=0
66813 On ch=7 n=69 v=68
66820 Off ch=7 n=71 v=0
67399 On ch=7 n=67 v=68
67415 Off ch=7 n=69 v=0
67588 Off ch=7 n=67 v=0
67616 On ch=7 n=67 v=68
67616 On ch=7 n=64 v=68
67624 Off ch=7 n=67 v=0
68170 Off ch=7 n=64 v=0
68180 On ch=7 n=62 v=68
68339 Off ch=7 n=62 v=0
68368 On ch=7 n=57 v=68
68972 Off ch=7 n=57 v=0
69099 On ch=7 n=55 v=68
69369 Off ch=7 n=55 v=0
69385 On ch=7 n=57 v=68
69639 Off ch=7 n=57 v=0
69677 On ch=7 n=59 v=68
69847 Off ch=7 n=59 v=0
69875 On ch=7 n=60 v=68
70131 Off ch=7 n=60 v=0
70150 On ch=7 n=59 v=68
70436 Off ch=7 n=59 v=0
70450 On ch=7 n=57 v=68
70628 Off ch=7 n=57 v=0
70655 On ch=7 n=55 v=68
70915 Off ch=7 n=55 v=0
70927 On ch=7 n=57 v=68
71198 Off ch=7 n=57 v=0
71228 On ch=7 n=59 v=68
71396 Off ch=7 n=59 v=0
71434 On ch=7 n=60 v=68
71687 Off ch=7 n=60 v=0
71718 On ch=7 n=59 v=68
71990 Off ch=7 n=59 v=0
71995 On ch=7 n=57 v=68
72156 Off ch=7 n=57 v=0
72178 On ch=7 n=55 v=68
72437 Off ch=7 n=55 v=0
72450 On ch=7 n=57 v=68
72720 Off ch=7 n=57 v=0
72751 On ch=7 n=59 v=68
72918 Off ch=7 n=59 v=0
72952 On ch=7 n=60 v=68
73232 Off ch=7 n=60 v=0
73237 On ch=7 n=59 v=68
73519 Off ch=7 n=59 v=0
73535 On ch=7 n=57 v=68
73709 Off ch=7 n=57 v=0
73728 On ch=7 n=55 v=68
73963 Off ch=7 n=55 v=0
73979 On ch=7 n=57 v=68
74213 Off ch=7 n=57 v=0
74235 On ch=7 n=59 v=68
74438 Off ch=7 n=59 v=0
74464 On ch=7 n=60 v=68
74873 Off ch=7 n=60 v=0
74930 On ch=7 n=62 v=68
75236 Off ch=7 n=62 v=0
75267 On ch=7 n=64 v=68
75605 Off ch=7 n=64 v=0
75640 On ch=7 n=67 v=68
75978 Off ch=7 n=67 v=0
76029 On ch=7 n=64 v=68
76153 Off ch=7 n=64 v=0
76203 On ch=7 n=62 v=68
76350 Off ch=7 n=62 v=0
76392 On ch=7 n=60 v=68
76539 Off ch=7 n=60 v=0
76578 On ch=7 n=59 v=68
76692 Off ch=7 n=59 v=0
76766 On ch=7 n=62 v=68
76838 Off ch=7 n=62 v=0
76867 On ch=7 n=60 v=68
76948 Off ch=7 n=60 v=0
76964 On ch=7 n=59 v=68
77041 Off ch=7 n=59 v=0
77090 On ch=7 n=57 v=68
77616 Off ch=7 n=57 v=0
77616 SeqSpec 24 24 00 08 00 00 00 00 00 01 2f 30 00 01 32 00
77616 SeqSpec 24 24 00 01 05
77616 SeqSpec 24 24 00 06 04 04
77616 SeqSpec 24 24 00 02 06
78336 Meta TrkEnd
TrkEnd
MTrk
0 SeqNr 2
0 Meta TrkName "Lead"
0 PrCh ch=3 p=24
0 Par ch=3 c=7 v=120
0 Par ch=3 c=10 v=24
4432 On ch=3 n=57 v=101
4472 Off ch=3 n=57 v=0
4528 On ch=3 n=57 v=101
4568 Off ch=3 n=57 v=0
4624 On ch=3 n=64 v=101
4778 Off ch=3 n=64 v=0
4812 On ch=3 n=62 v=101
4968 Off ch=3 n=62 v=0
5005 On ch=3 n=60 v=101
5048 Off ch=3 n=60 v=0
5104 On ch=3 n=57 v=101
5337 Off ch=3 n=57 v=0
5394 On ch=3 n=67 v=101
5455 Off ch=3 n=67 v=0
5490 On ch=3 n=66 v=101
5536 Off ch=3 n=66 v=0
5585 On ch=3 n=64 v=101
5640 Off ch=3 n=64 v=0
5686 On ch=3 n=66 v=101
5831 Off ch=3 n=66 v=0
5871 On ch=3 n=64 v=101
5914 Off ch=3 n=64 v=0
5963 On ch=3 n=62 v=100
6089 Off ch=3 n=62 v=0
6160 On ch=3 n=64 v=100
6618 Off ch=3 n=64 v=0
6641 On ch=3 n=64 v=100
6666 Off ch=3 n=64 v=0
6688 On ch=3 n=62 v=100
6725 Off ch=3 n=62 v=0
6736 On ch=3 n=64 v=100
6788 Off ch=3 n=64 v=0
6832 On ch=3 n=67 v=100
6878 Off ch=3 n=67 v=0
6928 On ch=3 n=64 v=100
7475 Off ch=3 n=64 v=0
7502 On ch=3 n=57 v=100
7545 Off ch=3 n=57 v=0
7598 On ch=3 n=57 v=98
7638 Off ch=3 n=57 v=0
7694 On ch=3 n=64 v=98
7851 Off ch=3 n=64 v=0
7888 On ch=3 n=62 v=98
8035 Off ch=3 n=62 v=0
8080 On ch=3 n=60 v=98
8114 Off ch=3 n=60 v=0
8174 On ch=3 n=57 v=98
8425 Off ch=3 n=57 v=0
8464 On ch=3 n=67 v=99
8528 Off ch=3 n=67 v=0
8556 On ch=3 n=66 v=99
8608 Off ch=3 n=66 v=0
8654 On ch=3 n=64 v=99
8703 Off ch=3 n=64 v=0
8751 On ch=3 n=66 v=99
8896 Off ch=3 n=66 v=0
8930 On ch=3 n=64 v=100
8977 Off ch=3 n=64 v=0
9038 On ch=3 n=62 v=100
9176 Off ch=3 n=62 v=0
9232 On ch=3 n=64 v=100
9648 Off ch=3 n=64 v=0
9712 On ch=3 n=64 v=98
9736 Off ch=3 n=64 v=0
9754 On ch=3 n=62 v=98
9794 On ch=3 n=64 v=98
9794 Off ch=3 n=62 v=0
9846 Off ch=3 n=64 v=0
9904 On ch=3 n=67 v=98
9935 Off ch=3 n=67 v=0
9998 On ch=3 n=64 v=98
10401 Off ch=3 n=64 v=0
10565 On ch=3 n=64 v=98
10599 Off ch=3 n=64 v=0
10669 On ch=3 n=64 v=98
10709 Off ch=3 n=64 v=0
10768 On ch=3 n=69 v=98
10900 Off ch=3 n=69 v=0
10958 On ch=3 n=67 v=98
11112 Off ch=3 n=67 v=0
11148 On ch=3 n=64 v=98
11296 Off ch=3 n=64 v=0
11345 On ch=3 n=62 v=98
11483 Off ch=3 n=62 v=0
11539 On ch=3 n=64 v=98
11594 Off ch=3 n=64 v=0
11631 On ch=3 n=62 v=98
11683 Off ch=3 n=62 v=0
11720 On ch=3 n=60 v=98
11757 Off ch=3 n=60 v=0
11830 On ch=3 n=57 v=98
12033 Off ch=3 n=57 v=0
12112 On ch=3 n=62 v=98
12180 Off ch=3 n=62 v=0
12208 On ch=3 n=62 v=101
12242 Off ch=3 n=62 v=0
12296 On ch=3 n=67 v=101
12453 Off ch=3 n=67 v=0
12496 On ch=3 n=65 v=101
12619 Off ch=3 n=65 v=0
12688 On ch=3 n=64 v=101
12823 Off ch=3 n=64 v=0
12880 On ch=3 n=62 v=101
13006 Off ch=3 n=62 v=0
13072 On ch=3 n=64 v=101
13140 Off ch=3 n=64 v=0
13163 On ch=3 n=62 v=101
13216 Off ch=3 n=62 v=0
13264 On ch=3 n=60 v=101
13303 Off ch=3 n=60 v=0
13360 On ch=3 n=57 v=101
13489 Off ch=3 n=57 v=0
13552 On ch=3 n=57 v=101
13693 Off ch=3 n=57 v=0
13744 On ch=3 n=57 v=101
13787 Off ch=3 n=57 v=0
13840 On ch=3 n=64 v=101
13985 Off ch=3 n=64 v=0
14032 On ch=3 n=62 v=101
14179 Off ch=3 n=62 v=0
14224 On ch=3 n=60 v=101
14375 Off ch=3 n=60 v=0
14416 On ch=3 n=57 v=101
14576 Off ch=3 n=57 v=0
14608 On ch=3 n=60 v=101
14691 Off ch=3 n=60 v=0
14702 On ch=3 n=59 v=101
14760 Off ch=3 n=59 v=0
14776 On ch=3 n=57 v=101
14859 Off ch=3 n=57 v=0
14897 On ch=3 n=59 v=101
15085 Off ch=3 n=59 v=0
15096 On ch=3 n=57 v=101
15139 Off ch=3 n=57 v=0
15186 On ch=3 n=55 v=101
15337 Off ch=3 n=55 v=0
15377 On ch=3 n=57 v=103
16073 Off ch=3 n=57 v=0
19792 On ch=3 n=57 v=99
19832 Off ch=3 n=57 v=0
19888 On ch=3 n=57 v=99
19928 Off ch=3 n=57 v=0
19984 On ch=3 n=64 v=99
20138 Off ch=3 n=64 v=0
20172 On ch=3 n=62 v=100
20328 Off ch=3 n=62 v=0
20365 On ch=3 n=60 v=101
20408 Off ch=3 n=60 v=0
20464 On ch=3 n=57 v=102
20697 Off ch=3 n=57 v=0
20754 On ch=3 n=67 v=103
20815 Off ch=3 n=67 v=0
20850 On ch=3 n=66 v=103
20896 Off ch=3 n=66 v=0
20945 On ch=3 n=64 v=104
21000 Off ch=3 n=64 v=0
21046 On ch=3 n=66 v=104
21191 Off ch=3 n=66 v=0
21231 On ch=3 n=64 v=105
21274 Off ch=3 n=64 v=0
21323 On ch=3 n=62 v=105
21449 Off ch=3 n=62 v=0
21520 On ch=3 n=64 v=99
21978 Off ch=3 n=64 v=0
22001 On ch=3 n=64 v=99
22026 Off ch=3 n=64 v=0
22048 On ch=3 n=62 v=99
22085 Off ch=3 n=62 v=0
22096 On ch=3 n=64 v=99
22148 Off ch=3 n=64 v=0
22192 On ch=3 n=67 v=100
22238 Off ch=3 n=67 v=0
22288 On ch=3 n=64 v=100
22835 Off ch=3 n=64 v=0
22862 On ch=3 n=57 v=100
22905 Off ch=3 n=57 v=0
22958 On ch=3 n=57 v=101
22998 Off ch=3 n=57 v=0
23054 On ch=3 n=64 v=101
23211 Off ch=3 n=64 v=0
23248 On ch=3 n=62 v=101
23395 Off ch=3 n=62 v=0
23440 On ch=3 n=60 v=101
23474 Off ch=3 n=60 v=0
23534 On ch=3 n=57 v=101
23785 Off ch=3 n=57 v=0
23824 On ch=3 n=67 v=99
23888 Off ch=3 n=67 v=0
23916 On ch=3 n=66 v=99
23968 Off ch=3 n=66 v=0
24014 On ch=3 n=64 v=99
24063 Off ch=3 n=64 v=0
24111 On ch=3 n=66 v=99
24256 Off ch=3 n=66 v=0
24290 On ch=3 n=64 v=99
24337 Off ch=3 n=64 v=0
24398 On ch=3 n=62 v=99
24536 Off ch=3 n=62 v=0
24592 On ch=3 n=64 v=98
25008 Off ch=3 n=64 v=0
25072 On ch=3 n=64 v=98
25096 Off ch=3 n=64 v=0
25114 On ch=3 n=62 v=98
25154 On ch=3 n=64 v=98
25154 Off ch=3 n=62 v=0
25206 Off ch=3 n=64 v=0
25264 On ch=3 n=67 v=97
25295 Off ch=3 n=67 v=0
25358 On ch=3 n=64 v=102
25761 Off ch=3 n=64 v=0
25925 On ch=3 n=64 v=102
25959 Off ch=3 n=64 v=0
26029 On ch=3 n=64 v=102
26069 Off ch=3 n=64 v=0
26128 On ch=3 n=69 v=102
26260 Off ch=3 n=69 v=0
26318 On ch=3 n=67 v=102
26472 Off ch=3 n=67 v=0
26508 On ch=3 n=64 v=102
26656 Off ch=3 n=64 v=0
26705 On ch=3 n=62 v=102
26843 Off ch=3 n=62 v=0
26899 On ch=3 n=64 v=102
26954 Off ch=3 n=64 v=0
26991 On ch=3 n=62 v=102
27043 Off ch=3 n=62 v=0
27080 On ch=3 n=60 v=102
27117 Off ch=3 n=60 v=0
27190 On ch=3 n=57 v=102
27393 Off ch=3 n=57 v=0
27472 On ch=3 n=62 v=102
27540 Off ch=3 n=62 v=0
27568 On ch=3 n=62 v=102
27602 Off ch=3 n=62 v=0
27656 On ch=3 n=67 v=102
27813 Off ch=3 n=67 v=0
27856 On ch=3 n=65 v=102
27979 Off ch=3 n=65 v=0
28048 On ch=3 n=64 v=102
28183 Off ch=3 n=64 v=0
28240 On ch=3 n=62 v=102
28366 Off ch=3 n=62 v=0
28432 On ch=3 n=64 v=100
28500 Off ch=3 n=64 v=0
28523 On ch=3 n=62 v=100
28576 Off ch=3 n=62 v=0
28624 On ch=3 n=60 v=100
28663 Off ch=3 n=60 v=0
28720 On ch=3 n=57 v=100
28849 Off ch=3 n=57 v=0
28912 On ch=3 n=57 v=100
29053 Off ch=3 n=57 v=0
29104 On ch=3 n=57 v=100
29147 Off ch=3 n=57 v=0
29200 On ch=3 n=64 v=100
29345 Off ch=3 n=64 v=0
29392 On ch=3 n=62 v=100
29539 Off ch=3 n=62 v=0
29584 On ch=3 n=60 v=100
29735 Off ch=3 n=60 v=0
29776 On ch=3 n=57 v=100
29936 Off ch=3 n=57 v=0
29968 On ch=3 n=60 v=97
30051 Off ch=3 n=60 v=0
30062 On ch=3 n=59 v=97
30120 Off ch=3 n=59 v=0
30136 On ch=3 n=57 v=97
30219 Off ch=3 n=57 v=0
30257 On ch=3 n=59 v=98
30445 Off ch=3 n=59 v=0
30456 On ch=3 n=57 v=99
30499 Off ch=3 n=57 v=0
30546 On ch=3 n=55 v=99
30697 Off ch=3 n=55 v=0
30737 On ch=3 n=57 v=100
31433 Off ch=3 n=57 v=0
35295 On ch=3 n=57 v=106
35448 Off ch=3 n=57 v=0
35478 On ch=3 n=62 v=106
35532 Off ch=3 n=62 v=0
35574 On ch=3 n=62 v=106
35831 Off ch=3 n=62 v=0
35872 On ch=3 n=57 v=106
36022 Off ch=3 n=57 v=0
36072 On ch=3 n=62 v=106
36197 Off ch=3 n=62 v=0
36250 On ch=3 n=65 v=106
36307 Off ch=3 n=65 v=0
36356 On ch=3 n=67 v=106
36518 Off ch=3 n=67 v=0
36558 On ch=3 n=69 v=106
36597 Off ch=3 n=69 v=0
36652 On ch=3 n=67 v=106
36704 Off ch=3 n=67 v=0
36748 On ch=3 n=65 v=106
36795 Off ch=3 n=65 v=0
36845 On ch=3 n=62 v=106
37216 Off ch=3 n=62 v=0
38402 On ch=3 n=57 v=101
38545 Off ch=3 n=57 v=0
38580 On ch=3 n=62 v=101
38632 Off ch=3 n=62 v=0
38682 On ch=3 n=62 v=101
38927 Off ch=3 n=62 v=0
38971 On ch=3 n=57 v=101
39118 Off ch=3 n=57 v=0
39177 On ch=3 n=62 v=100
39315 Off ch=3 n=62 v=0
39360 On ch=3 n=65 v=100
39412 Off ch=3 n=65 v=0
39456 On ch=3 n=69 v=100
39645 Off ch=3 n=69 v=0
39648 On ch=3 n=67 v=100
39744 On ch=3 n=65 v=100
39753 Off ch=3 n=67 v=0
39882 Off ch=3 n=65 v=0
39936 On ch=3 n=67 v=100
40489 Off ch=3 n=67 v=0
41560 On ch=3 n=69 v=99
41607 Off ch=3 n=69 v=0
41656 On ch=3 n=72 v=99
41715 Off ch=3 n=72 v=0
41752 On ch=3 n=69 v=99
41805 Off ch=3 n=69 v=0
41854 On ch=3 n=72 v=99
42008 Off ch=3 n=72 v=0
42046 On ch=3 n=69 v=99
42176 Off ch=3 n=69 v=0
42240 On ch=3 n=72 v=99
42306 Off ch=3 n=72 v=0
42336 On ch=3 n=69 v=99
42430 Off ch=3 n=69 v=0
42432 On ch=3 n=67 v=99
42506 Off ch=3 n=67 v=0
42545 On ch=3 n=62 v=99
42704 Off ch=3 n=62 v=0
42717 On ch=3 n=65 v=99
42789 Off ch=3 n=65 v=0
42816 On ch=3 n=67 v=99
43103 Off ch=3 n=67 v=0
43104 On ch=3 n=69 v=98
43164 Off ch=3 n=69 v=0
43200 On ch=3 n=67 v=98
43277 Off ch=3 n=67 v=0
43296 On ch=3 n=69 v=98
43357 Off ch=3 n=69 v=0
43392 On ch=3 n=67 v=98
43529 Off ch=3 n=67 v=0
43586 On ch=3 n=69 v=98
43715 Off ch=3 n=69 v=0
43776 On ch=3 n=69 v=98
43843 Off ch=3 n=69 v=0
43872 On ch=3 n=67 v=98
43952 Off ch=3 n=67 v=0
43968 On ch=3 n=65 v=98
44043 Off ch=3 n=65 v=0
44072 On ch=3 n=62 v=98
44637 Off ch=3 n=62 v=0
44648 On ch=3 n=62 v=98
44686 Off ch=3 n=62 v=0
44736 On ch=3 n=62 v=98
44777 Off ch=3 n=62 v=0
44827 On ch=3 n=60 v=98
44896 Off ch=3 n=60 v=0
44918 On ch=3 n=62 v=98
45070 Off ch=3 n=62 v=0
45106 On ch=3 n=60 v=98
45238 Off ch=3 n=60 v=0
45308 On ch=3 n=62 v=98
45564 Off ch=3 n=62 v=0
45600 On ch=3 n=60 v=98
45762 Off ch=3 n=60 v=0
45805 On ch=3 n=57 v=98
45872 Off ch=3 n=57 v=0
45899 On ch=3 n=60 v=98
46010 Off ch=3 n=60 v=0
46073 On ch=3 n=62 v=98
46932 Off ch=3 n=62 v=0
47605 On ch=3 n=65 v=102
47856 Off ch=3 n=65 v=0
47889 On ch=3 n=64 v=106
48093 Off ch=3 n=64 v=0
48136 On ch=3 n=62 v=109
48392 Off ch=3 n=62 v=0
52048 On ch=3 n=57 v=101
52088 Off ch=3 n=57 v=0
52144 On ch=3 n=57 v=101
52184 Off ch=3 n=57 v=0
52240 On ch=3 n=64 v=101
52394 Off ch=3 n=64 v=0
52428 On ch=3 n=62 v=101
52584 Off ch=3 n=62 v=0
52621 On ch=3 n=60 v=101
52664 Off ch=3 n=60 v=0
52720 On ch=3 n=57 v=101
52953 Off ch=3 n=57 v=0
53010 On ch=3 n=67 v=101
53071 Off ch=3 n=67 v=0
53106 On ch=3 n=66 v=101
53152 Off ch=3 n=66 v=0
53201 On ch=3 n=64 v=101
53256 Off ch=3 n=64 v=0
53302 On ch=3 n=66 v=101
53447 Off ch=3 n=66 v=0
53487 On ch=3 n=64 v=101
53530 Off ch=3 n=64 v=0
53579 On ch=3 n=62 v=101
53705 Off ch=3 n=62 v=0
53776 On ch=3 n=64 v=101
54234 Off ch=3 n=64 v=0
54257 On ch=3 n=64 v=101
54282 Off ch=3 n=64 v=0
54304 On ch=3 n=62 v=101
54341 Off ch=3 n=62 v=0
54352 On ch=3 n=64 v=101
54404 Off ch=3 n=64 v=0
54448 On ch=3 n=67 v=101
54494 Off ch=3 n=67 v=0
54544 On ch=3 n=64 v=101
55091 Off ch=3 n=64 v=0
55118 On ch=3 n=57 v=76
55161 Off ch=3 n=57 v=0
55214 On ch=3 n=57 v=98
55254 Off ch=3 n=57 v=0
55310 On ch=3 n=64 v=98
55467 Off ch=3 n=64 v=0
55504 On ch=3 n=62 v=98
55651 Off ch=3 n=62 v=0
55696 On ch=3 n=60 v=98
55730 Off ch=3 n=60 v=0
55790 On ch=3 n=57 v=99
56041 Off ch=3 n=57 v=0
56080 On ch=3 n=67 v=99
56144 Off ch=3 n=67 v=0
56172 On ch=3 n=66 v=99
56224 Off ch=3 n=66 v=0
56270 On ch=3 n=64 v=99
56319 Off ch=3 n=64 v=0
56367 On ch=3 n=66 v=100
56512 Off ch=3 n=66 v=0
56546 On ch=3 n=64 v=100
56593 Off ch=3 n=64 v=0
56654 On ch=3 n=62 v=100
56792 Off ch=3 n=62 v=0
56848 On ch=3 n=64 v=100
57264 Off ch=3 n=64 v=0
57328 On ch=3 n=64 v=95
57352 Off ch=3 n=64 v=0
57370 On ch=3 n=62 v=95
57410 On ch=3 n=64 v=95
57410 Off ch=3 n=62 v=0
57462 Off ch=3 n=64 v=0
57520 On ch=3 n=67 v=95
57551 Off ch=3 n=67 v=0
57614 On ch=3 n=64 v=94
58017 Off ch=3 n=64 v=0
58181 On ch=3 n=64 v=105
58215 Off ch=3 n=64 v=0
58285 On ch=3 n=64 v=105
58325 Off ch=3 n=64 v=0
58384 On ch=3 n=69 v=105
58516 Off ch=3 n=69 v=0
58574 On ch=3 n=67 v=105
58728 Off ch=3 n=67 v=0
58764 On ch=3 n=64 v=105
58912 Off ch=3 n=64 v=0
58961 On ch=3 n=62 v=105
59099 Off ch=3 n=62 v=0
59155 On ch=3 n=64 v=105
59210 Off ch=3 n=64 v=0
59247 On ch=3 n=62 v=105
59299 Off ch=3 n=62 v=0
59336 On ch=3 n=60 v=105
59373 Off ch=3 n=60 v=0
59446 On ch=3 n=57 v=105
59649 Off ch=3 n=57 v=0
59728 On ch=3 n=62 v=104
59796 Off ch=3 n=62 v=0
59824 On ch=3 n=62 v=104
59858 Off ch=3 n=62 v=0
59912 On ch=3 n=67 v=104
60069 Off ch=3 n=67 v=0
60112 On ch=3 n=65 v=104
60235 Off ch=3 n=65 v=0
60304 On ch=3 n=64 v=104
60439 Off ch=3 n=64 v=0
60496 On ch=3 n=62 v=104
60622 Off ch=3 n=62 v=0
60688 On ch=3 n=64 v=104
60756 Off ch=3 n=64 v=0
60779 On ch=3 n=62 v=104
60832 Off ch=3 n=62 v=0
60880 On ch=3 n=60 v=104
60919 Off ch=3 n=60 v=0
60976 On ch=3 n=57 v=104
61105 Off ch=3 n=57 v=0
61168 On ch=3 n=57 v=101
61309 Off ch=3 n=57 v=0
61360 On ch=3 n=57 v=101
61403 Off ch=3 n=57 v=0
61456 On ch=3 n=64 v=101
61601 Off ch=3 n=64 v=0
61648 On ch=3 n=62 v=101
61795 Off ch=3 n=62 v=0
61840 On ch=3 n=60 v=101
61991 Off ch=3 n=60 v=0
62032 On ch=3 n=57 v=101
62192 Off ch=3 n=57 v=0
62224 On ch=3 n=60 v=101
62307 Off ch=3 n=60 v=0
62318 On ch=3 n=59 v=101
62376 Off ch=3 n=59 v=0
62392 On ch=3 n=57 v=101
62475 Off ch=3 n=57 v=0
62513 On ch=3 n=59 v=101
62701 Off ch=3 n=59 v=0
62712 On ch=3 n=57 v=101
62755 Off ch=3 n=57 v=0
62802 On ch=3 n=55 v=101
62953 Off ch=3 n=55 v=0
62993 On ch=3 n=57 v=101
63689 Off ch=3 n=57 v=0
64351 On ch=3 n=57 v=104
64473 Off ch=3 n=57 v=0
64539 On ch=3 n=60 v=104
64778 Off ch=3 n=60 v=0
64822 On ch=3 n=60 v=104
64983 Off ch=3 n=60 v=0
65011 On ch=3 n=59 v=104
65085 Off ch=3 n=59 v=0
65102 On ch=3 n=57 v=104
65255 Off ch=3 n=57 v=0
65291 On ch=3 n=59 v=104
65535 Off ch=3 n=59 v=0
65580 On ch=3 n=59 v=104
65755 Off ch=3 n=59 v=0
65774 On ch=3 n=57 v=104
65840 Off ch=3 n=57 v=0
65869 On ch=3 n=55 v=104
66008 Off ch=3 n=55 v=0
66058 On ch=3 n=57 v=104
66609 Off ch=3 n=57 v=0
66625 On ch=3 n=64 v=104
66778 Off ch=3 n=64 v=0
66836 On ch=3 n=57 v=104
67305 Off ch=3 n=57 v=0
67328 On ch=3 n=52 v=99
67397 On ch=3 n=55 v=100
67405 Off ch=3 n=52 v=0
67540 Off ch=3 n=55 v=0
67572 On ch=3 n=52 v=104
68094 On ch=3 n=48 v=88
68112 Off ch=3 n=52 v=0
68157 Off ch=3 n=48 v=0
68165 On ch=3 n=50 v=93
68297 Off ch=3 n=50 v=0
68347 On ch=3 n=45 v=104
68936 Off ch=3 n=45 v=0
69024 On ch=3 n=48 v=99
69076 Off ch=3 n=48 v=0
69120 On ch=3 n=50 v=99
69246 Off ch=3 n=50 v=0
69312 On ch=3 n=48 v=99
69381 Off ch=3 n=48 v=0
69416 On ch=3 n=50 v=99
69541 Off ch=3 n=50 v=0
69600 On ch=3 n=48 v=99
69661 Off ch=3 n=48 v=0
69696 On ch=3 n=50 v=99
69753 Off ch=3 n=50 v=0
69776 On ch=3 n=48 v=99
69845 Off ch=3 n=48 v=0
69888 On ch=3 n=45 v=99
70508 Off ch=3 n=45 v=0
70560 On ch=3 n=48 v=100
70611 Off ch=3 n=48 v=0
70648 On ch=3 n=50 v=100
70823 Off ch=3 n=50 v=0
70840 On ch=3 n=48 v=100
70900 Off ch=3 n=48 v=0
70952 On ch=3 n=50 v=100
71101 Off ch=3 n=50 v=0
71136 On ch=3 n=48 v=99
71210 Off ch=3 n=48 v=0
71232 On ch=3 n=50 v=99
71292 Off ch=3 n=50 v=0
71320 On ch=3 n=48 v=99
71394 Off ch=3 n=48 v=0
71424 On ch=3 n=45 v=100
72100 Off ch=3 n=45 v=0
72113 On ch=3 n=48 v=102
72193 Off ch=3 n=48 v=0
72196 On ch=3 n=50 v=103
72343 Off ch=3 n=50 v=0
72384 On ch=3 n=48 v=104
72466 Off ch=3 n=48 v=0
72480 On ch=3 n=50 v=104
72645 Off ch=3 n=50 v=0
72656 On ch=3 n=48 v=105
72752 Off ch=3 n=48 v=0
72768 On ch=3 n=50 v=105
72843 Off ch=3 n=50 v=0
72864 On ch=3 n=48 v=105
72934 Off ch=3 n=48 v=0
72960 On ch=3 n=45 v=106
73591 Off ch=3 n=45 v=0
73640 On ch=3 n=48 v=103
73704 Off ch=3 n=48 v=0
73728 On ch=3 n=50 v=103
73897 Off ch=3 n=50 v=0
73920 On ch=3 n=48 v=102
73999 Off ch=3 n=48 v=0
74016 On ch=3 n=50 v=101
74177 Off ch=3 n=50 v=0
74184 On ch=3 n=48 v=100
74276 Off ch=3 n=48 v=0
74304 On ch=3 n=50 v=100
74496 On ch=3 n=55 v=99
74497 Off ch=3 n=50 v=0
74839 Off ch=3 n=55 v=0
74880 On ch=3 n=57 v=95
75263 Off ch=3 n=57 v=0
75264 On ch=3 n=62 v=95
75631 Off ch=3 n=62 v=0
75648 On ch=3 n=57 v=96
75839 Off ch=3 n=57 v=0
75840 On ch=3 n=62 v=97
76017 On ch=3 n=67 v=97
76117 Off ch=3 n=62 v=0
76220 On ch=3 n=65 v=97
76250 Off ch=3 n=67 v=0
76411 Off ch=3 n=65 v=0
76417 On ch=3 n=64 v=98
76592 Off ch=3 n=64 v=0
76605 On ch=3 n=62 v=98
76704 On ch=3 n=60 v=99
76720 Off ch=3 n=62 v=0
76783 Off ch=3 n=60 v=0
76800 On ch=3 n=62 v=99
76902 On ch=3 n=60 v=100
76938 Off ch=3 n=62 v=0
76984 On ch=3 n=59 v=100
76997 Off ch=3 n=60 v=0
77076 Off ch=3 n=59 v=0
77083 On ch=3 n=57 v=100
77567 Off ch=3 n=57 v=0
77567 SeqSpec 24 24 00 08 00 00 00 00 00 01 2e ff 00 01 2f 00
77567 SeqSpec 24 24 00 01 05
77567 SeqSpec 24 24 00 06 04 04
77567 SeqSpec 24 24 00 02 02
77568 Meta TrkEnd
TrkEnd
MTrk
0 SeqNr 3
0 Meta TrkName "Lead alternate"
0 PrCh ch=2 p=25
0 Par ch=2 c=7 v=115
0 Par ch=2 c=10 v=104
4416 On ch=2 n=57 v=76
4456 Off ch=2 n=57 v=0
4512 On ch=2 n=57 v=76
4552 Off ch=2 n=57 v=0
4608 On ch=2 n=64 v=76
4762 Off ch=2 n=64 v=0
4796 On ch=2 n=62 v=76
4952 Off ch=2 n=62 v=0
4989 On ch=2 n=60 v=76
5032 Off ch=2 n=60 v=0
5088 On ch=2 n=57 v=76
5321 Off ch=2 n=57 v=0
5378 On ch=2 n=67 v=76
5439 Off ch=2 n=67 v=0
5474 On ch=2 n=66 v=76
5520 Off ch=2 n=66 v=0
5569 On ch=2 n=64 v=76
5624 Off ch=2 n=64 v=0
5670 On ch=2 n=66 v=76
5815 Off ch=2 n=66 v=0
5855 On ch=2 n=64 v=76
5898 Off ch=2 n=64 v=0
5947 On ch=2 n=62 v=76
6073 Off ch=2 n=62 v=0
6144 On ch=2 n=64 v=76
6602 Off ch=2 n=64 v=0
6625 On ch=2 n=64 v=76
6650 Off ch=2 n=64 v=0
6672 On ch=2 n=62 v=76
6709 Off ch=2 n=62 v=0
6720 On ch=2 n=64 v=76
6772 Off ch=2 n=64 v=0
6816 On ch=2 n=67 v=76
6862 Off ch=2 n=67 v=0
6912 On ch=2 n=64 v=76
7459 Off ch=2 n=64 v=0
7486 On ch=2 n=57 v=76
7529 Off ch=2 n=57 v=0
7582 On ch=2 n=57 v=76
7622 Off ch=2 n=57 v=0
7678 On ch=2 n=64 v=76
7835 Off ch=2 n=64 v=0
7872 On ch=2 n=62 v=76
8019 Off ch=2 n=62 v=0
8064 On ch=2 n=60 v=76
8098 Off ch=2 n=60 v=0
8158 On ch=2 n=57 v=76
8409 Off ch=2 n=57 v=0
8448 On ch=2 n=67 v=76
8512 Off ch=2 n=67 v=0
8540 On ch=2 n=66 v=76
8592 Off ch=2 n=66 v=0
8638 On ch=2 n=64 v=76
8687 Off ch=2 n=64 v=0
8735 On ch=2 n=66 v=76
8880 Off ch=2 n=66 v=0
8914 On ch=2 n=64 v=76
8961 Off ch=2 n=64 v=0
9022 On ch=2 n=62 v=76
9160 Off ch=2 n=62 v=0
9216 On ch=2 n=64 v=76
9632 Off ch=2 n=64 v=0
9696 On ch=2 n=64 v=76
9720 Off ch=2 n=64 v=0
9738 On ch=2 n=62 v=76
9778 On ch=2 n=64 v=76
9778 Off ch=2 n=62 v=0
9830 Off ch=2 n=64 v=0
9888 On ch=2 n=67 v=76
9919 Off ch=2 n=67 v=0
9982 On ch=2 n=64 v=76
10385 Off ch=2 n=64 v=0
10549 On ch=2 n=64 v=76
10583 Off ch=2 n=64 v=0
10653 On ch=2 n=64 v=76
10693 Off ch=2 n=64 v=0
10752 On ch=2 n=69 v=76
10884 Off ch=2 n=69 v=0
10942 On ch=2 n=67 v=76
11096 Off ch=2 n=67 v=0
11132 On ch=2 n=64 v=76
11280 Off ch=2 n=64 v=0
11329 On ch=2 n=62 v=76
11467 Off ch=2 n=62 v=0
11523 On ch=2 n=64 v=76
11578 Off ch=2 n=64 v=0
11615 On ch=2 n=62 v=76
11667 Off ch=2 n=62 v=0
11704 On ch=2 n=60 v=76
11741 Off ch=2 n=60 v=0
11814 On ch=2 n=57 v=76
11966 Off ch=2 n=57 v=0
12000 On ch=2 n=57 v=76
12112 Off ch=2 n=57 v=0
12197 On ch=2 n=57 v=76
12255 Off ch=2 n=57 v=0
12300 On ch=2 n=62 v=76
12452 Off ch=2 n=62 v=0
12493 On ch=2 n=60 v=76
12645 Off ch=2 n=60 v=0
12685 On ch=2 n=59 v=76
12829 Off ch=2 n=59 v=0
12878 On ch=2 n=57 v=76
12994 Off ch=2 n=57 v=0
13057 On ch=2 n=59 v=76
13120 Off ch=2 n=59 v=0
13147 On ch=2 n=57 v=76
13223 Off ch=2 n=57 v=0
13245 On ch=2 n=55 v=76
13290 Off ch=2 n=55 v=0
13344 On ch=2 n=52 v=76
13469 Off ch=2 n=52 v=0
13536 On ch=2 n=57 v=76
13677 Off ch=2 n=57 v=0
13728 On ch=2 n=57 v=76
13771 Off ch=2 n=57 v=0
13824 On ch=2 n=64 v=76
13969 Off ch=2 n=64 v=0
14016 On ch=2 n=62 v=76
14163 Off ch=2 n=62 v=0
14208 On ch=2 n=60 v=76
14359 Off ch=2 n=60 v=0
14400 On ch=2 n=57 v=76
14560 Off ch=2 n=57 v=0
14592 On ch=2 n=60 v=76
14675 Off ch=2 n=60 v=0
14686 On ch=2 n=59 v=76
14744 Off ch=2 n=59 v=0
14760 On ch=2 n=57 v=76
14843 Off ch=2 n=57 v=0
14881 On ch=2 n=59 v=76
15069 Off ch=2 n=59 v=0
15080 On ch=2 n=57 v=76
15123 Off ch=2 n=57 v=0
15170 On ch=2 n=55 v=76
15321 Off ch=2 n=55 v=0
15361 On ch=2 n=57 v=76
16057 Off ch=2 n=57 v=0
19776 On ch=2 n=57 v=76
19816 Off ch=2 n=57 v=0
19872 On ch=2 n=57 v=76
19912 Off ch=2 n=57 v=0
19968 On ch=2 n=64 v=76
20122 Off ch=2 n=64 v=0
20156 On ch=2 n=62 v=76
20312 Off ch=2 n=62 v=0
20349 On ch=2 n=60 v=76
20392 Off ch=2 n=60 v=0
20448 On ch=2 n=57 v=76
20681 Off ch=2 n=57 v=0
20738 On ch=2 n=67 v=76
20799 Off ch=2 n=67 v=0
20834 On ch=2 n=66 v=76
20880 Off ch=2 n=66 v=0
20929 On ch=2 n=64 v=76
20984 Off ch=2 n=64 v=0
21030 On ch=2 n=66 v=76
21175 Off ch=2 n=66 v=0
21215 On ch=2 n=64 v=76
21258 Off ch=2 n=64 v=0
21307 On ch=2 n=62 v=76
21433 Off ch=2 n=62 v=0
21504 On ch=2 n=64 v=76
21962 Off ch=2 n=64 v=0
21985 On ch=2 n=64 v=76
22010 Off ch=2 n=64 v=0
22032 On ch=2 n=62 v=76
22069 Off ch=2 n=62 v=0
22080 On ch=2 n=64 v=76
22132 Off ch=2 n=64 v=0
22176 On ch=2 n=67 v=76
22222 Off ch=2 n=67 v=0
22272 On ch=2 n=64 v=76
22819 Off ch=2 n=64 v=0
22846 On ch=2 n=57 v=76
22889 Off ch=2 n=57 v=0
22942 On ch=2 n=57 v=76
22982 Off ch=2 n=57 v=0
23038 On ch=2 n=64 v=76
23195 Off ch=2 n=64 v=0
23232 On ch=2 n=62 v=76
23379 Off ch=2 n=62 v=0
23424 On ch=2 n=60 v=76
23458 Off ch=2 n=60 v=0
23518 On ch=2 n=57 v=76
23769 Off ch=2 n=57 v=0
23808 On ch=2 n=67 v=76
23872 Off ch=2 n=67 v=0
23900 On ch=2 n=66 v=76
23952 Off ch=2 n=66 v=0
23998 On ch=2 n=64 v=76
24047 Off ch=2 n=64 v=0
24095 On ch=2 n=66 v=76
24240 Off ch=2 n=66 v=0
24274 On ch=2 n=64 v=76
24321 Off ch=2 n=64 v=0
24382 On ch=2 n=62 v=76
24520 Off ch=2 n=62 v=0
24576 On ch=2 n=64 v=76
24992 Off ch=2 n=64 v=0
25056 On ch=2 n=64 v=76
25080 Off ch=2 n=64 v=0
25098 On ch=2 n=62 v=76
25138 On ch=2 n=64 v=76
25138 Off ch=2 n=62 v=0
25190 Off ch=2 n=64 v=0
25248 On ch=2 n=67 v=76
25279 Off ch=2 n=67 v=0
25342 On ch=2 n=64 v=76
25745 Off ch=2 n=64 v=0
25909 On ch=2 n=64 v=76
25943 Off ch=2 n=64 v=0
26013 On ch=2 n=64 v=76
26053 Off ch=2 n=64 v=0
26112 On ch=2 n=69 v=76
26244 Off ch=2 n=69 v=0
26302 On ch=2 n=67 v=76
26456 Off ch=2 n=67 v=0
26492 On ch=2 n=64 v=76
26640 Off ch=2 n=64 v=0
26689 On ch=2 n=62 v=76
26827 Off ch=2 n=62 v=0
26883 On ch=2 n=64 v=76
26938 Off ch=2 n=64 v=0
26975 On ch=2 n=62 v=76
27027 Off ch=2 n=62 v=0
27064 On ch=2 n=60 v=76
27101 Off ch=2 n=60 v=0
27174 On ch=2 n=57 v=76
27326 Off ch=2 n=57 v=0
27360 On ch=2 n=57 v=76
27472 Off ch=2 n=57 v=0
27557 On ch=2 n=57 v=76
27615 Off ch=2 n=57 v=0
27660 On ch=2 n=62 v=76
27812 Off ch=2 n=62 v=0
27853 On ch=2 n=60 v=76
28005 Off ch=2 n=60 v=0
28045 On ch=2 n=59 v=76
28189 Off ch=2 n=59 v=0
28238 On ch=2 n=57 v=76
28354 Off ch=2 n=57 v=0
28417 On ch=2 n=59 v=76
28480 Off ch=2 n=59 v=0
28507 On ch=2 n=57 v=76
28583 Off ch=2 n=57 v=0
28605 On ch=2 n=55 v=76
28650 Off ch=2 n=55 v=0
28704 On ch=2 n=52 v=76
28829 Off ch=2 n=52 v=0
28896 On ch=2 n=57 v=76
29037 Off ch=2 n=57 v=0
29088 On ch=2 n=57 v=76
29131 Off ch=2 n=57 v=0
29184 On ch=2 n=64 v=76
29329 Off ch=2 n=64 v=0
29376 On ch=2 n=62 v=76
29523 Off ch=2 n=62 v=0
29568 On ch=2 n=60 v=76
29719 Off ch=2 n=60 v=0
29760 On ch=2 n=57 v=76
29920 Off ch=2 n=57 v=0
29952 On ch=2 n=60 v=76
30035 Off ch=2 n=60 v=0
30046 On ch=2 n=59 v=76
30104 Off ch=2 n=59 v=0
30120 On ch=2 n=57 v=76
30203 Off ch=2 n=57 v=0
30241 On ch=2 n=59 v=76
30429 Off ch=2 n=59 v=0
30440 On ch=2 n=57 v=76
30483 Off ch=2 n=57 v=0
30530 On ch=2 n=55 v=76
30681 Off ch=2 n=55 v=0
30721 On ch=2 n=57 v=76
31417 Off ch=2 n=57 v=0
37056 On ch=2 n=62 v=76
37114 Off ch=2 n=62 v=0
37152 On ch=2 n=60 v=76
37206 Off ch=2 n=60 v=0
37248 On ch=2 n=62 v=76
37391 Off ch=2 n=62 v=0
37440 On ch=2 n=62 v=76
37507 Off ch=2 n=62 v=0
37520 On ch=2 n=60 v=76
37588 Off ch=2 n=60 v=0
37632 On ch=2 n=62 v=76
37717 Off ch=2 n=62 v=0
37728 On ch=2 n=60 v=76
37813 Off ch=2 n=60 v=0
37824 On ch=2 n=57 v=76
37877 Off ch=2 n=57 v=0
37920 On ch=2 n=55 v=76
38170 Off ch=2 n=55 v=0
38208 On ch=2 n=57 v=76
38383 Off ch=2 n=57 v=0
40128 On ch=2 n=67 v=76
40197 Off ch=2 n=67 v=0
40224 On ch=2 n=71 v=76
40289 Off ch=2 n=71 v=0
40331 On ch=2 n=72 v=76
40488 Off ch=2 n=72 v=0
40523 On ch=2 n=74 v=76
40586 Off ch=2 n=74 v=0
40629 On ch=2 n=76 v=76
40804 On ch=2 n=74 v=76
40811 Off ch=2 n=76 v=0
40896 On ch=2 n=72 v=76
40907 Off ch=2 n=74 v=0
41026 Off ch=2 n=72 v=0
41088 On ch=2 n=69 v=76
41525 Off ch=2 n=69 v=0
41568 On ch=2 n=62 v=76
41613 Off ch=2 n=62 v=0
41664 On ch=2 n=62 v=76
41707 Off ch=2 n=62 v=0
41760 On ch=2 n=62 v=76
41811 Off ch=2 n=62 v=0
41856 On ch=2 n=62 v=76
42023 Off ch=2 n=62 v=0
42048 On ch=2 n=60 v=76
42193 Off ch=2 n=60 v=0
42240 On ch=2 n=62 v=76
42504 On ch=2 n=65 v=76
42509 Off ch=2 n=62 v=0
42682 Off ch=2 n=65 v=0
42707 On ch=2 n=67 v=76
42781 Off ch=2 n=67 v=0
42816 On ch=2 n=67 v=76
43095 Off ch=2 n=67 v=0
43104 On ch=2 n=67 v=76
43142 Off ch=2 n=67 v=0
43200 On ch=2 n=67 v=76
43250 Off ch=2 n=67 v=0
43296 On ch=2 n=67 v=76
43351 Off ch=2 n=67 v=0
43392 On ch=2 n=67 v=76
43521 Off ch=2 n=67 v=0
43580 On ch=2 n=65 v=76
43726 Off ch=2 n=65 v=0
43776 On ch=2 n=67 v=76
44016 Off ch=2 n=67 v=0
44064 On ch=2 n=65 v=76
44219 Off ch=2 n=65 v=0
44232 On ch=2 n=62 v=76
44299 Off ch=2 n=62 v=0
44352 On ch=2 n=60 v=76
44503 Off ch=2 n=60 v=0
44504 On ch=2 n=62 v=76
44615 Off ch=2 n=62 v=0
44640 On ch=2 n=62 v=76
44693 Off ch=2 n=62 v=0
44736 On ch=2 n=62 v=76
44784 Off ch=2 n=62 v=0
44832 On ch=2 n=62 v=76
44878 Off ch=2 n=62 v=0
44928 On ch=2 n=62 v=76
45081 Off ch=2 n=62 v=0
45120 On ch=2 n=60 v=76
45255 Off ch=2 n=60 v=0
45312 On ch=2 n=57 v=76
45582 On ch=2 n=55 v=76
45687 Off ch=2 n=57 v=0
45759 Off ch=2 n=55 v=0
45782 On ch=2 n=57 v=76
45888 On ch=2 n=60 v=76
45940 Off ch=2 n=60 v=0
45972 Off ch=2 n=57 v=0
46081 On ch=2 n=62 v=76
46842 Off ch=2 n=62 v=0
52032 On ch=2 n=57 v=76
52072 Off ch=2 n=57 v=0
52128 On ch=2 n=57 v=76
52168 Off ch=2 n=57 v=0
52224 On ch=2 n=64 v=76
52378 Off ch=2 n=64 v=0
52412 On ch=2 n=62 v=76
52568 Off ch=2 n=62 v=0
52605 On ch=2 n=60 v=76
52648 Off ch=2 n=60 v=0
52704 On ch=2 n=57 v=76
52937 Off ch=2 n=57 v=0
52994 On ch=2 n=67 v=76
53055 Off ch=2 n=67 v=0
53090 On ch=2 n=66 v=76
53136 Off ch=2 n=66 v=0
53185 On ch=2 n=64 v=76
53240 Off ch=2 n=64 v=0
53286 On ch=2 n=66 v=76
53431 Off ch=2 n=66 v=0
53471 On ch=2 n=64 v=76
53514 Off ch=2 n=64 v=0
53563 On ch=2 n=62 v=76
53689 Off ch=2 n=62 v=0
53760 On ch=2 n=64 v=76
54218 Off ch=2 n=64 v=0
54241 On ch=2 n=64 v=76
54266 Off ch=2 n=64 v=0
54288 On ch=2 n=62 v=76
54325 Off ch=2 n=62 v=0
54336 On ch=2 n=64 v=76
54388 Off ch=2 n=64 v=0
54432 On ch=2 n=67 v=76
54478 Off ch=2 n=67 v=0
54528 On ch=2 n=64 v=76
55075 Off ch=2 n=64 v=0
55102 On ch=2 n=57 v=76
55145 Off ch=2 n=57 v=0
55198 On ch=2 n=57 v=76
55238 Off ch=2 n=57 v=0
55294 On ch=2 n=64 v=76
55451 Off ch=2 n=64 v=0
55488 On ch=2 n=62 v=76
55635 Off ch=2 n=62 v=0
55680 On ch=2 n=60 v=76
55714 Off ch=2 n=60 v=0
55774 On ch=2 n=57 v=76
56025 Off ch=2 n=57 v=0
56064 On ch=2 n=67 v=76
56128 Off ch=2 n=67 v=0
56156 On ch=2 n=66 v=76
56208 Off ch=2 n=66 v=0
56254 On ch=2 n=64 v=76
56303 Off ch=2 n=64 v=0
56351 On ch=2 n=66 v=76
56496 Off ch=2 n=66 v=0
56530 On ch=2 n=64 v=76
56577 Off ch=2 n=64 v=0
56638 On ch=2 n=62 v=76
56776 Off ch=2 n=62 v=0
56832 On ch=2 n=64 v=76
57248 Off ch=2 n=64 v=0
57312 On ch=2 n=64 v=76
57336 Off ch=2 n=64 v=0
57354 On ch=2 n=62 v=76
57394 On ch=2 n=64 v=76
57394 Off ch=2 n=62 v=0
57446 Off ch=2 n=64 v=0
57504 On ch=2 n=67 v=76
57535 Off ch=2 n=67 v=0
57598 On ch=2 n=64 v=76
58001 Off ch=2 n=64 v=0
58165 On ch=2 n=64 v=76
58199 Off ch=2 n=64 v=0
58269 On ch=2 n=64 v=76
58309 Off ch=2 n=64 v=0
58368 On ch=2 n=69 v=76
58500 Off ch=2 n=69 v=0
58558 On ch=2 n=67 v=76
58712 Off ch=2 n=67 v=0
58748 On ch=2 n=64 v=76
58896 Off ch=2 n=64 v=0
58945 On ch=2 n=62 v=76
59083 Off ch=2 n=62 v=0
59139 On ch=2 n=64 v=76
59194 Off ch=2 n=64 v=0
59231 On ch=2 n=62 v=76
59283 Off ch=2 n=62 v=0
59320 On ch=2 n=60 v=76
59357 Off ch=2 n=60 v=0
59430 On ch=2 n=57 v=76
59582 Off ch=2 n=57 v=0
59616 On ch=2 n=57 v=76
59728 Off ch=2 n=57 v=0
59813 On ch=2 n=57 v=76
59871 Off ch=2 n=57 v=0
59916 On ch=2 n=62 v=76
60068 Off ch=2 n=62 v=0
60109 On ch=2 n=60 v=76
60261 Off ch=2 n=60 v=0
60301 On ch=2 n=59 v=76
60445 Off ch=2 n=59 v=0
60494 On ch=2 n=57 v=76
60610 Off ch=2 n=57 v=0
60673 On ch=2 n=59 v=76
60736 Off ch=2 n=59 v=0
60763 On ch=2 n=57 v=76
60839 Off ch=2 n=57 v=0
60861 On ch=2 n=55 v=76
60906 Off ch=2 n=55 v=0
60960 On ch=2 n=52 v=76
61085 Off ch=2 n=52 v=0
61152 On ch=2 n=57 v=76
61293 Off ch=2 n=57 v=0
61344 On ch=2 n=57 v=76
61387 Off ch=2 n=57 v=0
61440 On ch=2 n=64 v=76
61585 Off ch=2 n=64 v=0
61632 On ch=2 n=62 v=76
61779 Off ch=2 n=62 v=0
61824 On ch=2 n=60 v=76
61975 Off ch=2 n=60 v=0
62016 On ch=2 n=57 v=76
62176 Off ch=2 n=57 v=0
62208 On ch=2 n=60 v=76
62291 Off ch=2 n=60 v=0
62302 On ch=2 n=59 v=76
62360 Off ch=2 n=59 v=0
62376 On ch=2 n=57 v=76
62459 Off ch=2 n=57 v=0
62497 On ch=2 n=59 v=76
62685 Off ch=2 n=59 v=0
62696 On ch=2 n=57 v=76
62739 Off ch=2 n=57 v=0
62786 On ch=2 n=55 v=76
62937 Off ch=2 n=55 v=0
62977 On ch=2 n=57 v=76
63673 Off ch=2 n=57 v=0
64241 On ch=2 n=57 v=76
64303 Off ch=2 n=57 v=0
64326 On ch=2 n=59 v=76
64481 Off ch=2 n=59 v=0
64536 On ch=2 n=60 v=76
64792 Off ch=2 n=60 v=0
64837 On ch=2 n=60 v=76
64995 Off ch=2 n=60 v=0
65025 On ch=2 n=59 v=76
65102 Off ch=2 n=59 v=0
65119 On ch=2 n=57 v=76
65276 Off ch=2 n=57 v=0
65312 On ch=2 n=59 v=76
65555 Off ch=2 n=59 v=0
65599 On ch=2 n=59 v=76
65751 Off ch=2 n=59 v=0
65770 On ch=2 n=57 v=76
65832 Off ch=2 n=57 v=0
65860 On ch=2 n=55 v=76
66008 Off ch=2 n=55 v=0
66050 On ch=2 n=57 v=76
66586 Off ch=2 n=57 v=0
66612 On ch=2 n=64 v=76
66768 Off ch=2 n=64 v=0
66813 On ch=2 n=57 v=76
67256 Off ch=2 n=57 v=0
67306 On ch=2 n=52 v=76
67371 On ch=2 n=55 v=76
67379 Off ch=2 n=52 v=0
67527 Off ch=2 n=55 v=0
67560 On ch=2 n=52 v=76
67984 Off ch=2 n=52 v=0
68048 On ch=2 n=47 v=76
68130 On ch=2 n=50 v=76
68146 Off ch=2 n=47 v=0
68296 Off ch=2 n=50 v=0
68335 On ch=2 n=45 v=76
69024 On ch=2 n=60 v=76
69030 Off ch=2 n=45 v=0
69076 Off ch=2 n=60 v=0
69120 On ch=2 n=62 v=76
69246 Off ch=2 n=62 v=0
69312 On ch=2 n=60 v=76
69381 Off ch=2 n=60 v=0
69416 On ch=2 n=62 v=76
69541 Off ch=2 n=62 v=0
69600 On ch=2 n=60 v=76
69661 Off ch=2 n=60 v=0
69696 On ch=2 n=62 v=76
69753 Off ch=2 n=62 v=0
69776 On ch=2 n=60 v=76
69845 Off ch=2 n=60 v=0
69888 On ch=2 n=57 v=76
70508 Off ch=2 n=57 v=0
70560 On ch=2 n=60 v=76
70611 Off ch=2 n=60 v=0
70648 On ch=2 n=62 v=76
70823 Off ch=2 n=62 v=0
70840 On ch=2 n=60 v=76
70900 Off ch=2 n=60 v=0
70952 On ch=2 n=62 v=76
71101 Off ch=2 n=62 v=0
71136 On ch=2 n=60 v=76
71210 Off ch=2 n=60 v=0
71232 On ch=2 n=62 v=76
71292 Off ch=2 n=62 v=0
71320 On ch=2 n=60 v=76
71394 Off ch=2 n=60 v=0
71424 On ch=2 n=57 v=76
72100 Off ch=2 n=57 v=0
72113 On ch=2 n=60 v=76
72193 Off ch=2 n=60 v=0
72196 On ch=2 n=62 v=76
72343 Off ch=2 n=62 v=0
72384 On ch=2 n=60 v=76
72466 Off ch=2 n=60 v=0
72480 On ch=2 n=62 v=76
72645 Off ch=2 n=62 v=0
72656 On ch=2 n=60 v=76
72752 Off ch=2 n=60 v=0
72768 On ch=2 n=62 v=76
72843 Off ch=2 n=62 v=0
72864 On ch=2 n=60 v=76
72934 Off ch=2 n=60 v=0
72960 On ch=2 n=57 v=76
73591 Off ch=2 n=57 v=0
73640 On ch=2 n=60 v=76
73704 Off ch=2 n=60 v=0
73728 On ch=2 n=62 v=76
73897 Off ch=2 n=62 v=0
73920 On ch=2 n=60 v=76
73999 Off ch=2 n=60 v=0
74016 On ch=2 n=62 v=76
74177 Off ch=2 n=62 v=0
74184 On ch=2 n=60 v=76
74276 Off ch=2 n=60 v=0
74304 On ch=2 n=62 v=76
74496 On ch=2 n=67 v=76
74497 Off ch=2 n=62 v=0
74839 Off ch=2 n=67 v=0
74880 On ch=2 n=69 v=76
75263 Off ch=2 n=69 v=0
75264 On ch=2 n=74 v=76
75631 Off ch=2 n=74 v=0
75648 On ch=2 n=69 v=76
75839 Off ch=2 n=69 v=0
75840 On ch=2 n=74 v=76
76017 On ch=2 n=79 v=76
76117 Off ch=2 n=74 v=0
76220 On ch=2 n=77 v=76
76250 Off ch=2 n=79 v=0
76411 Off ch=2 n=77 v=0
76417 On ch=2 n=76 v=76
76592 Off ch=2 n=76 v=0
76605 On ch=2 n=74 v=76
76704 On ch=2 n=72 v=76
76720 Off ch=2 n=74 v=0
76783 Off ch=2 n=72 v=0
76800 On ch=2 n=74 v=76
76902 On ch=2 n=72 v=76
76938 Off ch=2 n=74 v=0
76984 On ch=2 n=71 v=76
76997 Off ch=2 n=72 v=0
77076 Off ch=2 n=71 v=0
77083 On ch=2 n=69 v=76
77567 Off ch=2 n=69 v=0
77567 SeqSpec 24 24 00 08 00 00 00 00 00 01 2e ff 00 01 2f 00
77567 SeqSpec 24 24 00 01 05
77567 SeqSpec 24 24 00 06 04 04
77567 SeqSpec 24 24 00 02 01
77568 Meta TrkEnd
TrkEnd
MTrk
0 SeqNr 4
0 Meta TrkName "Bass"
0 PrCh ch=9 p=33
1536 On ch=9 n=45 v=88
1724 Off ch=9 n=45 v=0
1825 On ch=9 n=45 v=88
1870 Off ch=9 n=45 v=0
1920 On ch=9 n=40 v=88
2041 Off ch=9 n=40 v=0
2113 On ch=9 n=40 v=88
2158 Off ch=9 n=40 v=0
2209 On ch=9 n=45 v=88
2338 Off ch=9 n=45 v=0
2401 On ch=9 n=45 v=88
2544 Off ch=9 n=45 v=0
2593 On ch=9 n=45 v=88
2642 Off ch=9 n=45 v=0
2690 On ch=9 n=40 v=88
2726 Off ch=9 n=40 v=0
2784 On ch=9 n=40 v=88
2829 Off ch=9 n=40 v=0
2881 On ch=9 n=43 v=88
2993 Off ch=9 n=43 v=0
3072 On ch=9 n=45 v=88
3260 Off ch=9 n=45 v=0
3361 On ch=9 n=45 v=88
3406 Off ch=9 n=45 v=0
3456 On ch=9 n=40 v=88
3577 Off ch=9 n=40 v=0
3649 On ch=9 n=40 v=88
3694 Off ch=9 n=40 v=0
3745 On ch=9 n=45 v=88
3874 Off ch=9 n=45 v=0
3937 On ch=9 n=45 v=88
4080 Off ch=9 n=45 v=0
4129 On ch=9 n=45 v=88
4178 Off ch=9 n=45 v=0
4226 On ch=9 n=40 v=88
4262 Off ch=9 n=40 v=0
4320 On ch=9 n=40 v=88
4365 Off ch=9 n=40 v=0
4417 On ch=9 n=43 v=88
4529 Off ch=9 n=43 v=0
4608 On ch=9 n=45 v=88
4796 Off ch=9 n=45 v=0
4897 On ch=9 n=45 v=88
4942 Off ch=9 n=45 v=0
4992 On ch=9 n=40 v=88
5240 Off ch=9 n=40 v=0
5281 On ch=9 n=45 v=88
5410 Off ch=9 n=45 v=0
5473 On ch=9 n=45 v=88
5616 Off ch=9 n=45 v=0
5665 On ch=9 n=45 v=88
5714 Off ch=9 n=45 v=0
5762 On ch=9 n=40 v=88
5798 Off ch=9 n=40 v=0
5856 On ch=9 n=40 v=88
5901 Off ch=9 n=40 v=0
5954 On ch=9 n=43 v=88
6066 Off ch=9 n=43 v=0
6145 On ch=9 n=45 v=88
6365 Off ch=9 n=45 v=0
6433 On ch=9 n=45 v=88
6478 Off ch=9 n=45 v=0
6528 On ch=9 n=40 v=88
6672 Off ch=9 n=40 v=0
6720 On ch=9 n=40 v=88
6765 Off ch=9 n=40 v=0
6816 On ch=9 n=45 v=88
6937 Off ch=9 n=45 v=0
7008 On ch=9 n=45 v=88
7147 Off ch=9 n=45 v=0
7200 On ch=9 n=45 v=88
7250 Off ch=9 n=45 v=0
7296 On ch=9 n=40 v=88
7341 Off ch=9 n=40 v=0
7392 On ch=9 n=40 v=88
7428 Off ch=9 n=40 v=0
7490 On ch=9 n=43 v=88
7589 Off ch=9 n=43 v=0
7680 On ch=9 n=45 v=88
7868 Off ch=9 n=45 v=0
7969 On ch=9 n=45 v=88
8014 Off ch=9 n=45 v=0
8064 On ch=9 n=40 v=88
8185 Off ch=9 n=40 v=0
8257 On ch=9 n=40 v=88
8302 Off ch=9 n=40 v=0
8353 On ch=9 n=45 v=88
8482 Off ch=9 n=45 v=0
8545 On ch=9 n=45 v=88
8688 Off ch=9 n=45 v=0
8737 On ch=9 n=45 v=88
8786 Off ch=9 n=45 v=0
8835 On ch=9 n=40 v=88
8871 Off ch=9 n=40 v=0
8928 On ch=9 n=40 v=88
8973 Off ch=9 n=40 v=0
9028 On ch=9 n=43 v=88
9140 Off ch=9 n=43 v=0
9217 On ch=9 n=45 v=88
9437 Off ch=9 n=45 v=0
9505 On ch=9 n=45 v=88
9550 Off ch=9 n=45 v=0
9600 On ch=9 n=40 v=88
9848 Off ch=9 n=40 v=0
9888 On ch=9 n=45 v=88
10009 Off ch=9 n=45 v=0
10080 On ch=9 n=45 v=88
10219 Off ch=9 n=45 v=0
10272 On ch=9 n=45 v=88
10322 Off ch=9 n=45 v=0
10368 On ch=9 n=40 v=88
10413 Off ch=9 n=40 v=0
10464 On ch=9 n=40 v=88
10500 Off ch=9 n=40 v=0
10561 On ch=9 n=43 v=88
10660 Off ch=9 n=43 v=0
10754 On ch=9 n=45 v=88
11009 Off ch=9 n=45 v=0
11065 On ch=9 n=45 v=88
11136 Off ch=9 n=45 v=0
11162 On ch=9 n=43 v=88
11422 Off ch=9 n=43 v=0
11472 On ch=9 n=43 v=88
11522 Off ch=9 n=43 v=0
11570 On ch=9 n=41 v=88
11633 Off ch=9 n=41 v=0
11667 On ch=9 n=41 v=88
11747 Off ch=9 n=41 v=0
11807 On ch=9 n=40 v=88
12009 Off ch=9 n=40 v=0
12023 On ch=9 n=40 v=88
12059 Off ch=9 n=40 v=0
12101 On ch=9 n=40 v=88
12227 Off ch=9 n=40 v=0
12311 On ch=9 n=43 v=88
12562 Off ch=9 n=43 v=0
12620 On ch=9 n=43 v=88
12688 Off ch=9 n=43 v=0
12714 On ch=9 n=41 v=88
12947 Off ch=9 n=41 v=0
12988 On ch=9 n=41 v=88
13059 Off ch=9 n=41 v=0
13086 On ch=9 n=40 v=88
13140 Off ch=9 n=40 v=0
13185 On ch=9 n=40 v=88
13306 Off ch=9 n=40 v=0
13360 On ch=9 n=38 v=88
13536 On ch=9 n=38 v=88
13567 Off ch=9 n=38 v=0
13632 On ch=9 n=38 v=88
13731 Off ch=9 n=38 v=0
13771 Off ch=9 n=38 v=0
13824 On ch=9 n=41 v=88
14053 Off ch=9 n=41 v=0
14112 On ch=9 n=41 v=88
14179 Off ch=9 n=41 v=0
14200 On ch=9 n=40 v=88
14424 Off ch=9 n=40 v=0
14484 On ch=9 n=40 v=88
14560 Off ch=9 n=40 v=0
14592 On ch=9 n=38 v=88
14651 Off ch=9 n=38 v=0
14690 On ch=9 n=38 v=88
14793 Off ch=9 n=38 v=0
14880 On ch=9 n=36 v=88
15068 Off ch=9 n=36 v=0
15072 On ch=9 n=38 v=88
15108 Off ch=9 n=38 v=0
15168 On ch=9 n=41 v=88
15360 On ch=9 n=45 v=88
15360 Off ch=9 n=41 v=0
15369 On ch=9 n=45 v=88
15548 Off ch=9 n=45 v=0
15649 On ch=9 n=45 v=88
15694 Off ch=9 n=45 v=0
15744 On ch=9 n=40 v=88
15865 Off ch=9 n=40 v=0
15937 On ch=9 n=40 v=88
15982 Off ch=9 n=40 v=0
16033 On ch=9 n=45 v=88
16162 Off ch=9 n=45 v=0
16193 Off ch=9 n=45 v=0
16225 On ch=9 n=45 v=88
16368 Off ch=9 n=45 v=0
16417 On ch=9 n=45 v=88
16466 Off ch=9 n=45 v=0
16514 On ch=9 n=40 v=88
16550 Off ch=9 n=40 v=0
16608 On ch=9 n=40 v=88
16653 Off ch=9 n=40 v=0
16705 On ch=9 n=43 v=88
16817 Off ch=9 n=43 v=0
16896 On ch=9 n=45 v=88
17084 Off ch=9 n=45 v=0
17185 On ch=9 n=45 v=88
17230 Off ch=9 n=45 v=0
17280 On ch=9 n=40 v=88
17401 Off ch=9 n=40 v=0
17473 On ch=9 n=40 v=88
17518 Off ch=9 n=40 v=0
17569 On ch=9 n=45 v=88
17698 Off ch=9 n=45 v=0
17761 On ch=9 n=45 v=88
17904 Off ch=9 n=45 v=0
17953 On ch=9 n=45 v=88
18002 Off ch=9 n=45 v=0
18050 On ch=9 n=40 v=88
18086 Off ch=9 n=40 v=0
18144 On ch=9 n=40 v=88
18189 Off ch=9 n=40 v=0
18241 On ch=9 n=43 v=88
18346 Off ch=9 n=43 v=0
18432 On ch=9 n=45 v=88
18620 Off ch=9 n=45 v=0
18721 On ch=9 n=45 v=88
18766 Off ch=9 n=45 v=0
18816 On ch=9 n=40 v=88
18937 Off ch=9 n=40 v=0
19009 On ch=9 n=40 v=88
19054 Off ch=9 n=40 v=0
19105 On ch=9 n=45 v=88
19234 Off ch=9 n=45 v=0
19297 On ch=9 n=45 v=88
19440 Off ch=9 n=45 v=0
19489 On ch=9 n=45 v=88
19538 Off ch=9 n=45 v=0
19586 On ch=9 n=40 v=88
19622 Off ch=9 n=40 v=0
19680 On ch=9 n=40 v=88
19725 Off ch=9 n=40 v=0
19777 On ch=9 n=43 v=88
19889 Off ch=9 n=43 v=0
19968 On ch=9 n=45 v=88
20156 Off ch=9 n=45 v=0
20257 On ch=9 n=45 v=88
20302 Off ch=9 n=45 v=0
20352 On ch=9 n=40 v=88
20600 Off ch=9 n=40 v=0
20641 On ch=9 n=45 v=88
20770 Off ch=9 n=45 v=0
20833 On ch=9 n=45 v=88
20976 Off ch=9 n=45 v=0
21025 On ch=9 n=45 v=88
21074 Off ch=9 n=45 v=0
21122 On ch=9 n=40 v=88
21158 Off ch=9 n=40 v=0
21216 On ch=9 n=40 v=88
21261 Off ch=9 n=40 v=0
21314 On ch=9 n=43 v=88
21426 Off ch=9 n=43 v=0
21505 On ch=9 n=45 v=88
21725 Off ch=9 n=45 v=0
21793 On ch=9 n=45 v=88
21838 Off ch=9 n=45 v=0
21888 On ch=9 n=40 v=88
22032 Off ch=9 n=40 v=0
22080 On ch=9 n=40 v=88
22125 Off ch=9 n=40 v=0
22176 On ch=9 n=45 v=88
22297 Off ch=9 n=45 v=0
22368 On ch=9 n=45 v=88
22507 Off ch=9 n=45 v=0
22560 On ch=9 n=45 v=88
22610 Off ch=9 n=45 v=0
22656 On ch=9 n=40 v=88
22701 Off ch=9 n=40 v=0
22752 On ch=9 n=40 v=88
22788 Off ch=9 n=40 v=0
22850 On ch=9 n=43 v=88
22949 Off ch=9 n=43 v=0
23040 On ch=9 n=45 v=88
23228 Off ch=9 n=45 v=0
23329 On ch=9 n=45 v=88
23374 Off ch=9 n=45 v=0
23424 On ch=9 n=40 v=88
23545 Off ch=9 n=40 v=0
23617 On ch=9 n=40 v=88
23662 Off ch=9 n=40 v=0
23713 On ch=9 n=45 v=88
23842 Off ch=9 n=45 v=0
23905 On ch=9 n=45 v=88
24048 Off ch=9 n=45 v=0
24097 On ch=9 n=45 v=88
24146 Off ch=9 n=45 v=0
24195 On ch=9 n=40 v=88
24231 Off ch=9 n=40 v=0
24288 On ch=9 n=40 v=88
24333 Off ch=9 n=40 v=0
24388 On ch=9 n=43 v=88
24500 Off ch=9 n=43 v=0
24577 On ch=9 n=45 v=88
24797 Off ch=9 n=45 v=0
24865 On ch=9 n=45 v=88
24910 Off ch=9 n=45 v=0
24960 On ch=9 n=40 v=88
25208 Off ch=9 n=40 v=0
25248 On ch=9 n=45 v=88
25369 Off ch=9 n=45 v=0
25440 On ch=9 n=45 v=88
25579 Off ch=9 n=45 v=0
25632 On ch=9 n=45 v=88
25682 Off ch=9 n=45 v=0
25728 On ch=9 n=40 v=88
25773 Off ch=9 n=40 v=0
25824 On ch=9 n=40 v=88
25860 Off ch=9 n=40 v=0
25921 On ch=9 n=43 v=88
26020 Off ch=9 n=43 v=0
26114 On ch=9 n=45 v=88
26369 Off ch=9 n=45 v=0
26425 On ch=9 n=45 v=88
26496 Off ch=9 n=45 v=0
26522 On ch=9 n=43 v=88
26782 Off ch=9 n=43 v=0
26832 On ch=9 n=43 v=88
26882 Off ch=9 n=43 v=0
26930 On ch=9 n=41 v=88
26993 Off ch=9 n=41 v=0
27027 On ch=9 n=41 v=88
27107 Off ch=9 n=41 v=0
27167 On ch=9 n=40 v=88
27369 Off ch=9 n=40 v=0
27383 On ch=9 n=40 v=88
27419 Off ch=9 n=40 v=0
27461 On ch=9 n=40 v=88
27587 Off ch=9 n=40 v=0
27671 On ch=9 n=43 v=88
27922 Off ch=9 n=43 v=0
27980 On ch=9 n=43 v=88
28048 Off ch=9 n=43 v=0
28074 On ch=9 n=41 v=88
28307 Off ch=9 n=41 v=0
28348 On ch=9 n=41 v=88
28419 Off ch=9 n=41 v=0
28446 On ch=9 n=40 v=88
28500 Off ch=9 n=40 v=0
28545 On ch=9 n=40 v=88
28666 Off ch=9 n=40 v=0
28720 On ch=9 n=38 v=88
28896 On ch=9 n=38 v=88
28927 Off ch=9 n=38 v=0
28992 On ch=9 n=38 v=88
29091 Off ch=9 n=38 v=0
29131 Off ch=9 n=38 v=0
29184 On ch=9 n=41 v=88
29413 Off ch=9 n=41 v=0
29472 On ch=9 n=41 v=88
29539 Off ch=9 n=41 v=0
29560 On ch=9 n=40 v=88
29784 Off ch=9 n=40 v=0
29844 On ch=9 n=40 v=88
29920 Off ch=9 n=40 v=0
29952 On ch=9 n=38 v=88
30011 Off ch=9 n=38 v=0
30050 On ch=9 n=38 v=88
30153 Off ch=9 n=38 v=0
30240 On ch=9 n=36 v=88
30428 Off ch=9 n=36 v=0
30432 On ch=9 n=38 v=88
30468 Off ch=9 n=38 v=0
30528 On ch=9 n=41 v=88
30720 On ch=9 n=45 v=88
30720 Off ch=9 n=41 v=0
30729 On ch=9 n=45 v=88
30908 Off ch=9 n=45 v=0
31009 On ch=9 n=45 v=88
31054 Off ch=9 n=45 v=0
31104 On ch=9 n=40 v=88
31225 Off ch=9 n=40 v=0
31297 On ch=9 n=40 v=88
31342 Off ch=9 n=40 v=0
31393 On ch=9 n=45 v=88
31522 Off ch=9 n=45 v=0
31553 Off ch=9 n=45 v=0
31585 On ch=9 n=45 v=88
31728 Off ch=9 n=45 v=0
31777 On ch=9 n=45 v=88
31826 Off ch=9 n=45 v=0
31874 On ch=9 n=40 v=88
31910 Off ch=9 n=40 v=0
31968 On ch=9 n=40 v=88
32013 Off ch=9 n=40 v=0
32065 On ch=9 n=43 v=88
32177 Off ch=9 n=43 v=0
32256 On ch=9 n=45 v=88
32265 On ch=9 n=45 v=88
32444 Off ch=9 n=45 v=0
32545 On ch=9 n=45 v=88
32590 Off ch=9 n=45 v=0
32640 On ch=9 n=40 v=88
32761 Off ch=9 n=40 v=0
32833 On ch=9 n=40 v=88
32878 Off ch=9 n=40 v=0
32929 On ch=9 n=45 v=88
33058 Off ch=9 n=45 v=0
33089 Off ch=9 n=45 v=0
33121 On ch=9 n=45 v=88
33264 Off ch=9 n=45 v=0
33313 On ch=9 n=45 v=88
33362 Off ch=9 n=45 v=0
33410 On ch=9 n=40 v=88
33446 Off ch=9 n=40 v=0
33504 On ch=9 n=40 v=88
33549 Off ch=9 n=40 v=0
33601 On ch=9 n=43 v=88
33713 Off ch=9 n=43 v=0
33792 On ch=9 n=45 v=88
33801 On ch=9 n=45 v=88
33980 Off ch=9 n=45 v=0
34081 On ch=9 n=45 v=88
34126 Off ch=9 n=45 v=0
34176 On ch=9 n=40 v=88
34297 Off ch=9 n=40 v=0
34369 On ch=9 n=40 v=88
34414 Off ch=9 n=40 v=0
34465 On ch=9 n=45 v=88
34594 Off ch=9 n=45 v=0
34625 Off ch=9 n=45 v=0
34657 On ch=9 n=45 v=88
34800 Off ch=9 n=45 v=0
34849 On ch=9 n=45 v=88
34898 Off ch=9 n=45 v=0
34946 On ch=9 n=40 v=88
34982 Off ch=9 n=40 v=0
35040 On ch=9 n=40 v=88
35085 Off ch=9 n=40 v=0
35137 On ch=9 n=43 v=88
35249 Off ch=9 n=43 v=0
35328 On ch=9 n=43 v=88
35571 Off ch=9 n=43 v=0
35616 On ch=9 n=41 v=88
35660 Off ch=9 n=41 v=0
35717 On ch=9 n=43 v=88
35915 Off ch=9 n=43 v=0
36000 On ch=9 n=41 v=88
36052 Off ch=9 n=41 v=0
36096 On ch=9 n=43 v=88
36246 Off ch=9 n=43 v=0
36253 On ch=9 n=41 v=88
36317 Off ch=9 n=41 v=0
36384 On ch=9 n=43 v=88
36526 Off ch=9 n=43 v=0
36560 On ch=9 n=38 v=88
36607 Off ch=9 n=38 v=0
36672 On ch=9 n=41 v=88
36855 Off ch=9 n=41 v=0
36858 On ch=9 n=43 v=88
37141 Off ch=9 n=43 v=0
37174 On ch=9 n=41 v=88
37231 Off ch=9 n=41 v=0
37248 On ch=9 n=43 v=88
37457 Off ch=9 n=43 v=0
37536 On ch=9 n=41 v=88
37589 Off ch=9 n=41 v=0
37632 On ch=9 n=43 v=88
37817 Off ch=9 n=43 v=0
37824 On ch=9 n=41 v=88
37884 Off ch=9 n=41 v=0
37920 On ch=9 n=43 v=88
38079 Off ch=9 n=43 v=0
38120 On ch=9 n=38 v=88
38186 Off ch=9 n=38 v=0
38211 On ch=9 n=41 v=88
38358 Off ch=9 n=41 v=0
38400 On ch=9 n=43 v=88
38656 Off ch=9 n=43 v=0
38720 On ch=9 n=41 v=88
38771 Off ch=9 n=41 v=0
38784 On ch=9 n=43 v=88
39043 Off ch=9 n=43 v=0
39072 On ch=9 n=41 v=88
39151 Off ch=9 n=41 v=0
39168 On ch=9 n=43 v=88
39351 Off ch=9 n=43 v=0
39360 On ch=9 n=41 v=88
39424 Off ch=9 n=41 v=0
39448 On ch=9 n=43 v=88
39586 Off ch=9 n=43 v=0
39640 On ch=9 n=38 v=88
39700 Off ch=9 n=38 v=0
39744 On ch=9 n=41 v=88
39883 Off ch=9 n=41 v=0
39933 On ch=9 n=43 v=88
40158 Off ch=9 n=43 v=0
40230 On ch=9 n=45 v=88
40278 Off ch=9 n=45 v=0
40321 On ch=9 n=47 v=88
40449 Off ch=9 n=47 v=0
40515 On ch=9 n=48 v=88
40550 Off ch=9 n=48 v=0
40616 On ch=9 n=50 v=88
40697 Off ch=9 n=50 v=0
40805 On ch=9 n=48 v=88
40844 Off ch=9 n=48 v=0
40893 On ch=9 n=45 v=88
40982 Off ch=9 n=45 v=0
41082 On ch=9 n=43 v=88
41189 On ch=9 n=38 v=88
41224 Off ch=9 n=43 v=0
41255 Off ch=9 n=38 v=0
41297 On ch=9 n=41 v=88
41379 Off ch=9 n=41 v=0
41480 On ch=9 n=43 v=88
41742 Off ch=9 n=43 v=0
41758 On ch=9 n=45 v=88
41813 Off ch=9 n=45 v=0
41859 On ch=9 n=47 v=88
42080 Off ch=9 n=47 v=0
42129 On ch=9 n=48 v=88
42167 Off ch=9 n=48 v=0
42220 On ch=9 n=47 v=88
42341 On ch=9 n=45 v=88
42343 Off ch=9 n=47 v=0
42475 Off ch=9 n=45 v=0
42524 On ch=9 n=43 v=88
42707 Off ch=9 n=43 v=0
42720 On ch=9 n=41 v=88
42799 Off ch=9 n=41 v=0
42816 On ch=9 n=38 v=88
42887 Off ch=9 n=38 v=0
42912 On ch=9 n=36 v=88
42991 Off ch=9 n=36 v=0
43008 On ch=9 n=31 v=88
43087 Off ch=9 n=31 v=0
43096 On ch=9 n=38 v=88
43162 Off ch=9 n=38 v=0
43195 On ch=9 n=41 v=88
43266 Off ch=9 n=41 v=0
43294 On ch=9 n=43 v=88
43354 Off ch=9 n=43 v=0
43390 On ch=9 n=45 v=88
43614 Off ch=9 n=45 v=0
43686 On ch=9 n=47 v=88
43729 Off ch=9 n=47 v=0
43795 On ch=9 n=45 v=88
43897 On ch=9 n=43 v=88
43904 Off ch=9 n=45 v=0
43984 Off ch=9 n=43 v=0
44066 On ch=9 n=38 v=88
44241 Off ch=9 n=38 v=0
44262 On ch=9 n=41 v=88
44306 Off ch=9 n=41 v=0
44349 On ch=9 n=43 v=88
44435 Off ch=9 n=43 v=0
44539 On ch=9 n=38 v=88
44775 Off ch=9 n=38 v=0
44811 On ch=9 n=36 v=88
44868 Off ch=9 n=36 v=0
44907 On ch=9 n=38 v=88
44979 Off ch=9 n=38 v=0
45006 On ch=9 n=41 v=88
45126 Off ch=9 n=41 v=0
45211 On ch=9 n=38 v=88
45474 Off ch=9 n=38 v=0
45504 On ch=9 n=36 v=88
45775 Off ch=9 n=36 v=0
45792 On ch=9 n=38 v=88
45835 Off ch=9 n=38 v=0
45888 On ch=9 n=41 v=88
45955 Off ch=9 n=41 v=0
46080 On ch=9 n=43 v=88
46328 Off ch=9 n=43 v=0
46368 On ch=9 n=41 v=88
46419 Off ch=9 n=41 v=0
46464 On ch=9 n=43 v=88
46711 Off ch=9 n=43 v=0
46752 On ch=9 n=41 v=88
46809 Off ch=9 n=41 v=0
46848 On ch=9 n=43 v=88
47015 Off ch=9 n=43 v=0
47032 On ch=9 n=41 v=88
47084 Off ch=9 n=41 v=0
47136 On ch=9 n=43 v=88
47283 Off ch=9 n=43 v=0
47328 On ch=9 n=38 v=88
47394 Off ch=9 n=38 v=0
47424 On ch=9 n=41 v=88
47566 Off ch=9 n=41 v=0
47612 On ch=9 n=43 v=88
47905 Off ch=9 n=43 v=0
49152 On ch=9 n=45 v=88
49340 Off ch=9 n=45 v=0
49441 On ch=9 n=45 v=88
49486 Off ch=9 n=45 v=0
49536 On ch=9 n=40 v=88
49657 Off ch=9 n=40 v=0
49729 On ch=9 n=40 v=88
49774 Off ch=9 n=40 v=0
49825 On ch=9 n=45 v=88
49954 Off ch=9 n=45 v=0
50017 On ch=9 n=45 v=88
50160 Off ch=9 n=45 v=0
50209 On ch=9 n=45 v=88
50258 Off ch=9 n=45 v=0
50306 On ch=9 n=40 v=88
50342 Off ch=9 n=40 v=0
50400 On ch=9 n=40 v=88
50445 Off ch=9 n=40 v=0
50497 On ch=9 n=43 v=88
50609 Off ch=9 n=43 v=0
50688 On ch=9 n=45 v=88
50876 Off ch=9 n=45 v=0
50977 On ch=9 n=45 v=88
51022 Off ch=9 n=45 v=0
51072 On ch=9 n=40 v=88
51193 Off ch=9 n=40 v=0
51265 On ch=9 n=40 v=88
51310 Off ch=9 n=40 v=0
51361 On ch=9 n=45 v=88
51490 Off ch=9 n=45 v=0
51553 On ch=9 n=45 v=88
51696 Off ch=9 n=45 v=0
51745 On ch=9 n=45 v=88
51794 Off ch=9 n=45 v=0
51842 On ch=9 n=40 v=88
51878 Off ch=9 n=40 v=0
51936 On ch=9 n=40 v=88
51981 Off ch=9 n=40 v=0
52033 On ch=9 n=43 v=88
52145 Off ch=9 n=43 v=0
52224 On ch=9 n=45 v=88
52412 Off ch=9 n=45 v=0
52513 On ch=9 n=45 v=88
52558 Off ch=9 n=45 v=0
52608 On ch=9 n=40 v=88
52856 Off ch=9 n=40 v=0
52897 On ch=9 n=45 v=88
53026 Off ch=9 n=45 v=0
53089 On ch=9 n=45 v=88
53232 Off ch=9 n=45 v=0
53281 On ch=9 n=45 v=88
53330 Off ch=9 n=45 v=0
53378 On ch=9 n=40 v=88
53414 Off ch=9 n=40 v=0
53472 On ch=9 n=40 v=88
53517 Off ch=9 n=40 v=0
53570 On ch=9 n=43 v=88
53682 Off ch=9 n=43 v=0
53761 On ch=9 n=45 v=88
53981 Off ch=9 n=45 v=0
54049 On ch=9 n=45 v=88
54094 Off ch=9 n=45 v=0
54144 On ch=9 n=40 v=88
54288 Off ch=9 n=40 v=0
54336 On ch=9 n=40 v=88
54381 Off ch=9 n=40 v=0
54432 On ch=9 n=45 v=88
54553 Off ch=9 n=45 v=0
54624 On ch=9 n=45 v=88
54763 Off ch=9 n=45 v=0
54816 On ch=9 n=45 v=88
54866 Off ch=9 n=45 v=0
54912 On ch=9 n=40 v=88
54957 Off ch=9 n=40 v=0
55008 On ch=9 n=40 v=88
55044 Off ch=9 n=40 v=0
55106 On ch=9 n=43 v=88
55205 Off ch=9 n=43 v=0
55296 On ch=9 n=45 v=88
55484 Off ch=9 n=45 v=0
55585 On ch=9 n=45 v=88
55630 Off ch=9 n=45 v=0
55680 On ch=9 n=40 v=88
55801 Off ch=9 n=40 v=0
55873 On ch=9 n=40 v=88
55918 Off ch=9 n=40 v=0
55969 On ch=9 n=45 v=88
56098 Off ch=9 n=45 v=0
56161 On ch=9 n=45 v=88
56304 Off ch=9 n=45 v=0
56353 On ch=9 n=45 v=88
56402 Off ch=9 n=45 v=0
56451 On ch=9 n=40 v=88
56487 Off ch=9 n=40 v=0
56544 On ch=9 n=40 v=88
56589 Off ch=9 n=40 v=0
56644 On ch=9 n=43 v=88
56756 Off ch=9 n=43 v=0
56833 On ch=9 n=45 v=88
57053 Off ch=9 n=45 v=0
57121 On ch=9 n=45 v=88
57166 Off ch=9 n=45 v=0
57216 On ch=9 n=40 v=88
57464 Off ch=9 n=40 v=0
57504 On ch=9 n=45 v=88
57625 Off ch=9 n=45 v=0
57696 On ch=9 n=45 v=88
57835 Off ch=9 n=45 v=0
57888 On ch=9 n=45 v=88
57938 Off ch=9 n=45 v=0
57984 On ch=9 n=40 v=88
58029 Off ch=9 n=40 v=0
58080 On ch=9 n=40 v=88
58116 Off ch=9 n=40 v=0
58177 On ch=9 n=43 v=88
58276 Off ch=9 n=43 v=0
58370 On ch=9 n=45 v=88
58625 Off ch=9 n=45 v=0
58681 On ch=9 n=45 v=88
58752 Off ch=9 n=45 v=0
58778 On ch=9 n=43 v=88
59038 Off ch=9 n=43 v=0
59088 On ch=9 n=43 v=88
59138 Off ch=9 n=43 v=0
59186 On ch=9 n=41 v=88
59249 Off ch=9 n=41 v=0
59283 On ch=9 n=41 v=88
59363 Off ch=9 n=41 v=0
59423 On ch=9 n=40 v=88
59625 Off ch=9 n=40 v=0
59639 On ch=9 n=40 v=88
59675 Off ch=9 n=40 v=0
59717 On ch=9 n=40 v=88
59843 Off ch=9 n=40 v=0
59927 On ch=9 n=43 v=88
60178 Off ch=9 n=43 v=0
60236 On ch=9 n=43 v=88
60304 Off ch=9 n=43 v=0
60330 On ch=9 n=41 v=88
60563 Off ch=9 n=41 v=0
60604 On ch=9 n=41 v=88
60675 Off ch=9 n=41 v=0
60702 On ch=9 n=40 v=88
60756 Off ch=9 n=40 v=0
60801 On ch=9 n=40 v=88
60922 Off ch=9 n=40 v=0
60976 On ch=9 n=38 v=88
61152 On ch=9 n=38 v=88
61183 Off ch=9 n=38 v=0
61248 On ch=9 n=38 v=88
61347 Off ch=9 n=38 v=0
61387 Off ch=9 n=38 v=0
61792 On ch=9 n=45 v=88
61956 Off ch=9 n=45 v=0
62016 On ch=9 n=45 v=88
62122 Off ch=9 n=45 v=0
62182 On ch=9 n=40 v=88
62351 Off ch=9 n=40 v=0
62377 On ch=9 n=40 v=88
62444 Off ch=9 n=40 v=0
62482 On ch=9 n=40 v=88
62685 Off ch=9 n=40 v=0
62976 On ch=9 n=45 v=88
63249 Off ch=9 n=45 v=0
63277 On ch=9 n=45 v=88
63335 Off ch=9 n=45 v=0
63360 On ch=9 n=43 v=88
63521 Off ch=9 n=43 v=0
63557 On ch=9 n=43 v=88
63704 Off ch=9 n=43 v=0
63739 On ch=9 n=41 v=88
63892 Off ch=9 n=41 v=0
63928 On ch=9 n=41 v=88
63988 Off ch=9 n=41 v=0
64032 On ch=9 n=40 v=88
64194 Off ch=9 n=40 v=0
64223 On ch=9 n=40 v=88
64273 Off ch=9 n=40 v=0
64308 On ch=9 n=40 v=88
64472 Off ch=9 n=40 v=0
64514 On ch=9 n=45 v=88
64865 Off ch=9 n=45 v=0
64887 On ch=9 n=45 v=88
65202 Off ch=9 n=45 v=0
65255 On ch=9 n=43 v=88
65552 Off ch=9 n=43 v=0
65591 On ch=9 n=43 v=88
66026 Off ch=9 n=43 v=0
66056 On ch=9 n=45 v=88
66313 Off ch=9 n=45 v=0
66359 On ch=9 n=45 v=88
66439 Off ch=9 n=45 v=0
66456 On ch=9 n=43 v=88
66456 On ch=9 n=45 v=88
66500 Off ch=9 n=45 v=0
66653 Off ch=9 n=43 v=0
66682 On ch=9 n=43 v=88
66775 Off ch=9 n=43 v=0
66833 On ch=9 n=41 v=88
66891 Off ch=9 n=41 v=0
66926 On ch=9 n=41 v=88
67054 Off ch=9 n=41 v=0
67109 On ch=9 n=40 v=88
67251 Off ch=9 n=40 v=0
67292 On ch=9 n=40 v=88
67339 Off ch=9 n=40 v=0
67381 On ch=9 n=40 v=88
67542 Off ch=9 n=40 v=0
67585 On ch=9 n=45 v=88
67856 Off ch=9 n=45 v=0
67891 On ch=9 n=45 v=88
67943 Off ch=9 n=45 v=0
67970 On ch=9 n=43 v=88
68146 Off ch=9 n=43 v=0
68167 On ch=9 n=43 v=88
68305 Off ch=9 n=43 v=0
68358 On ch=9 n=41 v=88
68422 Off ch=9 n=41 v=0
68458 On ch=9 n=41 v=88
68590 Off ch=9 n=41 v=0
68641 On ch=9 n=40 v=88
68787 Off ch=9 n=40 v=0
68837 On ch=9 n=40 v=88
68883 Off ch=9 n=40 v=0
68925 On ch=9 n=40 v=88
69063 Off ch=9 n=40 v=0
69124 On ch=9 n=45 v=88
69366 Off ch=9 n=45 v=0
69399 On ch=9 n=45 v=88
69452 Off ch=9 n=45 v=0
69495 On ch=9 n=43 v=88
69649 Off ch=9 n=43 v=0
69690 On ch=9 n=43 v=88
69854 Off ch=9 n=43 v=0
69890 On ch=9 n=41 v=88
69955 Off ch=9 n=41 v=0
69994 On ch=9 n=41 v=88
70147 Off ch=9 n=41 v=0
70197 On ch=9 n=40 v=88
70364 Off ch=9 n=40 v=0
70393 On ch=9 n=40 v=88
70445 Off ch=9 n=40 v=0
70490 On ch=9 n=40 v=88
70614 Off ch=9 n=40 v=0
70664 On ch=9 n=45 v=88
70895 Off ch=9 n=45 v=0
70939 On ch=9 n=45 v=88
70999 Off ch=9 n=45 v=0
71033 On ch=9 n=43 v=88
71196 Off ch=9 n=43 v=0
71224 On ch=9 n=43 v=88
71371 Off ch=9 n=43 v=0
71410 On ch=9 n=41 v=88
71465 Off ch=9 n=41 v=0
71509 On ch=9 n=41 v=88
71656 Off ch=9 n=41 v=0
71706 On ch=9 n=40 v=88
71877 Off ch=9 n=40 v=0
71899 On ch=9 n=40 v=88
71962 Off ch=9 n=40 v=0
71998 On ch=9 n=40 v=88
72146 Off ch=9 n=40 v=0
72190 On ch=9 n=45 v=88
72482 Off ch=9 n=45 v=0
72518 On ch=9 n=45 v=88
72561 Off ch=9 n=45 v=0
72588 On ch=9 n=43 v=88
72751 Off ch=9 n=43 v=0
72788 On ch=9 n=43 v=88
72927 Off ch=9 n=43 v=0
72963 On ch=9 n=41 v=88
73015 Off ch=9 n=41 v=0
73051 On ch=9 n=41 v=88
73214 Off ch=9 n=41 v=0
73264 On ch=9 n=40 v=88
73425 Off ch=9 n=40 v=0
73461 On ch=9 n=40 v=88
73513 Off ch=9 n=40 v=0
73549 On ch=9 n=40 v=88
73687 Off ch=9 n=40 v=0
73728 On ch=9 n=45 v=88
73957 Off ch=9 n=45 v=0
73999 On ch=9 n=45 v=88
74053 Off ch=9 n=45 v=0
74103 On ch=9 n=43 v=88
74255 Off ch=9 n=43 v=0
74286 On ch=9 n=43 v=88
74433 Off ch=9 n=43 v=0
74489 On ch=9 n=41 v=88
74558 Off ch=9 n=41 v=0
74585 On ch=9 n=41 v=88
74762 Off ch=9 n=41 v=0
74812 On ch=9 n=40 v=88
75236 Off ch=9 n=40 v=0
75250 On ch=9 n=41 v=88
75631 On ch=9 n=43 v=88
75637 Off ch=9 n=41 v=0
76009 Off ch=9 n=43 v=0
76013 On ch=9 n=45 v=88
76711 Off ch=9 n=45 v=0
76802 On ch=9 n=45 v=88
76858 Off ch=9 n=45 v=0
76898 On ch=9 n=45 v=88
77032 Off ch=9 n=45 v=0
77082 On ch=9 n=45 v=88
77660 Off ch=9 n=45 v=0
77660 SeqSpec 24 24 00 08 00 00 00 00 00 01 2f 5c 00 01 32 00
77660 SeqSpec 24 24 00 01 05
77660 SeqSpec 24 24 00 06 04 04
77660 SeqSpec 24 24 00 02 08
78336 Meta TrkEnd
TrkEnd
MTrk
0 SeqNr 5
0 Meta TrkName "Accompaniment"
0 PrCh ch=5 p=16
0 Par ch=5 c=10 v=122
0 Par ch=5 c=7 v=60
4627 On ch=5 n=57 v=64
4779 Off ch=5 n=57 v=0
4819 On ch=5 n=60 v=64
4896 Off ch=5 n=60 v=0
4918 On ch=5 n=62 v=64
5142 Off ch=5 n=62 v=0
5178 On ch=5 n=64 v=64
5335 Off ch=5 n=64 v=0
5384 On ch=5 n=64 v=64
5532 Off ch=5 n=64 v=0
5568 On ch=5 n=64 v=64
5617 Off ch=5 n=64 v=0
5675 On ch=5 n=64 v=64
5823 Off ch=5 n=64 v=0
5859 On ch=5 n=62 v=64
5948 Off ch=5 n=62 v=0
5962 On ch=5 n=60 v=64
6101 Off ch=5 n=60 v=0
6159 On ch=5 n=57 v=64
6289 Off ch=5 n=57 v=0
6343 On ch=5 n=60 v=64
6414 Off ch=5 n=60 v=0
6446 On ch=5 n=62 v=64
6593 Off ch=5 n=62 v=0
6620 On ch=5 n=64 v=64
6714 Off ch=5 n=64 v=0
6728 On ch=5 n=67 v=64
6853 Off ch=5 n=67 v=0
6925 On ch=5 n=64 v=64
7642 Off ch=5 n=64 v=0
7678 On ch=5 n=57 v=64
7830 Off ch=5 n=57 v=0
7866 On ch=5 n=60 v=64
7951 Off ch=5 n=60 v=0
7973 On ch=5 n=62 v=64
8139 Off ch=5 n=62 v=0
8170 On ch=5 n=64 v=64
8372 Off ch=5 n=64 v=0
8417 On ch=5 n=64 v=64
8596 Off ch=5 n=64 v=0
8632 On ch=5 n=64 v=64
8686 Off ch=5 n=64 v=0
8726 On ch=5 n=64 v=64
8887 Off ch=5 n=64 v=0
8919 On ch=5 n=62 v=64
9008 Off ch=5 n=62 v=0
9022 On ch=5 n=60 v=64
9187 Off ch=5 n=60 v=0
9223 On ch=5 n=57 v=64
9371 Off ch=5 n=57 v=0
9402 On ch=5 n=60 v=64
9474 Off ch=5 n=60 v=0
9505 On ch=5 n=62 v=64
9653 Off ch=5 n=62 v=0
9698 On ch=5 n=64 v=64
9779 Off ch=5 n=64 v=0
9801 On ch=5 n=67 v=64
9922 Off ch=5 n=67 v=0
9994 On ch=5 n=64 v=64
10482 Off ch=5 n=64 v=0
10568 On ch=5 n=67 v=64
10631 Off ch=5 n=67 v=0
10663 On ch=5 n=64 v=64
10730 Off ch=5 n=64 v=0
10757 On ch=5 n=69 v=64
10913 Off ch=5 n=69 v=0
10945 On ch=5 n=67 v=64
11106 Off ch=5 n=67 v=0
11151 On ch=5 n=69 v=64
11290 Off ch=5 n=69 v=0
11330 On ch=5 n=67 v=64
11473 Off ch=5 n=67 v=0
11532 On ch=5 n=69 v=64
11697 Off ch=5 n=69 v=0
11715 On ch=5 n=67 v=64
11805 Off ch=5 n=67 v=0
11832 On ch=5 n=64 v=64
11980 Off ch=5 n=64 v=0
12007 On ch=5 n=67 v=64
12074 Off ch=5 n=67 v=0
12110 On ch=5 n=60 v=64
12244 Off ch=5 n=60 v=0
12298 On ch=5 n=62 v=64
12432 Off ch=5 n=62 v=0
12486 On ch=5 n=64 v=64
12620 Off ch=5 n=64 v=0
12679 On ch=5 n=67 v=64
12750 Off ch=5 n=67 v=0
12795 On ch=5 n=69 v=64
12947 Off ch=5 n=69 v=0
12997 On ch=5 n=72 v=64
13028 On ch=5 n=71 v=64
13041 Off ch=5 n=72 v=0
13059 On ch=5 n=69 v=64
13073 Off ch=5 n=71 v=0
13628 On ch=5 n=72 v=64
13660 Off ch=5 n=69 v=0
13704 Off ch=5 n=72 v=0
13722 On ch=5 n=74 v=64
13798 Off ch=5 n=74 v=0
13834 On ch=5 n=76 v=64
13973 Off ch=5 n=76 v=0
14008 On ch=5 n=74 v=64
14156 Off ch=5 n=74 v=0
14192 On ch=5 n=72 v=64
14344 Off ch=5 n=72 v=0
14394 On ch=5 n=69 v=64
14546 Off ch=5 n=69 v=0
14591 On ch=5 n=72 v=64
14685 On ch=5 n=71 v=64
14685 Off ch=5 n=72 v=0
14779 On ch=5 n=69 v=64
14779 Off ch=5 n=71 v=0
14873 On ch=5 n=71 v=64
14873 Off ch=5 n=69 v=0
15066 Off ch=5 n=71 v=0
15075 On ch=5 n=69 v=64
15169 On ch=5 n=67 v=64
15169 Off ch=5 n=69 v=0
15348 Off ch=5 n=67 v=0
15379 On ch=5 n=69 v=64
16235 Off ch=5 n=69 v=0
19987 On ch=5 n=57 v=64
20139 Off ch=5 n=57 v=0
20179 On ch=5 n=60 v=64
20256 Off ch=5 n=60 v=0
20278 On ch=5 n=62 v=64
20502 Off ch=5 n=62 v=0
20538 On ch=5 n=64 v=64
20695 Off ch=5 n=64 v=0
20744 On ch=5 n=64 v=64
20892 Off ch=5 n=64 v=0
20928 On ch=5 n=64 v=64
20977 Off ch=5 n=64 v=0
21035 On ch=5 n=64 v=64
21183 Off ch=5 n=64 v=0
21219 On ch=5 n=62 v=64
21308 Off ch=5 n=62 v=0
21322 On ch=5 n=60 v=64
21461 Off ch=5 n=60 v=0
21519 On ch=5 n=57 v=64
21649 Off ch=5 n=57 v=0
21703 On ch=5 n=60 v=64
21774 Off ch=5 n=60 v=0
21806 On ch=5 n=62 v=64
21953 Off ch=5 n=62 v=0
21980 On ch=5 n=64 v=64
22074 Off ch=5 n=64 v=0
22088 On ch=5 n=67 v=64
22213 Off ch=5 n=67 v=0
22285 On ch=5 n=64 v=64
23002 Off ch=5 n=64 v=0
23038 On ch=5 n=57 v=64
23190 Off ch=5 n=57 v=0
23226 On ch=5 n=60 v=64
23311 Off ch=5 n=60 v=0
23333 On ch=5 n=62 v=64
23499 Off ch=5 n=62 v=0
23530 On ch=5 n=64 v=64
23732 Off ch=5 n=64 v=0
23777 On ch=5 n=64 v=64
23956 Off ch=5 n=64 v=0
23992 On ch=5 n=64 v=64
24046 Off ch=5 n=64 v=0
24086 On ch=5 n=64 v=64
24247 Off ch=5 n=64 v=0
24279 On ch=5 n=62 v=64
24368 Off ch=5 n=62 v=0
24382 On ch=5 n=60 v=64
24547 Off ch=5 n=60 v=0
24583 On ch=5 n=57 v=64
24731 Off ch=5 n=57 v=0
24762 On ch=5 n=60 v=64
24834 Off ch=5 n=60 v=0
24865 On ch=5 n=62 v=64
25013 Off ch=5 n=62 v=0
25058 On ch=5 n=64 v=64
25139 Off ch=5 n=64 v=0
25161 On ch=5 n=67 v=64
25282 Off ch=5 n=67 v=0
25354 On ch=5 n=64 v=64
25842 Off ch=5 n=64 v=0
25928 On ch=5 n=67 v=64
25991 Off ch=5 n=67 v=0
26023 On ch=5 n=64 v=64
26090 Off ch=5 n=64 v=0
26117 On ch=5 n=69 v=64
26273 Off ch=5 n=69 v=0
26305 On ch=5 n=67 v=64
26466 Off ch=5 n=67 v=0
26511 On ch=5 n=69 v=64
26650 Off ch=5 n=69 v=0
26690 On ch=5 n=67 v=64
26833 Off ch=5 n=67 v=0
26892 On ch=5 n=69 v=64
27057 Off ch=5 n=69 v=0
27075 On ch=5 n=67 v=64
27165 Off ch=5 n=67 v=0
27192 On ch=5 n=64 v=64
27340 Off ch=5 n=64 v=0
27367 On ch=5 n=67 v=64
27434 Off ch=5 n=67 v=0
27470 On ch=5 n=60 v=64
27604 Off ch=5 n=60 v=0
27658 On ch=5 n=62 v=64
27792 Off ch=5 n=62 v=0
27846 On ch=5 n=64 v=64
27980 Off ch=5 n=64 v=0
28039 On ch=5 n=67 v=64
28110 Off ch=5 n=67 v=0
28155 On ch=5 n=69 v=64
28307 Off ch=5 n=69 v=0
28357 On ch=5 n=72 v=64
28388 On ch=5 n=71 v=64
28401 Off ch=5 n=72 v=0
28419 On ch=5 n=69 v=64
28433 Off ch=5 n=71 v=0
28988 On ch=5 n=72 v=64
29020 Off ch=5 n=69 v=0
29064 Off ch=5 n=72 v=0
29082 On ch=5 n=74 v=64
29158 Off ch=5 n=74 v=0
29194 On ch=5 n=76 v=64
29333 Off ch=5 n=76 v=0
29368 On ch=5 n=74 v=64
29516 Off ch=5 n=74 v=0
29552 On ch=5 n=72 v=64
29704 Off ch=5 n=72 v=0
29754 On ch=5 n=69 v=64
29906 Off ch=5 n=69 v=0
29951 On ch=5 n=72 v=64
30045 On ch=5 n=71 v=64
30045 Off ch=5 n=72 v=0
30139 On ch=5 n=69 v=64
30139 Off ch=5 n=71 v=0
30233 On ch=5 n=71 v=64
30233 Off ch=5 n=69 v=0
30426 Off ch=5 n=71 v=0
30435 On ch=5 n=69 v=64
30529 On ch=5 n=67 v=64
30529 Off ch=5 n=69 v=0
30708 Off ch=5 n=67 v=0
30739 On ch=5 n=69 v=64
31595 Off ch=5 n=69 v=0
32249 On ch=5 n=69 v=37
32499 Off ch=5 n=69 v=0
32533 On ch=5 n=67 v=38
32784 Off ch=5 n=67 v=0
32811 On ch=5 n=65 v=40
32959 Off ch=5 n=65 v=0
32997 On ch=5 n=64 v=41
33287 Off ch=5 n=64 v=0
33301 On ch=5 n=62 v=42
33571 Off ch=5 n=62 v=0
33585 On ch=5 n=60 v=64
33740 Off ch=5 n=60 v=0
33761 On ch=5 n=62 v=64
34069 Off ch=5 n=62 v=0
34089 On ch=5 n=64 v=64
34340 Off ch=5 n=64 v=0
34363 On ch=5 n=62 v=64
34502 Off ch=5 n=62 v=0
34540 On ch=5 n=64 v=64
35253 Off ch=5 n=64 v=0
35293 On ch=5 n=53 v=64
35325 On ch=5 n=57 v=64
35328 Par ch=5 c=7 v=20
35332 On ch=5 n=62 v=64
35552 Off ch=5 n=62 v=0
35555 Off ch=5 n=57 v=0
35560 Off ch=5 n=53 v=0
35596 On ch=5 n=57 v=64
35601 On ch=5 n=62 v=64
35604 On ch=5 n=53 v=64
35791 Off ch=5 n=57 v=0
35800 Off ch=5 n=62 v=0
35833 Off ch=5 n=53 v=0
35847 On ch=5 n=55 v=64
35858 On ch=5 n=60 v=64
35875 On ch=5 n=52 v=64
35988 Off ch=5 n=60 v=0
36000 Off ch=5 n=55 v=0
36016 Off ch=5 n=52 v=0
36061 On ch=5 n=62 v=64
36065 On ch=5 n=57 v=64
36072 On ch=5 n=53 v=64
36328 Off ch=5 n=53 v=0
36330 Off ch=5 n=57 v=0
36335 Off ch=5 n=62 v=0
36372 On ch=5 n=53 v=64
36374 On ch=5 n=57 v=64
36380 On ch=5 n=62 v=64
36591 Off ch=5 n=57 v=0
36600 Off ch=5 n=62 v=0
36611 Off ch=5 n=53 v=0
36650 On ch=5 n=55 v=64
36659 On ch=5 n=60 v=64
36661 On ch=5 n=52 v=64
36787 Off ch=5 n=60 v=0
36793 Off ch=5 n=55 v=0
36794 Off ch=5 n=52 v=0
36857 On ch=5 n=62 v=64
36857 On ch=5 n=57 v=64
36858 On ch=5 n=53 v=64
37091 Off ch=5 n=53 v=0
37133 Off ch=5 n=57 v=0
37141 On ch=5 n=53 v=64
37141 Off ch=5 n=62 v=0
37180 On ch=5 n=57 v=64
37186 On ch=5 n=62 v=64
37392 Off ch=5 n=53 v=0
37398 Off ch=5 n=57 v=0
37412 Off ch=5 n=62 v=0
37456 On ch=5 n=52 v=64
37465 On ch=5 n=55 v=64
37479 On ch=5 n=60 v=64
37578 Off ch=5 n=52 v=0
37579 Off ch=5 n=60 v=0
37582 Off ch=5 n=55 v=0
37634 On ch=5 n=62 v=64
37638 On ch=5 n=57 v=64
37645 On ch=5 n=53 v=64
37880 Off ch=5 n=57 v=0
37894 Off ch=5 n=62 v=0
37926 On ch=5 n=57 v=64
37931 On ch=5 n=62 v=64
38346 Off ch=5 n=53 v=0
38372 Off ch=5 n=57 v=0
38378 Off ch=5 n=62 v=0
38410 On ch=5 n=53 v=64
38419 On ch=5 n=57 v=64
38423 On ch=5 n=62 v=64
38662 Off ch=5 n=57 v=0
38667 Off ch=5 n=53 v=0
38674 Off ch=5 n=62 v=0
38702 On ch=5 n=53 v=64
38703 On ch=5 n=62 v=64
38703 On ch=5 n=57 v=64
38924 Off ch=5 n=57 v=0
38935 Off ch=5 n=62 v=0
38944 Off ch=5 n=53 v=0
38979 On ch=5 n=55 v=64
38980 On ch=5 n=52 v=64
38989 On ch=5 n=60 v=64
39100 Off ch=5 n=55 v=0
39106 Off ch=5 n=60 v=0
39122 Off ch=5 n=52 v=0
39158 On ch=5 n=62 v=64
39159 On ch=5 n=57 v=64
39162 On ch=5 n=53 v=64
39409 Off ch=5 n=57 v=0
39416 Off ch=5 n=53 v=0
39420 Off ch=5 n=62 v=0
39453 On ch=5 n=57 v=64
39458 On ch=5 n=53 v=64
39463 On ch=5 n=62 v=64
39672 Off ch=5 n=57 v=0
39683 Off ch=5 n=62 v=0
39719 Off ch=5 n=53 v=0
39736 On ch=5 n=55 v=64
39747 On ch=5 n=60 v=64
39755 On ch=5 n=52 v=64
39866 Off ch=5 n=60 v=0
39866 Off ch=5 n=55 v=0
39902 Off ch=5 n=52 v=0
39924 On ch=5 n=62 v=64
39926 On ch=5 n=57 v=64
39947 On ch=5 n=53 v=64
40201 Off ch=5 n=57 v=0
40202 Off ch=5 n=53 v=0
40209 Off ch=5 n=62 v=0
40240 On ch=5 n=57 v=64
40244 On ch=5 n=53 v=64
40255 On ch=5 n=62 v=64
40447 Off ch=5 n=57 v=0
40461 Off ch=5 n=62 v=0
40486 Off ch=5 n=53 v=0
40511 On ch=5 n=55 v=64
40519 On ch=5 n=60 v=64
40519 On ch=5 n=52 v=64
40628 Off ch=5 n=60 v=0
40633 Off ch=5 n=55 v=0
40639 Off ch=5 n=52 v=0
40692 On ch=5 n=62 v=64
40692 On ch=5 n=57 v=64
40694 On ch=5 n=53 v=64
41404 Off ch=5 n=53 v=0
41414 Off ch=5 n=57 v=0
41416 Off ch=5 n=62 v=0
41467 On ch=5 n=57 v=64
41468 On ch=5 n=53 v=64
41472 On ch=5 n=62 v=64
41696 Off ch=5 n=53 v=0
41738 On ch=5 n=53 v=64
41738 Off ch=5 n=57 v=0
41755 Off ch=5 n=62 v=0
41795 On ch=5 n=57 v=64
41805 On ch=5 n=62 v=64
41993 Off ch=5 n=53 v=0
42021 Off ch=5 n=57 v=0
42030 On ch=5 n=52 v=64
42036 Off ch=5 n=62 v=0
42075 On ch=5 n=55 v=64
42089 On ch=5 n=60 v=64
42168 Off ch=5 n=52 v=0
42183 Off ch=5 n=60 v=0
42186 Off ch=5 n=55 v=0
42226 On ch=5 n=53 v=64
42233 On ch=5 n=62 v=64
42237 On ch=5 n=57 v=64
42492 Off ch=5 n=53 v=0
42493 Off ch=5 n=57 v=0
42499 Off ch=5 n=62 v=0
42527 On ch=5 n=53 v=64
42529 On ch=5 n=57 v=64
42535 On ch=5 n=62 v=64
42752 Off ch=5 n=57 v=0
42761 Off ch=5 n=62 v=0
42761 Off ch=5 n=53 v=0
42791 On ch=5 n=52 v=64
42797 On ch=5 n=55 v=64
42811 On ch=5 n=60 v=64
42931 Off ch=5 n=60 v=0
42936 Off ch=5 n=55 v=0
42957 Off ch=5 n=52 v=0
42994 On ch=5 n=62 v=64
43001 On ch=5 n=57 v=64
43008 On ch=5 n=53 v=64
43221 Off ch=5 n=57 v=0
43226 Off ch=5 n=62 v=0
43259 Off ch=5 n=53 v=0
43265 On ch=5 n=57 v=64
43275 On ch=5 n=62 v=64
43306 On ch=5 n=53 v=64
43514 Off ch=5 n=57 v=0
43527 Off ch=5 n=62 v=0
43551 Off ch=5 n=53 v=0
43567 On ch=5 n=55 v=64
43580 On ch=5 n=60 v=64
43598 On ch=5 n=52 v=64
43698 Off ch=5 n=60 v=0
43708 Off ch=5 n=55 v=0
43714 Off ch=5 n=52 v=0
43761 On ch=5 n=62 v=64
43767 On ch=5 n=57 v=64
43769 On ch=5 n=53 v=64
44008 Off ch=5 n=53 v=0
44016 Off ch=5 n=57 v=0
44021 Off ch=5 n=62 v=0
44051 On ch=5 n=57 v=64
44056 On ch=5 n=53 v=64
44058 On ch=5 n=62 v=64
44258 Off ch=5 n=57 v=0
44278 Off ch=5 n=62 v=0
44295 Off ch=5 n=53 v=0
44317 On ch=5 n=55 v=64
44331 On ch=5 n=60 v=64
44336 On ch=5 n=52 v=64
44461 Off ch=5 n=60 v=0
44461 Off ch=5 n=55 v=0
44473 Off ch=5 n=52 v=0
44525 On ch=5 n=62 v=64
44527 On ch=5 n=57 v=64
44531 On ch=5 n=53 v=64
44766 Off ch=5 n=57 v=0
44777 Off ch=5 n=62 v=0
44790 Off ch=5 n=53 v=0
44805 On ch=5 n=57 v=64
44816 On ch=5 n=62 v=64
44836 On ch=5 n=53 v=64
45059 Off ch=5 n=57 v=0
45068 Off ch=5 n=53 v=0
45068 Off ch=5 n=62 v=0
45107 On ch=5 n=55 v=64
45118 On ch=5 n=52 v=64
45123 On ch=5 n=60 v=64
45233 Off ch=5 n=60 v=0
45237 Off ch=5 n=55 v=0
45242 Off ch=5 n=52 v=0
45298 On ch=5 n=62 v=64
45299 On ch=5 n=57 v=64
45301 On ch=5 n=53 v=64
45534 Off ch=5 n=53 v=0
45541 Off ch=5 n=57 v=0
45550 Off ch=5 n=62 v=0
45585 On ch=5 n=53 v=64
45592 On ch=5 n=57 v=64
45597 On ch=5 n=62 v=64
45798 Off ch=5 n=57 v=0
45812 Off ch=5 n=62 v=0
45813 Off ch=5 n=53 v=0
45856 On ch=5 n=55 v=64
45856 On ch=5 n=52 v=64
45868 On ch=5 n=60 v=64
45987 Off ch=5 n=52 v=0
46009 Off ch=5 n=60 v=0
46009 Off ch=5 n=55 v=0
46054 On ch=5 n=53 v=64
46068 On ch=5 n=57 v=64
46074 On ch=5 n=62 v=64
46310 Off ch=5 n=53 v=0
46314 Off ch=5 n=57 v=0
46328 Off ch=5 n=62 v=0
46360 On ch=5 n=53 v=64
46361 On ch=5 n=57 v=64
46372 On ch=5 n=62 v=64
46570 Off ch=5 n=57 v=0
46578 Off ch=5 n=62 v=0
46602 Off ch=5 n=53 v=0
46633 On ch=5 n=52 v=64
46637 On ch=5 n=55 v=64
46643 On ch=5 n=60 v=64
46740 Off ch=5 n=52 v=0
46768 Off ch=5 n=60 v=0
46768 Off ch=5 n=55 v=0
46812 On ch=5 n=53 v=64
46834 On ch=5 n=62 v=64
46834 On ch=5 n=57 v=64
47497 Off ch=5 n=57 v=0
47504 Off ch=5 n=62 v=0
47584 Off ch=5 n=53 v=0
48354 On ch=5 n=69 v=64
48398 Off ch=5 n=69 v=0
48455 On ch=5 n=69 v=64
48530 Off ch=5 n=69 v=0
49026 On ch=5 n=67 v=64
49092 Off ch=5 n=67 v=0
49133 On ch=5 n=69 v=64
49202 Off ch=5 n=69 v=0
49328 On ch=5 n=67 v=64
49371 Off ch=5 n=67 v=0
49435 On ch=5 n=64 v=64
49518 Off ch=5 n=64 v=0
50208 On ch=5 n=64 v=64
50257 Off ch=5 n=64 v=0
50310 On ch=5 n=64 v=64
50392 Off ch=5 n=64 v=0
50500 On ch=5 n=67 v=64
50536 Off ch=5 n=67 v=0
50608 On ch=5 n=64 v=64
50705 Off ch=5 n=64 v=0
52243 On ch=5 n=57 v=64
52395 Off ch=5 n=57 v=0
52435 On ch=5 n=60 v=64
52512 Off ch=5 n=60 v=0
52534 On ch=5 n=62 v=64
52758 Off ch=5 n=62 v=0
52794 On ch=5 n=64 v=64
52951 Off ch=5 n=64 v=0
53000 On ch=5 n=64 v=64
53148 Off ch=5 n=64 v=0
53184 On ch=5 n=64 v=64
53233 Off ch=5 n=64 v=0
53291 On ch=5 n=64 v=64
53439 Off ch=5 n=64 v=0
53475 On ch=5 n=62 v=64
53564 Off ch=5 n=62 v=0
53578 On ch=5 n=60 v=64
53717 Off ch=5 n=60 v=0
53775 On ch=5 n=57 v=64
53905 Off ch=5 n=57 v=0
53959 On ch=5 n=60 v=64
54030 Off ch=5 n=60 v=0
54062 On ch=5 n=62 v=64
54209 Off ch=5 n=62 v=0
54236 On ch=5 n=64 v=64
54330 Off ch=5 n=64 v=0
54344 On ch=5 n=67 v=64
54469 Off ch=5 n=67 v=0
54541 On ch=5 n=64 v=64
55258 Off ch=5 n=64 v=0
55294 On ch=5 n=57 v=64
55446 Off ch=5 n=57 v=0
55482 On ch=5 n=60 v=64
55567 Off ch=5 n=60 v=0
55589 On ch=5 n=62 v=64
55755 Off ch=5 n=62 v=0
55786 On ch=5 n=64 v=64
55988 Off ch=5 n=64 v=0
56033 On ch=5 n=64 v=64
56212 Off ch=5 n=64 v=0
56248 On ch=5 n=64 v=64
56302 Off ch=5 n=64 v=0
56342 On ch=5 n=64 v=64
56503 Off ch=5 n=64 v=0
56535 On ch=5 n=62 v=64
56624 Off ch=5 n=62 v=0
56638 On ch=5 n=60 v=64
56803 Off ch=5 n=60 v=0
56839 On ch=5 n=57 v=64
56987 Off ch=5 n=57 v=0
57018 On ch=5 n=60 v=64
57090 Off ch=5 n=60 v=0
57121 On ch=5 n=62 v=64
57269 Off ch=5 n=62 v=0
57314 On ch=5 n=64 v=64
57395 Off ch=5 n=64 v=0
57417 On ch=5 n=67 v=64
57538 Off ch=5 n=67 v=0
57610 On ch=5 n=64 v=64
58098 Off ch=5 n=64 v=0
58184 On ch=5 n=67 v=64
58247 Off ch=5 n=67 v=0
58279 On ch=5 n=64 v=64
58346 Off ch=5 n=64 v=0
58373 On ch=5 n=69 v=64
58529 Off ch=5 n=69 v=0
58561 On ch=5 n=67 v=64
58722 Off ch=5 n=67 v=0
58767 On ch=5 n=69 v=64
58906 Off ch=5 n=69 v=0
58946 On ch=5 n=67 v=64
59089 Off ch=5 n=67 v=0
59148 On ch=5 n=69 v=64
59313 Off ch=5 n=69 v=0
59331 On ch=5 n=67 v=64
59421 Off ch=5 n=67 v=0
59448 On ch=5 n=64 v=64
59596 Off ch=5 n=64 v=0
59623 On ch=5 n=67 v=64
59690 Off ch=5 n=67 v=0
59726 On ch=5 n=60 v=64
59860 Off ch=5 n=60 v=0
59914 On ch=5 n=62 v=64
60048 Off ch=5 n=62 v=0
60102 On ch=5 n=64 v=64
60236 Off ch=5 n=64 v=0
60295 On ch=5 n=67 v=64
60366 Off ch=5 n=67 v=0
60411 On ch=5 n=69 v=64
60563 Off ch=5 n=69 v=0
60613 On ch=5 n=72 v=64
60644 On ch=5 n=71 v=64
60657 Off ch=5 n=72 v=0
60675 On ch=5 n=69 v=64
60689 Off ch=5 n=71 v=0
61244 On ch=5 n=72 v=64
61276 Off ch=5 n=69 v=0
61320 Off ch=5 n=72 v=0
61338 On ch=5 n=74 v=64
61414 Off ch=5 n=74 v=0
61450 On ch=5 n=76 v=64
61589 Off ch=5 n=76 v=0
61624 On ch=5 n=74 v=64
61772 Off ch=5 n=74 v=0
61808 On ch=5 n=72 v=64
61960 Off ch=5 n=72 v=0
62010 On ch=5 n=69 v=64
62162 Off ch=5 n=69 v=0
62207 On ch=5 n=72 v=64
62301 On ch=5 n=71 v=64
62301 Off ch=5 n=72 v=0
62395 On ch=5 n=69 v=64
62395 Off ch=5 n=71 v=0
62489 On ch=5 n=71 v=64
62489 Off ch=5 n=69 v=0
62682 Off ch=5 n=71 v=0
62691 On ch=5 n=69 v=64
62785 On ch=5 n=67 v=64
62785 Off ch=5 n=69 v=0
62964 Off ch=5 n=67 v=0
62995 On ch=5 n=69 v=64
63851 Off ch=5 n=69 v=0
64535 On ch=5 n=69 v=64
64756 Off ch=5 n=69 v=0
64813 On ch=5 n=69 v=64
65002 Off ch=5 n=69 v=0
65016 On ch=5 n=67 v=64
65105 Off ch=5 n=67 v=0
65110 On ch=5 n=65 v=64
65262 Off ch=5 n=65 v=0
65291 On ch=5 n=67 v=64
65512 Off ch=5 n=67 v=0
65570 On ch=5 n=67 v=64
65767 On ch=5 n=65 v=64
65774 Off ch=5 n=67 v=0
65834 Off ch=5 n=65 v=0
65872 On ch=5 n=64 v=64
66011 Off ch=5 n=64 v=0
66060 On ch=5 n=69 v=64
67560 Off ch=5 n=69 v=0
67574 On ch=5 n=71 v=64
67849 On ch=5 n=69 v=64
67885 Off ch=5 n=71 v=0
68161 On ch=5 n=67 v=64
68167 Off ch=5 n=69 v=0
68352 Off ch=5 n=67 v=0
68360 On ch=5 n=69 v=64
69093 Off ch=5 n=69 v=0
69122 On ch=5 n=81 v=64
69266 Off ch=5 n=81 v=0
69280 On ch=5 n=79 v=64
69395 On ch=5 n=77 v=64
69405 Off ch=5 n=79 v=0
69588 Off ch=5 n=77 v=0
69593 On ch=5 n=76 v=64
69684 On ch=5 n=77 v=64
69690 Off ch=5 n=76 v=0
69870 Off ch=5 n=77 v=0
69886 On ch=5 n=76 v=64
70624 Off ch=5 n=76 v=0
70674 On ch=5 n=81 v=64
70822 Off ch=5 n=81 v=0
70835 On ch=5 n=79 v=64
70932 Off ch=5 n=79 v=0
70939 On ch=5 n=77 v=64
71112 Off ch=5 n=77 v=0
71119 On ch=5 n=76 v=64
71214 On ch=5 n=77 v=64
71217 Off ch=5 n=76 v=0
71399 Off ch=5 n=77 v=0
71420 On ch=5 n=76 v=64
72146 Off ch=5 n=76 v=0
72181 On ch=5 n=81 v=64
72351 Off ch=5 n=81 v=0
72370 On ch=5 n=79 v=64
72468 On ch=5 n=77 v=64
72476 Off ch=5 n=79 v=0
72645 Off ch=5 n=77 v=0
72652 On ch=5 n=76 v=64
72754 On ch=5 n=77 v=64
72754 Off ch=5 n=76 v=0
72912 Off ch=5 n=77 v=0
72933 On ch=5 n=76 v=64
73658 Off ch=5 n=76 v=0
73710 On ch=5 n=81 v=64
73887 Off ch=5 n=81 v=0
73910 On ch=5 n=79 v=64
74005 Off ch=5 n=79 v=0
74013 On ch=5 n=77 v=64
74188 Off ch=5 n=77 v=0
74196 On ch=5 n=76 v=64
74281 Off ch=5 n=76 v=0
74294 On ch=5 n=77 v=64
74440 Off ch=5 n=77 v=0
74487 On ch=5 n=76 v=64
74829 Off ch=5 n=76 v=0
74865 On ch=5 n=74 v=64
75220 Off ch=5 n=74 v=0
75259 On ch=5 n=72 v=64
75596 Off ch=5 n=72 v=0
75627 On ch=5 n=74 v=64
75995 Off ch=5 n=74 v=0
76020 On ch=5 n=76 v=64
76216 On ch=5 n=74 v=64
76237 Off ch=5 n=76 v=0
76405 On ch=5 n=72 v=64
76413 Off ch=5 n=74 v=0
76599 On ch=5 n=71 v=64
76610 Off ch=5 n=72 v=0
76775 Off ch=5 n=71 v=0
76785 On ch=5 n=72 v=64
76974 On ch=5 n=71 v=64
76975 Off ch=5 n=72 v=0
77107 Off ch=5 n=71 v=0
77157 On ch=5 n=69 v=64
77752 Off ch=5 n=69 v=0
77752 SeqSpec 24 24 00 08 00 00 00 00 00 01 2f b8 00 01 32 00
77752 SeqSpec 24 24 00 01 05
77752 SeqSpec 24 24 00 06 04 04
77752 SeqSpec 24 24 00 02 04
78336 Meta TrkEnd
TrkEnd
MTrk
0 SeqNr 6
0 Meta TrkName "Harpsichord"
0 PrCh ch=8 p=6
0 Par ch=8 c=10 v=82
1547 On ch=8 n=57 v=52
1547 On ch=8 n=52 v=52
1552 On ch=8 n=60 v=52
1780 Off ch=8 n=60 v=0
1780 Off ch=8 n=52 v=0
1784 Off ch=8 n=57 v=0
1843 On ch=8 n=57 v=52
1847 On ch=8 n=60 v=52
1847 On ch=8 n=52 v=52
1870 Off ch=8 n=52 v=0
1870 Off ch=8 n=60 v=0
1879 Off ch=8 n=57 v=0
1937 On ch=8 n=52 v=52
1937 On ch=8 n=59 v=52
1946 On ch=8 n=55 v=52
2049 Off ch=8 n=55 v=0
2053 Off ch=8 n=52 v=0
2058 Off ch=8 n=59 v=0
2116 On ch=8 n=55 v=52
2125 On ch=8 n=59 v=52
2125 On ch=8 n=52 v=52
2143 Off ch=8 n=52 v=0
2147 Off ch=8 n=59 v=0
2152 Off ch=8 n=55 v=0
2210 On ch=8 n=52 v=52
2219 On ch=8 n=57 v=52
2228 On ch=8 n=60 v=52
2336 Off ch=8 n=60 v=0
2336 Off ch=8 n=57 v=0
2336 Off ch=8 n=52 v=0
2398 On ch=8 n=52 v=52
2403 On ch=8 n=60 v=52
2403 On ch=8 n=57 v=52
2537 Off ch=8 n=57 v=0
2537 Off ch=8 n=60 v=0
2542 Off ch=8 n=52 v=0
2604 On ch=8 n=57 v=52
2609 On ch=8 n=60 v=52
2609 On ch=8 n=52 v=52
2640 Off ch=8 n=52 v=0
2640 Off ch=8 n=60 v=0
2640 Off ch=8 n=57 v=0
2698 On ch=8 n=52 v=52
2698 On ch=8 n=55 v=52
2698 On ch=8 n=59 v=52
2797 Off ch=8 n=59 v=0
2797 Off ch=8 n=55 v=0
2806 Off ch=8 n=52 v=0
2891 On ch=8 n=55 v=52
2891 On ch=8 n=59 v=52
2891 On ch=8 n=52 v=52
2976 Off ch=8 n=59 v=0
2981 Off ch=8 n=52 v=0
2981 Off ch=8 n=55 v=0
3066 On ch=8 n=52 v=52
3075 On ch=8 n=57 v=52
3084 On ch=8 n=60 v=52
3303 Off ch=8 n=60 v=0
3303 Off ch=8 n=57 v=0
3308 Off ch=8 n=52 v=0
3352 On ch=8 n=57 v=52
3352 On ch=8 n=52 v=52
3361 On ch=8 n=60 v=52
3397 Off ch=8 n=60 v=0
3397 Off ch=8 n=52 v=0
3397 Off ch=8 n=57 v=0
3447 On ch=8 n=52 v=52
3451 On ch=8 n=55 v=52
3451 On ch=8 n=59 v=52
3590 Off ch=8 n=55 v=0
3594 Off ch=8 n=52 v=0
3603 Off ch=8 n=59 v=0
3648 On ch=8 n=59 v=52
3648 On ch=8 n=52 v=52
3653 On ch=8 n=55 v=52
3680 Off ch=8 n=55 v=0
3684 Off ch=8 n=59 v=0
3688 Off ch=8 n=52 v=0
3738 On ch=8 n=52 v=52
3747 On ch=8 n=60 v=52
3747 On ch=8 n=57 v=52
3863 Off ch=8 n=57 v=0
3863 Off ch=8 n=60 v=0
3863 Off ch=8 n=52 v=0
3930 On ch=8 n=60 v=52
3930 On ch=8 n=57 v=52
3930 On ch=8 n=52 v=52
4060 Off ch=8 n=57 v=0
4065 Off ch=8 n=52 v=0
4065 Off ch=8 n=60 v=0
4123 On ch=8 n=52 v=52
4128 On ch=8 n=60 v=52
4132 On ch=8 n=57 v=52
4159 Off ch=8 n=60 v=0
4163 Off ch=8 n=57 v=0
4172 Off ch=8 n=52 v=0
4213 On ch=8 n=52 v=52
4226 On ch=8 n=55 v=52
4226 On ch=8 n=59 v=52
4338 Off ch=8 n=59 v=0
4338 Off ch=8 n=55 v=0
4338 Off ch=8 n=52 v=0
4419 On ch=8 n=55 v=52
4419 On ch=8 n=59 v=52
4419 On ch=8 n=52 v=52
4495 Off ch=8 n=59 v=0
4504 Off ch=8 n=52 v=0
4504 Off ch=8 n=55 v=0
4598 On ch=8 n=52 v=51
4607 On ch=8 n=60 v=51
4607 On ch=8 n=57 v=51
4822 Off ch=8 n=57 v=0
4822 Off ch=8 n=60 v=0
4831 Off ch=8 n=52 v=0
4880 On ch=8 n=60 v=51
4880 On ch=8 n=57 v=51
4880 On ch=8 n=52 v=51
4912 Off ch=8 n=60 v=0
4916 Off ch=8 n=57 v=0
4925 Off ch=8 n=52 v=0
4974 On ch=8 n=52 v=51
4983 On ch=8 n=55 v=51
4983 On ch=8 n=59 v=51
5118 Off ch=8 n=55 v=0
5122 Off ch=8 n=52 v=0
5127 Off ch=8 n=59 v=0
5176 On ch=8 n=55 v=51
5176 On ch=8 n=59 v=51
5176 On ch=8 n=52 v=51
5212 Off ch=8 n=59 v=0
5212 Off ch=8 n=55 v=0
5221 Off ch=8 n=52 v=0
5270 On ch=8 n=52 v=51
5279 On ch=8 n=60 v=51
5283 On ch=8 n=57 v=51
5391 Off ch=8 n=57 v=0
5400 Off ch=8 n=60 v=0
5400 Off ch=8 n=52 v=0
5449 On ch=8 n=52 v=51
5454 On ch=8 n=60 v=51
5454 On ch=8 n=57 v=51
5588 Off ch=8 n=57 v=0
5592 Off ch=8 n=60 v=0
5592 Off ch=8 n=52 v=0
5651 On ch=8 n=60 v=51
5651 On ch=8 n=57 v=51
5651 On ch=8 n=52 v=51
5682 Off ch=8 n=57 v=0
5682 Off ch=8 n=60 v=0
5691 Off ch=8 n=52 v=0
5736 On ch=8 n=52 v=51
5745 On ch=8 n=59 v=51
5749 On ch=8 n=55 v=51
5843 Off ch=8 n=55 v=0
5852 Off ch=8 n=59 v=0
5852 Off ch=8 n=52 v=0
5933 On ch=8 n=55 v=51
5933 On ch=8 n=59 v=51
5933 On ch=8 n=52 v=51
6023 Off ch=8 n=52 v=0
6023 Off ch=8 n=59 v=0
6023 Off ch=8 n=55 v=0
6112 On ch=8 n=52 v=51
6126 On ch=8 n=60 v=51
6126 On ch=8 n=57 v=51
6368 Off ch=8 n=57 v=0
6368 Off ch=8 n=60 v=0
6376 Off ch=8 n=52 v=0
6417 On ch=8 n=52 v=52
6426 On ch=8 n=60 v=52
6426 On ch=8 n=57 v=52
6457 Off ch=8 n=57 v=0
6462 Off ch=8 n=60 v=0
6471 Off ch=8 n=52 v=0
6515 On ch=8 n=52 v=52
6520 On ch=8 n=55 v=52
6520 On ch=8 n=59 v=52
6654 Off ch=8 n=55 v=0
6663 Off ch=8 n=59 v=0
6663 Off ch=8 n=52 v=0
6708 On ch=8 n=59 v=52
6708 On ch=8 n=52 v=52
6712 On ch=8 n=55 v=52
6744 Off ch=8 n=55 v=0
6748 Off ch=8 n=59 v=0
6757 Off ch=8 n=52 v=0
6816 On ch=8 n=60 v=52
6816 On ch=8 n=57 v=52
6816 On ch=8 n=52 v=52
6887 Off ch=8 n=52 v=0
6887 Off ch=8 n=57 v=0
6901 Off ch=8 n=60 v=0
6990 On ch=8 n=52 v=52
6995 On ch=8 n=60 v=52
6995 On ch=8 n=57 v=52
7116 Off ch=8 n=57 v=0
7120 Off ch=8 n=60 v=0
7129 Off ch=8 n=52 v=0
7183 On ch=8 n=57 v=52
7183 On ch=8 n=52 v=52
7183 On ch=8 n=60 v=52
7214 Off ch=8 n=60 v=0
7214 Off ch=8 n=57 v=0
7219 Off ch=8 n=52 v=0
7268 On ch=8 n=52 v=52
7272 On ch=8 n=59 v=52
7281 On ch=8 n=55 v=52
7362 Off ch=8 n=55 v=0
7376 Off ch=8 n=59 v=0
7380 Off ch=8 n=52 v=0
7465 On ch=8 n=55 v=52
7465 On ch=8 n=59 v=52
7465 On ch=8 n=52 v=52
7559 Off ch=8 n=59 v=0
7564 Off ch=8 n=55 v=0
7568 Off ch=8 n=52 v=0
7644 On ch=8 n=52 v=52
7658 On ch=8 n=60 v=52
7658 On ch=8 n=57 v=52
7886 Off ch=8 n=57 v=0
7886 Off ch=8 n=60 v=0
7895 Off ch=8 n=52 v=0
7949 On ch=8 n=57 v=57
7949 On ch=8 n=52 v=57
7953 On ch=8 n=60 v=57
7985 Off ch=8 n=60 v=0
7989 Off ch=8 n=57 v=0
7998 Off ch=8 n=52 v=0
8039 On ch=8 n=52 v=57
8043 On ch=8 n=55 v=57
8048 On ch=8 n=59 v=57
8173 Off ch=8 n=55 v=0
8177 Off ch=8 n=52 v=0
8186 Off ch=8 n=59 v=0
8231 On ch=8 n=59 v=57
8231 On ch=8 n=52 v=57
8240 On ch=8 n=55 v=57
8258 Off ch=8 n=55 v=0
8272 Off ch=8 n=59 v=0
8285 Off ch=8 n=52 v=0
8334 On ch=8 n=52 v=57
8348 On ch=8 n=60 v=57
8348 On ch=8 n=57 v=57
8460 Off ch=8 n=57 v=0
8460 Off ch=8 n=60 v=0
8464 Off ch=8 n=52 v=0
8518 On ch=8 n=52 v=57
8522 On ch=8 n=60 v=57
8522 On ch=8 n=57 v=57
8652 Off ch=8 n=57 v=0
8652 Off ch=8 n=60 v=0
8657 Off ch=8 n=52 v=0
8706 On ch=8 n=60 v=57
8706 On ch=8 n=57 v=57
8706 On ch=8 n=52 v=57
8751 Off ch=8 n=57 v=0
8751 Off ch=8 n=60 v=0
8760 Off ch=8 n=52 v=0
8805 On ch=8 n=52 v=57
8809 On ch=8 n=55 v=57
8809 On ch=8 n=59 v=57
8926 Off ch=8 n=55 v=0
8930 Off ch=8 n=59 v=0
8939 Off ch=8 n=52 v=0
9015 On ch=8 n=55 v=57
9015 On ch=8 n=59 v=57
9015 On ch=8 n=52 v=57
9118 Off ch=8 n=59 v=0
9118 Off ch=8 n=55 v=0
9127 Off ch=8 n=52 v=0
9199 On ch=8 n=52 v=57
9212 On ch=8 n=60 v=57
9212 On ch=8 n=57 v=57
9432 Off ch=8 n=57 v=0
9432 Off ch=8 n=60 v=0
9432 Off ch=8 n=52 v=0
9486 On ch=8 n=57 v=57
9486 On ch=8 n=52 v=57
9495 On ch=8 n=60 v=57
9526 Off ch=8 n=60 v=0
9526 Off ch=8 n=57 v=0
9544 Off ch=8 n=52 v=0
9584 On ch=8 n=52 v=57
9593 On ch=8 n=55 v=57
9593 On ch=8 n=59 v=57
9728 Off ch=8 n=55 v=0
9732 Off ch=8 n=59 v=0
9741 Off ch=8 n=52 v=0
9786 On ch=8 n=59 v=57
9786 On ch=8 n=52 v=57
9790 On ch=8 n=55 v=57
9826 Off ch=8 n=55 v=0
9826 Off ch=8 n=59 v=0
9835 Off ch=8 n=52 v=0
9889 On ch=8 n=52 v=57
9893 On ch=8 n=60 v=57
9893 On ch=8 n=57 v=57
9996 Off ch=8 n=57 v=0
9996 Off ch=8 n=60 v=0
10001 Off ch=8 n=52 v=0
10068 On ch=8 n=60 v=57
10068 On ch=8 n=57 v=57
10068 On ch=8 n=52 v=57
10184 Off ch=8 n=57 v=0
10189 Off ch=8 n=60 v=0
10198 Off ch=8 n=52 v=0
10247 On ch=8 n=57 v=57
10252 On ch=8 n=52 v=57
10256 On ch=8 n=60 v=57
10283 Off ch=8 n=60 v=0
10292 Off ch=8 n=52 v=0
10292 Off ch=8 n=57 v=0
10346 On ch=8 n=52 v=57
10350 On ch=8 n=55 v=57
10350 On ch=8 n=59 v=57
10449 Off ch=8 n=59 v=0
10449 Off ch=8 n=55 v=0
10458 Off ch=8 n=52 v=0
10538 On ch=8 n=52 v=57
10543 On ch=8 n=55 v=57
10543 On ch=8 n=59 v=57
10632 Off ch=8 n=55 v=0
10637 Off ch=8 n=59 v=0
10637 Off ch=8 n=52 v=0
10750 On ch=8 n=60 v=57
10754 On ch=8 n=64 v=57
10754 On ch=8 n=64 v=57
10799 On ch=8 n=86 v=57
11009 Off ch=8 n=64 v=0
11009 Off ch=8 n=64 v=0
11032 Off ch=8 n=60 v=0
11054 On ch=8 n=64 v=54
11054 On ch=8 n=64 v=54
11068 On ch=8 n=60 v=54
11099 Off ch=8 n=60 v=0
11099 Off ch=8 n=64 v=0
11099 Off ch=8 n=64 v=0
11144 On ch=8 n=64 v=54
11144 On ch=8 n=60 v=54
11144 On ch=8 n=64 v=54
11184 Off ch=8 n=60 v=0
11193 Off ch=8 n=64 v=0
11193 Off ch=8 n=64 v=0
11242 On ch=8 n=64 v=54
11242 On ch=8 n=60 v=54
11242 On ch=8 n=64 v=54
11260 Off ch=8 n=86 v=0
11301 On ch=8 n=88 v=54
11377 Off ch=8 n=64 v=0
11377 Off ch=8 n=64 v=0
11386 Off ch=8 n=60 v=0
11395 Off ch=8 n=88 v=0
11431 On ch=8 n=59 v=55
11440 On ch=8 n=62 v=55
11440 On ch=8 n=62 v=55
11525 On ch=8 n=83 v=55
11565 Off ch=8 n=59 v=0
11574 Off ch=8 n=62 v=0
11574 Off ch=8 n=62 v=0
11623 On ch=8 n=59 v=55
11628 On ch=8 n=62 v=55
11628 On ch=8 n=62 v=55
11753 Off ch=8 n=59 v=0
11762 Off ch=8 n=62 v=0
11762 Off ch=8 n=62 v=0
11798 Off ch=8 n=83 v=0
11811 On ch=8 n=62 v=55
11811 On ch=8 n=59 v=55
11811 On ch=8 n=62 v=55
11843 On ch=8 n=84 v=56
11852 Off ch=8 n=62 v=0
11852 Off ch=8 n=62 v=0
11852 Off ch=8 n=59 v=0
11896 On ch=8 n=59 v=56
11901 On ch=8 n=62 v=56
11901 On ch=8 n=62 v=56
11937 Off ch=8 n=59 v=0
11959 Off ch=8 n=62 v=0
11959 Off ch=8 n=62 v=0
11986 On ch=8 n=60 v=56
11986 On ch=8 n=60 v=56
11991 On ch=8 n=57 v=56
12026 Off ch=8 n=57 v=0
12035 Off ch=8 n=60 v=0
12035 Off ch=8 n=60 v=0
12071 On ch=8 n=57 v=56
12071 On ch=8 n=57 v=56
12085 On ch=8 n=55 v=56
12183 Off ch=8 n=57 v=0
12183 Off ch=8 n=57 v=0
12192 Off ch=8 n=55 v=0
12224 Off ch=8 n=84 v=0
12259 On ch=8 n=55 v=57
12259 On ch=8 n=55 v=57
12273 On ch=8 n=50 v=57
12291 On ch=8 n=86 v=57
12465 Off ch=8 n=86 v=0
12483 On ch=8 n=84 v=57
12506 Off ch=8 n=55 v=0
12506 Off ch=8 n=55 v=0
12519 Off ch=8 n=50 v=0
12546 Off ch=8 n=84 v=0
12551 On ch=8 n=55 v=57
12551 On ch=8 n=55 v=57
12555 On ch=8 n=50 v=57
12582 On ch=8 n=83 v=57
12595 Off ch=8 n=55 v=0
12595 Off ch=8 n=55 v=0
12600 Off ch=8 n=50 v=0
12645 On ch=8 n=55 v=58
12645 On ch=8 n=55 v=58
12649 On ch=8 n=50 v=58
12716 Off ch=8 n=50 v=0
12716 Off ch=8 n=55 v=0
12716 Off ch=8 n=55 v=0
12743 Off ch=8 n=83 v=0
12761 On ch=8 n=59 v=58
12761 On ch=8 n=52 v=58
12761 On ch=8 n=59 v=58
12792 On ch=8 n=84 v=58
12864 Off ch=8 n=84 v=0
12882 On ch=8 n=83 v=58
12887 Off ch=8 n=52 v=0
12896 Off ch=8 n=59 v=0
12896 Off ch=8 n=59 v=0
12954 On ch=8 n=64 v=58
12954 On ch=8 n=64 v=58
12972 On ch=8 n=55 v=58
12981 Off ch=8 n=83 v=0
12999 On ch=8 n=62 v=58
12999 On ch=8 n=62 v=58
13021 Off ch=8 n=64 v=0
13021 Off ch=8 n=64 v=0
13057 On ch=8 n=79 v=59
13066 Off ch=8 n=62 v=0
13066 Off ch=8 n=62 v=0
13084 On ch=8 n=57 v=59
13084 On ch=8 n=57 v=59
13344 Off ch=8 n=79 v=0
13370 On ch=8 n=81 v=59
13370 Off ch=8 n=57 v=0
13370 Off ch=8 n=57 v=0
13447 Off ch=8 n=55 v=0
13756 Off ch=8 n=81 v=0
13818 On ch=8 n=60 v=60
13820 On ch=8 n=69 v=60
13820 On ch=8 n=69 v=60
13966 Off ch=8 n=60 v=0
13968 Off ch=8 n=69 v=0
13968 Off ch=8 n=69 v=0
14011 On ch=8 n=60 v=61
14017 On ch=8 n=69 v=61
14017 On ch=8 n=69 v=61
14056 Off ch=8 n=60 v=0
14057 Off ch=8 n=69 v=0
14057 Off ch=8 n=69 v=0
14114 On ch=8 n=60 v=61
14124 On ch=8 n=69 v=61
14124 On ch=8 n=69 v=61
14231 Off ch=8 n=60 v=0
14241 Off ch=8 n=69 v=0
14241 Off ch=8 n=69 v=0
14284 On ch=8 n=59 v=61
14290 On ch=8 n=67 v=60
14290 On ch=8 n=67 v=60
14334 Off ch=8 n=59 v=0
14357 Off ch=8 n=67 v=0
14357 Off ch=8 n=67 v=0
14369 On ch=8 n=57 v=60
14393 On ch=8 n=65 v=60
14393 On ch=8 n=65 v=60
14499 Off ch=8 n=57 v=0
14532 Off ch=8 n=65 v=0
14532 Off ch=8 n=65 v=0
14576 On ch=8 n=59 v=60
14586 On ch=8 n=67 v=60
14586 On ch=8 n=67 v=60
14705 Off ch=8 n=59 v=0
14707 Off ch=8 n=67 v=0
14707 Off ch=8 n=67 v=0
14759 On ch=8 n=59 v=59
14769 On ch=8 n=67 v=59
14769 On ch=8 n=67 v=59
14813 Off ch=8 n=59 v=0
14819 Off ch=8 n=67 v=0
14819 Off ch=8 n=67 v=0
14867 On ch=8 n=59 v=59
14881 On ch=8 n=67 v=59
14881 On ch=8 n=67 v=59
15001 Off ch=8 n=59 v=0
15011 Off ch=8 n=67 v=0
15011 Off ch=8 n=67 v=0
15037 On ch=8 n=57 v=59
15047 On ch=8 n=65 v=59
15047 On ch=8 n=65 v=59
15082 Off ch=8 n=57 v=0
15096 Off ch=8 n=65 v=0
15096 Off ch=8 n=65 v=0
15140 On ch=8 n=55 v=58
15155 On ch=8 n=64 v=58
15155 On ch=8 n=64 v=58
15274 Off ch=8 n=55 v=0
15298 Off ch=8 n=64 v=0
15298 Off ch=8 n=64 v=0
15342 On ch=8 n=57 v=58
15352 On ch=8 n=69 v=58
15352 On ch=8 n=69 v=58
15704 Off ch=8 n=57 v=0
15764 Off ch=8 n=69 v=0
15764 Off ch=8 n=69 v=0
16901 On ch=8 n=67 v=50
16907 On ch=8 n=57 v=50
16907 On ch=8 n=52 v=50
16912 On ch=8 n=60 v=50
17048 Off ch=8 n=67 v=0
17084 On ch=8 n=69 v=50
17140 Off ch=8 n=60 v=0
17140 Off ch=8 n=52 v=0
17144 Off ch=8 n=57 v=0
17167 Off ch=8 n=69 v=0
17194 On ch=8 n=71 v=50
17203 On ch=8 n=57 v=50
17207 On ch=8 n=60 v=50
17207 On ch=8 n=52 v=50
17230 Off ch=8 n=52 v=0
17230 Off ch=8 n=60 v=0
17239 Off ch=8 n=57 v=0
17297 On ch=8 n=52 v=50
17297 On ch=8 n=59 v=50
17306 On ch=8 n=55 v=50
17341 Off ch=8 n=71 v=0
17369 On ch=8 n=69 v=51
17409 Off ch=8 n=55 v=0
17413 Off ch=8 n=52 v=0
17418 Off ch=8 n=59 v=0
17432 Off ch=8 n=69 v=0
17476 On ch=8 n=55 v=51
17479 On ch=8 n=71 v=51
17485 On ch=8 n=59 v=51
17485 On ch=8 n=52 v=51
17503 Off ch=8 n=52 v=0
17507 Off ch=8 n=59 v=0
17512 Off ch=8 n=55 v=0
17570 On ch=8 n=52 v=51
17579 On ch=8 n=57 v=51
17588 On ch=8 n=60 v=51
17621 Off ch=8 n=71 v=0
17670 On ch=8 n=72 v=51
17696 Off ch=8 n=52 v=0
17696 Off ch=8 n=60 v=0
17696 Off ch=8 n=57 v=0
17758 On ch=8 n=52 v=51
17763 On ch=8 n=60 v=51
17763 On ch=8 n=57 v=51
17826 Off ch=8 n=72 v=0
17853 On ch=8 n=71 v=52
17897 Off ch=8 n=57 v=0
17897 Off ch=8 n=60 v=0
17902 Off ch=8 n=52 v=0
17942 Off ch=8 n=71 v=0
17964 On ch=8 n=57 v=52
17969 On ch=8 n=69 v=52
17969 On ch=8 n=60 v=52
17969 On ch=8 n=52 v=52
18000 Off ch=8 n=52 v=0
18000 Off ch=8 n=60 v=0
18000 Off ch=8 n=57 v=0
18058 On ch=8 n=52 v=52
18058 On ch=8 n=55 v=52
18058 On ch=8 n=59 v=52
18111 Off ch=8 n=69 v=0
18152 On ch=8 n=71 v=52
18157 Off ch=8 n=59 v=0
18157 Off ch=8 n=55 v=0
18166 Off ch=8 n=52 v=0
18232 Off ch=8 n=71 v=0
18245 On ch=8 n=69 v=52
18251 On ch=8 n=55 v=52
18251 On ch=8 n=59 v=52
18251 On ch=8 n=52 v=52
18336 Off ch=8 n=59 v=0
18341 Off ch=8 n=52 v=0
18341 Off ch=8 n=55 v=0
18356 Off ch=8 n=69 v=0
18426 On ch=8 n=52 v=53
18435 On ch=8 n=57 v=53
18437 On ch=8 n=71 v=53
18444 On ch=8 n=60 v=53
18584 Off ch=8 n=71 v=0
18615 On ch=8 n=72 v=53
18663 Off ch=8 n=60 v=0
18663 Off ch=8 n=57 v=0
18668 Off ch=8 n=52 v=0
18694 Off ch=8 n=72 v=0
18712 On ch=8 n=57 v=53
18712 On ch=8 n=52 v=53
18721 On ch=8 n=60 v=53
18744 On ch=8 n=72 v=53
18757 Off ch=8 n=60 v=0
18757 Off ch=8 n=57 v=0
18757 Off ch=8 n=52 v=0
18759 On ch=8 n=74 v=53
18774 Off ch=8 n=72 v=0
18807 On ch=8 n=52 v=54
18811 On ch=8 n=55 v=54
18811 On ch=8 n=59 v=54
18890 Off ch=8 n=74 v=0
18910 On ch=8 n=72 v=54
18950 Off ch=8 n=55 v=0
18954 Off ch=8 n=52 v=0
18963 Off ch=8 n=59 v=0
19008 On ch=8 n=59 v=54
19008 On ch=8 n=52 v=54
19011 On ch=8 n=71 v=54
19013 On ch=8 n=55 v=54
19022 Off ch=8 n=72 v=0
19040 Off ch=8 n=55 v=0
19044 Off ch=8 n=59 v=0
19048 Off ch=8 n=52 v=0
19098 On ch=8 n=52 v=54
19107 On ch=8 n=60 v=54
19107 On ch=8 n=57 v=54
19163 Off ch=8 n=71 v=0
19207 On ch=8 n=69 v=54
19223 Off ch=8 n=52 v=0
19223 Off ch=8 n=57 v=0
19223 Off ch=8 n=60 v=0
19290 On ch=8 n=60 v=56
19290 On ch=8 n=57 v=56
19290 On ch=8 n=52 v=56
19420 Off ch=8 n=57 v=0
19425 Off ch=8 n=52 v=0
19425 Off ch=8 n=60 v=0
19483 On ch=8 n=52 v=56
19488 On ch=8 n=60 v=56
19492 On ch=8 n=57 v=56
19519 Off ch=8 n=60 v=0
19523 Off ch=8 n=57 v=0
19532 Off ch=8 n=52 v=0
19573 On ch=8 n=52 v=56
19578 Off ch=8 n=69 v=0
19586 On ch=8 n=55 v=56
19586 On ch=8 n=59 v=56
19698 Off ch=8 n=59 v=0
19698 Off ch=8 n=55 v=0
19698 Off ch=8 n=52 v=0
19779 On ch=8 n=55 v=55
19779 On ch=8 n=59 v=55
19779 On ch=8 n=52 v=55
19855 Off ch=8 n=59 v=0
19864 Off ch=8 n=52 v=0
19864 Off ch=8 n=55 v=0
19958 On ch=8 n=52 v=55
19967 On ch=8 n=60 v=55
19967 On ch=8 n=57 v=55
20182 Off ch=8 n=57 v=0
20182 Off ch=8 n=60 v=0
20191 Off ch=8 n=52 v=0
20240 On ch=8 n=60 v=54
20240 On ch=8 n=57 v=54
20240 On ch=8 n=52 v=54
20272 Off ch=8 n=60 v=0
20276 Off ch=8 n=57 v=0
20285 Off ch=8 n=52 v=0
20334 On ch=8 n=52 v=54
20343 On ch=8 n=55 v=54
20343 On ch=8 n=59 v=54
20478 Off ch=8 n=55 v=0
20482 Off ch=8 n=52 v=0
20487 Off ch=8 n=59 v=0
20536 On ch=8 n=55 v=54
20536 On ch=8 n=59 v=54
20536 On ch=8 n=52 v=54
20572 Off ch=8 n=59 v=0
20572 Off ch=8 n=55 v=0
20581 Off ch=8 n=52 v=0
20630 On ch=8 n=52 v=54
20639 On ch=8 n=60 v=54
20643 On ch=8 n=57 v=54
20751 Off ch=8 n=57 v=0
20760 Off ch=8 n=60 v=0
20760 Off ch=8 n=52 v=0
20809 On ch=8 n=52 v=49
20814 On ch=8 n=60 v=49
20814 On ch=8 n=57 v=49
20948 Off ch=8 n=57 v=0
20952 Off ch=8 n=60 v=0
20952 Off ch=8 n=52 v=0
21011 On ch=8 n=60 v=49
21011 On ch=8 n=57 v=49
21011 On ch=8 n=52 v=49
21042 Off ch=8 n=57 v=0
21042 Off ch=8 n=60 v=0
21051 Off ch=8 n=52 v=0
21096 On ch=8 n=52 v=49
21105 On ch=8 n=59 v=49
21109 On ch=8 n=55 v=49
21203 Off ch=8 n=55 v=0
21212 Off ch=8 n=59 v=0
21212 Off ch=8 n=52 v=0
21293 On ch=8 n=55 v=50
21293 On ch=8 n=59 v=50
21293 On ch=8 n=52 v=50
21383 Off ch=8 n=52 v=0
21383 Off ch=8 n=59 v=0
21383 Off ch=8 n=55 v=0
21472 On ch=8 n=52 v=50
21486 On ch=8 n=60 v=50
21486 On ch=8 n=57 v=50
21728 Off ch=8 n=57 v=0
21728 Off ch=8 n=60 v=0
21736 Off ch=8 n=52 v=0
21777 On ch=8 n=52 v=51
21786 On ch=8 n=60 v=51
21786 On ch=8 n=57 v=51
21817 Off ch=8 n=57 v=0
21822 Off ch=8 n=60 v=0
21831 Off ch=8 n=52 v=0
21875 On ch=8 n=52 v=51
21880 On ch=8 n=55 v=51
21880 On ch=8 n=59 v=51
22014 Off ch=8 n=55 v=0
22023 Off ch=8 n=59 v=0
22023 Off ch=8 n=52 v=0
22068 On ch=8 n=59 v=51
22068 On ch=8 n=52 v=51
22072 On ch=8 n=55 v=51
22104 Off ch=8 n=55 v=0
22108 Off ch=8 n=59 v=0
22117 Off ch=8 n=52 v=0
22176 On ch=8 n=60 v=52
22176 On ch=8 n=57 v=52
22176 On ch=8 n=52 v=52
22247 Off ch=8 n=52 v=0
22247 Off ch=8 n=57 v=0
22261 Off ch=8 n=60 v=0
22350 On ch=8 n=52 v=52
22355 On ch=8 n=60 v=52
22355 On ch=8 n=57 v=52
22476 Off ch=8 n=57 v=0
22480 Off ch=8 n=60 v=0
22489 Off ch=8 n=52 v=0
22543 On ch=8 n=57 v=53
22543 On ch=8 n=52 v=53
22543 On ch=8 n=60 v=53
22574 Off ch=8 n=60 v=0
22574 Off ch=8 n=57 v=0
22579 Off ch=8 n=52 v=0
22628 On ch=8 n=52 v=53
22632 On ch=8 n=59 v=53
22641 On ch=8 n=55 v=53
22722 Off ch=8 n=55 v=0
22736 Off ch=8 n=59 v=0
22740 Off ch=8 n=52 v=0
22825 On ch=8 n=55 v=53
22825 On ch=8 n=59 v=53
22825 On ch=8 n=52 v=53
22919 Off ch=8 n=59 v=0
22924 Off ch=8 n=55 v=0
22928 Off ch=8 n=52 v=0
23004 On ch=8 n=52 v=54
23018 On ch=8 n=60 v=54
23018 On ch=8 n=57 v=54
23246 Off ch=8 n=57 v=0
23246 Off ch=8 n=60 v=0
23255 Off ch=8 n=52 v=0
23309 On ch=8 n=57 v=54
23309 On ch=8 n=52 v=54
23313 On ch=8 n=60 v=54
23345 Off ch=8 n=60 v=0
23349 Off ch=8 n=57 v=0
23358 Off ch=8 n=52 v=0
23399 On ch=8 n=52 v=55
23403 On ch=8 n=55 v=55
23408 On ch=8 n=59 v=55
23533 Off ch=8 n=55 v=0
23537 Off ch=8 n=52 v=0
23546 Off ch=8 n=59 v=0
23591 On ch=8 n=59 v=55
23591 On ch=8 n=52 v=55
23600 On ch=8 n=55 v=55
23618 Off ch=8 n=55 v=0
23632 Off ch=8 n=59 v=0
23645 Off ch=8 n=52 v=0
23694 On ch=8 n=52 v=55
23708 On ch=8 n=60 v=55
23708 On ch=8 n=57 v=55
23820 Off ch=8 n=57 v=0
23820 Off ch=8 n=60 v=0
23824 Off ch=8 n=52 v=0
23878 On ch=8 n=52 v=51
23882 On ch=8 n=60 v=51
23882 On ch=8 n=57 v=51
24012 Off ch=8 n=57 v=0
24012 Off ch=8 n=60 v=0
24017 Off ch=8 n=52 v=0
24066 On ch=8 n=60 v=51
24066 On ch=8 n=57 v=51
24066 On ch=8 n=52 v=51
24111 Off ch=8 n=57 v=0
24111 Off ch=8 n=60 v=0
24120 Off ch=8 n=52 v=0
24165 On ch=8 n=52 v=51
24169 On ch=8 n=55 v=51
24169 On ch=8 n=59 v=51
24286 Off ch=8 n=55 v=0
24290 Off ch=8 n=59 v=0
24299 Off ch=8 n=52 v=0
24375 On ch=8 n=55 v=51
24375 On ch=8 n=59 v=51
24375 On ch=8 n=52 v=51
24478 Off ch=8 n=59 v=0
24478 Off ch=8 n=55 v=0
24487 Off ch=8 n=52 v=0
24559 On ch=8 n=52 v=51
24572 On ch=8 n=60 v=51
24572 On ch=8 n=57 v=51
24792 Off ch=8 n=57 v=0
24792 Off ch=8 n=60 v=0
24792 Off ch=8 n=52 v=0
24846 On ch=8 n=57 v=50
24846 On ch=8 n=52 v=50
24855 On ch=8 n=60 v=50
24886 Off ch=8 n=60 v=0
24886 Off ch=8 n=57 v=0
24904 Off ch=8 n=52 v=0
24944 On ch=8 n=52 v=50
24953 On ch=8 n=55 v=50
24953 On ch=8 n=59 v=50
25088 Off ch=8 n=55 v=0
25092 Off ch=8 n=59 v=0
25101 Off ch=8 n=52 v=0
25146 On ch=8 n=59 v=50
25146 On ch=8 n=52 v=50
25150 On ch=8 n=55 v=50
25186 Off ch=8 n=55 v=0
25186 Off ch=8 n=59 v=0
25195 Off ch=8 n=52 v=0
25249 On ch=8 n=52 v=50
25253 On ch=8 n=60 v=50
25253 On ch=8 n=57 v=50
25356 Off ch=8 n=57 v=0
25356 Off ch=8 n=60 v=0
25361 Off ch=8 n=52 v=0
25428 On ch=8 n=60 v=50
25428 On ch=8 n=57 v=50
25428 On ch=8 n=52 v=50
25544 Off ch=8 n=57 v=0
25549 Off ch=8 n=60 v=0
25558 Off ch=8 n=52 v=0
25607 On ch=8 n=57 v=50
25612 On ch=8 n=52 v=50
25616 On ch=8 n=60 v=50
25643 Off ch=8 n=60 v=0
25652 Off ch=8 n=52 v=0
25652 Off ch=8 n=57 v=0
25706 On ch=8 n=52 v=50
25710 On ch=8 n=55 v=50
25710 On ch=8 n=59 v=50
25809 Off ch=8 n=59 v=0
25809 Off ch=8 n=55 v=0
25818 Off ch=8 n=52 v=0
25898 On ch=8 n=52 v=49
25903 On ch=8 n=55 v=49
25903 On ch=8 n=59 v=49
25992 Off ch=8 n=55 v=0
25997 Off ch=8 n=59 v=0
25997 Off ch=8 n=52 v=0
26110 On ch=8 n=60 v=49
26114 On ch=8 n=64 v=49
26114 On ch=8 n=64 v=49
26369 Off ch=8 n=64 v=0
26369 Off ch=8 n=64 v=0
26392 Off ch=8 n=60 v=0
26414 On ch=8 n=64 v=49
26414 On ch=8 n=64 v=49
26428 On ch=8 n=60 v=49
26459 Off ch=8 n=60 v=0
26459 Off ch=8 n=64 v=0
26459 Off ch=8 n=64 v=0
26504 On ch=8 n=64 v=49
26504 On ch=8 n=60 v=49
26504 On ch=8 n=64 v=49
26544 Off ch=8 n=60 v=0
26553 Off ch=8 n=64 v=0
26553 Off ch=8 n=64 v=0
26602 On ch=8 n=64 v=49
26602 On ch=8 n=60 v=49
26602 On ch=8 n=64 v=49
26737 Off ch=8 n=64 v=0
26737 Off ch=8 n=64 v=0
26746 Off ch=8 n=60 v=0
26791 On ch=8 n=59 v=49
26800 On ch=8 n=62 v=49
26800 On ch=8 n=62 v=49
26925 Off ch=8 n=59 v=0
26934 Off ch=8 n=62 v=0
26934 Off ch=8 n=62 v=0
26983 On ch=8 n=59 v=52
26988 On ch=8 n=62 v=53
26988 On ch=8 n=62 v=53
27113 Off ch=8 n=59 v=0
27122 Off ch=8 n=62 v=0
27122 Off ch=8 n=62 v=0
27171 On ch=8 n=62 v=61
27171 On ch=8 n=59 v=61
27171 On ch=8 n=62 v=61
27212 Off ch=8 n=62 v=0
27212 Off ch=8 n=59 v=0
27212 Off ch=8 n=62 v=0
27256 On ch=8 n=59 v=61
27261 On ch=8 n=62 v=61
27261 On ch=8 n=62 v=61
27297 Off ch=8 n=59 v=0
27319 Off ch=8 n=62 v=0
27319 Off ch=8 n=62 v=0
27346 On ch=8 n=60 v=61
27346 On ch=8 n=60 v=61
27351 On ch=8 n=57 v=61
27386 Off ch=8 n=57 v=0
27395 Off ch=8 n=60 v=0
27395 Off ch=8 n=60 v=0
27431 On ch=8 n=57 v=61
27431 On ch=8 n=57 v=61
27445 On ch=8 n=55 v=61
27543 Off ch=8 n=57 v=0
27543 Off ch=8 n=57 v=0
27552 Off ch=8 n=55 v=0
27619 On ch=8 n=55 v=60
27619 On ch=8 n=55 v=60
27633 On ch=8 n=50 v=60
27866 Off ch=8 n=55 v=0
27866 Off ch=8 n=55 v=0
27879 Off ch=8 n=50 v=0
27911 On ch=8 n=55 v=60
27911 On ch=8 n=55 v=60
27915 On ch=8 n=50 v=60
27955 Off ch=8 n=55 v=0
27955 Off ch=8 n=55 v=0
27960 Off ch=8 n=50 v=0
28005 On ch=8 n=55 v=60
28005 On ch=8 n=55 v=60
28009 On ch=8 n=50 v=60
28076 Off ch=8 n=50 v=0
28076 Off ch=8 n=55 v=0
28076 Off ch=8 n=55 v=0
28121 On ch=8 n=59 v=59
28121 On ch=8 n=52 v=59
28121 On ch=8 n=59 v=59
28247 Off ch=8 n=52 v=0
28256 Off ch=8 n=59 v=0
28256 Off ch=8 n=59 v=0
28314 On ch=8 n=64 v=59
28314 On ch=8 n=64 v=59
28332 On ch=8 n=55 v=59
28359 On ch=8 n=62 v=59
28359 On ch=8 n=62 v=59
28381 Off ch=8 n=64 v=0
28381 Off ch=8 n=64 v=0
28426 Off ch=8 n=62 v=0
28426 Off ch=8 n=62 v=0
28444 On ch=8 n=57 v=59
28444 On ch=8 n=57 v=59
28730 Off ch=8 n=57 v=0
28730 Off ch=8 n=57 v=0
28807 Off ch=8 n=55 v=0
29178 On ch=8 n=60 v=57
29180 On ch=8 n=69 v=57
29180 On ch=8 n=69 v=57
29326 Off ch=8 n=60 v=0
29328 Off ch=8 n=69 v=0
29328 Off ch=8 n=69 v=0
29371 On ch=8 n=60 v=57
29377 On ch=8 n=69 v=57
29377 On ch=8 n=69 v=57
29416 Off ch=8 n=60 v=0
29417 Off ch=8 n=69 v=0
29417 Off ch=8 n=69 v=0
29474 On ch=8 n=60 v=57
29484 On ch=8 n=69 v=57
29484 On ch=8 n=69 v=57
29591 Off ch=8 n=60 v=0
29601 Off ch=8 n=69 v=0
29601 Off ch=8 n=69 v=0
29644 On ch=8 n=59 v=56
29650 On ch=8 n=67 v=56
29650 On ch=8 n=67 v=56
29694 Off ch=8 n=59 v=0
29717 Off ch=8 n=67 v=0
29717 Off ch=8 n=67 v=0
29729 On ch=8 n=57 v=56
29753 On ch=8 n=65 v=56
29753 On ch=8 n=65 v=56
29859 Off ch=8 n=57 v=0
29892 Off ch=8 n=65 v=0
29892 Off ch=8 n=65 v=0
29936 On ch=8 n=59 v=56
29946 On ch=8 n=67 v=56
29946 On ch=8 n=67 v=56
30065 Off ch=8 n=59 v=0
30067 Off ch=8 n=67 v=0
30067 Off ch=8 n=67 v=0
30119 On ch=8 n=59 v=58
30129 On ch=8 n=67 v=58
30129 On ch=8 n=67 v=58
30173 Off ch=8 n=59 v=0
30179 Off ch=8 n=67 v=0
30179 Off ch=8 n=67 v=0
30227 On ch=8 n=59 v=58
30241 On ch=8 n=67 v=58
30241 On ch=8 n=67 v=58
30361 Off ch=8 n=59 v=0
30371 Off ch=8 n=67 v=0
30371 Off ch=8 n=67 v=0
30397 On ch=8 n=57 v=59
30407 On ch=8 n=65 v=59
30407 On ch=8 n=65 v=59
30442 Off ch=8 n=57 v=0
30456 Off ch=8 n=65 v=0
30456 Off ch=8 n=65 v=0
30500 On ch=8 n=55 v=59
30515 On ch=8 n=64 v=59
30515 On ch=8 n=64 v=59
30634 Off ch=8 n=55 v=0
30658 Off ch=8 n=64 v=0
30658 Off ch=8 n=64 v=0
30702 On ch=8 n=57 v=60
30712 On ch=8 n=69 v=60
30712 On ch=8 n=69 v=60
31064 Off ch=8 n=57 v=0
31124 Off ch=8 n=69 v=0
31124 Off ch=8 n=69 v=0
32251 On ch=8 n=74 v=72
32251 On ch=8 n=77 v=72
32362 Off ch=8 n=77 v=0
32362 Off ch=8 n=74 v=0
32429 On ch=8 n=74 v=72
32429 On ch=8 n=77 v=72
32465 Off ch=8 n=77 v=0
32468 Off ch=8 n=74 v=0
32537 On ch=8 n=74 v=72
32537 On ch=8 n=77 v=72
32651 Off ch=8 n=77 v=0
32651 Off ch=8 n=74 v=0
32710 On ch=8 n=77 v=72
32716 On ch=8 n=74 v=72
32746 Off ch=8 n=74 v=0
32746 Off ch=8 n=77 v=0
32816 On ch=8 n=72 v=72
32816 On ch=8 n=76 v=72
32921 Off ch=8 n=76 v=0
32921 Off ch=8 n=72 v=0
33000 On ch=8 n=74 v=72
33000 On ch=8 n=77 v=72
33131 Off ch=8 n=77 v=0
33131 Off ch=8 n=74 v=0
33175 On ch=8 n=74 v=72
33178 On ch=8 n=77 v=72
33222 Off ch=8 n=77 v=0
33222 Off ch=8 n=74 v=0
33271 On ch=8 n=77 v=72
33278 On ch=8 n=74 v=72
33390 Off ch=8 n=74 v=0
33390 Off ch=8 n=77 v=0
33452 On ch=8 n=77 v=72
33459 On ch=8 n=74 v=72
33492 Off ch=8 n=74 v=0
33492 Off ch=8 n=77 v=0
33555 On ch=8 n=72 v=72
33557 On ch=8 n=76 v=72
33673 Off ch=8 n=76 v=0
33673 Off ch=8 n=72 v=0
33753 On ch=8 n=74 v=72
33753 On ch=8 n=77 v=72
33888 Off ch=8 n=74 v=0
33893 Off ch=8 n=77 v=0
33937 On ch=8 n=74 v=72
33937 On ch=8 n=77 v=72
33982 Off ch=8 n=77 v=0
33982 Off ch=8 n=74 v=0
34040 On ch=8 n=74 v=72
34040 On ch=8 n=77 v=72
34171 Off ch=8 n=74 v=0
34174 Off ch=8 n=77 v=0
34224 On ch=8 n=74 v=72
34224 On ch=8 n=77 v=72
34268 Off ch=8 n=77 v=0
34268 Off ch=8 n=74 v=0
34326 On ch=8 n=72 v=72
34326 On ch=8 n=76 v=72
34451 Off ch=8 n=76 v=0
34451 Off ch=8 n=72 v=0
34517 On ch=8 n=74 v=72
34517 On ch=8 n=77 v=72
34655 Off ch=8 n=77 v=0
34655 Off ch=8 n=74 v=0
34700 On ch=8 n=74 v=72
34700 On ch=8 n=77 v=72
34744 Off ch=8 n=77 v=0
34744 Off ch=8 n=74 v=0
34802 On ch=8 n=74 v=72
34803 On ch=8 n=77 v=72
34897 Off ch=8 n=77 v=0
34897 Off ch=8 n=74 v=0
34992 On ch=8 n=74 v=72
34992 On ch=8 n=77 v=72
35036 Off ch=8 n=74 v=0
35042 Off ch=8 n=77 v=0
35097 On ch=8 n=72 v=72
35097 On ch=8 n=76 v=72
35220 Off ch=8 n=76 v=0
35220 Off ch=8 n=72 v=0
35301 On ch=8 n=64 v=72
35308 On ch=8 n=69 v=72
35433 Off ch=8 n=69 v=0
35433 Off ch=8 n=64 v=0
35489 On ch=8 n=69 v=72
35492 On ch=8 n=64 v=72
35532 Off ch=8 n=64 v=0
35535 Off ch=8 n=69 v=0
35596 On ch=8 n=69 v=72
35596 On ch=8 n=64 v=72
35711 Off ch=8 n=64 v=0
35716 Off ch=8 n=69 v=0
35769 On ch=8 n=69 v=72
35770 On ch=8 n=64 v=72
35805 Off ch=8 n=64 v=0
35805 Off ch=8 n=69 v=0
35872 On ch=8 n=67 v=72
35875 On ch=8 n=62 v=72
35997 Off ch=8 n=62 v=0
36004 Off ch=8 n=67 v=0
36069 On ch=8 n=69 v=72
36070 On ch=8 n=64 v=72
36214 Off ch=8 n=64 v=0
36220 Off ch=8 n=69 v=0
36270 On ch=8 n=69 v=72
36271 On ch=8 n=64 v=72
36314 Off ch=8 n=64 v=0
36314 Off ch=8 n=69 v=0
36367 On ch=8 n=69 v=72
36367 On ch=8 n=64 v=72
36479 Off ch=8 n=64 v=0
36479 Off ch=8 n=69 v=0
36542 On ch=8 n=69 v=72
36546 On ch=8 n=64 v=72
36590 Off ch=8 n=64 v=0
36590 Off ch=8 n=69 v=0
36645 On ch=8 n=67 v=72
36645 On ch=8 n=62 v=72
36770 Off ch=8 n=62 v=0
36776 Off ch=8 n=67 v=0
36849 On ch=8 n=69 v=72
36849 On ch=8 n=64 v=72
36991 Off ch=8 n=64 v=0
36991 Off ch=8 n=69 v=0
37036 On ch=8 n=69 v=72
37039 On ch=8 n=64 v=72
37080 Off ch=8 n=64 v=0
37080 Off ch=8 n=69 v=0
37135 On ch=8 n=64 v=72
37139 On ch=8 n=69 v=72
37269 Off ch=8 n=69 v=0
37269 Off ch=8 n=64 v=0
37326 On ch=8 n=69 v=72
37328 On ch=8 n=64 v=72
37372 Off ch=8 n=69 v=0
37376 Off ch=8 n=64 v=0
37420 On ch=8 n=62 v=72
37428 On ch=8 n=67 v=72
37569 Off ch=8 n=62 v=0
37575 Off ch=8 n=67 v=0
37628 On ch=8 n=64 v=72
37634 On ch=8 n=69 v=72
37787 Off ch=8 n=69 v=0
37787 Off ch=8 n=64 v=0
37828 On ch=8 n=69 v=72
37829 On ch=8 n=64 v=72
37875 Off ch=8 n=64 v=0
37875 Off ch=8 n=69 v=0
37926 On ch=8 n=69 v=72
37926 On ch=8 n=64 v=72
38056 Off ch=8 n=64 v=0
38062 Off ch=8 n=69 v=0
38106 On ch=8 n=69 v=72
38107 On ch=8 n=64 v=72
38151 Off ch=8 n=64 v=0
38151 Off ch=8 n=69 v=0
38203 On ch=8 n=67 v=72
38204 On ch=8 n=62 v=72
38338 Off ch=8 n=62 v=0
38343 Off ch=8 n=67 v=0
38407 On ch=8 n=69 v=72
38409 On ch=8 n=64 v=72
38540 Off ch=8 n=69 v=0
38547 Off ch=8 n=64 v=0
38585 On ch=8 n=69 v=72
38585 On ch=8 n=64 v=72
38630 Off ch=8 n=64 v=0
38630 Off ch=8 n=69 v=0
38685 On ch=8 n=69 v=72
38685 On ch=8 n=64 v=72
38819 Off ch=8 n=64 v=0
38819 Off ch=8 n=69 v=0
38875 On ch=8 n=69 v=72
38875 On ch=8 n=64 v=72
38913 Off ch=8 n=64 v=0
38913 Off ch=8 n=69 v=0
38977 On ch=8 n=67 v=72
38977 On ch=8 n=62 v=72
39102 Off ch=8 n=62 v=0
39105 Off ch=8 n=67 v=0
39169 On ch=8 n=69 v=72
39169 On ch=8 n=64 v=72
39305 Off ch=8 n=69 v=0
39307 Off ch=8 n=64 v=0
39350 On ch=8 n=69 v=72
39351 On ch=8 n=64 v=72
39397 Off ch=8 n=69 v=0
39400 Off ch=8 n=64 v=0
39452 On ch=8 n=69 v=72
39453 On ch=8 n=64 v=72
39572 Off ch=8 n=64 v=0
39572 Off ch=8 n=69 v=0
39631 On ch=8 n=69 v=72
39633 On ch=8 n=64 v=72
39681 Off ch=8 n=64 v=0
39681 Off ch=8 n=69 v=0
39728 On ch=8 n=62 v=72
39734 On ch=8 n=67 v=72
39857 Off ch=8 n=62 v=0
39860 Off ch=8 n=67 v=0
39928 On ch=8 n=69 v=72
39928 On ch=8 n=64 v=72
40084 Off ch=8 n=64 v=0
40084 Off ch=8 n=69 v=0
40124 On ch=8 n=69 v=72
40128 On ch=8 n=64 v=72
40168 Off ch=8 n=64 v=0
40174 Off ch=8 n=69 v=0
40219 On ch=8 n=69 v=72
40219 On ch=8 n=64 v=72
40340 Off ch=8 n=64 v=0
40340 Off ch=8 n=69 v=0
40393 On ch=8 n=69 v=72
40400 On ch=8 n=64 v=72
40437 Off ch=8 n=64 v=0
40444 Off ch=8 n=69 v=0
40499 On ch=8 n=67 v=72
40501 On ch=8 n=62 v=72
40635 Off ch=8 n=62 v=0
40639 Off ch=8 n=67 v=0
40702 On ch=8 n=69 v=72
40704 On ch=8 n=64 v=72
40850 Off ch=8 n=64 v=0
40850 Off ch=8 n=69 v=0
40891 On ch=8 n=69 v=72
40892 On ch=8 n=64 v=72
40935 Off ch=8 n=64 v=0
40935 Off ch=8 n=69 v=0
40985 On ch=8 n=69 v=72
40986 On ch=8 n=64 v=72
41126 Off ch=8 n=64 v=0
41129 Off ch=8 n=69 v=0
41178 On ch=8 n=69 v=72
41178 On ch=8 n=64 v=72
41223 Off ch=8 n=64 v=0
41223 Off ch=8 n=69 v=0
41278 On ch=8 n=67 v=72
41278 On ch=8 n=62 v=72
41404 Off ch=8 n=62 v=0
41412 Off ch=8 n=67 v=0
41476 On ch=8 n=69 v=72
41476 On ch=8 n=64 v=72
41624 Off ch=8 n=64 v=0
41624 Off ch=8 n=69 v=0
41666 On ch=8 n=69 v=72
41668 On ch=8 n=64 v=72
41712 Off ch=8 n=64 v=0
41712 Off ch=8 n=69 v=0
41760 On ch=8 n=69 v=72
41760 On ch=8 n=64 v=72
41896 Off ch=8 n=64 v=0
41902 Off ch=8 n=69 v=0
41943 On ch=8 n=69 v=72
41943 On ch=8 n=64 v=72
41990 Off ch=8 n=64 v=0
41990 Off ch=8 n=69 v=0
42045 On ch=8 n=67 v=72
42046 On ch=8 n=62 v=72
42176 Off ch=8 n=62 v=0
42180 Off ch=8 n=67 v=0
42240 On ch=8 n=69 v=72
42242 On ch=8 n=64 v=72
42386 Off ch=8 n=64 v=0
42386 Off ch=8 n=69 v=0
42430 On ch=8 n=69 v=72
42430 On ch=8 n=64 v=72
42474 Off ch=8 n=64 v=0
42474 Off ch=8 n=69 v=0
42527 On ch=8 n=69 v=72
42527 On ch=8 n=64 v=72
42650 Off ch=8 n=64 v=0
42653 Off ch=8 n=69 v=0
42703 On ch=8 n=69 v=72
42703 On ch=8 n=64 v=72
42747 Off ch=8 n=64 v=0
42752 Off ch=8 n=69 v=0
42811 On ch=8 n=62 v=72
42814 On ch=8 n=67 v=72
42931 Off ch=8 n=62 v=0
42936 Off ch=8 n=67 v=0
43000 On ch=8 n=69 v=72
43001 On ch=8 n=64 v=72
43139 Off ch=8 n=64 v=0
43139 Off ch=8 n=69 v=0
43184 On ch=8 n=69 v=72
43184 On ch=8 n=64 v=72
43228 Off ch=8 n=64 v=0
43228 Off ch=8 n=69 v=0
43284 On ch=8 n=69 v=72
43284 On ch=8 n=64 v=72
43409 Off ch=8 n=64 v=0
43415 Off ch=8 n=69 v=0
43470 On ch=8 n=69 v=72
43472 On ch=8 n=64 v=72
43515 Off ch=8 n=64 v=0
43521 Off ch=8 n=69 v=0
43570 On ch=8 n=67 v=72
43571 On ch=8 n=62 v=72
43701 Off ch=8 n=62 v=0
43705 Off ch=8 n=67 v=0
43768 On ch=8 n=69 v=72
43769 On ch=8 n=64 v=72
43913 Off ch=8 n=64 v=0
43913 Off ch=8 n=69 v=0
43958 On ch=8 n=69 v=72
43959 On ch=8 n=64 v=72
44002 Off ch=8 n=64 v=0
44008 Off ch=8 n=69 v=0
44060 On ch=8 n=69 v=72
44061 On ch=8 n=64 v=72
44191 Off ch=8 n=64 v=0
44191 Off ch=8 n=69 v=0
44243 On ch=8 n=69 v=72
44243 On ch=8 n=64 v=72
44288 Off ch=8 n=64 v=0
44294 Off ch=8 n=69 v=0
44344 On ch=8 n=67 v=72
44344 On ch=8 n=62 v=72
44464 Off ch=8 n=62 v=0
44464 Off ch=8 n=67 v=0
44527 On ch=8 n=69 v=72
44527 On ch=8 n=64 v=72
44667 Off ch=8 n=64 v=0
44667 Off ch=8 n=69 v=0
44706 On ch=8 n=69 v=72
44707 On ch=8 n=64 v=72
44756 Off ch=8 n=64 v=0
44756 Off ch=8 n=69 v=0
44800 On ch=8 n=69 v=72
44801 On ch=8 n=64 v=72
44936 Off ch=8 n=64 v=0
44936 Off ch=8 n=69 v=0
44986 On ch=8 n=69 v=72
44988 On ch=8 n=64 v=72
45034 Off ch=8 n=64 v=0
45034 Off ch=8 n=69 v=0
45089 On ch=8 n=62 v=72
45093 On ch=8 n=67 v=72
45224 Off ch=8 n=62 v=0
45229 Off ch=8 n=67 v=0
45295 On ch=8 n=69 v=72
45296 On ch=8 n=64 v=72
45440 Off ch=8 n=64 v=0
45446 Off ch=8 n=69 v=0
45487 On ch=8 n=69 v=72
45488 On ch=8 n=64 v=72
45529 Off ch=8 n=64 v=0
45535 Off ch=8 n=69 v=0
45594 On ch=8 n=69 v=72
45594 On ch=8 n=64 v=72
45721 Off ch=8 n=64 v=0
45724 Off ch=8 n=69 v=0
45766 On ch=8 n=69 v=72
45768 On ch=8 n=64 v=72
45819 Off ch=8 n=64 v=0
45827 Off ch=8 n=69 v=0
45877 On ch=8 n=67 v=72
45877 On ch=8 n=62 v=72
46008 Off ch=8 n=62 v=0
46013 Off ch=8 n=67 v=0
46066 On ch=8 n=69 v=72
46066 On ch=8 n=64 v=72
46203 Off ch=8 n=64 v=0
46203 Off ch=8 n=69 v=0
46242 On ch=8 n=69 v=72
46243 On ch=8 n=64 v=72
46292 Off ch=8 n=64 v=0
46292 Off ch=8 n=69 v=0
46336 On ch=8 n=69 v=72
46337 On ch=8 n=64 v=72
46472 Off ch=8 n=64 v=0
46472 Off ch=8 n=69 v=0
46522 On ch=8 n=69 v=72
46524 On ch=8 n=64 v=72
46570 Off ch=8 n=64 v=0
46570 Off ch=8 n=69 v=0
46625 On ch=8 n=62 v=72
46629 On ch=8 n=67 v=72
46760 Off ch=8 n=62 v=0
46765 Off ch=8 n=67 v=0
46831 On ch=8 n=69 v=72
46832 On ch=8 n=64 v=72
46976 Off ch=8 n=64 v=0
46982 Off ch=8 n=69 v=0
47023 On ch=8 n=69 v=72
47024 On ch=8 n=64 v=72
47065 Off ch=8 n=64 v=0
47071 Off ch=8 n=69 v=0
47130 On ch=8 n=69 v=72
47130 On ch=8 n=64 v=72
47257 Off ch=8 n=64 v=0
47260 Off ch=8 n=69 v=0
47302 On ch=8 n=69 v=72
47304 On ch=8 n=64 v=72
47355 Off ch=8 n=64 v=0
47363 Off ch=8 n=69 v=0
47413 On ch=8 n=67 v=72
47413 On ch=8 n=62 v=72
47544 Off ch=8 n=62 v=0
47549 Off ch=8 n=67 v=0
47602 On ch=8 n=69 v=72
47602 On ch=8 n=64 v=72
47739 Off ch=8 n=64 v=0
47739 Off ch=8 n=69 v=0
49163 On ch=8 n=57 v=72
49163 On ch=8 n=52 v=72
49168 On ch=8 n=60 v=72
49396 Off ch=8 n=60 v=0
49396 Off ch=8 n=52 v=0
49400 Off ch=8 n=57 v=0
49459 On ch=8 n=57 v=72
49463 On ch=8 n=60 v=72
49463 On ch=8 n=52 v=72
49486 Off ch=8 n=52 v=0
49486 Off ch=8 n=60 v=0
49495 Off ch=8 n=57 v=0
49553 On ch=8 n=52 v=72
49553 On ch=8 n=59 v=72
49562 On ch=8 n=55 v=72
49665 Off ch=8 n=55 v=0
49669 Off ch=8 n=52 v=0
49674 Off ch=8 n=59 v=0
49732 On ch=8 n=55 v=72
49741 On ch=8 n=59 v=72
49741 On ch=8 n=52 v=72
49759 Off ch=8 n=52 v=0
49763 Off ch=8 n=59 v=0
49768 Off ch=8 n=55 v=0
49826 On ch=8 n=52 v=72
49835 On ch=8 n=57 v=72
49844 On ch=8 n=60 v=72
49952 Off ch=8 n=60 v=0
49952 Off ch=8 n=57 v=0
49952 Off ch=8 n=52 v=0
50010 On ch=8 n=60 v=72
50010 On ch=8 n=57 v=72
50010 On ch=8 n=52 v=72
50140 Off ch=8 n=57 v=0
50145 Off ch=8 n=52 v=0
50145 Off ch=8 n=60 v=0
50203 On ch=8 n=52 v=72
50208 On ch=8 n=60 v=72
50212 On ch=8 n=57 v=72
50239 Off ch=8 n=60 v=0
50243 Off ch=8 n=57 v=0
50252 Off ch=8 n=52 v=0
50293 On ch=8 n=52 v=72
50306 On ch=8 n=55 v=72
50306 On ch=8 n=59 v=72
50418 Off ch=8 n=59 v=0
50418 Off ch=8 n=55 v=0
50418 Off ch=8 n=52 v=0
50499 On ch=8 n=55 v=72
50499 On ch=8 n=59 v=72
50499 On ch=8 n=52 v=72
50575 Off ch=8 n=59 v=0
50584 Off ch=8 n=52 v=0
50584 Off ch=8 n=55 v=0
50678 On ch=8 n=52 v=72
50687 On ch=8 n=60 v=72
50687 On ch=8 n=57 v=72
50902 Off ch=8 n=57 v=0
50902 Off ch=8 n=60 v=0
50911 Off ch=8 n=52 v=0
50960 On ch=8 n=60 v=72
50960 On ch=8 n=57 v=72
50960 On ch=8 n=52 v=72
50992 Off ch=8 n=60 v=0
50996 Off ch=8 n=57 v=0
51005 Off ch=8 n=52 v=0
51054 On ch=8 n=52 v=72
51063 On ch=8 n=55 v=72
51063 On ch=8 n=59 v=72
51198 Off ch=8 n=55 v=0
51202 Off ch=8 n=52 v=0
51207 Off ch=8 n=59 v=0
51256 On ch=8 n=55 v=72
51256 On ch=8 n=59 v=72
51256 On ch=8 n=52 v=72
51292 Off ch=8 n=59 v=0
51292 Off ch=8 n=55 v=0
51301 Off ch=8 n=52 v=0
51350 On ch=8 n=52 v=72
51359 On ch=8 n=60 v=72
51363 On ch=8 n=57 v=72
51471 Off ch=8 n=57 v=0
51480 Off ch=8 n=60 v=0
51480 Off ch=8 n=52 v=0
51529 On ch=8 n=52 v=72
51534 On ch=8 n=60 v=72
51534 On ch=8 n=57 v=72
51668 Off ch=8 n=57 v=0
51672 Off ch=8 n=60 v=0
51672 Off ch=8 n=52 v=0
51731 On ch=8 n=60 v=72
51731 On ch=8 n=57 v=72
51731 On ch=8 n=52 v=72
51762 Off ch=8 n=57 v=0
51762 Off ch=8 n=60 v=0
51771 Off ch=8 n=52 v=0
51816 On ch=8 n=52 v=72
51825 On ch=8 n=59 v=72
51829 On ch=8 n=55 v=72
51923 Off ch=8 n=55 v=0
51932 Off ch=8 n=59 v=0
51932 Off ch=8 n=52 v=0
52013 On ch=8 n=55 v=72
52013 On ch=8 n=59 v=72
52013 On ch=8 n=52 v=72
52103 Off ch=8 n=52 v=0
52103 Off ch=8 n=59 v=0
52103 Off ch=8 n=55 v=0
52192 On ch=8 n=52 v=72
52206 On ch=8 n=60 v=72
52206 On ch=8 n=57 v=72
52448 Off ch=8 n=57 v=0
52448 Off ch=8 n=60 v=0
52456 Off ch=8 n=52 v=0
52497 On ch=8 n=52 v=72
52506 On ch=8 n=60 v=72
52506 On ch=8 n=57 v=72
52537 Off ch=8 n=57 v=0
52542 Off ch=8 n=60 v=0
52551 Off ch=8 n=52 v=0
52595 On ch=8 n=52 v=72
52600 On ch=8 n=55 v=72
52600 On ch=8 n=59 v=72
52734 Off ch=8 n=55 v=0
52743 Off ch=8 n=59 v=0
52743 Off ch=8 n=52 v=0
52788 On ch=8 n=59 v=72
52788 On ch=8 n=52 v=72
52792 On ch=8 n=55 v=72
52824 Off ch=8 n=55 v=0
52828 Off ch=8 n=59 v=0
52837 Off ch=8 n=52 v=0
52896 On ch=8 n=60 v=72
52896 On ch=8 n=57 v=72
52896 On ch=8 n=52 v=72
52967 Off ch=8 n=52 v=0
52967 Off ch=8 n=57 v=0
52981 Off ch=8 n=60 v=0
53070 On ch=8 n=52 v=72
53075 On ch=8 n=60 v=72
53075 On ch=8 n=57 v=72
53196 Off ch=8 n=57 v=0
53200 Off ch=8 n=60 v=0
53209 Off ch=8 n=52 v=0
53263 On ch=8 n=57 v=72
53263 On ch=8 n=52 v=72
53263 On ch=8 n=60 v=72
53294 Off ch=8 n=60 v=0
53294 Off ch=8 n=57 v=0
53299 Off ch=8 n=52 v=0
53348 On ch=8 n=52 v=72
53352 On ch=8 n=59 v=72
53361 On ch=8 n=55 v=72
53442 Off ch=8 n=55 v=0
53456 Off ch=8 n=59 v=0
53460 Off ch=8 n=52 v=0
53545 On ch=8 n=55 v=72
53545 On ch=8 n=59 v=72
53545 On ch=8 n=52 v=72
53639 Off ch=8 n=59 v=0
53644 Off ch=8 n=55 v=0
53648 Off ch=8 n=52 v=0
53724 On ch=8 n=52 v=72
53738 On ch=8 n=60 v=72
53738 On ch=8 n=57 v=72
53966 Off ch=8 n=57 v=0
53966 Off ch=8 n=60 v=0
53975 Off ch=8 n=52 v=0
54029 On ch=8 n=57 v=72
54029 On ch=8 n=52 v=72
54033 On ch=8 n=60 v=72
54065 Off ch=8 n=60 v=0
54069 Off ch=8 n=57 v=0
54078 Off ch=8 n=52 v=0
54119 On ch=8 n=52 v=72
54123 On ch=8 n=55 v=72
54128 On ch=8 n=59 v=72
54253 Off ch=8 n=55 v=0
54257 Off ch=8 n=52 v=0
54266 Off ch=8 n=59 v=0
54311 On ch=8 n=59 v=72
54311 On ch=8 n=52 v=72
54320 On ch=8 n=55 v=72
54338 Off ch=8 n=55 v=0
54352 Off ch=8 n=59 v=0
54365 Off ch=8 n=52 v=0
54414 On ch=8 n=52 v=72
54428 On ch=8 n=60 v=72
54428 On ch=8 n=57 v=72
54540 Off ch=8 n=57 v=0
54540 Off ch=8 n=60 v=0
54544 Off ch=8 n=52 v=0
54598 On ch=8 n=52 v=72
54602 On ch=8 n=60 v=72
54602 On ch=8 n=57 v=72
54732 Off ch=8 n=57 v=0
54732 Off ch=8 n=60 v=0
54737 Off ch=8 n=52 v=0
54786 On ch=8 n=60 v=72
54786 On ch=8 n=57 v=72
54786 On ch=8 n=52 v=72
54831 Off ch=8 n=57 v=0
54831 Off ch=8 n=60 v=0
54840 Off ch=8 n=52 v=0
54885 On ch=8 n=52 v=72
54889 On ch=8 n=55 v=72
54889 On ch=8 n=59 v=72
55006 Off ch=8 n=55 v=0
55010 Off ch=8 n=59 v=0
55019 Off ch=8 n=52 v=0
55095 On ch=8 n=55 v=72
55095 On ch=8 n=59 v=72
55095 On ch=8 n=52 v=72
55198 Off ch=8 n=59 v=0
55198 Off ch=8 n=55 v=0
55207 Off ch=8 n=52 v=0
55279 On ch=8 n=52 v=72
55292 On ch=8 n=60 v=72
55292 On ch=8 n=57 v=72
55512 Off ch=8 n=57 v=0
55512 Off ch=8 n=60 v=0
55512 Off ch=8 n=52 v=0
55566 On ch=8 n=57 v=72
55566 On ch=8 n=52 v=72
55575 On ch=8 n=60 v=72
55606 Off ch=8 n=60 v=0
55606 Off ch=8 n=57 v=0
55624 Off ch=8 n=52 v=0
55664 On ch=8 n=52 v=72
55673 On ch=8 n=55 v=72
55673 On ch=8 n=59 v=72
55808 Off ch=8 n=55 v=0
55812 Off ch=8 n=59 v=0
55821 Off ch=8 n=52 v=0
55866 On ch=8 n=59 v=72
55866 On ch=8 n=52 v=72
55870 On ch=8 n=55 v=72
55906 Off ch=8 n=55 v=0
55906 Off ch=8 n=59 v=0
55915 Off ch=8 n=52 v=0
55969 On ch=8 n=52 v=72
55973 On ch=8 n=60 v=72
55973 On ch=8 n=57 v=72
56076 Off ch=8 n=57 v=0
56076 Off ch=8 n=60 v=0
56081 Off ch=8 n=52 v=0
56148 On ch=8 n=60 v=72
56148 On ch=8 n=57 v=72
56148 On ch=8 n=52 v=72
56264 Off ch=8 n=57 v=0
56269 Off ch=8 n=60 v=0
56278 Off ch=8 n=52 v=0
56327 On ch=8 n=57 v=72
56332 On ch=8 n=52 v=72
56336 On ch=8 n=60 v=72
56363 Off ch=8 n=60 v=0
56372 Off ch=8 n=52 v=0
56372 Off ch=8 n=57 v=0
56426 On ch=8 n=52 v=72
56430 On ch=8 n=55 v=72
56430 On ch=8 n=59 v=72
56529 Off ch=8 n=59 v=0
56529 Off ch=8 n=55 v=0
56538 Off ch=8 n=52 v=0
56618 On ch=8 n=52 v=72
56623 On ch=8 n=55 v=72
56623 On ch=8 n=59 v=72
56712 Off ch=8 n=55 v=0
56717 Off ch=8 n=59 v=0
56717 Off ch=8 n=52 v=0
56830 On ch=8 n=60 v=72
56834 On ch=8 n=64 v=72
56834 On ch=8 n=64 v=72
57089 Off ch=8 n=64 v=0
57089 Off ch=8 n=64 v=0
57112 Off ch=8 n=60 v=0
57134 On ch=8 n=64 v=72
57134 On ch=8 n=64 v=72
57148 On ch=8 n=60 v=72
57179 Off ch=8 n=60 v=0
57179 Off ch=8 n=64 v=0
57179 Off ch=8 n=64 v=0
57224 On ch=8 n=64 v=72
57224 On ch=8 n=60 v=72
57224 On ch=8 n=64 v=72
57264 Off ch=8 n=60 v=0
57273 Off ch=8 n=64 v=0
57273 Off ch=8 n=64 v=0
57322 On ch=8 n=64 v=72
57322 On ch=8 n=60 v=72
57322 On ch=8 n=64 v=72
57457 Off ch=8 n=64 v=0
57457 Off ch=8 n=64 v=0
57466 Off ch=8 n=60 v=0
57511 On ch=8 n=59 v=72
57520 On ch=8 n=62 v=72
57520 On ch=8 n=62 v=72
57645 Off ch=8 n=59 v=0
57654 Off ch=8 n=62 v=0
57654 Off ch=8 n=62 v=0
57703 On ch=8 n=59 v=72
57708 On ch=8 n=62 v=72
57708 On ch=8 n=62 v=72
57833 Off ch=8 n=59 v=0
57842 Off ch=8 n=62 v=0
57842 Off ch=8 n=62 v=0
57891 On ch=8 n=62 v=72
57891 On ch=8 n=59 v=72
57891 On ch=8 n=62 v=72
57932 Off ch=8 n=62 v=0
57932 Off ch=8 n=59 v=0
57932 Off ch=8 n=62 v=0
57976 On ch=8 n=59 v=72
57981 On ch=8 n=62 v=72
57981 On ch=8 n=62 v=72
58017 Off ch=8 n=59 v=0
58039 Off ch=8 n=62 v=0
58039 Off ch=8 n=62 v=0
58066 On ch=8 n=60 v=72
58066 On ch=8 n=60 v=72
58071 On ch=8 n=57 v=72
58106 Off ch=8 n=57 v=0
58115 Off ch=8 n=60 v=0
58115 Off ch=8 n=60 v=0
58151 On ch=8 n=57 v=72
58151 On ch=8 n=57 v=72
58165 On ch=8 n=55 v=72
58263 Off ch=8 n=57 v=0
58263 Off ch=8 n=57 v=0
58272 Off ch=8 n=55 v=0
58339 On ch=8 n=55 v=72
58339 On ch=8 n=55 v=72
58353 On ch=8 n=50 v=72
58586 Off ch=8 n=55 v=0
58586 Off ch=8 n=55 v=0
58599 Off ch=8 n=50 v=0
58631 On ch=8 n=55 v=72
58631 On ch=8 n=55 v=72
58635 On ch=8 n=50 v=72
58675 Off ch=8 n=55 v=0
58675 Off ch=8 n=55 v=0
58680 Off ch=8 n=50 v=0
58725 On ch=8 n=55 v=72
58725 On ch=8 n=55 v=72
58729 On ch=8 n=50 v=72
58796 Off ch=8 n=50 v=0
58796 Off ch=8 n=55 v=0
58796 Off ch=8 n=55 v=0
58841 On ch=8 n=59 v=72
58841 On ch=8 n=52 v=72
58841 On ch=8 n=59 v=72
58967 Off ch=8 n=52 v=0
58976 Off ch=8 n=59 v=0
58976 Off ch=8 n=59 v=0
59034 On ch=8 n=64 v=72
59034 On ch=8 n=64 v=72
59052 On ch=8 n=55 v=72
59079 On ch=8 n=62 v=72
59079 On ch=8 n=62 v=72
59101 Off ch=8 n=64 v=0
59101 Off ch=8 n=64 v=0
59146 Off ch=8 n=62 v=0
59146 Off ch=8 n=62 v=0
59164 On ch=8 n=57 v=72
59164 On ch=8 n=57 v=72
59450 Off ch=8 n=57 v=0
59450 Off ch=8 n=57 v=0
59527 Off ch=8 n=55 v=0
59898 On ch=8 n=60 v=72
59900 On ch=8 n=69 v=72
59900 On ch=8 n=69 v=72
60046 Off ch=8 n=60 v=0
60048 Off ch=8 n=69 v=0
60048 Off ch=8 n=69 v=0
60091 On ch=8 n=60 v=72
60097 On ch=8 n=69 v=72
60097 On ch=8 n=69 v=72
60136 Off ch=8 n=60 v=0
60137 Off ch=8 n=69 v=0
60137 Off ch=8 n=69 v=0
60194 On ch=8 n=60 v=72
60204 On ch=8 n=69 v=72
60204 On ch=8 n=69 v=72
60311 Off ch=8 n=60 v=0
60321 Off ch=8 n=69 v=0
60321 Off ch=8 n=69 v=0
60364 On ch=8 n=59 v=72
60370 On ch=8 n=67 v=72
60370 On ch=8 n=67 v=72
60414 Off ch=8 n=59 v=0
60437 Off ch=8 n=67 v=0
60437 Off ch=8 n=67 v=0
60449 On ch=8 n=57 v=72
60473 On ch=8 n=65 v=72
60473 On ch=8 n=65 v=72
60579 Off ch=8 n=57 v=0
60612 Off ch=8 n=65 v=0
60612 Off ch=8 n=65 v=0
60656 On ch=8 n=59 v=72
60666 On ch=8 n=67 v=72
60666 On ch=8 n=67 v=72
60785 Off ch=8 n=59 v=0
60787 Off ch=8 n=67 v=0
60787 Off ch=8 n=67 v=0
60839 On ch=8 n=59 v=72
60849 On ch=8 n=67 v=72
60849 On ch=8 n=67 v=72
60893 Off ch=8 n=59 v=0
60899 Off ch=8 n=67 v=0
60899 Off ch=8 n=67 v=0
60947 On ch=8 n=59 v=72
60961 On ch=8 n=67 v=72
60961 On ch=8 n=67 v=72
61081 Off ch=8 n=59 v=0
61091 Off ch=8 n=67 v=0
61091 Off ch=8 n=67 v=0
61117 On ch=8 n=57 v=72
61127 On ch=8 n=65 v=72
61127 On ch=8 n=65 v=72
61162 Off ch=8 n=57 v=0
61176 Off ch=8 n=65 v=0
61176 Off ch=8 n=65 v=0
61220 On ch=8 n=55 v=72
61235 On ch=8 n=64 v=72
61235 On ch=8 n=64 v=72
61354 Off ch=8 n=55 v=0
61378 Off ch=8 n=64 v=0
61378 Off ch=8 n=64 v=0
61422 On ch=8 n=57 v=72
61428 On ch=8 n=57 v=72
61432 On ch=8 n=69 v=72
61432 On ch=8 n=69 v=72
61435 On ch=8 n=60 v=72
61581 Off ch=8 n=60 v=0
61581 Off ch=8 n=57 v=0
61627 On ch=8 n=60 v=72
61627 On ch=8 n=57 v=72
61661 Off ch=8 n=60 v=0
61670 Off ch=8 n=57 v=0
61729 On ch=8 n=57 v=72
61734 On ch=8 n=60 v=72
61784 Off ch=8 n=57 v=0
61844 Off ch=8 n=69 v=0
61844 Off ch=8 n=69 v=0
61851 Off ch=8 n=57 v=0
61854 Off ch=8 n=60 v=0
61924 On ch=8 n=60 v=72
61924 On ch=8 n=57 v=72
61956 Off ch=8 n=57 v=0
61956 Off ch=8 n=60 v=0
62021 On ch=8 n=60 v=72
62021 On ch=8 n=57 v=72
62115 Off ch=8 n=57 v=0
62118 Off ch=8 n=60 v=0
62204 On ch=8 n=55 v=72
62204 On ch=8 n=59 v=72
62352 Off ch=8 n=55 v=0
62358 Off ch=8 n=59 v=0
62402 On ch=8 n=55 v=72
62409 On ch=8 n=59 v=72
62432 Off ch=8 n=59 v=0
62442 Off ch=8 n=55 v=0
62497 On ch=8 n=55 v=72
62497 On ch=8 n=59 v=72
62599 Off ch=8 n=59 v=0
62608 Off ch=8 n=55 v=0
62689 On ch=8 n=55 v=72
62689 On ch=8 n=59 v=72
62720 Off ch=8 n=59 v=0
62725 Off ch=8 n=55 v=0
62782 On ch=8 n=55 v=72
62787 On ch=8 n=59 v=72
62880 Off ch=8 n=59 v=0
62880 Off ch=8 n=55 v=0
62972 On ch=8 n=57 v=72
62972 On ch=8 n=52 v=72
63417 Off ch=8 n=52 v=0
63425 Off ch=8 n=57 v=0
63524 On ch=8 n=62 v=72
63675 Off ch=8 n=62 v=0
63725 On ch=8 n=57 v=72
64212 Off ch=8 n=57 v=0
64280 On ch=8 n=57 v=72
64441 Off ch=8 n=57 v=0
64496 On ch=8 n=53 v=72
64517 On ch=8 n=57 v=72
64518 On ch=8 n=52 v=72
64526 On ch=8 n=60 v=72
64661 Off ch=8 n=60 v=0
64671 Off ch=8 n=52 v=0
64671 Off ch=8 n=57 v=0
64712 On ch=8 n=60 v=72
64722 On ch=8 n=57 v=72
64727 On ch=8 n=52 v=72
64751 Off ch=8 n=52 v=0
64751 Off ch=8 n=57 v=0
64751 Off ch=8 n=60 v=0
64786 Off ch=8 n=53 v=0
64816 On ch=8 n=60 v=72
64822 On ch=8 n=57 v=72
64822 On ch=8 n=52 v=72
64933 Off ch=8 n=57 v=0
64941 Off ch=8 n=52 v=0
64941 Off ch=8 n=60 v=0
65006 On ch=8 n=60 v=72
65006 On ch=8 n=57 v=72
65008 On ch=8 n=52 v=72
65036 Off ch=8 n=52 v=0
65036 Off ch=8 n=57 v=0
65043 Off ch=8 n=60 v=0
65106 On ch=8 n=57 v=72
65107 On ch=8 n=52 v=72
65110 On ch=8 n=60 v=72
65218 Off ch=8 n=52 v=0
65218 Off ch=8 n=57 v=0
65233 Off ch=8 n=60 v=0
65291 On ch=8 n=55 v=72
65297 On ch=8 n=59 v=72
65303 On ch=8 n=62 v=72
65431 Off ch=8 n=62 v=0
65431 Off ch=8 n=59 v=0
65431 Off ch=8 n=55 v=0
65481 On ch=8 n=62 v=72
65484 On ch=8 n=55 v=72
65484 On ch=8 n=59 v=72
65520 Off ch=8 n=59 v=0
65520 Off ch=8 n=55 v=0
65526 Off ch=8 n=62 v=0
65580 On ch=8 n=62 v=72
65586 On ch=8 n=55 v=72
65586 On ch=8 n=59 v=72
65719 Off ch=8 n=59 v=0
65719 Off ch=8 n=55 v=0
65724 Off ch=8 n=62 v=0
65775 On ch=8 n=62 v=72
65776 On ch=8 n=55 v=72
65776 On ch=8 n=59 v=72
65806 Off ch=8 n=59 v=0
65806 Off ch=8 n=55 v=0
65814 Off ch=8 n=62 v=0
65864 On ch=8 n=62 v=72
65865 On ch=8 n=55 v=72
65871 On ch=8 n=59 v=72
65982 Off ch=8 n=55 v=0
65991 Off ch=8 n=59 v=0
65999 Off ch=8 n=62 v=0
66063 On ch=8 n=60 v=72
66063 On ch=8 n=64 v=72
66063 On ch=8 n=57 v=72
66200 Off ch=8 n=57 v=0
66203 Off ch=8 n=64 v=0
66203 Off ch=8 n=60 v=0
66244 On ch=8 n=60 v=72
66244 On ch=8 n=64 v=72
66244 On ch=8 n=57 v=72
66284 Off ch=8 n=57 v=0
66284 Off ch=8 n=60 v=0
66290 Off ch=8 n=64 v=0
66348 On ch=8 n=60 v=72
66348 On ch=8 n=64 v=72
66350 On ch=8 n=57 v=72
66679 Off ch=8 n=57 v=0
66679 Off ch=8 n=60 v=0
66684 Off ch=8 n=64 v=0
66816 On ch=8 n=55 v=72
66816 On ch=8 n=59 v=72
66822 On ch=8 n=62 v=72
66961 Off ch=8 n=62 v=0
66967 Off ch=8 n=59 v=0
66970 Off ch=8 n=55 v=0
67011 On ch=8 n=62 v=72
67011 On ch=8 n=55 v=72
67011 On ch=8 n=59 v=72
67050 Off ch=8 n=55 v=0
67050 Off ch=8 n=62 v=0
67057 Off ch=8 n=59 v=0
67115 On ch=8 n=60 v=72
67115 On ch=8 n=57 v=72
67122 On ch=8 n=64 v=72
67249 Off ch=8 n=64 v=0
67255 Off ch=8 n=57 v=0
67255 Off ch=8 n=60 v=0
67305 On ch=8 n=60 v=72
67305 On ch=8 n=64 v=72
67305 On ch=8 n=57 v=72
67336 Off ch=8 n=57 v=0
67342 Off ch=8 n=64 v=0
67342 Off ch=8 n=60 v=0
67402 On ch=8 n=60 v=72
67402 On ch=8 n=64 v=72
67402 On ch=8 n=57 v=72
67512 Off ch=8 n=64 v=0
67521 Off ch=8 n=57 v=0
67521 Off ch=8 n=60 v=0
67594 On ch=8 n=62 v=72
67594 On ch=8 n=55 v=72
67594 On ch=8 n=59 v=72
67734 Off ch=8 n=62 v=0
67736 Off ch=8 n=59 v=0
67736 Off ch=8 n=55 v=0
67786 On ch=8 n=62 v=72
67786 On ch=8 n=55 v=72
67788 On ch=8 n=59 v=72
67839 Off ch=8 n=59 v=0
67839 Off ch=8 n=55 v=0
67839 Off ch=8 n=62 v=0
67896 On ch=8 n=60 v=72
67896 On ch=8 n=57 v=72
67899 On ch=8 n=64 v=72
68030 Off ch=8 n=64 v=0
68030 Off ch=8 n=57 v=0
68035 Off ch=8 n=60 v=0
68080 On ch=8 n=60 v=72
68080 On ch=8 n=64 v=72
68082 On ch=8 n=57 v=72
68117 Off ch=8 n=57 v=0
68120 Off ch=8 n=64 v=0
68120 Off ch=8 n=60 v=0
68170 On ch=8 n=60 v=72
68170 On ch=8 n=64 v=72
68172 On ch=8 n=57 v=72
68265 Off ch=8 n=64 v=0
68265 Off ch=8 n=60 v=0
68271 Off ch=8 n=57 v=0
68343 On ch=8 n=55 v=72
68343 On ch=8 n=59 v=72
68347 On ch=8 n=62 v=72
68477 Off ch=8 n=62 v=0
68483 Off ch=8 n=59 v=0
68483 Off ch=8 n=55 v=0
68527 On ch=8 n=55 v=72
68534 On ch=8 n=62 v=72
68535 On ch=8 n=59 v=72
68595 Off ch=8 n=59 v=0
68595 Off ch=8 n=62 v=0
68595 Off ch=8 n=55 v=0
68645 On ch=8 n=60 v=72
68646 On ch=8 n=64 v=72
68647 On ch=8 n=57 v=72
68785 Off ch=8 n=57 v=0
68785 Off ch=8 n=64 v=0
68791 Off ch=8 n=60 v=0
68835 On ch=8 n=64 v=72
68842 On ch=8 n=60 v=72
68842 On ch=8 n=57 v=72
68880 Off ch=8 n=57 v=0
68880 Off ch=8 n=60 v=0
68880 Off ch=8 n=64 v=0
68930 On ch=8 n=57 v=72
68934 On ch=8 n=60 v=72
68934 On ch=8 n=64 v=72
69051 Off ch=8 n=64 v=0
69051 Off ch=8 n=60 v=0
69051 Off ch=8 n=57 v=0
69124 On ch=8 n=62 v=72
69124 On ch=8 n=65 v=72
69124 On ch=8 n=59 v=72
69266 Off ch=8 n=65 v=0
69266 Off ch=8 n=62 v=0
69270 Off ch=8 n=59 v=0
69323 On ch=8 n=62 v=72
69323 On ch=8 n=65 v=72
69323 On ch=8 n=59 v=72
69358 Off ch=8 n=59 v=0
69358 Off ch=8 n=65 v=0
69358 Off ch=8 n=62 v=0
69420 On ch=8 n=57 v=72
69426 On ch=8 n=60 v=72
69428 On ch=8 n=64 v=72
69560 Off ch=8 n=64 v=0
69560 Off ch=8 n=60 v=0
69563 Off ch=8 n=57 v=0
69608 On ch=8 n=60 v=72
69608 On ch=8 n=64 v=72
69609 On ch=8 n=57 v=72
69647 Off ch=8 n=57 v=0
69647 Off ch=8 n=64 v=0
69647 Off ch=8 n=60 v=0
69703 On ch=8 n=60 v=72
69703 On ch=8 n=57 v=72
69709 On ch=8 n=64 v=72
69820 Off ch=8 n=57 v=0
69829 Off ch=8 n=64 v=0
69829 Off ch=8 n=60 v=0
69885 On ch=8 n=62 v=72
69890 On ch=8 n=65 v=72
69892 On ch=8 n=59 v=72
70038 Off ch=8 n=59 v=0
70038 Off ch=8 n=65 v=0
70038 Off ch=8 n=62 v=0
70092 On ch=8 n=62 v=72
70092 On ch=8 n=65 v=72
70092 On ch=8 n=59 v=72
70131 Off ch=8 n=65 v=0
70136 Off ch=8 n=59 v=0
70136 Off ch=8 n=62 v=0
70195 On ch=8 n=60 v=72
70195 On ch=8 n=64 v=72
70196 On ch=8 n=57 v=72
70330 Off ch=8 n=64 v=0
70330 Off ch=8 n=60 v=0
70333 Off ch=8 n=57 v=0
70385 On ch=8 n=60 v=72
70385 On ch=8 n=64 v=72
70387 On ch=8 n=57 v=72
70430 Off ch=8 n=57 v=0
70430 Off ch=8 n=64 v=0
70430 Off ch=8 n=60 v=0
70480 On ch=8 n=60 v=72
70480 On ch=8 n=64 v=72
70480 On ch=8 n=57 v=72
70592 Off ch=8 n=57 v=0
70598 Off ch=8 n=60 v=0
70603 Off ch=8 n=64 v=0
70661 On ch=8 n=62 v=72
70666 On ch=8 n=65 v=72
70669 On ch=8 n=59 v=72
70797 Off ch=8 n=59 v=0
70802 Off ch=8 n=65 v=0
70802 Off ch=8 n=62 v=0
70846 On ch=8 n=62 v=72
70847 On ch=8 n=65 v=72
70847 On ch=8 n=59 v=72
70892 Off ch=8 n=59 v=0
70892 Off ch=8 n=65 v=0
70897 Off ch=8 n=62 v=0
70953 On ch=8 n=60 v=72
70953 On ch=8 n=64 v=72
70953 On ch=8 n=57 v=72
71082 Off ch=8 n=57 v=0
71087 Off ch=8 n=64 v=0
71087 Off ch=8 n=60 v=0
71132 On ch=8 n=60 v=72
71134 On ch=8 n=64 v=72
71134 On ch=8 n=57 v=72
71177 Off ch=8 n=57 v=0
71177 Off ch=8 n=64 v=0
71177 Off ch=8 n=60 v=0
71227 On ch=8 n=60 v=72
71229 On ch=8 n=64 v=72
71229 On ch=8 n=57 v=72
71344 Off ch=8 n=57 v=0
71348 Off ch=8 n=60 v=0
71353 Off ch=8 n=64 v=0
71417 On ch=8 n=62 v=72
71420 On ch=8 n=65 v=72
71420 On ch=8 n=59 v=72
71556 Off ch=8 n=59 v=0
71556 Off ch=8 n=65 v=0
71564 Off ch=8 n=62 v=0
71617 On ch=8 n=62 v=72
71617 On ch=8 n=65 v=72
71617 On ch=8 n=59 v=72
71655 Off ch=8 n=59 v=0
71655 Off ch=8 n=65 v=0
71655 Off ch=8 n=62 v=0
71714 On ch=8 n=60 v=72
71714 On ch=8 n=57 v=72
71720 On ch=8 n=64 v=72
71854 Off ch=8 n=57 v=0
71860 Off ch=8 n=64 v=0
71860 Off ch=8 n=60 v=0
71910 On ch=8 n=60 v=72
71910 On ch=8 n=64 v=72
71910 On ch=8 n=57 v=72
71944 Off ch=8 n=57 v=0
71944 Off ch=8 n=64 v=0
71944 Off ch=8 n=60 v=0
71998 On ch=8 n=60 v=72
71998 On ch=8 n=64 v=72
71998 On ch=8 n=57 v=72
72116 Off ch=8 n=57 v=0
72116 Off ch=8 n=60 v=0
72125 Off ch=8 n=64 v=0
72189 On ch=8 n=62 v=72
72189 On ch=8 n=65 v=72
72189 On ch=8 n=59 v=72
72330 Off ch=8 n=59 v=0
72332 Off ch=8 n=65 v=0
72332 Off ch=8 n=62 v=0
72374 On ch=8 n=62 v=72
72374 On ch=8 n=65 v=72
72374 On ch=8 n=59 v=72
72422 Off ch=8 n=59 v=0
72422 Off ch=8 n=65 v=0
72422 Off ch=8 n=62 v=0
72486 On ch=8 n=60 v=72
72486 On ch=8 n=64 v=72
72486 On ch=8 n=57 v=72
72623 Off ch=8 n=57 v=0
72623 Off ch=8 n=64 v=0
72623 Off ch=8 n=60 v=0
72673 On ch=8 n=60 v=72
72673 On ch=8 n=64 v=72
72673 On ch=8 n=57 v=72
72707 Off ch=8 n=57 v=0
72712 Off ch=8 n=64 v=0
72712 Off ch=8 n=60 v=0
72763 On ch=8 n=60 v=72
72763 On ch=8 n=57 v=72
72766 On ch=8 n=64 v=72
72875 Off ch=8 n=57 v=0
72883 Off ch=8 n=60 v=0
72889 Off ch=8 n=64 v=0
72952 On ch=8 n=62 v=72
72952 On ch=8 n=65 v=72
72953 On ch=8 n=59 v=72
73092 Off ch=8 n=59 v=0
73096 Off ch=8 n=65 v=0
73096 Off ch=8 n=62 v=0
73146 On ch=8 n=62 v=72
73146 On ch=8 n=65 v=72
73146 On ch=8 n=59 v=72
73195 Off ch=8 n=59 v=0
73195 Off ch=8 n=65 v=0
73195 Off ch=8 n=62 v=0
73255 On ch=8 n=60 v=72
73256 On ch=8 n=57 v=72
73262 On ch=8 n=64 v=72
73387 Off ch=8 n=64 v=0
73387 Off ch=8 n=57 v=0
73387 Off ch=8 n=60 v=0
73440 On ch=8 n=60 v=72
73440 On ch=8 n=64 v=72
73442 On ch=8 n=57 v=72
73476 Off ch=8 n=57 v=0
73482 Off ch=8 n=64 v=0
73482 Off ch=8 n=60 v=0
73535 On ch=8 n=60 v=72
73536 On ch=8 n=57 v=72
73541 On ch=8 n=64 v=72
73667 Off ch=8 n=57 v=0
73667 Off ch=8 n=60 v=0
73672 Off ch=8 n=64 v=0
73733 On ch=8 n=62 v=72
73735 On ch=8 n=59 v=72
73740 On ch=8 n=65 v=72
73865 Off ch=8 n=65 v=0
73865 Off ch=8 n=62 v=0
73867 Off ch=8 n=59 v=0
73920 On ch=8 n=62 v=72
73920 On ch=8 n=65 v=72
73920 On ch=8 n=59 v=72
73969 Off ch=8 n=59 v=0
73969 Off ch=8 n=65 v=0
73969 Off ch=8 n=62 v=0
74032 On ch=8 n=60 v=72
74032 On ch=8 n=64 v=72
74032 On ch=8 n=57 v=72
74164 Off ch=8 n=60 v=0
74167 Off ch=8 n=57 v=0
74167 Off ch=8 n=64 v=0
74209 On ch=8 n=60 v=72
74210 On ch=8 n=57 v=72
74216 On ch=8 n=64 v=72
74245 Off ch=8 n=57 v=0
74251 Off ch=8 n=64 v=0
74251 Off ch=8 n=60 v=0
74298 On ch=8 n=60 v=72
74300 On ch=8 n=64 v=72
74300 On ch=8 n=57 v=72
74399 Off ch=8 n=57 v=0
74402 Off ch=8 n=60 v=0
74408 Off ch=8 n=64 v=0
74480 On ch=8 n=62 v=72
74480 On ch=8 n=65 v=72
74480 On ch=8 n=59 v=72
74771 Off ch=8 n=59 v=0
74771 Off ch=8 n=65 v=0
74771 Off ch=8 n=62 v=0
74855 On ch=8 n=67 v=72
74855 On ch=8 n=64 v=72
74855 On ch=8 n=59 v=72
75208 Off ch=8 n=64 v=0
75208 Off ch=8 n=67 v=0
75212 Off ch=8 n=59 v=0
75257 On ch=8 n=62 v=72
75257 On ch=8 n=65 v=72
75263 On ch=8 n=69 v=72
75564 Off ch=8 n=62 v=0
75571 Off ch=8 n=69 v=0
75571 Off ch=8 n=65 v=0
75653 On ch=8 n=64 v=72
75656 On ch=8 n=72 v=72
75657 On ch=8 n=69 v=72
75956 Off ch=8 n=72 v=0
75959 Off ch=8 n=69 v=0
75959 Off ch=8 n=64 v=0
76029 On ch=8 n=60 v=72
76029 On ch=8 n=64 v=72
76029 On ch=8 n=57 v=72
76036 On ch=8 n=67 v=72
76660 Off ch=8 n=60 v=0
76665 Off ch=8 n=64 v=0
76665 Off ch=8 n=57 v=0
76665 Off ch=8 n=67 v=0
77097 On ch=8 n=57 v=72
77097 On ch=8 n=48 v=72
77103 On ch=8 n=60 v=72
77109 On ch=8 n=64 v=72
77109 On ch=8 n=52 v=72
77976 Off ch=8 n=52 v=0
77976 Off ch=8 n=48 v=0
77982 Off ch=8 n=57 v=0
77985 Off ch=8 n=60 v=0
77991 Off ch=8 n=64 v=0
77991 SeqSpec 24 24 00 08 00 00 00 00 00 01 30 a7 00 01 32 00
77991 SeqSpec 24 24 00 01 05
77991 SeqSpec 24 24 00 06 04 04
77991 SeqSpec 24 24 00 02 07
78336 Meta TrkEnd
TrkEnd
MTrk
0 SeqNr 7
0 Meta TrkName "Alarum"
0 PrCh ch=4 p=74
18432 On ch=4 n=57 v=28
18575 Off ch=4 n=57 v=0
18624 On ch=4 n=57 v=23
18671 Off ch=4 n=57 v=0
18720 On ch=4 n=57 v=23
18863 Off ch=4 n=57 v=0
18912 On ch=4 n=57 v=29
18959 Off ch=4 n=57 v=0
19008 On ch=4 n=57 v=27
19151 Off ch=4 n=57 v=0
19200 On ch=4 n=60 v=26
19227 On ch=4 n=67 v=28
19295 Off ch=4 n=60 v=0
19344 Off ch=4 n=67 v=0
19392 On ch=4 n=60 v=27
19406 On ch=4 n=67 v=26
19439 Off ch=4 n=60 v=0
19447 Off ch=4 n=67 v=0
19488 On ch=4 n=60 v=22
19509 On ch=4 n=67 v=21
19608 Off ch=4 n=67 v=0
19631 Off ch=4 n=60 v=0
19675 On ch=4 n=67 v=19
19680 On ch=4 n=60 v=21
19706 Off ch=4 n=67 v=0
19727 Off ch=4 n=60 v=0
19774 On ch=4 n=67 v=20
19776 On ch=4 n=60 v=19
19854 Off ch=4 n=67 v=0
19919 Off ch=4 n=60 v=0
19957 On ch=4 n=64 v=17
19968 On ch=4 n=57 v=22
19982 On ch=4 n=52 v=27
20078 Off ch=4 n=64 v=0
20094 Off ch=4 n=52 v=0
20111 Off ch=4 n=57 v=0
20156 On ch=4 n=52 v=48
20160 On ch=4 n=57 v=53
20168 On ch=4 n=64 v=41
20199 Off ch=4 n=64 v=0
20201 Off ch=4 n=52 v=0
20207 Off ch=4 n=57 v=0
20256 On ch=4 n=57 v=53
20264 On ch=4 n=52 v=48
20271 On ch=4 n=64 v=41
20374 Off ch=4 n=64 v=0
20399 Off ch=4 n=57 v=0
20407 Off ch=4 n=52 v=0
20448 On ch=4 n=57 v=53
20455 On ch=4 n=64 v=41
20456 On ch=4 n=52 v=48
20477 Off ch=4 n=64 v=0
20495 Off ch=4 n=57 v=0
20501 Off ch=4 n=52 v=0
20540 On ch=4 n=64 v=41
20544 On ch=4 n=57 v=53
20551 On ch=4 n=52 v=48
20620 Off ch=4 n=64 v=0
20654 Off ch=4 n=52 v=0
20687 Off ch=4 n=57 v=0
20710 On ch=4 n=67 v=41
20716 On ch=4 n=55 v=48
20736 On ch=4 n=60 v=53
20831 Off ch=4 n=60 v=0
20840 Off ch=4 n=67 v=0
20860 Off ch=4 n=55 v=0
20912 On ch=4 n=67 v=41
20918 On ch=4 n=55 v=48
20928 On ch=4 n=60 v=53
20952 Off ch=4 n=67 v=0
20963 Off ch=4 n=55 v=0
20975 Off ch=4 n=60 v=0
21024 On ch=4 n=60 v=53
21024 On ch=4 n=67 v=41
21025 On ch=4 n=55 v=48
21113 Off ch=4 n=67 v=0
21160 Off ch=4 n=55 v=0
21167 Off ch=4 n=60 v=0
21209 On ch=4 n=55 v=48
21216 On ch=4 n=60 v=53
21216 On ch=4 n=67 v=41
21245 Off ch=4 n=55 v=0
21252 Off ch=4 n=67 v=0
21263 Off ch=4 n=60 v=0
21312 On ch=4 n=60 v=53
21312 On ch=4 n=55 v=48
21319 On ch=4 n=67 v=41
21400 Off ch=4 n=67 v=0
21442 Off ch=4 n=55 v=0
21455 Off ch=4 n=60 v=0
21500 On ch=4 n=52 v=48
21504 On ch=4 n=57 v=53
21507 On ch=4 n=64 v=41
21584 Off ch=4 n=64 v=0
21630 Off ch=4 n=52 v=0
21647 Off ch=4 n=57 v=0
21688 On ch=4 n=52 v=48
21696 On ch=4 n=57 v=53
21700 On ch=4 n=64 v=41
21729 Off ch=4 n=52 v=0
21740 Off ch=4 n=64 v=0
21743 Off ch=4 n=57 v=0
21792 On ch=4 n=57 v=53
21792 On ch=4 n=52 v=48
21808 On ch=4 n=64 v=41
21888 Off ch=4 n=64 v=0
21930 Off ch=4 n=52 v=0
21935 Off ch=4 n=57 v=0
21982 On ch=4 n=64 v=41
21984 On ch=4 n=57 v=53
21984 On ch=4 n=52 v=48
22018 Off ch=4 n=64 v=0
22029 Off ch=4 n=52 v=0
22031 Off ch=4 n=57 v=0
22080 On ch=4 n=57 v=53
22085 On ch=4 n=64 v=41
22092 On ch=4 n=52 v=48
22128 Off ch=4 n=52 v=0
22161 Off ch=4 n=64 v=0
22172 On ch=4 n=52 v=48
22208 Off ch=4 n=52 v=0
22223 Off ch=4 n=57 v=0
22264 On ch=4 n=67 v=41
22266 On ch=4 n=55 v=48
22272 On ch=4 n=60 v=53
22350 Off ch=4 n=67 v=0
22410 Off ch=4 n=55 v=0
22415 Off ch=4 n=60 v=0
22462 On ch=4 n=67 v=41
22464 On ch=4 n=60 v=53
22468 On ch=4 n=55 v=48
22502 Off ch=4 n=67 v=0
22504 Off ch=4 n=55 v=0
22511 Off ch=4 n=60 v=0
22560 On ch=4 n=60 v=53
22571 On ch=4 n=55 v=48
22578 On ch=4 n=67 v=41
22641 Off ch=4 n=67 v=0
22696 Off ch=4 n=55 v=0
22703 Off ch=4 n=60 v=0
22744 On ch=4 n=67 v=41
22746 On ch=4 n=55 v=48
22752 On ch=4 n=60 v=53
22780 Off ch=4 n=67 v=0
22786 Off ch=4 n=55 v=0
22799 Off ch=4 n=60 v=0
22844 On ch=4 n=55 v=48
22848 On ch=4 n=60 v=53
22860 On ch=4 n=67 v=41
22876 Off ch=4 n=55 v=0
22919 Off ch=4 n=67 v=0
22938 On ch=4 n=55 v=48
22974 Off ch=4 n=55 v=0
22991 Off ch=4 n=60 v=0
23035 On ch=4 n=64 v=41
23040 On ch=4 n=57 v=53
23046 On ch=4 n=52 v=48
23116 Off ch=4 n=64 v=0
23171 Off ch=4 n=52 v=0
23183 Off ch=4 n=57 v=0
23230 On ch=4 n=52 v=48
23232 On ch=4 n=57 v=53
23237 On ch=4 n=64 v=41
23265 Off ch=4 n=52 v=0
23268 Off ch=4 n=64 v=0
23279 Off ch=4 n=57 v=0
23328 On ch=4 n=57 v=53
23337 On ch=4 n=52 v=48
23340 On ch=4 n=64 v=41
23443 Off ch=4 n=64 v=0
23463 Off ch=4 n=52 v=0
23471 Off ch=4 n=57 v=0
23520 On ch=4 n=57 v=53
23521 On ch=4 n=52 v=48
23532 On ch=4 n=64 v=41
23561 Off ch=4 n=52 v=0
23567 Off ch=4 n=57 v=0
23568 Off ch=4 n=64 v=0
23616 On ch=4 n=57 v=53
23628 On ch=4 n=52 v=48
23631 On ch=4 n=64 v=41
23694 Off ch=4 n=64 v=0
23731 Off ch=4 n=52 v=0
23759 Off ch=4 n=57 v=0
23801 On ch=4 n=67 v=41
23803 On ch=4 n=55 v=48
23808 On ch=4 n=60 v=53
23891 Off ch=4 n=67 v=0
23903 Off ch=4 n=60 v=0
23924 Off ch=4 n=55 v=0
23991 On ch=4 n=55 v=48
23998 On ch=4 n=67 v=41
24000 On ch=4 n=60 v=53
24032 Off ch=4 n=55 v=0
24043 Off ch=4 n=67 v=0
24047 Off ch=4 n=60 v=0
24096 On ch=4 n=60 v=53
24099 On ch=4 n=55 v=48
24115 On ch=4 n=67 v=41
24182 Off ch=4 n=67 v=0
24229 Off ch=4 n=55 v=0
24239 Off ch=4 n=60 v=0
24282 On ch=4 n=55 v=48
24285 On ch=4 n=67 v=41
24288 On ch=4 n=60 v=53
24321 Off ch=4 n=67 v=0
24323 Off ch=4 n=55 v=0
24335 Off ch=4 n=60 v=0
24384 On ch=4 n=60 v=53
24385 On ch=4 n=55 v=48
24388 On ch=4 n=67 v=41
24451 Off ch=4 n=67 v=0
24493 Off ch=4 n=55 v=0
24527 Off ch=4 n=60 v=0
24567 On ch=4 n=64 v=41
24569 On ch=4 n=52 v=48
24576 On ch=4 n=57 v=53
24670 Off ch=4 n=64 v=0
24690 Off ch=4 n=52 v=0
24719 Off ch=4 n=57 v=0
24762 On ch=4 n=52 v=48
24764 On ch=4 n=64 v=41
24768 On ch=4 n=57 v=53
24793 Off ch=4 n=52 v=0
24809 Off ch=4 n=64 v=0
24815 Off ch=4 n=57 v=0
24864 On ch=4 n=57 v=53
24865 On ch=4 n=52 v=48
24872 On ch=4 n=64 v=41
24939 Off ch=4 n=64 v=0
24963 Off ch=4 n=52 v=0
25007 Off ch=4 n=57 v=0
25044 On ch=4 n=52 v=48
25056 On ch=4 n=57 v=53
25056 On ch=4 n=64 v=41
25075 Off ch=4 n=52 v=0
25091 Off ch=4 n=64 v=0
25103 Off ch=4 n=57 v=0
25152 On ch=4 n=57 v=53
25156 On ch=4 n=52 v=48
25168 On ch=4 n=64 v=41
25239 Off ch=4 n=64 v=0
25264 Off ch=4 n=52 v=0
25295 Off ch=4 n=57 v=0
25333 On ch=4 n=67 v=41
25340 On ch=4 n=55 v=48
25344 On ch=4 n=60 v=53
25418 Off ch=4 n=67 v=0
25461 Off ch=4 n=55 v=0
25487 Off ch=4 n=60 v=0
25528 On ch=4 n=55 v=48
25536 On ch=4 n=60 v=53
25539 On ch=4 n=67 v=41
25564 Off ch=4 n=55 v=0
25580 Off ch=4 n=67 v=0
25583 Off ch=4 n=60 v=0
25632 On ch=4 n=60 v=53
25635 On ch=4 n=55 v=48
25651 On ch=4 n=67 v=41
25714 Off ch=4 n=67 v=0
25761 Off ch=4 n=55 v=0
25775 Off ch=4 n=60 v=0
25817 On ch=4 n=67 v=41
25824 On ch=4 n=60 v=53
25824 On ch=4 n=55 v=48
25848 Off ch=4 n=67 v=0
25864 Off ch=4 n=55 v=0
25871 Off ch=4 n=60 v=0
25916 On ch=4 n=67 v=41
25920 On ch=4 n=60 v=53
25927 On ch=4 n=55 v=48
25953 Off ch=4 n=55 v=0
25983 Off ch=4 n=67 v=0
26063 Off ch=4 n=60 v=0
26094 On ch=4 n=69 v=45
26106 On ch=4 n=45 v=45
26114 On ch=4 n=57 v=53
26222 Off ch=4 n=45 v=0
26229 Off ch=4 n=69 v=0
26231 Off ch=4 n=57 v=0
26303 On ch=4 n=45 v=45
26305 On ch=4 n=57 v=53
26305 On ch=4 n=69 v=45
26348 Off ch=4 n=45 v=0
26350 Off ch=4 n=57 v=0
26354 Off ch=4 n=69 v=0
26400 On ch=4 n=57 v=53
26401 On ch=4 n=45 v=45
26403 On ch=4 n=69 v=45
26509 Off ch=4 n=45 v=0
26533 Off ch=4 n=69 v=0
26534 Off ch=4 n=57 v=0
26590 On ch=4 n=45 v=45
26596 On ch=4 n=57 v=53
26605 On ch=4 n=69 v=45
26634 Off ch=4 n=45 v=0
26636 Off ch=4 n=57 v=0
26641 Off ch=4 n=69 v=0
26690 On ch=4 n=57 v=53
26697 On ch=4 n=45 v=45
26699 On ch=4 n=69 v=45
26779 Off ch=4 n=57 v=0
26783 On ch=4 n=55 v=53
26802 Off ch=4 n=69 v=0
26805 Off ch=4 n=45 v=0
26841 Off ch=4 n=55 v=0
26876 On ch=4 n=48 v=45
26878 On ch=4 n=52 v=53
26901 On ch=4 n=72 v=45
26995 Off ch=4 n=72 v=0
27011 Off ch=4 n=48 v=0
27026 Off ch=4 n=52 v=0
27069 On ch=4 n=52 v=53
27071 On ch=4 n=72 v=45
27082 On ch=4 n=48 v=45
27118 Off ch=4 n=48 v=0
27118 Off ch=4 n=52 v=0
27120 Off ch=4 n=72 v=0
27167 On ch=4 n=52 v=53
27178 On ch=4 n=72 v=45
27181 On ch=4 n=48 v=45
27295 Off ch=4 n=72 v=0
27297 Off ch=4 n=48 v=0
27310 Off ch=4 n=52 v=0
27349 On ch=4 n=72 v=45
27360 On ch=4 n=52 v=53
27360 On ch=4 n=48 v=45
27393 Off ch=4 n=72 v=0
27396 Off ch=4 n=48 v=0
27396 Off ch=4 n=52 v=0
27456 On ch=4 n=72 v=45
27457 On ch=4 n=52 v=53
27459 On ch=4 n=48 v=45
27529 Off ch=4 n=52 v=0
27553 On ch=4 n=53 v=53
27575 Off ch=4 n=48 v=0
27588 Off ch=4 n=53 v=0
27600 Off ch=4 n=72 v=0
27640 On ch=4 n=71 v=45
27642 On ch=4 n=47 v=45
27651 On ch=4 n=55 v=53
27754 Off ch=4 n=47 v=0
27797 Off ch=4 n=71 v=0
27803 Off ch=4 n=55 v=0
27826 On ch=4 n=47 v=45
27841 On ch=4 n=71 v=45
27843 On ch=4 n=55 v=53
27862 Off ch=4 n=47 v=0
27886 Off ch=4 n=71 v=0
27892 Off ch=4 n=55 v=0
27925 On ch=4 n=47 v=45
27938 On ch=4 n=55 v=53
27949 On ch=4 n=71 v=45
28086 Off ch=4 n=47 v=0
28099 Off ch=4 n=55 v=0
28101 Off ch=4 n=71 v=0
28128 On ch=4 n=55 v=53
28140 On ch=4 n=47 v=45
28155 On ch=4 n=71 v=45
28169 Off ch=4 n=55 v=0
28184 Off ch=4 n=47 v=0
28191 Off ch=4 n=71 v=0
28224 On ch=4 n=55 v=53
28238 On ch=4 n=47 v=45
28249 On ch=4 n=71 v=45
28382 Off ch=4 n=47 v=0
28384 Off ch=4 n=55 v=0
28388 Off ch=4 n=71 v=0
28416 On ch=4 n=57 v=53
28433 On ch=4 n=72 v=45
28435 On ch=4 n=48 v=45
28524 Off ch=4 n=57 v=0
28552 Off ch=4 n=48 v=0
28567 Off ch=4 n=72 v=0
28606 On ch=4 n=48 v=45
28608 On ch=4 n=57 v=53
28616 On ch=4 n=72 v=45
28650 Off ch=4 n=48 v=0
28652 Off ch=4 n=57 v=0
28657 Off ch=4 n=72 v=0
28704 On ch=4 n=57 v=53
28713 On ch=4 n=48 v=45
28720 On ch=4 n=72 v=45
28816 Off ch=4 n=57 v=0
28840 Off ch=4 n=72 v=0
28848 Off ch=4 n=48 v=0
28890 On ch=4 n=72 v=45
28896 On ch=4 n=57 v=53
28901 On ch=4 n=48 v=45
28926 Off ch=4 n=72 v=0
28928 Off ch=4 n=57 v=0
28946 Off ch=4 n=48 v=0
28988 On ch=4 n=72 v=45
28992 On ch=4 n=57 v=53
29000 On ch=4 n=48 v=45
29073 Off ch=4 n=57 v=0
29107 Off ch=4 n=48 v=0
29141 Off ch=4 n=72 v=0
29172 On ch=4 n=69 v=45
29179 On ch=4 n=45 v=45
29184 On ch=4 n=60 v=53
29304 Off ch=4 n=45 v=0
29314 Off ch=4 n=60 v=0
29315 Off ch=4 n=69 v=0
29358 On ch=4 n=45 v=45
29365 On ch=4 n=69 v=45
29376 On ch=4 n=60 v=53
29412 Off ch=4 n=45 v=0
29414 Off ch=4 n=69 v=0
29430 Off ch=4 n=60 v=0
29463 On ch=4 n=69 v=45
29466 On ch=4 n=45 v=45
29472 On ch=4 n=60 v=53
29609 Off ch=4 n=45 v=0
29611 Off ch=4 n=69 v=0
29633 Off ch=4 n=60 v=0
29660 On ch=4 n=69 v=45
29663 On ch=4 n=45 v=45
29664 On ch=4 n=59 v=53
29692 Off ch=4 n=69 v=0
29699 Off ch=4 n=45 v=0
29745 Off ch=4 n=59 v=0
29752 On ch=4 n=45 v=45
29759 On ch=4 n=69 v=45
29760 On ch=4 n=57 v=53
29887 Off ch=4 n=45 v=0
29890 Off ch=4 n=57 v=0
29893 Off ch=4 n=69 v=0
29947 On ch=4 n=72 v=45
29950 On ch=4 n=48 v=45
29952 On ch=4 n=59 v=53
30010 Off ch=4 n=72 v=0
30012 Off ch=4 n=48 v=0
30048 On ch=4 n=47 v=45
30055 On ch=4 n=71 v=45
30082 Off ch=4 n=59 v=0
30111 Off ch=4 n=47 v=0
30138 On ch=4 n=45 v=45
30144 On ch=4 n=59 v=53
30144 Off ch=4 n=71 v=0
30149 On ch=4 n=69 v=45
30189 Off ch=4 n=59 v=0
30192 Off ch=4 n=45 v=0
30198 Off ch=4 n=69 v=0
30240 On ch=4 n=59 v=53
30245 On ch=4 n=47 v=45
30252 On ch=4 n=71 v=45
30362 Off ch=4 n=47 v=0
30395 Off ch=4 n=71 v=0
30401 Off ch=4 n=59 v=0
30407 On ch=4 n=45 v=45
30422 On ch=4 n=69 v=45
30432 On ch=4 n=57 v=53
30442 Off ch=4 n=45 v=0
30494 Off ch=4 n=69 v=0
30504 Off ch=4 n=57 v=0
30505 On ch=4 n=43 v=45
30520 On ch=4 n=67 v=45
30530 On ch=4 n=55 v=53
30640 Off ch=4 n=43 v=0
30655 Off ch=4 n=67 v=0
30673 Off ch=4 n=55 v=0
30709 On ch=4 n=69 v=45
30723 On ch=4 n=57 v=53
30729 On ch=4 n=45 v=45
30915 Off ch=4 n=69 v=0
31054 Off ch=4 n=57 v=0
31553 Off ch=4 n=45 v=0
50688 On ch=4 n=57 v=76
50702 On ch=4 n=52 v=68
50814 Off ch=4 n=52 v=0
50831 Off ch=4 n=57 v=0
50876 On ch=4 n=52 v=68
50880 On ch=4 n=57 v=76
50888 On ch=4 n=64 v=58
50919 Off ch=4 n=64 v=0
50921 Off ch=4 n=52 v=0
50927 Off ch=4 n=57 v=0
50976 On ch=4 n=57 v=76
50984 On ch=4 n=52 v=68
50991 On ch=4 n=64 v=58
51094 Off ch=4 n=64 v=0
51119 Off ch=4 n=57 v=0
51127 Off ch=4 n=52 v=0
51168 On ch=4 n=57 v=76
51175 On ch=4 n=64 v=58
51176 On ch=4 n=52 v=68
51197 Off ch=4 n=64 v=0
51215 Off ch=4 n=57 v=0
51221 Off ch=4 n=52 v=0
51260 On ch=4 n=64 v=58
51264 On ch=4 n=57 v=76
51271 On ch=4 n=52 v=68
51340 Off ch=4 n=64 v=0
51374 Off ch=4 n=52 v=0
51407 Off ch=4 n=57 v=0
51430 On ch=4 n=67 v=58
51436 On ch=4 n=55 v=68
51456 On ch=4 n=60 v=76
51551 Off ch=4 n=60 v=0
51560 Off ch=4 n=67 v=0
51580 Off ch=4 n=55 v=0
51632 On ch=4 n=67 v=58
51638 On ch=4 n=55 v=68
51648 On ch=4 n=60 v=76
51672 Off ch=4 n=67 v=0
51683 Off ch=4 n=55 v=0
51695 Off ch=4 n=60 v=0
51744 On ch=4 n=60 v=76
51744 On ch=4 n=67 v=58
51745 On ch=4 n=55 v=68
51833 Off ch=4 n=67 v=0
51880 Off ch=4 n=55 v=0
51887 Off ch=4 n=60 v=0
51929 On ch=4 n=55 v=68
51936 On ch=4 n=60 v=76
51936 On ch=4 n=67 v=58
51965 Off ch=4 n=55 v=0
51972 Off ch=4 n=67 v=0
51983 Off ch=4 n=60 v=0
52032 On ch=4 n=60 v=76
52032 On ch=4 n=55 v=68
52039 On ch=4 n=67 v=58
52120 Off ch=4 n=67 v=0
52162 Off ch=4 n=55 v=0
52175 Off ch=4 n=60 v=0
52220 On ch=4 n=52 v=68
52224 On ch=4 n=57 v=76
52227 On ch=4 n=64 v=58
52304 Off ch=4 n=64 v=0
52350 Off ch=4 n=52 v=0
52367 Off ch=4 n=57 v=0
52408 On ch=4 n=52 v=68
52416 On ch=4 n=57 v=76
52420 On ch=4 n=64 v=58
52449 Off ch=4 n=52 v=0
52460 Off ch=4 n=64 v=0
52463 Off ch=4 n=57 v=0
52512 On ch=4 n=57 v=76
52512 On ch=4 n=52 v=68
52528 On ch=4 n=64 v=58
52608 Off ch=4 n=64 v=0
52650 Off ch=4 n=52 v=0
52655 Off ch=4 n=57 v=0
52702 On ch=4 n=64 v=58
52704 On ch=4 n=57 v=76
52704 On ch=4 n=52 v=68
52738 Off ch=4 n=64 v=0
52749 Off ch=4 n=52 v=0
52751 Off ch=4 n=57 v=0
52800 On ch=4 n=57 v=76
52805 On ch=4 n=64 v=58
52812 On ch=4 n=52 v=68
52848 Off ch=4 n=52 v=0
52881 Off ch=4 n=64 v=0
52892 On ch=4 n=52 v=68
52928 Off ch=4 n=52 v=0
52943 Off ch=4 n=57 v=0
52984 On ch=4 n=67 v=58
52986 On ch=4 n=55 v=68
52992 On ch=4 n=60 v=76
53070 Off ch=4 n=67 v=0
53130 Off ch=4 n=55 v=0
53135 Off ch=4 n=60 v=0
53182 On ch=4 n=67 v=58
53184 On ch=4 n=60 v=76
53188 On ch=4 n=55 v=68
53222 Off ch=4 n=67 v=0
53224 Off ch=4 n=55 v=0
53231 Off ch=4 n=60 v=0
53280 On ch=4 n=60 v=76
53291 On ch=4 n=55 v=68
53298 On ch=4 n=67 v=58
53361 Off ch=4 n=67 v=0
53416 Off ch=4 n=55 v=0
53423 Off ch=4 n=60 v=0
53464 On ch=4 n=67 v=58
53466 On ch=4 n=55 v=68
53472 On ch=4 n=60 v=76
53500 Off ch=4 n=67 v=0
53506 Off ch=4 n=55 v=0
53519 Off ch=4 n=60 v=0
53564 On ch=4 n=55 v=68
53568 On ch=4 n=60 v=76
53580 On ch=4 n=67 v=58
53596 Off ch=4 n=55 v=0
53639 Off ch=4 n=67 v=0
53658 On ch=4 n=55 v=68
53694 Off ch=4 n=55 v=0
53711 Off ch=4 n=60 v=0
53755 On ch=4 n=64 v=58
53760 On ch=4 n=57 v=76
53766 On ch=4 n=52 v=68
53836 Off ch=4 n=64 v=0
53891 Off ch=4 n=52 v=0
53903 Off ch=4 n=57 v=0
53950 On ch=4 n=52 v=68
53952 On ch=4 n=57 v=76
53957 On ch=4 n=64 v=58
53985 Off ch=4 n=52 v=0
53988 Off ch=4 n=64 v=0
53999 Off ch=4 n=57 v=0
54048 On ch=4 n=57 v=76
54057 On ch=4 n=52 v=68
54060 On ch=4 n=64 v=58
54163 Off ch=4 n=64 v=0
54183 Off ch=4 n=52 v=0
54191 Off ch=4 n=57 v=0
54240 On ch=4 n=57 v=76
54241 On ch=4 n=52 v=68
54252 On ch=4 n=64 v=58
54281 Off ch=4 n=52 v=0
54287 Off ch=4 n=57 v=0
54288 Off ch=4 n=64 v=0
54336 On ch=4 n=57 v=76
54348 On ch=4 n=52 v=68
54351 On ch=4 n=64 v=58
54414 Off ch=4 n=64 v=0
54451 Off ch=4 n=52 v=0
54479 Off ch=4 n=57 v=0
54521 On ch=4 n=67 v=58
54523 On ch=4 n=55 v=68
54528 On ch=4 n=60 v=76
54611 Off ch=4 n=67 v=0
54623 Off ch=4 n=60 v=0
54644 Off ch=4 n=55 v=0
54711 On ch=4 n=55 v=68
54718 On ch=4 n=67 v=58
54720 On ch=4 n=60 v=76
54752 Off ch=4 n=55 v=0
54763 Off ch=4 n=67 v=0
54767 Off ch=4 n=60 v=0
54816 On ch=4 n=60 v=76
54819 On ch=4 n=55 v=68
54835 On ch=4 n=67 v=58
54902 Off ch=4 n=67 v=0
54949 Off ch=4 n=55 v=0
54959 Off ch=4 n=60 v=0
55002 On ch=4 n=55 v=68
55005 On ch=4 n=67 v=58
55008 On ch=4 n=60 v=76
55041 Off ch=4 n=67 v=0
55043 Off ch=4 n=55 v=0
55055 Off ch=4 n=60 v=0
55104 On ch=4 n=60 v=76
55105 On ch=4 n=55 v=68
55108 On ch=4 n=67 v=58
55171 Off ch=4 n=67 v=0
55213 Off ch=4 n=55 v=0
55247 Off ch=4 n=60 v=0
55287 On ch=4 n=64 v=58
55289 On ch=4 n=52 v=68
55296 On ch=4 n=57 v=76
55390 Off ch=4 n=64 v=0
55410 Off ch=4 n=52 v=0
55439 Off ch=4 n=57 v=0
55482 On ch=4 n=52 v=68
55484 On ch=4 n=64 v=58
55488 On ch=4 n=57 v=76
55513 Off ch=4 n=52 v=0
55529 Off ch=4 n=64 v=0
55535 Off ch=4 n=57 v=0
55584 On ch=4 n=57 v=76
55585 On ch=4 n=52 v=68
55592 On ch=4 n=64 v=58
55659 Off ch=4 n=64 v=0
55683 Off ch=4 n=52 v=0
55727 Off ch=4 n=57 v=0
55764 On ch=4 n=52 v=68
55776 On ch=4 n=57 v=76
55776 On ch=4 n=64 v=58
55795 Off ch=4 n=52 v=0
55811 Off ch=4 n=64 v=0
55823 Off ch=4 n=57 v=0
55872 On ch=4 n=57 v=76
55876 On ch=4 n=52 v=68
55888 On ch=4 n=64 v=58
55959 Off ch=4 n=64 v=0
55984 Off ch=4 n=52 v=0
56015 Off ch=4 n=57 v=0
56053 On ch=4 n=67 v=58
56060 On ch=4 n=55 v=68
56064 On ch=4 n=60 v=76
56138 Off ch=4 n=67 v=0
56181 Off ch=4 n=55 v=0
56207 Off ch=4 n=60 v=0
56248 On ch=4 n=55 v=68
56256 On ch=4 n=60 v=76
56259 On ch=4 n=67 v=58
56284 Off ch=4 n=55 v=0
56300 Off ch=4 n=67 v=0
56303 Off ch=4 n=60 v=0
56352 On ch=4 n=60 v=76
56355 On ch=4 n=55 v=68
56371 On ch=4 n=67 v=58
56434 Off ch=4 n=67 v=0
56481 Off ch=4 n=55 v=0
56495 Off ch=4 n=60 v=0
56537 On ch=4 n=67 v=58
56544 On ch=4 n=60 v=76
56544 On ch=4 n=55 v=68
56568 Off ch=4 n=67 v=0
56584 Off ch=4 n=55 v=0
56591 Off ch=4 n=60 v=0
56636 On ch=4 n=67 v=58
56640 On ch=4 n=60 v=76
56647 On ch=4 n=55 v=68
56673 Off ch=4 n=55 v=0
56703 Off ch=4 n=67 v=0
56783 Off ch=4 n=60 v=0
56814 On ch=4 n=69 v=64
56826 On ch=4 n=45 v=64
56834 On ch=4 n=57 v=76
56942 Off ch=4 n=45 v=0
56949 Off ch=4 n=69 v=0
56951 Off ch=4 n=57 v=0
57023 On ch=4 n=45 v=64
57025 On ch=4 n=57 v=76
57025 On ch=4 n=69 v=64
57068 Off ch=4 n=45 v=0
57070 Off ch=4 n=57 v=0
57074 Off ch=4 n=69 v=0
57120 On ch=4 n=57 v=76
57121 On ch=4 n=45 v=64
57123 On ch=4 n=69 v=64
57229 Off ch=4 n=45 v=0
57253 Off ch=4 n=69 v=0
57254 Off ch=4 n=57 v=0
57310 On ch=4 n=45 v=64
57316 On ch=4 n=57 v=76
57325 On ch=4 n=69 v=64
57354 Off ch=4 n=45 v=0
57356 Off ch=4 n=57 v=0
57361 Off ch=4 n=69 v=0
57410 On ch=4 n=57 v=76
57417 On ch=4 n=45 v=64
57419 On ch=4 n=69 v=64
57499 Off ch=4 n=57 v=0
57503 On ch=4 n=55 v=76
57522 Off ch=4 n=69 v=0
57525 Off ch=4 n=45 v=0
57561 Off ch=4 n=55 v=0
57596 On ch=4 n=48 v=64
57598 On ch=4 n=52 v=76
57621 On ch=4 n=72 v=64
57715 Off ch=4 n=72 v=0
57731 Off ch=4 n=48 v=0
57746 Off ch=4 n=52 v=0
57789 On ch=4 n=52 v=76
57791 On ch=4 n=72 v=64
57802 On ch=4 n=48 v=64
57838 Off ch=4 n=48 v=0
57838 Off ch=4 n=52 v=0
57840 Off ch=4 n=72 v=0
57887 On ch=4 n=52 v=76
57898 On ch=4 n=72 v=64
57901 On ch=4 n=48 v=64
58015 Off ch=4 n=72 v=0
58017 Off ch=4 n=48 v=0
58030 Off ch=4 n=52 v=0
58069 On ch=4 n=72 v=64
58080 On ch=4 n=52 v=76
58080 On ch=4 n=48 v=64
58113 Off ch=4 n=72 v=0
58116 Off ch=4 n=48 v=0
58116 Off ch=4 n=52 v=0
58176 On ch=4 n=72 v=64
58177 On ch=4 n=52 v=76
58179 On ch=4 n=48 v=64
58249 Off ch=4 n=52 v=0
58273 On ch=4 n=53 v=76
58295 Off ch=4 n=48 v=0
58308 Off ch=4 n=53 v=0
58320 Off ch=4 n=72 v=0
58360 On ch=4 n=71 v=64
58362 On ch=4 n=47 v=64
58371 On ch=4 n=55 v=76
58474 Off ch=4 n=47 v=0
58517 Off ch=4 n=71 v=0
58523 Off ch=4 n=55 v=0
58546 On ch=4 n=47 v=64
58561 On ch=4 n=71 v=64
58563 On ch=4 n=55 v=76
58582 Off ch=4 n=47 v=0
58606 Off ch=4 n=71 v=0
58612 Off ch=4 n=55 v=0
58645 On ch=4 n=47 v=64
58658 On ch=4 n=55 v=76
58669 On ch=4 n=71 v=64
58806 Off ch=4 n=47 v=0
58819 Off ch=4 n=55 v=0
58821 Off ch=4 n=71 v=0
58848 On ch=4 n=55 v=76
58860 On ch=4 n=47 v=64
58875 On ch=4 n=71 v=64
58889 Off ch=4 n=55 v=0
58904 Off ch=4 n=47 v=0
58911 Off ch=4 n=71 v=0
58944 On ch=4 n=55 v=76
58958 On ch=4 n=47 v=64
58969 On ch=4 n=71 v=64
59102 Off ch=4 n=47 v=0
59104 Off ch=4 n=55 v=0
59108 Off ch=4 n=71 v=0
59136 On ch=4 n=57 v=76
59153 On ch=4 n=72 v=64
59155 On ch=4 n=48 v=64
59244 Off ch=4 n=57 v=0
59272 Off ch=4 n=48 v=0
59287 Off ch=4 n=72 v=0
59326 On ch=4 n=48 v=64
59328 On ch=4 n=57 v=76
59336 On ch=4 n=72 v=64
59370 Off ch=4 n=48 v=0
59372 Off ch=4 n=57 v=0
59377 Off ch=4 n=72 v=0
59424 On ch=4 n=57 v=76
59433 On ch=4 n=48 v=64
59440 On ch=4 n=72 v=64
59536 Off ch=4 n=57 v=0
59560 Off ch=4 n=72 v=0
59568 Off ch=4 n=48 v=0
59610 On ch=4 n=72 v=64
59616 On ch=4 n=57 v=76
59621 On ch=4 n=48 v=64
59646 Off ch=4 n=72 v=0
59648 Off ch=4 n=57 v=0
59666 Off ch=4 n=48 v=0
59708 On ch=4 n=72 v=64
59712 On ch=4 n=57 v=76
59720 On ch=4 n=48 v=64
59793 Off ch=4 n=57 v=0
59827 Off ch=4 n=48 v=0
59861 Off ch=4 n=72 v=0
59892 On ch=4 n=69 v=64
59899 On ch=4 n=45 v=64
59904 On ch=4 n=60 v=76
60024 Off ch=4 n=45 v=0
60034 Off ch=4 n=60 v=0
60035 Off ch=4 n=69 v=0
60078 On ch=4 n=45 v=64
60085 On ch=4 n=69 v=64
60096 On ch=4 n=60 v=76
60132 Off ch=4 n=45 v=0
60134 Off ch=4 n=69 v=0
60150 Off ch=4 n=60 v=0
60183 On ch=4 n=69 v=64
60186 On ch=4 n=45 v=64
60192 On ch=4 n=60 v=76
60329 Off ch=4 n=45 v=0
60331 Off ch=4 n=69 v=0
60353 Off ch=4 n=60 v=0
60380 On ch=4 n=69 v=64
60383 On ch=4 n=45 v=64
60384 On ch=4 n=59 v=76
60412 Off ch=4 n=69 v=0
60419 Off ch=4 n=45 v=0
60465 Off ch=4 n=59 v=0
60472 On ch=4 n=45 v=64
60479 On ch=4 n=69 v=64
60480 On ch=4 n=57 v=76
60607 Off ch=4 n=45 v=0
60610 Off ch=4 n=57 v=0
60613 Off ch=4 n=69 v=0
60667 On ch=4 n=72 v=64
60670 On ch=4 n=48 v=64
60672 On ch=4 n=59 v=76
60730 Off ch=4 n=72 v=0
60732 Off ch=4 n=48 v=0
60768 On ch=4 n=47 v=64
60775 On ch=4 n=71 v=64
60802 Off ch=4 n=59 v=0
60831 Off ch=4 n=47 v=0
60858 On ch=4 n=45 v=64
60864 On ch=4 n=59 v=76
60864 Off ch=4 n=71 v=0
60869 On ch=4 n=69 v=64
60909 Off ch=4 n=59 v=0
60912 Off ch=4 n=45 v=0
60918 Off ch=4 n=69 v=0
60960 On ch=4 n=59 v=76
60965 On ch=4 n=47 v=64
60972 On ch=4 n=71 v=64
61082 Off ch=4 n=47 v=0
61115 Off ch=4 n=71 v=0
61121 Off ch=4 n=59 v=0
61127 On ch=4 n=45 v=64
61142 On ch=4 n=69 v=64
61152 On ch=4 n=57 v=76
61162 Off ch=4 n=45 v=0
61214 Off ch=4 n=69 v=0
61224 Off ch=4 n=57 v=0
61225 On ch=4 n=43 v=64
61240 On ch=4 n=67 v=64
61250 On ch=4 n=55 v=76
61360 Off ch=4 n=43 v=0
61375 Off ch=4 n=67 v=0
61393 Off ch=4 n=55 v=0
61429 On ch=4 n=69 v=64
61443 On ch=4 n=57 v=76
61449 On ch=4 n=45 v=64
61635 Off ch=4 n=69 v=0
61774 Off ch=4 n=57 v=0
62273 Off ch=4 n=45 v=0
62273 SeqSpec 24 24 00 08 00 00 00 00 00 00 f3 41 00 00 f6 00
62273 SeqSpec 24 24 00 01 05
62273 SeqSpec 24 24 00 06 04 04
62273 SeqSpec 24 24 00 02 03
62976 Meta TrkEnd
TrkEnd
MTrk
0 SeqNr 8
0 Meta TrkName "44 BassDrum1"
1453 On ch=10 n=36 v=80
1534 Off ch=10 n=36 v=0
1552 On ch=10 n=36 v=85
1628 Off ch=10 n=36 v=0
1838 On ch=10 n=36 v=85
1914 Off ch=10 n=36 v=0
2219 On ch=10 n=36 v=20
2300 Off ch=10 n=36 v=0
2318 On ch=10 n=36 v=85
2394 Off ch=10 n=36 v=0
2698 On ch=10 n=36 v=85
2779 Off ch=10 n=36 v=0
2792 On ch=10 n=36 v=85
2873 Off ch=10 n=36 v=0
3084 On ch=10 n=36 v=85
3160 Off ch=10 n=36 v=0
3370 On ch=10 n=36 v=85
3451 Off ch=10 n=36 v=0
3751 On ch=10 n=36 v=20
3832 Off ch=10 n=36 v=0
3850 On ch=10 n=36 v=85
3926 Off ch=10 n=36 v=0
4231 On ch=10 n=36 v=85
4311 Off ch=10 n=36 v=0
4329 On ch=10 n=36 v=85
4405 Off ch=10 n=36 v=0
4616 On ch=10 n=36 v=85
4696 Off ch=10 n=36 v=0
4903 On ch=10 n=36 v=85
4983 Off ch=10 n=36 v=0
5283 On ch=10 n=36 v=20
5364 Off ch=10 n=36 v=0
5382 On ch=10 n=36 v=85
5463 Off ch=10 n=36 v=0
5763 On ch=10 n=36 v=85
5843 Off ch=10 n=36 v=0
5861 On ch=10 n=36 v=85
5942 Off ch=10 n=36 v=0
6148 On ch=10 n=36 v=85
6229 Off ch=10 n=36 v=0
6435 On ch=10 n=36 v=85
6515 Off ch=10 n=36 v=0
6820 On ch=10 n=36 v=20
6901 Off ch=10 n=36 v=0
6914 On ch=10 n=36 v=85
6995 Off ch=10 n=36 v=0
7201 On ch=10 n=36 v=70
7281 Off ch=10 n=36 v=0
7496 On ch=10 n=36 v=75
7573 Off ch=10 n=36 v=0
7689 On ch=10 n=36 v=85
7761 Off ch=10 n=36 v=0
7971 On ch=10 n=36 v=85
8048 Off ch=10 n=36 v=0
8352 On ch=10 n=36 v=20
8433 Off ch=10 n=36 v=0
8451 On ch=10 n=36 v=85
8527 Off ch=10 n=36 v=0
8832 On ch=10 n=36 v=85
8912 Off ch=10 n=36 v=0
8930 On ch=10 n=36 v=85
9006 Off ch=10 n=36 v=0
9212 On ch=10 n=36 v=85
9293 Off ch=10 n=36 v=0
9504 On ch=10 n=36 v=85
9584 Off ch=10 n=36 v=0
9790 On ch=10 n=36 v=75
9871 Off ch=10 n=36 v=0
9983 On ch=10 n=36 v=80
10059 Off ch=10 n=36 v=0
10077 On ch=10 n=36 v=80
10158 Off ch=10 n=36 v=0
10270 On ch=10 n=36 v=70
10346 Off ch=10 n=36 v=0
10556 On ch=10 n=36 v=75
10637 Off ch=10 n=36 v=0
10749 On ch=10 n=36 v=85
10830 Off ch=10 n=36 v=0
11036 On ch=10 n=36 v=85
11116 Off ch=10 n=36 v=0
11416 On ch=10 n=36 v=20
11497 Off ch=10 n=36 v=0
11515 On ch=10 n=36 v=85
11596 Off ch=10 n=36 v=0
11900 On ch=10 n=36 v=85
11976 Off ch=10 n=36 v=0
11994 On ch=10 n=36 v=85
12075 Off ch=10 n=36 v=0
12281 On ch=10 n=36 v=85
12362 Off ch=10 n=36 v=0
12568 On ch=10 n=36 v=85
12648 Off ch=10 n=36 v=0
12953 On ch=10 n=36 v=20
13034 Off ch=10 n=36 v=0
13047 On ch=10 n=36 v=85
13128 Off ch=10 n=36 v=0
13432 On ch=10 n=36 v=85
13509 Off ch=10 n=36 v=0
13527 On ch=10 n=36 v=85
13607 Off ch=10 n=36 v=0
13818 On ch=10 n=36 v=75
13894 Off ch=10 n=36 v=0
14584 On ch=10 n=36 v=85
14660 Off ch=10 n=36 v=0
14866 On ch=10 n=36 v=85
14947 Off ch=10 n=36 v=0
15251 On ch=10 n=36 v=20
15332 Off ch=10 n=36 v=0
15350 On ch=10 n=36 v=85
15426 Off ch=10 n=36 v=0
15731 On ch=10 n=36 v=85
15811 Off ch=10 n=36 v=0
15825 On ch=10 n=36 v=85
15905 Off ch=10 n=36 v=0
16116 On ch=10 n=36 v=85
16136 On ch=10 n=36 v=85
16192 Off ch=10 n=36 v=0
16208 Off ch=10 n=36 v=0
16414 On ch=10 n=36 v=85
16495 Off ch=10 n=36 v=0
16800 On ch=10 n=36 v=20
16880 Off ch=10 n=36 v=0
16898 On ch=10 n=36 v=85
16974 Off ch=10 n=36 v=0
17279 On ch=10 n=36 v=85
17360 Off ch=10 n=36 v=0
17373 On ch=10 n=36 v=85
17454 Off ch=10 n=36 v=0
17664 On ch=10 n=36 v=85
17740 Off ch=10 n=36 v=0
17951 On ch=10 n=36 v=85
18027 Off ch=10 n=36 v=0
18332 On ch=10 n=36 v=20
18412 Off ch=10 n=36 v=0
18430 On ch=10 n=36 v=85
18511 Off ch=10 n=36 v=0
18816 On ch=10 n=36 v=85
18892 Off ch=10 n=36 v=0
18910 On ch=10 n=36 v=85
18990 Off ch=10 n=36 v=0
19196 On ch=10 n=36 v=85
19272 Off ch=10 n=36 v=0
19483 On ch=10 n=36 v=85
19564 Off ch=10 n=36 v=0
19868 On ch=10 n=36 v=20
19944 Off ch=10 n=36 v=0
19962 On ch=10 n=36 v=85
20043 Off ch=10 n=36 v=0
20348 On ch=10 n=36 v=85
20424 Off ch=10 n=36 v=0
20442 On ch=10 n=36 v=85
20522 Off ch=10 n=36 v=0
20728 On ch=10 n=36 v=85
20809 Off ch=10 n=36 v=0
21015 On ch=10 n=36 v=85
21096 Off ch=10 n=36 v=0
21400 On ch=10 n=36 v=20
21477 Off ch=10 n=36 v=0
21495 On ch=10 n=36 v=85
21575 Off ch=10 n=36 v=0
21880 On ch=10 n=36 v=85
21960 Off ch=10 n=36 v=0
21974 On ch=10 n=36 v=85
22055 Off ch=10 n=36 v=0
22265 On ch=10 n=36 v=80
22341 Off ch=10 n=36 v=0
22359 On ch=10 n=36 v=80
22440 Off ch=10 n=36 v=0
22552 On ch=10 n=36 v=70
22628 Off ch=10 n=36 v=0
22843 On ch=10 n=36 v=75
22919 Off ch=10 n=36 v=0
23031 On ch=10 n=36 v=85
23107 Off ch=10 n=36 v=0
23318 On ch=10 n=36 v=85
23394 Off ch=10 n=36 v=0
23699 On ch=10 n=36 v=20
23779 Off ch=10 n=36 v=0
23797 On ch=10 n=36 v=85
23873 Off ch=10 n=36 v=0
24178 On ch=10 n=36 v=85
24259 Off ch=10 n=36 v=0
24272 On ch=10 n=36 v=85
24353 Off ch=10 n=36 v=0
24563 On ch=10 n=36 v=85
24640 Off ch=10 n=36 v=0
24850 On ch=10 n=36 v=85
24931 Off ch=10 n=36 v=0
25231 On ch=10 n=36 v=20
25312 Off ch=10 n=36 v=0
25329 On ch=10 n=36 v=80
25410 Off ch=10 n=36 v=0
25428 On ch=10 n=36 v=80
25504 Off ch=10 n=36 v=0
25616 On ch=10 n=36 v=70
25697 Off ch=10 n=36 v=0
25907 On ch=10 n=36 v=75
25984 Off ch=10 n=36 v=0
26096 On ch=10 n=36 v=85
26176 Off ch=10 n=36 v=0
26382 On ch=10 n=36 v=85
26463 Off ch=10 n=36 v=0
26768 On ch=10 n=36 v=20
26844 Off ch=10 n=36 v=0
26862 On ch=10 n=36 v=85
26942 Off ch=10 n=36 v=0
27247 On ch=10 n=36 v=85
27323 Off ch=10 n=36 v=0
27341 On ch=10 n=36 v=85
27422 Off ch=10 n=36 v=0
27628 On ch=10 n=36 v=85
27708 Off ch=10 n=36 v=0
27919 On ch=10 n=36 v=85
27995 Off ch=10 n=36 v=0
28300 On ch=10 n=36 v=20
28380 Off ch=10 n=36 v=0
28398 On ch=10 n=36 v=75
28474 Off ch=10 n=36 v=0
29164 On ch=10 n=36 v=85
29240 Off ch=10 n=36 v=0
29451 On ch=10 n=36 v=85
29527 Off ch=10 n=36 v=0
29832 On ch=10 n=36 v=20
29912 Off ch=10 n=36 v=0
29930 On ch=10 n=36 v=85
30007 Off ch=10 n=36 v=0
30311 On ch=10 n=36 v=85
30392 Off ch=10 n=36 v=0
30410 On ch=10 n=36 v=85
30486 Off ch=10 n=36 v=0
30696 On ch=10 n=36 v=85
30773 Off ch=10 n=36 v=0
30983 On ch=10 n=36 v=85
31064 Off ch=10 n=36 v=0
31368 On ch=10 n=36 v=20
31445 Off ch=10 n=36 v=0
31463 On ch=10 n=36 v=85
31539 Off ch=10 n=36 v=0
31848 On ch=10 n=36 v=85
31924 Off ch=10 n=36 v=0
31942 On ch=10 n=36 v=85
32023 Off ch=10 n=36 v=0
32229 On ch=10 n=36 v=85
32309 Off ch=10 n=36 v=0
32616 On ch=10 n=36 v=85
32692 Off ch=10 n=36 v=0
32710 On ch=10 n=36 v=85
32791 Off ch=10 n=36 v=0
32997 On ch=10 n=36 v=85
33077 Off ch=10 n=36 v=0
33384 On ch=10 n=36 v=85
33460 Off ch=10 n=36 v=0
33478 On ch=10 n=36 v=85
33559 Off ch=10 n=36 v=0
33765 On ch=10 n=36 v=85
33845 Off ch=10 n=36 v=0
34152 On ch=10 n=36 v=85
34228 Off ch=10 n=36 v=0
34246 On ch=10 n=36 v=85
34327 Off ch=10 n=36 v=0
34533 On ch=10 n=36 v=85
34613 Off ch=10 n=36 v=0
34920 On ch=10 n=36 v=85
34996 Off ch=10 n=36 v=0
35014 On ch=10 n=36 v=85
35095 Off ch=10 n=36 v=0
35301 On ch=10 n=36 v=85
35336 On ch=10 n=36 v=85
35381 Off ch=10 n=36 v=0
35408 Off ch=10 n=36 v=0
35614 On ch=10 n=36 v=85
35695 Off ch=10 n=36 v=0
36000 On ch=10 n=36 v=20
36080 Off ch=10 n=36 v=0
36098 On ch=10 n=36 v=85
36174 Off ch=10 n=36 v=0
36479 On ch=10 n=36 v=85
36560 Off ch=10 n=36 v=0
36573 On ch=10 n=36 v=85
36654 Off ch=10 n=36 v=0
36864 On ch=10 n=36 v=85
36940 Off ch=10 n=36 v=0
37151 On ch=10 n=36 v=85
37227 Off ch=10 n=36 v=0
37532 On ch=10 n=36 v=20
37612 Off ch=10 n=36 v=0
37630 On ch=10 n=36 v=85
37711 Off ch=10 n=36 v=0
38016 On ch=10 n=36 v=85
38092 Off ch=10 n=36 v=0
38110 On ch=10 n=36 v=85
38190 Off ch=10 n=36 v=0
38396 On ch=10 n=36 v=85
38472 Off ch=10 n=36 v=0
38683 On ch=10 n=36 v=85
38764 Off ch=10 n=36 v=0
39068 On ch=10 n=36 v=20
39144 Off ch=10 n=36 v=0
39162 On ch=10 n=36 v=85
39243 Off ch=10 n=36 v=0
39548 On ch=10 n=36 v=85
39624 Off ch=10 n=36 v=0
39642 On ch=10 n=36 v=85
39722 Off ch=10 n=36 v=0
39928 On ch=10 n=36 v=85
40009 Off ch=10 n=36 v=0
40215 On ch=10 n=36 v=85
40296 Off ch=10 n=36 v=0
40600 On ch=10 n=36 v=20
40677 Off ch=10 n=36 v=0
40695 On ch=10 n=36 v=85
40775 Off ch=10 n=36 v=0
41080 On ch=10 n=36 v=85
41160 Off ch=10 n=36 v=0
41174 On ch=10 n=36 v=85
41255 Off ch=10 n=36 v=0
41465 On ch=10 n=36 v=80
41541 Off ch=10 n=36 v=0
41559 On ch=10 n=36 v=80
41640 Off ch=10 n=36 v=0
41752 On ch=10 n=36 v=70
41828 Off ch=10 n=36 v=0
42043 On ch=10 n=36 v=75
42119 Off ch=10 n=36 v=0
42231 On ch=10 n=36 v=85
42307 Off ch=10 n=36 v=0
42518 On ch=10 n=36 v=85
42594 Off ch=10 n=36 v=0
42899 On ch=10 n=36 v=20
42979 Off ch=10 n=36 v=0
42997 On ch=10 n=36 v=85
43073 Off ch=10 n=36 v=0
43378 On ch=10 n=36 v=85
43459 Off ch=10 n=36 v=0
43472 On ch=10 n=36 v=85
43553 Off ch=10 n=36 v=0
43763 On ch=10 n=36 v=85
43840 Off ch=10 n=36 v=0
44050 On ch=10 n=36 v=85
44131 Off ch=10 n=36 v=0
44431 On ch=10 n=36 v=20
44512 Off ch=10 n=36 v=0
44529 On ch=10 n=36 v=80
44610 Off ch=10 n=36 v=0
44628 On ch=10 n=36 v=80
44704 Off ch=10 n=36 v=0
44816 On ch=10 n=36 v=70
44897 Off ch=10 n=36 v=0
45107 On ch=10 n=36 v=75
45184 Off ch=10 n=36 v=0
45296 On ch=10 n=36 v=85
45376 Off ch=10 n=36 v=0
45582 On ch=10 n=36 v=85
45663 Off ch=10 n=36 v=0
45968 On ch=10 n=36 v=20
46044 Off ch=10 n=36 v=0
46062 On ch=10 n=36 v=85
46142 Off ch=10 n=36 v=0
46447 On ch=10 n=36 v=85
46523 Off ch=10 n=36 v=0
46541 On ch=10 n=36 v=85
46622 Off ch=10 n=36 v=0
46828 On ch=10 n=36 v=85
46908 Off ch=10 n=36 v=0
47119 On ch=10 n=36 v=85
47195 Off ch=10 n=36 v=0
47500 On ch=10 n=36 v=20
47580 Off ch=10 n=36 v=0
47598 On ch=10 n=36 v=75
47674 Off ch=10 n=36 v=0
48364 On ch=10 n=36 v=85
48440 Off ch=10 n=36 v=0
48651 On ch=10 n=36 v=85
48727 Off ch=10 n=36 v=0
49032 On ch=10 n=36 v=20
49112 Off ch=10 n=36 v=0
49130 On ch=10 n=36 v=85
49207 Off ch=10 n=36 v=0
49419 On ch=10 n=36 v=85
49495 Off ch=10 n=36 v=0
49800 On ch=10 n=36 v=20
49880 Off ch=10 n=36 v=0
49898 On ch=10 n=36 v=85
49936 On ch=10 n=36 v=85
49975 Off ch=10 n=36 v=0
50012 Off ch=10 n=36 v=0
50222 On ch=10 n=36 v=85
50298 Off ch=10 n=36 v=0
50603 On ch=10 n=36 v=20
50684 Off ch=10 n=36 v=0
50702 On ch=10 n=36 v=85
50778 Off ch=10 n=36 v=0
51082 On ch=10 n=36 v=85
51163 Off ch=10 n=36 v=0
51176 On ch=10 n=36 v=85
51257 Off ch=10 n=36 v=0
51468 On ch=10 n=36 v=85
51544 Off ch=10 n=36 v=0
51754 On ch=10 n=36 v=85
51835 Off ch=10 n=36 v=0
52135 On ch=10 n=36 v=20
52216 Off ch=10 n=36 v=0
52234 On ch=10 n=36 v=85
52310 Off ch=10 n=36 v=0
52615 On ch=10 n=36 v=85
52695 Off ch=10 n=36 v=0
52713 On ch=10 n=36 v=85
52789 Off ch=10 n=36 v=0
53000 On ch=10 n=36 v=85
53080 Off ch=10 n=36 v=0
53287 On ch=10 n=36 v=85
53367 Off ch=10 n=36 v=0
53667 On ch=10 n=36 v=20
53748 Off ch=10 n=36 v=0
53766 On ch=10 n=36 v=85
53847 Off ch=10 n=36 v=0
54147 On ch=10 n=36 v=85
54227 Off ch=10 n=36 v=0
54245 On ch=10 n=36 v=85
54326 Off ch=10 n=36 v=0
54532 On ch=10 n=36 v=85
54613 Off ch=10 n=36 v=0
54819 On ch=10 n=36 v=85
54899 Off ch=10 n=36 v=0
55204 On ch=10 n=36 v=20
55285 Off ch=10 n=36 v=0
55298 On ch=10 n=36 v=85
55379 Off ch=10 n=36 v=0
55585 On ch=10 n=36 v=70
55665 Off ch=10 n=36 v=0
55880 On ch=10 n=36 v=75
55957 Off ch=10 n=36 v=0
56073 On ch=10 n=36 v=85
56145 Off ch=10 n=36 v=0
56355 On ch=10 n=36 v=85
56432 Off ch=10 n=36 v=0
56736 On ch=10 n=36 v=20
56817 Off ch=10 n=36 v=0
56835 On ch=10 n=36 v=85
56911 Off ch=10 n=36 v=0
57216 On ch=10 n=36 v=85
57296 Off ch=10 n=36 v=0
57314 On ch=10 n=36 v=85
57390 Off ch=10 n=36 v=0
57596 On ch=10 n=36 v=85
57677 Off ch=10 n=36 v=0
57888 On ch=10 n=36 v=85
57968 Off ch=10 n=36 v=0
58174 On ch=10 n=36 v=75
58255 Off ch=10 n=36 v=0
58367 On ch=10 n=36 v=80
58443 Off ch=10 n=36 v=0
58461 On ch=10 n=36 v=80
58542 Off ch=10 n=36 v=0
58654 On ch=10 n=36 v=70
58730 Off ch=10 n=36 v=0
58940 On ch=10 n=36 v=75
59021 Off ch=10 n=36 v=0
59133 On ch=10 n=36 v=85
59214 Off ch=10 n=36 v=0
59420 On ch=10 n=36 v=85
59500 Off ch=10 n=36 v=0
59800 On ch=10 n=36 v=20
59881 Off ch=10 n=36 v=0
59899 On ch=10 n=36 v=85
59980 Off ch=10 n=36 v=0
60284 On ch=10 n=36 v=85
60360 Off ch=10 n=36 v=0
60378 On ch=10 n=36 v=85
60459 Off ch=10 n=36 v=0
60665 On ch=10 n=36 v=85
60746 Off ch=10 n=36 v=0
60952 On ch=10 n=36 v=85
61032 Off ch=10 n=36 v=0
61337 On ch=10 n=36 v=20
61418 Off ch=10 n=36 v=0
61431 On ch=10 n=36 v=85
61512 Off ch=10 n=36 v=0
61816 On ch=10 n=36 v=85
61893 Off ch=10 n=36 v=0
61911 On ch=10 n=36 v=85
61991 Off ch=10 n=36 v=0
62202 On ch=10 n=36 v=75
62278 Off ch=10 n=36 v=0
62968 On ch=10 n=36 v=85
63044 Off ch=10 n=36 v=0
63250 On ch=10 n=36 v=85
63331 Off ch=10 n=36 v=0
63635 On ch=10 n=36 v=20
63716 Off ch=10 n=36 v=0
63734 On ch=10 n=36 v=85
63760 On ch=10 n=36 v=85
63810 Off ch=10 n=36 v=0
63836 Off ch=10 n=36 v=0
64046 On ch=10 n=36 v=85
64122 Off ch=10 n=36 v=0
64427 On ch=10 n=36 v=20
64508 Off ch=10 n=36 v=0
64526 On ch=10 n=36 v=85
64602 Off ch=10 n=36 v=0
64906 On ch=10 n=36 v=85
64987 Off ch=10 n=36 v=0
65000 On ch=10 n=36 v=85
65081 Off ch=10 n=36 v=0
65292 On ch=10 n=36 v=85
65368 Off ch=10 n=36 v=0
65578 On ch=10 n=36 v=85
65659 Off ch=10 n=36 v=0
65959 On ch=10 n=36 v=20
66040 Off ch=10 n=36 v=0
66058 On ch=10 n=36 v=85
66134 Off ch=10 n=36 v=0
66439 On ch=10 n=36 v=85
66519 Off ch=10 n=36 v=0
66537 On ch=10 n=36 v=85
66613 Off ch=10 n=36 v=0
66824 On ch=10 n=36 v=85
66904 Off ch=10 n=36 v=0
67111 On ch=10 n=36 v=85
67191 Off ch=10 n=36 v=0
67491 On ch=10 n=36 v=20
67572 Off ch=10 n=36 v=0
67590 On ch=10 n=36 v=85
67671 Off ch=10 n=36 v=0
67971 On ch=10 n=36 v=85
68051 Off ch=10 n=36 v=0
68069 On ch=10 n=36 v=85
68150 Off ch=10 n=36 v=0
68356 On ch=10 n=36 v=85
68437 Off ch=10 n=36 v=0
68643 On ch=10 n=36 v=85
68723 Off ch=10 n=36 v=0
69028 On ch=10 n=36 v=20
69109 Off ch=10 n=36 v=0
69122 On ch=10 n=36 v=85
69203 Off ch=10 n=36 v=0
69409 On ch=10 n=36 v=70
69489 Off ch=10 n=36 v=0
69704 On ch=10 n=36 v=75
69781 Off ch=10 n=36 v=0
69897 On ch=10 n=36 v=85
69969 Off ch=10 n=36 v=0
70179 On ch=10 n=36 v=85
70256 Off ch=10 n=36 v=0
70560 On ch=10 n=36 v=20
70641 Off ch=10 n=36 v=0
70659 On ch=10 n=36 v=85
70735 Off ch=10 n=36 v=0
71040 On ch=10 n=36 v=85
71120 Off ch=10 n=36 v=0
71138 On ch=10 n=36 v=85
71214 Off ch=10 n=36 v=0
71420 On ch=10 n=36 v=85
71501 Off ch=10 n=36 v=0
71712 On ch=10 n=36 v=85
71792 Off ch=10 n=36 v=0
71998 On ch=10 n=36 v=75
72079 Off ch=10 n=36 v=0
72191 On ch=10 n=36 v=80
72267 Off ch=10 n=36 v=0
72285 On ch=10 n=36 v=80
72366 Off ch=10 n=36 v=0
72478 On ch=10 n=36 v=70
72554 Off ch=10 n=36 v=0
72764 On ch=10 n=36 v=75
72845 Off ch=10 n=36 v=0
72957 On ch=10 n=36 v=85
73038 Off ch=10 n=36 v=0
73244 On ch=10 n=36 v=85
73324 Off ch=10 n=36 v=0
73624 On ch=10 n=36 v=20
73705 Off ch=10 n=36 v=0
73723 On ch=10 n=36 v=85
73804 Off ch=10 n=36 v=0
74108 On ch=10 n=36 v=85
74184 Off ch=10 n=36 v=0
74202 On ch=10 n=36 v=85
74283 Off ch=10 n=36 v=0
74489 On ch=10 n=36 v=85
74570 Off ch=10 n=36 v=0
74776 On ch=10 n=36 v=85
74856 Off ch=10 n=36 v=0
75161 On ch=10 n=36 v=20
75242 Off ch=10 n=36 v=0
75255 On ch=10 n=36 v=85
75336 Off ch=10 n=36 v=0
75640 On ch=10 n=36 v=85
75717 Off ch=10 n=36 v=0
75735 On ch=10 n=36 v=85
75815 Off ch=10 n=36 v=0
76026 On ch=10 n=36 v=75
76102 Off ch=10 n=36 v=0
76792 On ch=10 n=36 v=85
76868 Off ch=10 n=36 v=0
77074 On ch=10 n=36 v=85
77155 Off ch=10 n=36 v=0
77459 On ch=10 n=36 v=20
77540 Off ch=10 n=36 v=0
77558 On ch=10 n=36 v=85
77634 Off ch=10 n=36 v=0
77634 SeqSpec 24 24 00 08 00 00 00 00 00 01 31 ff 00 01 32 00
77634 SeqSpec 24 24 00 01 05
77634 SeqSpec 24 24 00 06 04 04
77634 SeqSpec 24 24 00 02 09
78336 Meta TrkEnd
TrkEnd
MTrk
0 SeqNr 9
0 Meta TrkName "38 SnareGatedReverb"
1260 On ch=10 n=38 v=85
1341 Off ch=10 n=38 v=0
1359 On ch=10 n=38 v=85
1435 Off ch=10 n=38 v=0
1740 On ch=10 n=38 v=90
1820 Off ch=10 n=38 v=0
2125 On ch=10 n=38 v=90
2206 Off ch=10 n=38 v=0
2506 On ch=10 n=38 v=90
2586 Off ch=10 n=38 v=0
2891 On ch=10 n=38 v=90
2967 Off ch=10 n=38 v=0
3276 On ch=10 n=38 v=90
3352 Off ch=10 n=38 v=0
3657 On ch=10 n=38 v=90
3738 Off ch=10 n=38 v=0
4042 On ch=10 n=38 v=90
4119 Off ch=10 n=38 v=0
4423 On ch=10 n=38 v=90
4504 Off ch=10 n=38 v=0
4808 On ch=10 n=38 v=90
4885 Off ch=10 n=38 v=0
5194 On ch=10 n=38 v=90
5270 Off ch=10 n=38 v=0
5570 On ch=10 n=38 v=90
5655 Off ch=10 n=38 v=0
5960 On ch=10 n=38 v=90
6036 Off ch=10 n=38 v=0
6341 On ch=10 n=38 v=90
6417 Off ch=10 n=38 v=0
6726 On ch=10 n=38 v=90
6802 Off ch=10 n=38 v=0
7107 On ch=10 n=38 v=80
7187 Off ch=10 n=38 v=0
7393 On ch=10 n=38 v=80
7474 Off ch=10 n=38 v=0
7488 On ch=10 n=38 v=80
7568 Off ch=10 n=38 v=0
7586 On ch=10 n=38 v=80
7667 Off ch=10 n=38 v=0
7873 On ch=10 n=38 v=90
7953 Off ch=10 n=38 v=0
8258 On ch=10 n=38 v=90
8339 Off ch=10 n=38 v=0
8639 On ch=10 n=38 v=90
8720 Off ch=10 n=38 v=0
9024 On ch=10 n=38 v=90
9105 Off ch=10 n=38 v=0
9405 On ch=10 n=38 v=90
9486 Off ch=10 n=38 v=0
9790 On ch=10 n=38 v=80
9871 Off ch=10 n=38 v=0
9884 On ch=10 n=38 v=80
9965 Off ch=10 n=38 v=0
10176 On ch=10 n=38 v=80
10252 Off ch=10 n=38 v=0
10462 On ch=10 n=38 v=80
10538 Off ch=10 n=38 v=0
10556 On ch=10 n=38 v=80
10637 Off ch=10 n=38 v=0
10655 On ch=10 n=38 v=80
10731 Off ch=10 n=38 v=0
10937 On ch=10 n=38 v=90
11018 Off ch=10 n=38 v=0
11322 On ch=10 n=38 v=90
11403 Off ch=10 n=38 v=0
11708 On ch=10 n=38 v=90
11784 Off ch=10 n=38 v=0
12088 On ch=10 n=38 v=90
12169 Off ch=10 n=38 v=0
12474 On ch=10 n=38 v=90
12554 Off ch=10 n=38 v=0
12855 On ch=10 n=38 v=90
12935 Off ch=10 n=38 v=0
13240 On ch=10 n=38 v=90
13320 Off ch=10 n=38 v=0
13625 On ch=10 n=38 v=95
13670 On ch=10 n=38 v=95
13670 Off ch=10 n=38 v=0
13701 Off ch=10 n=38 v=0
13818 On ch=10 n=38 v=95
13894 Off ch=10 n=38 v=0
14387 On ch=10 n=38 v=95
14436 On ch=10 n=38 v=95
14436 Off ch=10 n=38 v=0
14467 Off ch=10 n=38 v=0
14772 On ch=10 n=38 v=90
14853 Off ch=10 n=38 v=0
15157 On ch=10 n=38 v=90
15238 Off ch=10 n=38 v=0
15538 On ch=10 n=38 v=90
15619 Off ch=10 n=38 v=0
15923 On ch=10 n=38 v=90
16000 Off ch=10 n=38 v=0
16320 On ch=10 n=38 v=90
16401 Off ch=10 n=38 v=0
16705 On ch=10 n=38 v=90
16786 Off ch=10 n=38 v=0
17086 On ch=10 n=38 v=90
17167 Off ch=10 n=38 v=0
17472 On ch=10 n=38 v=90
17548 Off ch=10 n=38 v=0
17857 On ch=10 n=38 v=90
17933 Off ch=10 n=38 v=0
18238 On ch=10 n=38 v=90
18318 Off ch=10 n=38 v=0
18623 On ch=10 n=38 v=90
18699 Off ch=10 n=38 v=0
19004 On ch=10 n=38 v=90
19084 Off ch=10 n=38 v=0
19389 On ch=10 n=38 v=90
19465 Off ch=10 n=38 v=0
19774 On ch=10 n=38 v=90
19850 Off ch=10 n=38 v=0
20155 On ch=10 n=38 v=90
20236 Off ch=10 n=38 v=0
20536 On ch=10 n=38 v=90
20616 Off ch=10 n=38 v=0
20921 On ch=10 n=38 v=90
21002 Off ch=10 n=38 v=0
21306 On ch=10 n=38 v=90
21383 Off ch=10 n=38 v=0
21687 On ch=10 n=38 v=90
21768 Off ch=10 n=38 v=0
22072 On ch=10 n=38 v=90
22149 Off ch=10 n=38 v=0
22453 On ch=10 n=38 v=80
22534 Off ch=10 n=38 v=0
22740 On ch=10 n=38 v=80
22821 Off ch=10 n=38 v=0
22839 On ch=10 n=38 v=80
22919 Off ch=10 n=38 v=0
22933 On ch=10 n=38 v=80
23013 Off ch=10 n=38 v=0
23219 On ch=10 n=38 v=90
23300 Off ch=10 n=38 v=0
23605 On ch=10 n=38 v=90
23685 Off ch=10 n=38 v=0
23990 On ch=10 n=38 v=90
24066 Off ch=10 n=38 v=0
24371 On ch=10 n=38 v=90
24451 Off ch=10 n=38 v=0
24752 On ch=10 n=38 v=90
24832 Off ch=10 n=38 v=0
25137 On ch=10 n=38 v=90
25217 Off ch=10 n=38 v=0
25522 On ch=10 n=38 v=80
25598 Off ch=10 n=38 v=0
25809 On ch=10 n=38 v=80
25889 Off ch=10 n=38 v=0
25903 On ch=10 n=38 v=80
25984 Off ch=10 n=38 v=0
26001 On ch=10 n=38 v=80
26078 Off ch=10 n=38 v=0
26288 On ch=10 n=38 v=90
26369 Off ch=10 n=38 v=0
26669 On ch=10 n=38 v=90
26750 Off ch=10 n=38 v=0
27054 On ch=10 n=38 v=90
27130 Off ch=10 n=38 v=0
27440 On ch=10 n=38 v=90
27516 Off ch=10 n=38 v=0
27820 On ch=10 n=38 v=90
27901 Off ch=10 n=38 v=0
28206 On ch=10 n=38 v=90
28282 Off ch=10 n=38 v=0
28398 On ch=10 n=38 v=95
28474 Off ch=10 n=38 v=0
28972 On ch=10 n=38 v=95
29021 On ch=10 n=38 v=95
29021 Off ch=10 n=38 v=0
29048 Off ch=10 n=38 v=0
29352 On ch=10 n=38 v=90
29433 Off ch=10 n=38 v=0
29738 On ch=10 n=38 v=90
29818 Off ch=10 n=38 v=0
30123 On ch=10 n=38 v=90
30199 Off ch=10 n=38 v=0
30504 On ch=10 n=38 v=90
30580 Off ch=10 n=38 v=0
30889 On ch=10 n=38 v=90
30965 Off ch=10 n=38 v=0
31270 On ch=10 n=38 v=90
31351 Off ch=10 n=38 v=0
31655 On ch=10 n=38 v=90
31731 Off ch=10 n=38 v=0
32040 On ch=10 n=38 v=90
32117 Off ch=10 n=38 v=0
32423 On ch=10 n=38 v=90
32499 Off ch=10 n=38 v=0
32808 On ch=10 n=38 v=90
32885 Off ch=10 n=38 v=0
33191 On ch=10 n=38 v=90
33267 Off ch=10 n=38 v=0
33576 On ch=10 n=38 v=90
33653 Off ch=10 n=38 v=0
33959 On ch=10 n=38 v=90
34035 Off ch=10 n=38 v=0
34344 On ch=10 n=38 v=90
34421 Off ch=10 n=38 v=0
34727 On ch=10 n=38 v=90
34803 Off ch=10 n=38 v=0
35112 On ch=10 n=38 v=90
35189 Off ch=10 n=38 v=0
35520 On ch=10 n=38 v=124
35601 Off ch=10 n=38 v=0
35905 On ch=10 n=38 v=124
35986 Off ch=10 n=38 v=0
36286 On ch=10 n=38 v=124
36367 Off ch=10 n=38 v=0
36672 On ch=10 n=38 v=124
36748 Off ch=10 n=38 v=0
37057 On ch=10 n=38 v=124
37133 Off ch=10 n=38 v=0
37438 On ch=10 n=38 v=124
37518 Off ch=10 n=38 v=0
37823 On ch=10 n=38 v=124
37899 Off ch=10 n=38 v=0
38204 On ch=10 n=38 v=124
38284 Off ch=10 n=38 v=0
38589 On ch=10 n=38 v=124
38665 Off ch=10 n=38 v=0
38974 On ch=10 n=38 v=124
39050 Off ch=10 n=38 v=0
39355 On ch=10 n=38 v=124
39436 Off ch=10 n=38 v=0
39736 On ch=10 n=38 v=124
39816 Off ch=10 n=38 v=0
40121 On ch=10 n=38 v=124
40202 Off ch=10 n=38 v=0
40506 On ch=10 n=38 v=124
40583 Off ch=10 n=38 v=0
40887 On ch=10 n=38 v=124
40968 Off ch=10 n=38 v=0
41272 On ch=10 n=38 v=124
41349 Off ch=10 n=38 v=0
41653 On ch=10 n=38 v=123
41734 Off ch=10 n=38 v=0
41940 On ch=10 n=38 v=123
42021 Off ch=10 n=38 v=0
42039 On ch=10 n=38 v=123
42119 Off ch=10 n=38 v=0
42133 On ch=10 n=38 v=123
42213 Off ch=10 n=38 v=0
42419 On ch=10 n=38 v=124
42500 Off ch=10 n=38 v=0
42805 On ch=10 n=38 v=124
42885 Off ch=10 n=38 v=0
43190 On ch=10 n=38 v=124
43266 Off ch=10 n=38 v=0
43571 On ch=10 n=38 v=124
43651 Off ch=10 n=38 v=0
43952 On ch=10 n=38 v=124
44032 Off ch=10 n=38 v=0
44337 On ch=10 n=38 v=124
44417 Off ch=10 n=38 v=0
44722 On ch=10 n=38 v=123
44798 Off ch=10 n=38 v=0
45009 On ch=10 n=38 v=123
45089 Off ch=10 n=38 v=0
45103 On ch=10 n=38 v=123
45184 Off ch=10 n=38 v=0
45201 On ch=10 n=38 v=123
45278 Off ch=10 n=38 v=0
45488 On ch=10 n=38 v=124
45569 Off ch=10 n=38 v=0
45869 On ch=10 n=38 v=124
45950 Off ch=10 n=38 v=0
46254 On ch=10 n=38 v=124
46330 Off ch=10 n=38 v=0
46640 On ch=10 n=38 v=124
46716 Off ch=10 n=38 v=0
47020 On ch=10 n=38 v=124
47101 Off ch=10 n=38 v=0
47406 On ch=10 n=38 v=124
47482 Off ch=10 n=38 v=0
47598 On ch=10 n=38 v=114
47674 Off ch=10 n=38 v=0
48172 On ch=10 n=38 v=105
48221 On ch=10 n=38 v=105
48221 Off ch=10 n=38 v=0
48248 Off ch=10 n=38 v=0
48552 On ch=10 n=38 v=104
48633 Off ch=10 n=38 v=0
48938 On ch=10 n=38 v=91
49018 Off ch=10 n=38 v=0
49320 On ch=10 n=38 v=104
49401 Off ch=10 n=38 v=0
49706 On ch=10 n=38 v=91
49786 Off ch=10 n=38 v=0
50124 On ch=10 n=38 v=90
50204 Off ch=10 n=38 v=0
50509 On ch=10 n=38 v=90
50590 Off ch=10 n=38 v=0
50890 On ch=10 n=38 v=90
50970 Off ch=10 n=38 v=0
51275 On ch=10 n=38 v=90
51351 Off ch=10 n=38 v=0
51660 On ch=10 n=38 v=90
51736 Off ch=10 n=38 v=0
52041 On ch=10 n=38 v=90
52122 Off ch=10 n=38 v=0
52426 On ch=10 n=38 v=90
52503 Off ch=10 n=38 v=0
52807 On ch=10 n=38 v=90
52888 Off ch=10 n=38 v=0
53192 On ch=10 n=38 v=90
53269 Off ch=10 n=38 v=0
53578 On ch=10 n=38 v=90
53654 Off ch=10 n=38 v=0
53954 On ch=10 n=38 v=90
54039 Off ch=10 n=38 v=0
54344 On ch=10 n=38 v=90
54420 Off ch=10 n=38 v=0
54725 On ch=10 n=38 v=90
54801 Off ch=10 n=38 v=0
55110 On ch=10 n=38 v=90
55186 Off ch=10 n=38 v=0
55491 On ch=10 n=38 v=80
55571 Off ch=10 n=38 v=0
55777 On ch=10 n=38 v=80
55858 Off ch=10 n=38 v=0
55872 On ch=10 n=38 v=80
55952 Off ch=10 n=38 v=0
55970 On ch=10 n=38 v=80
56051 Off ch=10 n=38 v=0
56257 On ch=10 n=38 v=90
56337 Off ch=10 n=38 v=0
56642 On ch=10 n=38 v=90
56723 Off ch=10 n=38 v=0
57023 On ch=10 n=38 v=90
57104 Off ch=10 n=38 v=0
57408 On ch=10 n=38 v=90
57489 Off ch=10 n=38 v=0
57789 On ch=10 n=38 v=90
57870 Off ch=10 n=38 v=0
58174 On ch=10 n=38 v=80
58255 Off ch=10 n=38 v=0
58268 On ch=10 n=38 v=80
58349 Off ch=10 n=38 v=0
58560 On ch=10 n=38 v=80
58636 Off ch=10 n=38 v=0
58846 On ch=10 n=38 v=80
58922 Off ch=10 n=38 v=0
58940 On ch=10 n=38 v=80
59021 Off ch=10 n=38 v=0
59039 On ch=10 n=38 v=80
59115 Off ch=10 n=38 v=0
59321 On ch=10 n=38 v=90
59402 Off ch=10 n=38 v=0
59706 On ch=10 n=38 v=90
59787 Off ch=10 n=38 v=0
60092 On ch=10 n=38 v=90
60168 Off ch=10 n=38 v=0
60472 On ch=10 n=38 v=90
60553 Off ch=10 n=38 v=0
60858 On ch=10 n=38 v=90
60938 Off ch=10 n=38 v=0
61239 On ch=10 n=38 v=90
61319 Off ch=10 n=38 v=0
61624 On ch=10 n=38 v=90
61704 Off ch=10 n=38 v=0
62009 On ch=10 n=38 v=95
62054 On ch=10 n=38 v=95
62054 Off ch=10 n=38 v=0
62085 Off ch=10 n=38 v=0
62202 On ch=10 n=38 v=95
62278 Off ch=10 n=38 v=0
62771 On ch=10 n=38 v=95
62820 On ch=10 n=38 v=95
62820 Off ch=10 n=38 v=0
62851 Off ch=10 n=38 v=0
63156 On ch=10 n=38 v=90
63237 Off ch=10 n=38 v=0
63541 On ch=10 n=38 v=90
63622 Off ch=10 n=38 v=0
63948 On ch=10 n=38 v=90
64028 Off ch=10 n=38 v=0
64333 On ch=10 n=38 v=90
64414 Off ch=10 n=38 v=0
64714 On ch=10 n=38 v=90
64794 Off ch=10 n=38 v=0
65099 On ch=10 n=38 v=90
65175 Off ch=10 n=38 v=0
65484 On ch=10 n=38 v=90
65560 Off ch=10 n=38 v=0
65865 On ch=10 n=38 v=90
65946 Off ch=10 n=38 v=0
66250 On ch=10 n=38 v=90
66327 Off ch=10 n=38 v=0
66631 On ch=10 n=38 v=90
66712 Off ch=10 n=38 v=0
67016 On ch=10 n=38 v=90
67093 Off ch=10 n=38 v=0
67402 On ch=10 n=38 v=90
67478 Off ch=10 n=38 v=0
67778 On ch=10 n=38 v=90
67863 Off ch=10 n=38 v=0
68168 On ch=10 n=38 v=90
68244 Off ch=10 n=38 v=0
68549 On ch=10 n=38 v=90
68625 Off ch=10 n=38 v=0
68934 On ch=10 n=38 v=90
69010 Off ch=10 n=38 v=0
69315 On ch=10 n=38 v=80
69395 Off ch=10 n=38 v=0
69601 On ch=10 n=38 v=80
69682 Off ch=10 n=38 v=0
69696 On ch=10 n=38 v=80
69776 Off ch=10 n=38 v=0
69794 On ch=10 n=38 v=80
69875 Off ch=10 n=38 v=0
70081 On ch=10 n=38 v=90
70161 Off ch=10 n=38 v=0
70466 On ch=10 n=38 v=90
70547 Off ch=10 n=38 v=0
70847 On ch=10 n=38 v=90
70928 Off ch=10 n=38 v=0
71232 On ch=10 n=38 v=90
71313 Off ch=10 n=38 v=0
71613 On ch=10 n=38 v=90
71694 Off ch=10 n=38 v=0
71998 On ch=10 n=38 v=80
72079 Off ch=10 n=38 v=0
72092 On ch=10 n=38 v=80
72173 Off ch=10 n=38 v=0
72384 On ch=10 n=38 v=80
72460 Off ch=10 n=38 v=0
72670 On ch=10 n=38 v=80
72746 Off ch=10 n=38 v=0
72764 On ch=10 n=38 v=80
72845 Off ch=10 n=38 v=0
72863 On ch=10 n=38 v=80
72939 Off ch=10 n=38 v=0
73145 On ch=10 n=38 v=90
73226 Off ch=10 n=38 v=0
73530 On ch=10 n=38 v=90
73611 Off ch=10 n=38 v=0
73916 On ch=10 n=38 v=90
73992 Off ch=10 n=38 v=0
74296 On ch=10 n=38 v=90
74377 Off ch=10 n=38 v=0
74682 On ch=10 n=38 v=90
74762 Off ch=10 n=38 v=0
75063 On ch=10 n=38 v=90
75143 Off ch=10 n=38 v=0
75448 On ch=10 n=38 v=90
75528 Off ch=10 n=38 v=0
75833 On ch=10 n=38 v=95
75878 On ch=10 n=38 v=95
75878 Off ch=10 n=38 v=0
75909 Off ch=10 n=38 v=0
76026 On ch=10 n=38 v=95
76102 Off ch=10 n=38 v=0
76595 On ch=10 n=38 v=95
76644 On ch=10 n=38 v=95
76644 Off ch=10 n=38 v=0
76675 Off ch=10 n=38 v=0
76980 On ch=10 n=38 v=90
77061 Off ch=10 n=38 v=0
77365 On ch=10 n=38 v=90
77446 Off ch=10 n=38 v=0
77446 SeqSpec 24 24 00 08 00 00 00 00 00 01 2e 86 00 00 00 00
77446 SeqSpec 24 24 00 01 05
77446 SeqSpec 24 24 00 06 04 04
77446 SeqSpec 24 24 00 02 09
77447 Meta TrkEnd
TrkEnd
MTrk
0 SeqNr 10
0 Meta TrkName "54 Hand Clap"
2125 On ch=10 n=35 v=70
2201 Off ch=10 n=35 v=0
2891 On ch=10 n=35 v=70
2967 Off ch=10 n=35 v=0
2990 On ch=10 n=35 v=70
3066 Off ch=10 n=35 v=0
3657 On ch=10 n=35 v=70
3738 Off ch=10 n=35 v=0
4423 On ch=10 n=35 v=70
4504 Off ch=10 n=35 v=0
4522 On ch=10 n=35 v=70
4598 Off ch=10 n=35 v=0
5189 On ch=10 n=35 v=70
5270 Off ch=10 n=35 v=0
5960 On ch=10 n=35 v=70
6036 Off ch=10 n=35 v=0
6054 On ch=10 n=35 v=70
6135 Off ch=10 n=35 v=0
6726 On ch=10 n=35 v=70
6802 Off ch=10 n=35 v=0
7398 On ch=10 n=35 v=70
7474 Off ch=10 n=35 v=0
7492 On ch=10 n=35 v=70
7573 Off ch=10 n=35 v=0
7591 On ch=10 n=35 v=70
7667 Off ch=10 n=35 v=0
8258 On ch=10 n=35 v=70
8334 Off ch=10 n=35 v=0
9024 On ch=10 n=35 v=70
9105 Off ch=10 n=35 v=0
9118 On ch=10 n=35 v=70
9199 Off ch=10 n=35 v=0
9790 On ch=10 n=35 v=70
9871 Off ch=10 n=35 v=0
9889 On ch=10 n=35 v=70
9965 Off ch=10 n=35 v=0
10462 On ch=10 n=35 v=70
10543 Off ch=10 n=35 v=0
10556 On ch=10 n=35 v=70
10637 Off ch=10 n=35 v=0
10655 On ch=10 n=35 v=70
10731 Off ch=10 n=35 v=0
11322 On ch=10 n=35 v=70
11403 Off ch=10 n=35 v=0
12088 On ch=10 n=35 v=70
12169 Off ch=10 n=35 v=0
12187 On ch=10 n=35 v=70
12268 Off ch=10 n=35 v=0
12855 On ch=10 n=35 v=70
12935 Off ch=10 n=35 v=0
15157 On ch=10 n=35 v=70
15238 Off ch=10 n=35 v=0
15923 On ch=10 n=35 v=70
16000 Off ch=10 n=35 v=0
16022 On ch=10 n=35 v=70
16098 Off ch=10 n=35 v=0
16705 On ch=10 n=35 v=70
16786 Off ch=10 n=35 v=0
17472 On ch=10 n=35 v=70
17548 Off ch=10 n=35 v=0
17570 On ch=10 n=35 v=70
17646 Off ch=10 n=35 v=0
18238 On ch=10 n=35 v=70
18318 Off ch=10 n=35 v=0
19004 On ch=10 n=35 v=70
19084 Off ch=10 n=35 v=0
19102 On ch=10 n=35 v=70
19178 Off ch=10 n=35 v=0
19770 On ch=10 n=35 v=70
19850 Off ch=10 n=35 v=0
20536 On ch=10 n=35 v=70
20616 Off ch=10 n=35 v=0
20634 On ch=10 n=35 v=70
20715 Off ch=10 n=35 v=0
21306 On ch=10 n=35 v=70
21383 Off ch=10 n=35 v=0
22068 On ch=10 n=35 v=70
22149 Off ch=10 n=35 v=0
22171 On ch=10 n=35 v=70
22247 Off ch=10 n=35 v=0
22744 On ch=10 n=35 v=70
22821 Off ch=10 n=35 v=0
22839 On ch=10 n=35 v=70
22919 Off ch=10 n=35 v=0
22933 On ch=10 n=35 v=70
23013 Off ch=10 n=35 v=0
23605 On ch=10 n=35 v=70
23685 Off ch=10 n=35 v=0
24371 On ch=10 n=35 v=70
24451 Off ch=10 n=35 v=0
24469 On ch=10 n=35 v=70
24545 Off ch=10 n=35 v=0
25137 On ch=10 n=35 v=70
25217 Off ch=10 n=35 v=0
25809 On ch=10 n=35 v=70
25889 Off ch=10 n=35 v=0
25907 On ch=10 n=35 v=70
25984 Off ch=10 n=35 v=0
26001 On ch=10 n=35 v=70
26082 Off ch=10 n=35 v=0
26669 On ch=10 n=35 v=70
26750 Off ch=10 n=35 v=0
27440 On ch=10 n=35 v=70
27516 Off ch=10 n=35 v=0
27534 On ch=10 n=35 v=70
27614 Off ch=10 n=35 v=0
28201 On ch=10 n=35 v=70
28282 Off ch=10 n=35 v=0
29738 On ch=10 n=35 v=70
29818 Off ch=10 n=35 v=0
30504 On ch=10 n=35 v=70
30580 Off ch=10 n=35 v=0
30602 On ch=10 n=35 v=70
30679 Off ch=10 n=35 v=0
31270 On ch=10 n=35 v=70
31351 Off ch=10 n=35 v=0
32036 On ch=10 n=35 v=70
32117 Off ch=10 n=35 v=0
32135 On ch=10 n=35 v=70
32215 Off ch=10 n=35 v=0
32804 On ch=10 n=35 v=70
32885 Off ch=10 n=35 v=0
32903 On ch=10 n=35 v=70
32983 Off ch=10 n=35 v=0
33572 On ch=10 n=35 v=70
33653 Off ch=10 n=35 v=0
33671 On ch=10 n=35 v=70
33751 Off ch=10 n=35 v=0
34340 On ch=10 n=35 v=70
34421 Off ch=10 n=35 v=0
34439 On ch=10 n=35 v=70
34519 Off ch=10 n=35 v=0
35108 On ch=10 n=35 v=70
35189 Off ch=10 n=35 v=0
35207 On ch=10 n=35 v=70
35287 Off ch=10 n=35 v=0
35905 On ch=10 n=35 v=70
35986 Off ch=10 n=35 v=0
36672 On ch=10 n=35 v=70
36748 Off ch=10 n=35 v=0
36770 On ch=10 n=35 v=70
36846 Off ch=10 n=35 v=0
37438 On ch=10 n=35 v=70
37518 Off ch=10 n=35 v=0
38204 On ch=10 n=35 v=70
38284 Off ch=10 n=35 v=0
38302 On ch=10 n=35 v=70
38378 Off ch=10 n=35 v=0
38970 On ch=10 n=35 v=70
39050 Off ch=10 n=35 v=0
39736 On ch=10 n=35 v=70
39816 Off ch=10 n=35 v=0
39834 On ch=10 n=35 v=70
39915 Off ch=10 n=35 v=0
40506 On ch=10 n=35 v=70
40583 Off ch=10 n=35 v=0
41268 On ch=10 n=35 v=70
41349 Off ch=10 n=35 v=0
41371 On ch=10 n=35 v=70
41447 Off ch=10 n=35 v=0
41944 On ch=10 n=35 v=70
42021 Off ch=10 n=35 v=0
42039 On ch=10 n=35 v=70
42119 Off ch=10 n=35 v=0
42133 On ch=10 n=35 v=70
42213 Off ch=10 n=35 v=0
42805 On ch=10 n=35 v=70
42885 Off ch=10 n=35 v=0
43571 On ch=10 n=35 v=70
43651 Off ch=10 n=35 v=0
43669 On ch=10 n=35 v=70
43745 Off ch=10 n=35 v=0
44337 On ch=10 n=35 v=70
44417 Off ch=10 n=35 v=0
45009 On ch=10 n=35 v=70
45089 Off ch=10 n=35 v=0
45107 On ch=10 n=35 v=70
45184 Off ch=10 n=35 v=0
45201 On ch=10 n=35 v=70
45282 Off ch=10 n=35 v=0
45869 On ch=10 n=35 v=70
45950 Off ch=10 n=35 v=0
46640 On ch=10 n=35 v=70
46716 Off ch=10 n=35 v=0
46734 On ch=10 n=35 v=70
46814 Off ch=10 n=35 v=0
47401 On ch=10 n=35 v=70
47482 Off ch=10 n=35 v=0
48938 On ch=10 n=35 v=70
49018 Off ch=10 n=35 v=0
49706 On ch=10 n=35 v=70
49786 Off ch=10 n=35 v=0
50509 On ch=10 n=35 v=70
50585 Off ch=10 n=35 v=0
51275 On ch=10 n=35 v=70
51351 Off ch=10 n=35 v=0
51374 On ch=10 n=35 v=70
51450 Off ch=10 n=35 v=0
52041 On ch=10 n=35 v=70
52122 Off ch=10 n=35 v=0
52807 On ch=10 n=35 v=70
52888 Off ch=10 n=35 v=0
52906 On ch=10 n=35 v=70
52982 Off ch=10 n=35 v=0
53573 On ch=10 n=35 v=70
53654 Off ch=10 n=35 v=0
54344 On ch=10 n=35 v=70
54420 Off ch=10 n=35 v=0
54438 On ch=10 n=35 v=70
54519 Off ch=10 n=35 v=0
55110 On ch=10 n=35 v=70
55186 Off ch=10 n=35 v=0
55782 On ch=10 n=35 v=70
55858 Off ch=10 n=35 v=0
55876 On ch=10 n=35 v=70
55957 Off ch=10 n=35 v=0
55975 On ch=10 n=35 v=70
56051 Off ch=10 n=35 v=0
56642 On ch=10 n=35 v=70
56718 Off ch=10 n=35 v=0
57408 On ch=10 n=35 v=70
57489 Off ch=10 n=35 v=0
57502 On ch=10 n=35 v=70
57583 Off ch=10 n=35 v=0
58174 On ch=10 n=35 v=70
58255 Off ch=10 n=35 v=0
58273 On ch=10 n=35 v=70
58349 Off ch=10 n=35 v=0
58846 On ch=10 n=35 v=70
58927 Off ch=10 n=35 v=0
58940 On ch=10 n=35 v=70
59021 Off ch=10 n=35 v=0
59039 On ch=10 n=35 v=70
59115 Off ch=10 n=35 v=0
59706 On ch=10 n=35 v=70
59787 Off ch=10 n=35 v=0
60472 On ch=10 n=35 v=70
60553 Off ch=10 n=35 v=0
60571 On ch=10 n=35 v=70
60652 Off ch=10 n=35 v=0
61239 On ch=10 n=35 v=70
61319 Off ch=10 n=35 v=0
63541 On ch=10 n=35 v=70
63622 Off ch=10 n=35 v=0
64333 On ch=10 n=35 v=70
64409 Off ch=10 n=35 v=0
65099 On ch=10 n=35 v=70
65175 Off ch=10 n=35 v=0
65198 On ch=10 n=35 v=70
65274 Off ch=10 n=35 v=0
65865 On ch=10 n=35 v=70
65946 Off ch=10 n=35 v=0
66631 On ch=10 n=35 v=70
66712 Off ch=10 n=35 v=0
66730 On ch=10 n=35 v=70
66806 Off ch=10 n=35 v=0
67397 On ch=10 n=35 v=70
67478 Off ch=10 n=35 v=0
68168 On ch=10 n=35 v=70
68244 Off ch=10 n=35 v=0
68262 On ch=10 n=35 v=70
68343 Off ch=10 n=35 v=0
68934 On ch=10 n=35 v=70
69010 Off ch=10 n=35 v=0
69606 On ch=10 n=35 v=70
69682 Off ch=10 n=35 v=0
69700 On ch=10 n=35 v=70
69781 Off ch=10 n=35 v=0
69799 On ch=10 n=35 v=70
69875 Off ch=10 n=35 v=0
70466 On ch=10 n=35 v=70
70542 Off ch=10 n=35 v=0
71232 On ch=10 n=35 v=70
71313 Off ch=10 n=35 v=0
71326 On ch=10 n=35 v=70
71407 Off ch=10 n=35 v=0
71998 On ch=10 n=35 v=70
72079 Off ch=10 n=35 v=0
72097 On ch=10 n=35 v=70
72173 Off ch=10 n=35 v=0
72670 On ch=10 n=35 v=70
72751 Off ch=10 n=35 v=0
72764 On ch=10 n=35 v=70
72845 Off ch=10 n=35 v=0
72863 On ch=10 n=35 v=70
72939 Off ch=10 n=35 v=0
73530 On ch=10 n=35 v=70
73611 Off ch=10 n=35 v=0
74296 On ch=10 n=35 v=70
74377 Off ch=10 n=35 v=0
74395 On ch=10 n=35 v=70
74476 Off ch=10 n=35 v=0
75063 On ch=10 n=35 v=70
75143 Off ch=10 n=35 v=0
77365 On ch=10 n=35 v=70
77446 Off ch=10 n=35 v=0
77446 SeqSpec 24 24 00 08 00 00 00 00 00 01 2e ff 00 00 00 00
77446 SeqSpec 24 24 00 01 05
77446 SeqSpec 24 24 00 06 04 04
77446 SeqSpec 24 24 00 02 09
77568 Meta TrkEnd
TrkEnd
MTrk
0 SeqNr 11
0 Meta TrkName "56 Shaker/Brush"
1552 On ch=10 n=41 v=36
1628 Off ch=10 n=41 v=0
1646 On ch=10 n=41 v=12
1726 Off ch=10 n=41 v=0
1744 On ch=10 n=41 v=35
1820 Off ch=10 n=41 v=0
1838 On ch=10 n=41 v=12
1914 Off ch=10 n=41 v=0
1932 On ch=10 n=41 v=35
2013 Off ch=10 n=41 v=0
2026 On ch=10 n=41 v=12
2107 Off ch=10 n=41 v=0
2125 On ch=10 n=41 v=35
2206 Off ch=10 n=41 v=0
2219 On ch=10 n=41 v=12
2300 Off ch=10 n=41 v=0
2318 On ch=10 n=41 v=35
2394 Off ch=10 n=41 v=0
2412 On ch=10 n=41 v=12
2492 Off ch=10 n=41 v=0
2506 On ch=10 n=41 v=35
2586 Off ch=10 n=41 v=0
2604 On ch=10 n=41 v=12
2680 Off ch=10 n=41 v=0
2698 On ch=10 n=41 v=35
2779 Off ch=10 n=41 v=0
2797 On ch=10 n=41 v=12
2873 Off ch=10 n=41 v=0
2891 On ch=10 n=41 v=35
2967 Off ch=10 n=41 v=0
2985 On ch=10 n=41 v=12
3066 Off ch=10 n=41 v=0
3084 On ch=10 n=41 v=35
3164 Off ch=10 n=41 v=0
3178 On ch=10 n=41 v=12
3258 Off ch=10 n=41 v=0
3276 On ch=10 n=41 v=35
3352 Off ch=10 n=41 v=0
3370 On ch=10 n=41 v=12
3451 Off ch=10 n=41 v=0
3464 On ch=10 n=41 v=35
3545 Off ch=10 n=41 v=0
3563 On ch=10 n=41 v=12
3639 Off ch=10 n=41 v=0
3662 On ch=10 n=41 v=35
3738 Off ch=10 n=41 v=0
3751 On ch=10 n=41 v=12
3832 Off ch=10 n=41 v=0
3850 On ch=10 n=41 v=35
3930 Off ch=10 n=41 v=0
3944 On ch=10 n=41 v=12
4024 Off ch=10 n=41 v=0
4042 On ch=10 n=41 v=35
4119 Off ch=10 n=41 v=0
4136 On ch=10 n=41 v=12
4217 Off ch=10 n=41 v=0
4231 On ch=10 n=41 v=35
4311 Off ch=10 n=41 v=0
4329 On ch=10 n=41 v=12
4405 Off ch=10 n=41 v=0
4423 On ch=10 n=41 v=35
4504 Off ch=10 n=41 v=0
4522 On ch=10 n=41 v=12
4598 Off ch=10 n=41 v=0
4616 On ch=10 n=41 v=35
4696 Off ch=10 n=41 v=0
4710 On ch=10 n=41 v=12
4791 Off ch=10 n=41 v=0
4808 On ch=10 n=41 v=35
4889 Off ch=10 n=41 v=0
4903 On ch=10 n=41 v=12
4983 Off ch=10 n=41 v=0
5001 On ch=10 n=41 v=35
5077 Off ch=10 n=41 v=0
5095 On ch=10 n=41 v=12
5176 Off ch=10 n=41 v=0
5194 On ch=10 n=41 v=35
5270 Off ch=10 n=41 v=0
5288 On ch=10 n=41 v=12
5364 Off ch=10 n=41 v=0
5382 On ch=10 n=41 v=35
5463 Off ch=10 n=41 v=0
5480 On ch=10 n=41 v=12
5557 Off ch=10 n=41 v=0
5575 On ch=10 n=41 v=35
5655 Off ch=10 n=41 v=0
5669 On ch=10 n=41 v=12
5749 Off ch=10 n=41 v=0
5763 On ch=10 n=41 v=35
5843 Off ch=10 n=41 v=0
5861 On ch=10 n=41 v=12
5942 Off ch=10 n=41 v=0
5960 On ch=10 n=41 v=35
6036 Off ch=10 n=41 v=0
6054 On ch=10 n=41 v=12
6130 Off ch=10 n=41 v=0
6148 On ch=10 n=41 v=35
6229 Off ch=10 n=41 v=0
6247 On ch=10 n=41 v=12
6323 Off ch=10 n=41 v=0
6341 On ch=10 n=41 v=35
6417 Off ch=10 n=41 v=0
6435 On ch=10 n=41 v=12
6515 Off ch=10 n=41 v=0
6529 On ch=10 n=41 v=35
6609 Off ch=10 n=41 v=0
6627 On ch=10 n=41 v=12
6708 Off ch=10 n=41 v=0
6726 On ch=10 n=41 v=35
6802 Off ch=10 n=41 v=0
6820 On ch=10 n=41 v=12
6901 Off ch=10 n=41 v=0
6919 On ch=10 n=41 v=35
6995 Off ch=10 n=41 v=0
7008 On ch=10 n=41 v=12
7089 Off ch=10 n=41 v=0
7107 On ch=10 n=41 v=45
7187 Off ch=10 n=41 v=0
7201 On ch=10 n=41 v=45
7281 Off ch=10 n=41 v=0
7299 On ch=10 n=41 v=45
7380 Off ch=10 n=41 v=0
7398 On ch=10 n=41 v=45
7474 Off ch=10 n=41 v=0
7496 On ch=10 n=41 v=45
7573 Off ch=10 n=41 v=0
7591 On ch=10 n=41 v=45
7667 Off ch=10 n=41 v=0
7689 On ch=10 n=41 v=35
7761 Off ch=10 n=41 v=0
7779 On ch=10 n=41 v=12
7855 Off ch=10 n=41 v=0
7873 On ch=10 n=41 v=35
7953 Off ch=10 n=41 v=0
7971 On ch=10 n=41 v=12
8048 Off ch=10 n=41 v=0
8065 On ch=10 n=41 v=35
8142 Off ch=10 n=41 v=0
8160 On ch=10 n=41 v=12
8240 Off ch=10 n=41 v=0
8258 On ch=10 n=41 v=35
8339 Off ch=10 n=41 v=0
8352 On ch=10 n=41 v=12
8433 Off ch=10 n=41 v=0
8451 On ch=10 n=41 v=35
8527 Off ch=10 n=41 v=0
8545 On ch=10 n=41 v=12
8625 Off ch=10 n=41 v=0
8643 On ch=10 n=41 v=35
8720 Off ch=10 n=41 v=0
8737 On ch=10 n=41 v=12
8814 Off ch=10 n=41 v=0
8832 On ch=10 n=41 v=35
8912 Off ch=10 n=41 v=0
8930 On ch=10 n=41 v=12
9006 Off ch=10 n=41 v=0
9024 On ch=10 n=41 v=35
9105 Off ch=10 n=41 v=0
9118 On ch=10 n=41 v=12
9199 Off ch=10 n=41 v=0
9217 On ch=10 n=41 v=35
9293 Off ch=10 n=41 v=0
9311 On ch=10 n=41 v=12
9392 Off ch=10 n=41 v=0
9405 On ch=10 n=41 v=35
9486 Off ch=10 n=41 v=0
9504 On ch=10 n=41 v=12
9584 Off ch=10 n=41 v=0
9598 On ch=10 n=41 v=35
9678 Off ch=10 n=41 v=0
9696 On ch=10 n=41 v=12
9772 Off ch=10 n=41 v=0
9790 On ch=10 n=41 v=45
9871 Off ch=10 n=41 v=0
9889 On ch=10 n=41 v=45
9965 Off ch=10 n=41 v=0
9983 On ch=10 n=41 v=45
10064 Off ch=10 n=41 v=0
10077 On ch=10 n=41 v=45
10158 Off ch=10 n=41 v=0
10176 On ch=10 n=41 v=45
10252 Off ch=10 n=41 v=0
10270 On ch=10 n=41 v=45
10346 Off ch=10 n=41 v=0
10364 On ch=10 n=41 v=45
10444 Off ch=10 n=41 v=0
10462 On ch=10 n=41 v=45
10543 Off ch=10 n=41 v=0
10556 On ch=10 n=41 v=45
10637 Off ch=10 n=41 v=0
10655 On ch=10 n=41 v=45
10731 Off ch=10 n=41 v=0
10749 On ch=10 n=41 v=35
10830 Off ch=10 n=41 v=0
10843 On ch=10 n=41 v=12
10924 Off ch=10 n=41 v=0
10942 On ch=10 n=41 v=35
11018 Off ch=10 n=41 v=0
11036 On ch=10 n=41 v=12
11116 Off ch=10 n=41 v=0
11130 On ch=10 n=41 v=35
11210 Off ch=10 n=41 v=0
11228 On ch=10 n=41 v=12
11309 Off ch=10 n=41 v=0
11322 On ch=10 n=41 v=35
11403 Off ch=10 n=41 v=0
11421 On ch=10 n=41 v=12
11497 Off ch=10 n=41 v=0
11515 On ch=10 n=41 v=35
11596 Off ch=10 n=41 v=0
11609 On ch=10 n=41 v=12
11690 Off ch=10 n=41 v=0
11708 On ch=10 n=41 v=35
11788 Off ch=10 n=41 v=0
11802 On ch=10 n=41 v=12
11882 Off ch=10 n=41 v=0
11900 On ch=10 n=41 v=35
11976 Off ch=10 n=41 v=0
11994 On ch=10 n=41 v=12
12075 Off ch=10 n=41 v=0
12093 On ch=10 n=41 v=35
12169 Off ch=10 n=41 v=0
12187 On ch=10 n=41 v=12
12263 Off ch=10 n=41 v=0
12281 On ch=10 n=41 v=35
12362 Off ch=10 n=41 v=0
12380 On ch=10 n=41 v=12
12456 Off ch=10 n=41 v=0
12474 On ch=10 n=41 v=35
12554 Off ch=10 n=41 v=0
12572 On ch=10 n=41 v=12
12648 Off ch=10 n=41 v=0
12666 On ch=10 n=41 v=35
12743 Off ch=10 n=41 v=0
12760 On ch=10 n=41 v=12
12841 Off ch=10 n=41 v=0
12859 On ch=10 n=41 v=35
12935 Off ch=10 n=41 v=0
12953 On ch=10 n=41 v=12
13034 Off ch=10 n=41 v=0
13052 On ch=10 n=41 v=35
13128 Off ch=10 n=41 v=0
13141 On ch=10 n=41 v=12
13222 Off ch=10 n=41 v=0
13240 On ch=10 n=41 v=35
13320 Off ch=10 n=41 v=0
13334 On ch=10 n=41 v=12
13415 Off ch=10 n=41 v=0
13432 On ch=10 n=41 v=35
13513 Off ch=10 n=41 v=0
13531 On ch=10 n=41 v=12
13607 Off ch=10 n=41 v=0
13912 On ch=10 n=41 v=25
13988 Off ch=10 n=41 v=0
14006 On ch=10 n=41 v=25
14087 Off ch=10 n=41 v=0
14104 On ch=10 n=41 v=45
14181 Off ch=10 n=41 v=0
14199 On ch=10 n=41 v=55
14279 Off ch=10 n=41 v=0
14293 On ch=10 n=41 v=65
14373 Off ch=10 n=41 v=0
14584 On ch=10 n=41 v=35
14660 Off ch=10 n=41 v=0
14678 On ch=10 n=41 v=12
14759 Off ch=10 n=41 v=0
14776 On ch=10 n=41 v=35
14853 Off ch=10 n=41 v=0
14871 On ch=10 n=41 v=12
14947 Off ch=10 n=41 v=0
14965 On ch=10 n=41 v=35
15045 Off ch=10 n=41 v=0
15059 On ch=10 n=41 v=12
15139 Off ch=10 n=41 v=0
15157 On ch=10 n=41 v=35
15238 Off ch=10 n=41 v=0
15251 On ch=10 n=41 v=12
15332 Off ch=10 n=41 v=0
15350 On ch=10 n=41 v=35
15426 Off ch=10 n=41 v=0
15444 On ch=10 n=41 v=12
15525 Off ch=10 n=41 v=0
15538 On ch=10 n=41 v=35
15619 Off ch=10 n=41 v=0
15637 On ch=10 n=41 v=12
15713 Off ch=10 n=41 v=0
15731 On ch=10 n=41 v=35
15811 Off ch=10 n=41 v=0
15829 On ch=10 n=41 v=12
15905 Off ch=10 n=41 v=0
15923 On ch=10 n=41 v=35
16000 Off ch=10 n=41 v=0
16017 On ch=10 n=41 v=12
16098 Off ch=10 n=41 v=0
16116 On ch=10 n=41 v=35
16136 On ch=10 n=41 v=35
16192 Off ch=10 n=41 v=0
16208 Off ch=10 n=41 v=0
16226 On ch=10 n=41 v=12
16307 Off ch=10 n=41 v=0
16325 On ch=10 n=41 v=35
16401 Off ch=10 n=41 v=0
16419 On ch=10 n=41 v=12
16495 Off ch=10 n=41 v=0
16513 On ch=10 n=41 v=35
16593 Off ch=10 n=41 v=0
16607 On ch=10 n=41 v=12
16688 Off ch=10 n=41 v=0
16705 On ch=10 n=41 v=35
16786 Off ch=10 n=41 v=0
16800 On ch=10 n=41 v=12
16880 Off ch=10 n=41 v=0
16898 On ch=10 n=41 v=35
16974 Off ch=10 n=41 v=0
16992 On ch=10 n=41 v=12
17073 Off ch=10 n=41 v=0
17086 On ch=10 n=41 v=35
17167 Off ch=10 n=41 v=0
17185 On ch=10 n=41 v=12
17261 Off ch=10 n=41 v=0
17283 On ch=10 n=41 v=35
17360 Off ch=10 n=41 v=0
17377 On ch=10 n=41 v=12
17454 Off ch=10 n=41 v=0
17472 On ch=10 n=41 v=35
17548 Off ch=10 n=41 v=0
17566 On ch=10 n=41 v=12
17646 Off ch=10 n=41 v=0
17664 On ch=10 n=41 v=35
17745 Off ch=10 n=41 v=0
17758 On ch=10 n=41 v=12
17839 Off ch=10 n=41 v=0
17857 On ch=10 n=41 v=35
17933 Off ch=10 n=41 v=0
17951 On ch=10 n=41 v=12
18027 Off ch=10 n=41 v=0
18045 On ch=10 n=41 v=35
18126 Off ch=10 n=41 v=0
18144 On ch=10 n=41 v=12
18220 Off ch=10 n=41 v=0
18242 On ch=10 n=41 v=35
18318 Off ch=10 n=41 v=0
18332 On ch=10 n=41 v=12
18412 Off ch=10 n=41 v=0
18430 On ch=10 n=41 v=35
18511 Off ch=10 n=41 v=0
18524 On ch=10 n=41 v=12
18605 Off ch=10 n=41 v=0
18623 On ch=10 n=41 v=35
18699 Off ch=10 n=41 v=0
18717 On ch=10 n=41 v=12
18798 Off ch=10 n=41 v=0
18816 On ch=10 n=41 v=35
18892 Off ch=10 n=41 v=0
18910 On ch=10 n=41 v=12
18990 Off ch=10 n=41 v=0
19004 On ch=10 n=41 v=35
19084 Off ch=10 n=41 v=0
19102 On ch=10 n=41 v=12
19178 Off ch=10 n=41 v=0
19196 On ch=10 n=41 v=35
19272 Off ch=10 n=41 v=0
19290 On ch=10 n=41 v=12
19371 Off ch=10 n=41 v=0
19389 On ch=10 n=41 v=35
19470 Off ch=10 n=41 v=0
19483 On ch=10 n=41 v=12
19564 Off ch=10 n=41 v=0
19582 On ch=10 n=41 v=35
19658 Off ch=10 n=41 v=0
19676 On ch=10 n=41 v=12
19756 Off ch=10 n=41 v=0
19774 On ch=10 n=41 v=35
19850 Off ch=10 n=41 v=0
19868 On ch=10 n=41 v=12
19944 Off ch=10 n=41 v=0
19962 On ch=10 n=41 v=35
20043 Off ch=10 n=41 v=0
20061 On ch=10 n=41 v=12
20137 Off ch=10 n=41 v=0
20155 On ch=10 n=41 v=35
20236 Off ch=10 n=41 v=0
20249 On ch=10 n=41 v=12
20330 Off ch=10 n=41 v=0
20348 On ch=10 n=41 v=35
20424 Off ch=10 n=41 v=0
20442 On ch=10 n=41 v=12
20522 Off ch=10 n=41 v=0
20540 On ch=10 n=41 v=35
20616 Off ch=10 n=41 v=0
20634 On ch=10 n=41 v=12
20715 Off ch=10 n=41 v=0
20733 On ch=10 n=41 v=35
20809 Off ch=10 n=41 v=0
20823 On ch=10 n=41 v=12
20903 Off ch=10 n=41 v=0
20921 On ch=10 n=41 v=35
21002 Off ch=10 n=41 v=0
21015 On ch=10 n=41 v=12
21096 Off ch=10 n=41 v=0
21114 On ch=10 n=41 v=35
21194 Off ch=10 n=41 v=0
21208 On ch=10 n=41 v=12
21288 Off ch=10 n=41 v=0
21306 On ch=10 n=41 v=35
21383 Off ch=10 n=41 v=0
21400 On ch=10 n=41 v=12
21477 Off ch=10 n=41 v=0
21499 On ch=10 n=41 v=35
21575 Off ch=10 n=41 v=0
21593 On ch=10 n=41 v=12
21669 Off ch=10 n=41 v=0
21687 On ch=10 n=41 v=35
21768 Off ch=10 n=41 v=0
21786 On ch=10 n=41 v=12
21862 Off ch=10 n=41 v=0
21880 On ch=10 n=41 v=35
21960 Off ch=10 n=41 v=0
21978 On ch=10 n=41 v=12
22055 Off ch=10 n=41 v=0
22072 On ch=10 n=41 v=35
22153 Off ch=10 n=41 v=0
22167 On ch=10 n=41 v=12
22247 Off ch=10 n=41 v=0
22265 On ch=10 n=41 v=45
22341 Off ch=10 n=41 v=0
22359 On ch=10 n=41 v=45
22440 Off ch=10 n=41 v=0
22453 On ch=10 n=41 v=45
22534 Off ch=10 n=41 v=0
22552 On ch=10 n=41 v=45
22628 Off ch=10 n=41 v=0
22646 On ch=10 n=41 v=45
22727 Off ch=10 n=41 v=0
22744 On ch=10 n=41 v=45
22821 Off ch=10 n=41 v=0
22843 On ch=10 n=41 v=45
22919 Off ch=10 n=41 v=0
22937 On ch=10 n=41 v=45
23013 Off ch=10 n=41 v=0
23031 On ch=10 n=41 v=35
23107 Off ch=10 n=41 v=0
23125 On ch=10 n=41 v=12
23201 Off ch=10 n=41 v=0
23224 On ch=10 n=41 v=35
23300 Off ch=10 n=41 v=0
23318 On ch=10 n=41 v=12
23399 Off ch=10 n=41 v=0
23412 On ch=10 n=41 v=35
23493 Off ch=10 n=41 v=0
23511 On ch=10 n=41 v=12
23587 Off ch=10 n=41 v=0
23605 On ch=10 n=41 v=35
23685 Off ch=10 n=41 v=0
23703 On ch=10 n=41 v=12
23779 Off ch=10 n=41 v=0
23797 On ch=10 n=41 v=35
23878 Off ch=10 n=41 v=0
23891 On ch=10 n=41 v=12
23972 Off ch=10 n=41 v=0
23990 On ch=10 n=41 v=35
24066 Off ch=10 n=41 v=0
24084 On ch=10 n=41 v=12
24165 Off ch=10 n=41 v=0
24183 On ch=10 n=41 v=35
24259 Off ch=10 n=41 v=0
24277 On ch=10 n=41 v=12
24353 Off ch=10 n=41 v=0
24375 On ch=10 n=41 v=35
24451 Off ch=10 n=41 v=0
24465 On ch=10 n=41 v=12
24545 Off ch=10 n=41 v=0
24563 On ch=10 n=41 v=35
24644 Off ch=10 n=41 v=0
24657 On ch=10 n=41 v=12
24738 Off ch=10 n=41 v=0
24756 On ch=10 n=41 v=35
24832 Off ch=10 n=41 v=0
24850 On ch=10 n=41 v=12
24931 Off ch=10 n=41 v=0
24944 On ch=10 n=41 v=35
25025 Off ch=10 n=41 v=0
25043 On ch=10 n=41 v=12
25119 Off ch=10 n=41 v=0
25141 On ch=10 n=41 v=35
25217 Off ch=10 n=41 v=0
25235 On ch=10 n=41 v=12
25312 Off ch=10 n=41 v=0
25329 On ch=10 n=41 v=45
25410 Off ch=10 n=41 v=0
25424 On ch=10 n=41 v=45
25504 Off ch=10 n=41 v=0
25522 On ch=10 n=41 v=45
25598 Off ch=10 n=41 v=0
25616 On ch=10 n=41 v=45
25697 Off ch=10 n=41 v=0
25715 On ch=10 n=41 v=45
25791 Off ch=10 n=41 v=0
25809 On ch=10 n=41 v=45
25889 Off ch=10 n=41 v=0
25907 On ch=10 n=41 v=45
25984 Off ch=10 n=41 v=0
26001 On ch=10 n=41 v=45
26082 Off ch=10 n=41 v=0
26096 On ch=10 n=41 v=35
26176 Off ch=10 n=41 v=0
26190 On ch=10 n=41 v=12
26270 Off ch=10 n=41 v=0
26288 On ch=10 n=41 v=35
26369 Off ch=10 n=41 v=0
26382 On ch=10 n=41 v=12
26463 Off ch=10 n=41 v=0
26481 On ch=10 n=41 v=35
26557 Off ch=10 n=41 v=0
26575 On ch=10 n=41 v=12
26656 Off ch=10 n=41 v=0
26673 On ch=10 n=41 v=35
26750 Off ch=10 n=41 v=0
26768 On ch=10 n=41 v=12
26848 Off ch=10 n=41 v=0
26862 On ch=10 n=41 v=35
26942 Off ch=10 n=41 v=0
26956 On ch=10 n=41 v=12
27036 Off ch=10 n=41 v=0
27054 On ch=10 n=41 v=35
27130 Off ch=10 n=41 v=0
27148 On ch=10 n=41 v=12
27229 Off ch=10 n=41 v=0
27247 On ch=10 n=41 v=35
27328 Off ch=10 n=41 v=0
27341 On ch=10 n=41 v=12
27422 Off ch=10 n=41 v=0
27440 On ch=10 n=41 v=35
27516 Off ch=10 n=41 v=0
27534 On ch=10 n=41 v=12
27614 Off ch=10 n=41 v=0
27632 On ch=10 n=41 v=35
27708 Off ch=10 n=41 v=0
27722 On ch=10 n=41 v=12
27802 Off ch=10 n=41 v=0
27820 On ch=10 n=41 v=35
27901 Off ch=10 n=41 v=0
27919 On ch=10 n=41 v=12
27995 Off ch=10 n=41 v=0
28013 On ch=10 n=41 v=35
28094 Off ch=10 n=41 v=0
28107 On ch=10 n=41 v=12
28188 Off ch=10 n=41 v=0
28206 On ch=10 n=41 v=35
28286 Off ch=10 n=41 v=0
28300 On ch=10 n=41 v=12
28380 Off ch=10 n=41 v=0
28492 On ch=10 n=41 v=25
28568 Off ch=10 n=41 v=0
28586 On ch=10 n=41 v=25
28667 Off ch=10 n=41 v=0
28685 On ch=10 n=41 v=45
28761 Off ch=10 n=41 v=0
28779 On ch=10 n=41 v=55
28860 Off ch=10 n=41 v=0
28873 On ch=10 n=41 v=65
28954 Off ch=10 n=41 v=0
29164 On ch=10 n=41 v=35
29240 Off ch=10 n=41 v=0
29258 On ch=10 n=41 v=12
29335 Off ch=10 n=41 v=0
29357 On ch=10 n=41 v=35
29433 Off ch=10 n=41 v=0
29451 On ch=10 n=41 v=12
29527 Off ch=10 n=41 v=0
29545 On ch=10 n=41 v=35
29626 Off ch=10 n=41 v=0
29644 On ch=10 n=41 v=12
29720 Off ch=10 n=41 v=0
29738 On ch=10 n=41 v=35
29818 Off ch=10 n=41 v=0
29832 On ch=10 n=41 v=12
29912 Off ch=10 n=41 v=0
29930 On ch=10 n=41 v=35
30007 Off ch=10 n=41 v=0
30024 On ch=10 n=41 v=12
30105 Off ch=10 n=41 v=0
30123 On ch=10 n=41 v=35
30199 Off ch=10 n=41 v=0
30217 On ch=10 n=41 v=12
30298 Off ch=10 n=41 v=0
30316 On ch=10 n=41 v=35
30392 Off ch=10 n=41 v=0
30410 On ch=10 n=41 v=12
30486 Off ch=10 n=41 v=0
30508 On ch=10 n=41 v=35
30580 Off ch=10 n=41 v=0
30598 On ch=10 n=41 v=12
30679 Off ch=10 n=41 v=0
30696 On ch=10 n=41 v=35
30777 Off ch=10 n=41 v=0
30791 On ch=10 n=41 v=12
30871 Off ch=10 n=41 v=0
30889 On ch=10 n=41 v=35
30965 Off ch=10 n=41 v=0
30983 On ch=10 n=41 v=12
31064 Off ch=10 n=41 v=0
31077 On ch=10 n=41 v=35
31158 Off ch=10 n=41 v=0
31176 On ch=10 n=41 v=12
31252 Off ch=10 n=41 v=0
31274 On ch=10 n=41 v=35
31351 Off ch=10 n=41 v=0
31368 On ch=10 n=41 v=12
31445 Off ch=10 n=41 v=0
31463 On ch=10 n=41 v=35
31539 Off ch=10 n=41 v=0
31557 On ch=10 n=41 v=12
31637 Off ch=10 n=41 v=0
31655 On ch=10 n=41 v=35
31731 Off ch=10 n=41 v=0
31749 On ch=10 n=41 v=12
31830 Off ch=10 n=41 v=0
31848 On ch=10 n=41 v=35
31924 Off ch=10 n=41 v=0
31942 On ch=10 n=41 v=12
32023 Off ch=10 n=41 v=0
32040 On ch=10 n=41 v=35
32117 Off ch=10 n=41 v=0
32130 On ch=10 n=41 v=12
32211 Off ch=10 n=41 v=0
32229 On ch=10 n=41 v=35
32309 Off ch=10 n=41 v=0
32325 On ch=10 n=41 v=12
32405 Off ch=10 n=41 v=0
32423 On ch=10 n=41 v=35
32499 Off ch=10 n=41 v=0
32517 On ch=10 n=41 v=12
32598 Off ch=10 n=41 v=0
32616 On ch=10 n=41 v=35
32692 Off ch=10 n=41 v=0
32710 On ch=10 n=41 v=12
32791 Off ch=10 n=41 v=0
32808 On ch=10 n=41 v=35
32885 Off ch=10 n=41 v=0
32898 On ch=10 n=41 v=12
32979 Off ch=10 n=41 v=0
32997 On ch=10 n=41 v=35
33077 Off ch=10 n=41 v=0
33093 On ch=10 n=41 v=12
33173 Off ch=10 n=41 v=0
33191 On ch=10 n=41 v=35
33267 Off ch=10 n=41 v=0
33285 On ch=10 n=41 v=12
33366 Off ch=10 n=41 v=0
33384 On ch=10 n=41 v=35
33460 Off ch=10 n=41 v=0
33478 On ch=10 n=41 v=12
33559 Off ch=10 n=41 v=0
33576 On ch=10 n=41 v=35
33653 Off ch=10 n=41 v=0
33666 On ch=10 n=41 v=12
33747 Off ch=10 n=41 v=0
33765 On ch=10 n=41 v=35
33845 Off ch=10 n=41 v=0
33861 On ch=10 n=41 v=12
33941 Off ch=10 n=41 v=0
33959 On ch=10 n=41 v=35
34035 Off ch=10 n=41 v=0
34053 On ch=10 n=41 v=12
34134 Off ch=10 n=41 v=0
34152 On ch=10 n=41 v=35
34228 Off ch=10 n=41 v=0
34246 On ch=10 n=41 v=12
34327 Off ch=10 n=41 v=0
34344 On ch=10 n=41 v=35
34421 Off ch=10 n=41 v=0
34434 On ch=10 n=41 v=12
34515 Off ch=10 n=41 v=0
34533 On ch=10 n=41 v=35
34613 Off ch=10 n=41 v=0
34629 On ch=10 n=41 v=12
34709 Off ch=10 n=41 v=0
34727 On ch=10 n=41 v=35
34803 Off ch=10 n=41 v=0
34821 On ch=10 n=41 v=12
34902 Off ch=10 n=41 v=0
34920 On ch=10 n=41 v=35
34996 Off ch=10 n=41 v=0
35014 On ch=10 n=41 v=12
35095 Off ch=10 n=41 v=0
35112 On ch=10 n=41 v=35
35189 Off ch=10 n=41 v=0
35202 On ch=10 n=41 v=12
35283 Off ch=10 n=41 v=0
35301 On ch=10 n=41 v=35
35336 On ch=10 n=41 v=35
35381 Off ch=10 n=41 v=0
35408 Off ch=10 n=41 v=0
35426 On ch=10 n=41 v=12
35507 Off ch=10 n=41 v=0
35525 On ch=10 n=41 v=35
35601 Off ch=10 n=41 v=0
35619 On ch=10 n=41 v=12
35695 Off ch=10 n=41 v=0
35713 On ch=10 n=41 v=35
35793 Off ch=10 n=41 v=0
35807 On ch=10 n=41 v=12
35888 Off ch=10 n=41 v=0
35905 On ch=10 n=41 v=35
35986 Off ch=10 n=41 v=0
36000 On ch=10 n=41 v=12
36080 Off ch=10 n=41 v=0
36098 On ch=10 n=41 v=35
36174 Off ch=10 n=41 v=0
36192 On ch=10 n=41 v=12
36273 Off ch=10 n=41 v=0
36286 On ch=10 n=41 v=35
36367 Off ch=10 n=41 v=0
36385 On ch=10 n=41 v=12
36461 Off ch=10 n=41 v=0
36483 On ch=10 n=41 v=35
36560 Off ch=10 n=41 v=0
36577 On ch=10 n=41 v=12
36654 Off ch=10 n=41 v=0
36672 On ch=10 n=41 v=35
36748 Off ch=10 n=41 v=0
36766 On ch=10 n=41 v=12
36846 Off ch=10 n=41 v=0
36864 On ch=10 n=41 v=35
36945 Off ch=10 n=41 v=0
36958 On ch=10 n=41 v=12
37039 Off ch=10 n=41 v=0
37057 On ch=10 n=41 v=35
37133 Off ch=10 n=41 v=0
37151 On ch=10 n=41 v=12
37227 Off ch=10 n=41 v=0
37245 On ch=10 n=41 v=35
37326 Off ch=10 n=41 v=0
37344 On ch=10 n=41 v=12
37420 Off ch=10 n=41 v=0
37442 On ch=10 n=41 v=35
37518 Off ch=10 n=41 v=0
37532 On ch=10 n=41 v=12
37612 Off ch=10 n=41 v=0
37630 On ch=10 n=41 v=35
37711 Off ch=10 n=41 v=0
37724 On ch=10 n=41 v=12
37805 Off ch=10 n=41 v=0
37823 On ch=10 n=41 v=35
37899 Off ch=10 n=41 v=0
37917 On ch=10 n=41 v=12
37998 Off ch=10 n=41 v=0
38016 On ch=10 n=41 v=35
38092 Off ch=10 n=41 v=0
38110 On ch=10 n=41 v=12
38190 Off ch=10 n=41 v=0
38204 On ch=10 n=41 v=35
38284 Off ch=10 n=41 v=0
38302 On ch=10 n=41 v=12
38378 Off ch=10 n=41 v=0
38396 On ch=10 n=41 v=35
38472 Off ch=10 n=41 v=0
38490 On ch=10 n=41 v=12
38571 Off ch=10 n=41 v=0
38589 On ch=10 n=41 v=35
38670 Off ch=10 n=41 v=0
38683 On ch=10 n=41 v=12
38764 Off ch=10 n=41 v=0
38782 On ch=10 n=41 v=35
38858 Off ch=10 n=41 v=0
38876 On ch=10 n=41 v=12
38956 Off ch=10 n=41 v=0
38974 On ch=10 n=41 v=35
39050 Off ch=10 n=41 v=0
39068 On ch=10 n=41 v=12
39144 Off ch=10 n=41 v=0
39162 On ch=10 n=41 v=35
39243 Off ch=10 n=41 v=0
39261 On ch=10 n=41 v=12
39337 Off ch=10 n=41 v=0
39355 On ch=10 n=41 v=35
39436 Off ch=10 n=41 v=0
39449 On ch=10 n=41 v=12
39530 Off ch=10 n=41 v=0
39548 On ch=10 n=41 v=35
39624 Off ch=10 n=41 v=0
39642 On ch=10 n=41 v=12
39722 Off ch=10 n=41 v=0
39740 On ch=10 n=41 v=35
39816 Off ch=10 n=41 v=0
39834 On ch=10 n=41 v=12
39915 Off ch=10 n=41 v=0
39933 On ch=10 n=41 v=35
40009 Off ch=10 n=41 v=0
40023 On ch=10 n=41 v=12
40103 Off ch=10 n=41 v=0
40121 On ch=10 n=41 v=35
40202 Off ch=10 n=41 v=0
40215 On ch=10 n=41 v=12
40296 Off ch=10 n=41 v=0
40314 On ch=10 n=41 v=35
40394 Off ch=10 n=41 v=0
40408 On ch=10 n=41 v=12
40488 Off ch=10 n=41 v=0
40506 On ch=10 n=41 v=35
40583 Off ch=10 n=41 v=0
40600 On ch=10 n=41 v=12
40677 Off ch=10 n=41 v=0
40699 On ch=10 n=41 v=35
40775 Off ch=10 n=41 v=0
40793 On ch=10 n=41 v=12
40869 Off ch=10 n=41 v=0
40887 On ch=10 n=41 v=35
40968 Off ch=10 n=41 v=0
40986 On ch=10 n=41 v=12
41062 Off ch=10 n=41 v=0
41080 On ch=10 n=41 v=35
41160 Off ch=10 n=41 v=0
41178 On ch=10 n=41 v=12
41255 Off ch=10 n=41 v=0
41272 On ch=10 n=41 v=35
41353 Off ch=10 n=41 v=0
41367 On ch=10 n=41 v=12
41447 Off ch=10 n=41 v=0
41465 On ch=10 n=41 v=45
41541 Off ch=10 n=41 v=0
41559 On ch=10 n=41 v=45
41640 Off ch=10 n=41 v=0
41653 On ch=10 n=41 v=45
41734 Off ch=10 n=41 v=0
41752 On ch=10 n=41 v=45
41828 Off ch=10 n=41 v=0
41846 On ch=10 n=41 v=45
41927 Off ch=10 n=41 v=0
41944 On ch=10 n=41 v=45
42021 Off ch=10 n=41 v=0
42043 On ch=10 n=41 v=45
42119 Off ch=10 n=41 v=0
42137 On ch=10 n=41 v=45
42213 Off ch=10 n=41 v=0
42231 On ch=10 n=41 v=35
42307 Off ch=10 n=41 v=0
42325 On ch=10 n=41 v=12
42401 Off ch=10 n=41 v=0
42424 On ch=10 n=41 v=35
42500 Off ch=10 n=41 v=0
42518 On ch=10 n=41 v=12
42599 Off ch=10 n=41 v=0
42612 On ch=10 n=41 v=35
42693 Off ch=10 n=41 v=0
42711 On ch=10 n=41 v=12
42787 Off ch=10 n=41 v=0
42805 On ch=10 n=41 v=35
42885 Off ch=10 n=41 v=0
42903 On ch=10 n=41 v=12
42979 Off ch=10 n=41 v=0
42997 On ch=10 n=41 v=35
43078 Off ch=10 n=41 v=0
43091 On ch=10 n=41 v=12
43172 Off ch=10 n=41 v=0
43190 On ch=10 n=41 v=35
43266 Off ch=10 n=41 v=0
43284 On ch=10 n=41 v=12
43365 Off ch=10 n=41 v=0
43383 On ch=10 n=41 v=35
43459 Off ch=10 n=41 v=0
43477 On ch=10 n=41 v=12
43553 Off ch=10 n=41 v=0
43575 On ch=10 n=41 v=35
43651 Off ch=10 n=41 v=0
43665 On ch=10 n=41 v=12
43745 Off ch=10 n=41 v=0
43763 On ch=10 n=41 v=35
43844 Off ch=10 n=41 v=0
43857 On ch=10 n=41 v=12
43938 Off ch=10 n=41 v=0
43956 On ch=10 n=41 v=35
44032 Off ch=10 n=41 v=0
44050 On ch=10 n=41 v=12
44131 Off ch=10 n=41 v=0
44144 On ch=10 n=41 v=35
44225 Off ch=10 n=41 v=0
44243 On ch=10 n=41 v=12
44319 Off ch=10 n=41 v=0
44341 On ch=10 n=41 v=35
44417 Off ch=10 n=41 v=0
44435 On ch=10 n=41 v=12
44512 Off ch=10 n=41 v=0
44529 On ch=10 n=41 v=45
44610 Off ch=10 n=41 v=0
44624 On ch=10 n=41 v=45
44704 Off ch=10 n=41 v=0
44722 On ch=10 n=41 v=45
44798 Off ch=10 n=41 v=0
44816 On ch=10 n=41 v=45
44897 Off ch=10 n=41 v=0
44915 On ch=10 n=41 v=45
44991 Off ch=10 n=41 v=0
45009 On ch=10 n=41 v=45
45089 Off ch=10 n=41 v=0
45107 On ch=10 n=41 v=45
45184 Off ch=10 n=41 v=0
45201 On ch=10 n=41 v=45
45282 Off ch=10 n=41 v=0
45296 On ch=10 n=41 v=35
45376 Off ch=10 n=41 v=0
45390 On ch=10 n=41 v=12
45470 Off ch=10 n=41 v=0
45488 On ch=10 n=41 v=35
45569 Off ch=10 n=41 v=0
45582 On ch=10 n=41 v=12
45663 Off ch=10 n=41 v=0
45681 On ch=10 n=41 v=35
45757 Off ch=10 n=41 v=0
45775 On ch=10 n=41 v=12
45856 Off ch=10 n=41 v=0
45873 On ch=10 n=41 v=35
45950 Off ch=10 n=41 v=0
45968 On ch=10 n=41 v=12
46048 Off ch=10 n=41 v=0
46062 On ch=10 n=41 v=35
46142 Off ch=10 n=41 v=0
46156 On ch=10 n=41 v=12
46236 Off ch=10 n=41 v=0
46254 On ch=10 n=41 v=35
46330 Off ch=10 n=41 v=0
46348 On ch=10 n=41 v=12
46429 Off ch=10 n=41 v=0
46447 On ch=10 n=41 v=35
46528 Off ch=10 n=41 v=0
46541 On ch=10 n=41 v=12
46622 Off ch=10 n=41 v=0
46640 On ch=10 n=41 v=35
46716 Off ch=10 n=41 v=0
46734 On ch=10 n=41 v=12
46814 Off ch=10 n=41 v=0
46832 On ch=10 n=41 v=35
46908 Off ch=10 n=41 v=0
46922 On ch=10 n=41 v=12
47002 Off ch=10 n=41 v=0
47020 On ch=10 n=41 v=35
47101 Off ch=10 n=41 v=0
47119 On ch=10 n=41 v=12
47195 Off ch=10 n=41 v=0
47213 On ch=10 n=41 v=35
47294 Off ch=10 n=41 v=0
47307 On ch=10 n=41 v=12
47388 Off ch=10 n=41 v=0
47406 On ch=10 n=41 v=35
47486 Off ch=10 n=41 v=0
47500 On ch=10 n=41 v=12
47580 Off ch=10 n=41 v=0
47692 On ch=10 n=41 v=25
47768 Off ch=10 n=41 v=0
47786 On ch=10 n=41 v=25
47867 Off ch=10 n=41 v=0
47885 On ch=10 n=41 v=45
47961 Off ch=10 n=41 v=0
47979 On ch=10 n=41 v=55
48060 Off ch=10 n=41 v=0
48073 On ch=10 n=41 v=65
48154 Off ch=10 n=41 v=0
48364 On ch=10 n=41 v=35
48440 Off ch=10 n=41 v=0
48458 On ch=10 n=41 v=12
48535 Off ch=10 n=41 v=0
48557 On ch=10 n=41 v=35
48633 Off ch=10 n=41 v=0
48651 On ch=10 n=41 v=12
48727 Off ch=10 n=41 v=0
48745 On ch=10 n=41 v=35
48826 Off ch=10 n=41 v=0
48844 On ch=10 n=41 v=12
48920 Off ch=10 n=41 v=0
48938 On ch=10 n=41 v=35
49018 Off ch=10 n=41 v=0
49032 On ch=10 n=41 v=12
49112 Off ch=10 n=41 v=0
49130 On ch=10 n=41 v=35
49207 Off ch=10 n=41 v=0
49226 On ch=10 n=41 v=12
49303 Off ch=10 n=41 v=0
49325 On ch=10 n=41 v=35
49401 Off ch=10 n=41 v=0
49419 On ch=10 n=41 v=12
49495 Off ch=10 n=41 v=0
49513 On ch=10 n=41 v=35
49594 Off ch=10 n=41 v=0
49612 On ch=10 n=41 v=12
49688 Off ch=10 n=41 v=0
49706 On ch=10 n=41 v=35
49786 Off ch=10 n=41 v=0
49800 On ch=10 n=41 v=12
49880 Off ch=10 n=41 v=0
49898 On ch=10 n=41 v=35
49936 On ch=10 n=41 v=35
49975 Off ch=10 n=41 v=0
50012 Off ch=10 n=41 v=0
50030 On ch=10 n=41 v=12
50110 Off ch=10 n=41 v=0
50128 On ch=10 n=41 v=35
50204 Off ch=10 n=41 v=0
50222 On ch=10 n=41 v=12
50298 Off ch=10 n=41 v=0
50316 On ch=10 n=41 v=35
50397 Off ch=10 n=41 v=0
50410 On ch=10 n=41 v=12
50491 Off ch=10 n=41 v=0
50509 On ch=10 n=41 v=35
50590 Off ch=10 n=41 v=0
50603 On ch=10 n=41 v=12
50684 Off ch=10 n=41 v=0
50702 On ch=10 n=41 v=35
50778 Off ch=10 n=41 v=0
50796 On ch=10 n=41 v=12
50876 Off ch=10 n=41 v=0
50890 On ch=10 n=41 v=35
50970 Off ch=10 n=41 v=0
50988 On ch=10 n=41 v=12
51064 Off ch=10 n=41 v=0
51082 On ch=10 n=41 v=35
51163 Off ch=10 n=41 v=0
51181 On ch=10 n=41 v=12
51257 Off ch=10 n=41 v=0
51275 On ch=10 n=41 v=35
51351 Off ch=10 n=41 v=0
51369 On ch=10 n=41 v=12
51450 Off ch=10 n=41 v=0
51468 On ch=10 n=41 v=35
51548 Off ch=10 n=41 v=0
51562 On ch=10 n=41 v=12
51642 Off ch=10 n=41 v=0
51660 On ch=10 n=41 v=35
51736 Off ch=10 n=41 v=0
51754 On ch=10 n=41 v=12
51835 Off ch=10 n=41 v=0
51848 On ch=10 n=41 v=35
51929 Off ch=10 n=41 v=0
51947 On ch=10 n=41 v=12
52023 Off ch=10 n=41 v=0
52046 On ch=10 n=41 v=35
52122 Off ch=10 n=41 v=0
52135 On ch=10 n=41 v=12
52216 Off ch=10 n=41 v=0
52234 On ch=10 n=41 v=35
52314 Off ch=10 n=41 v=0
52328 On ch=10 n=41 v=12
52408 Off ch=10 n=41 v=0
52426 On ch=10 n=41 v=35
52503 Off ch=10 n=41 v=0
52520 On ch=10 n=41 v=12
52601 Off ch=10 n=41 v=0
52615 On ch=10 n=41 v=35
52695 Off ch=10 n=41 v=0
52713 On ch=10 n=41 v=12
52789 Off ch=10 n=41 v=0
52807 On ch=10 n=41 v=35
52888 Off ch=10 n=41 v=0
52906 On ch=10 n=41 v=12
52982 Off ch=10 n=41 v=0
53000 On ch=10 n=41 v=35
53080 Off ch=10 n=41 v=0
53094 On ch=10 n=41 v=12
53175 Off ch=10 n=41 v=0
53192 On ch=10 n=41 v=35
53273 Off ch=10 n=41 v=0
53287 On ch=10 n=41 v=12
53367 Off ch=10 n=41 v=0
53385 On ch=10 n=41 v=35
53461 Off ch=10 n=41 v=0
53479 On ch=10 n=41 v=12
53560 Off ch=10 n=41 v=0
53578 On ch=10 n=41 v=35
53654 Off ch=10 n=41 v=0
53672 On ch=10 n=41 v=12
53748 Off ch=10 n=41 v=0
53766 On ch=10 n=41 v=35
53847 Off ch=10 n=41 v=0
53864 On ch=10 n=41 v=12
53941 Off ch=10 n=41 v=0
53959 On ch=10 n=41 v=35
54039 Off ch=10 n=41 v=0
54053 On ch=10 n=41 v=12
54133 Off ch=10 n=41 v=0
54147 On ch=10 n=41 v=35
54227 Off ch=10 n=41 v=0
54245 On ch=10 n=41 v=12
54326 Off ch=10 n=41 v=0
54344 On ch=10 n=41 v=35
54420 Off ch=10 n=41 v=0
54438 On ch=10 n=41 v=12
54514 Off ch=10 n=41 v=0
54532 On ch=10 n=41 v=35
54613 Off ch=10 n=41 v=0
54631 On ch=10 n=41 v=12
54707 Off ch=10 n=41 v=0
54725 On ch=10 n=41 v=35
54801 Off ch=10 n=41 v=0
54819 On ch=10 n=41 v=12
54899 Off ch=10 n=41 v=0
54913 On ch=10 n=41 v=35
54993 Off ch=10 n=41 v=0
55011 On ch=10 n=41 v=12
55092 Off ch=10 n=41 v=0
55110 On ch=10 n=41 v=35
55186 Off ch=10 n=41 v=0
55204 On ch=10 n=41 v=12
55285 Off ch=10 n=41 v=0
55303 On ch=10 n=41 v=35
55379 Off ch=10 n=41 v=0
55392 On ch=10 n=41 v=12
55473 Off ch=10 n=41 v=0
55491 On ch=10 n=41 v=45
55571 Off ch=10 n=41 v=0
55585 On ch=10 n=41 v=45
55665 Off ch=10 n=41 v=0
55683 On ch=10 n=41 v=45
55764 Off ch=10 n=41 v=0
55782 On ch=10 n=41 v=45
55858 Off ch=10 n=41 v=0
55880 On ch=10 n=41 v=45
55957 Off ch=10 n=41 v=0
55975 On ch=10 n=41 v=45
56051 Off ch=10 n=41 v=0
56073 On ch=10 n=41 v=35
56145 Off ch=10 n=41 v=0
56163 On ch=10 n=41 v=12
56239 Off ch=10 n=41 v=0
56257 On ch=10 n=41 v=35
56337 Off ch=10 n=41 v=0
56355 On ch=10 n=41 v=12
56432 Off ch=10 n=41 v=0
56449 On ch=10 n=41 v=35
56526 Off ch=10 n=41 v=0
56544 On ch=10 n=41 v=12
56624 Off ch=10 n=41 v=0
56642 On ch=10 n=41 v=35
56723 Off ch=10 n=41 v=0
56736 On ch=10 n=41 v=12
56817 Off ch=10 n=41 v=0
56835 On ch=10 n=41 v=35
56911 Off ch=10 n=41 v=0
56929 On ch=10 n=41 v=12
57009 Off ch=10 n=41 v=0
57027 On ch=10 n=41 v=35
57104 Off ch=10 n=41 v=0
57121 On ch=10 n=41 v=12
57198 Off ch=10 n=41 v=0
57216 On ch=10 n=41 v=35
57296 Off ch=10 n=41 v=0
57314 On ch=10 n=41 v=12
57390 Off ch=10 n=41 v=0
57408 On ch=10 n=41 v=35
57489 Off ch=10 n=41 v=0
57502 On ch=10 n=41 v=12
57583 Off ch=10 n=41 v=0
57601 On ch=10 n=41 v=35
57677 Off ch=10 n=41 v=0
57695 On ch=10 n=41 v=12
57776 Off ch=10 n=41 v=0
57789 On ch=10 n=41 v=35
57870 Off ch=10 n=41 v=0
57888 On ch=10 n=41 v=12
57968 Off ch=10 n=41 v=0
57982 On ch=10 n=41 v=35
58062 Off ch=10 n=41 v=0
58080 On ch=10 n=41 v=12
58156 Off ch=10 n=41 v=0
58174 On ch=10 n=41 v=45
58255 Off ch=10 n=41 v=0
58273 On ch=10 n=41 v=45
58349 Off ch=10 n=41 v=0
58367 On ch=10 n=41 v=45
58448 Off ch=10 n=41 v=0
58461 On ch=10 n=41 v=45
58542 Off ch=10 n=41 v=0
58560 On ch=10 n=41 v=45
58636 Off ch=10 n=41 v=0
58654 On ch=10 n=41 v=45
58730 Off ch=10 n=41 v=0
58748 On ch=10 n=41 v=45
58828 Off ch=10 n=41 v=0
58846 On ch=10 n=41 v=45
58927 Off ch=10 n=41 v=0
58940 On ch=10 n=41 v=45
59021 Off ch=10 n=41 v=0
59039 On ch=10 n=41 v=45
59115 Off ch=10 n=41 v=0
59133 On ch=10 n=41 v=35
59214 Off ch=10 n=41 v=0
59227 On ch=10 n=41 v=12
59308 Off ch=10 n=41 v=0
59326 On ch=10 n=41 v=35
59402 Off ch=10 n=41 v=0
59420 On ch=10 n=41 v=12
59500 Off ch=10 n=41 v=0
59514 On ch=10 n=41 v=35
59594 Off ch=10 n=41 v=0
59612 On ch=10 n=41 v=12
59693 Off ch=10 n=41 v=0
59706 On ch=10 n=41 v=35
59787 Off ch=10 n=41 v=0
59805 On ch=10 n=41 v=12
59881 Off ch=10 n=41 v=0
59899 On ch=10 n=41 v=35
59980 Off ch=10 n=41 v=0
59993 On ch=10 n=41 v=12
60074 Off ch=10 n=41 v=0
60092 On ch=10 n=41 v=35
60172 Off ch=10 n=41 v=0
60186 On ch=10 n=41 v=12
60266 Off ch=10 n=41 v=0
60284 On ch=10 n=41 v=35
60360 Off ch=10 n=41 v=0
60378 On ch=10 n=41 v=12
60459 Off ch=10 n=41 v=0
60477 On ch=10 n=41 v=35
60553 Off ch=10 n=41 v=0
60571 On ch=10 n=41 v=12
60647 Off ch=10 n=41 v=0
60665 On ch=10 n=41 v=35
60746 Off ch=10 n=41 v=0
60764 On ch=10 n=41 v=12
60840 Off ch=10 n=41 v=0
60858 On ch=10 n=41 v=35
60938 Off ch=10 n=41 v=0
60956 On ch=10 n=41 v=12
61032 Off ch=10 n=41 v=0
61050 On ch=10 n=41 v=35
61127 Off ch=10 n=41 v=0
61144 On ch=10 n=41 v=12
61225 Off ch=10 n=41 v=0
61243 On ch=10 n=41 v=35
61319 Off ch=10 n=41 v=0
61337 On ch=10 n=41 v=12
61418 Off ch=10 n=41 v=0
61436 On ch=10 n=41 v=35
61512 Off ch=10 n=41 v=0
61525 On ch=10 n=41 v=12
61606 Off ch=10 n=41 v=0
61624 On ch=10 n=41 v=35
61704 Off ch=10 n=41 v=0
61718 On ch=10 n=41 v=12
61799 Off ch=10 n=41 v=0
61816 On ch=10 n=41 v=35
61897 Off ch=10 n=41 v=0
61915 On ch=10 n=41 v=12
61991 Off ch=10 n=41 v=0
62296 On ch=10 n=41 v=25
62372 Off ch=10 n=41 v=0
62390 On ch=10 n=41 v=25
62471 Off ch=10 n=41 v=0
62488 On ch=10 n=41 v=45
62565 Off ch=10 n=41 v=0
62583 On ch=10 n=41 v=55
62663 Off ch=10 n=41 v=0
62677 On ch=10 n=41 v=65
62757 Off ch=10 n=41 v=0
62968 On ch=10 n=41 v=35
63044 Off ch=10 n=41 v=0
63062 On ch=10 n=41 v=12
63143 Off ch=10 n=41 v=0
63160 On ch=10 n=41 v=35
63237 Off ch=10 n=41 v=0
63255 On ch=10 n=41 v=12
63331 Off ch=10 n=41 v=0
63349 On ch=10 n=41 v=35
63429 Off ch=10 n=41 v=0
63443 On ch=10 n=41 v=12
63523 Off ch=10 n=41 v=0
63541 On ch=10 n=41 v=35
63622 Off ch=10 n=41 v=0
63635 On ch=10 n=41 v=12
63716 Off ch=10 n=41 v=0
63734 On ch=10 n=41 v=35
63760 On ch=10 n=41 v=35
63810 Off ch=10 n=41 v=0
63836 Off ch=10 n=41 v=0
63854 On ch=10 n=41 v=12
63934 Off ch=10 n=41 v=0
63952 On ch=10 n=41 v=35
64028 Off ch=10 n=41 v=0
64046 On ch=10 n=41 v=12
64122 Off ch=10 n=41 v=0
64140 On ch=10 n=41 v=35
64221 Off ch=10 n=41 v=0
64234 On ch=10 n=41 v=12
64315 Off ch=10 n=41 v=0
64333 On ch=10 n=41 v=35
64414 Off ch=10 n=41 v=0
64427 On ch=10 n=41 v=12
64508 Off ch=10 n=41 v=0
64526 On ch=10 n=41 v=35
64602 Off ch=10 n=41 v=0
64620 On ch=10 n=41 v=12
64700 Off ch=10 n=41 v=0
64714 On ch=10 n=41 v=35
64794 Off ch=10 n=41 v=0
64812 On ch=10 n=41 v=12
64888 Off ch=10 n=41 v=0
64906 On ch=10 n=41 v=35
64987 Off ch=10 n=41 v=0
65005 On ch=10 n=41 v=12
65081 Off ch=10 n=41 v=0
65099 On ch=10 n=41 v=35
65175 Off ch=10 n=41 v=0
65193 On ch=10 n=41 v=12
65274 Off ch=10 n=41 v=0
65292 On ch=10 n=41 v=35
65372 Off ch=10 n=41 v=0
65386 On ch=10 n=41 v=12
65466 Off ch=10 n=41 v=0
65484 On ch=10 n=41 v=35
65560 Off ch=10 n=41 v=0
65578 On ch=10 n=41 v=12
65659 Off ch=10 n=41 v=0
65672 On ch=10 n=41 v=35
65753 Off ch=10 n=41 v=0
65771 On ch=10 n=41 v=12
65847 Off ch=10 n=41 v=0
65870 On ch=10 n=41 v=35
65946 Off ch=10 n=41 v=0
65959 On ch=10 n=41 v=12
66040 Off ch=10 n=41 v=0
66058 On ch=10 n=41 v=35
66138 Off ch=10 n=41 v=0
66152 On ch=10 n=41 v=12
66232 Off ch=10 n=41 v=0
66250 On ch=10 n=41 v=35
66327 Off ch=10 n=41 v=0
66344 On ch=10 n=41 v=12
66425 Off ch=10 n=41 v=0
66439 On ch=10 n=41 v=35
66519 Off ch=10 n=41 v=0
66537 On ch=10 n=41 v=12
66613 Off ch=10 n=41 v=0
66631 On ch=10 n=41 v=35
66712 Off ch=10 n=41 v=0
66730 On ch=10 n=41 v=12
66806 Off ch=10 n=41 v=0
66824 On ch=10 n=41 v=35
66904 Off ch=10 n=41 v=0
66918 On ch=10 n=41 v=12
66999 Off ch=10 n=41 v=0
67016 On ch=10 n=41 v=35
67097 Off ch=10 n=41 v=0
67111 On ch=10 n=41 v=12
67191 Off ch=10 n=41 v=0
67209 On ch=10 n=41 v=35
67285 Off ch=10 n=41 v=0
67303 On ch=10 n=41 v=12
67384 Off ch=10 n=41 v=0
67402 On ch=10 n=41 v=35
67478 Off ch=10 n=41 v=0
67496 On ch=10 n=41 v=12
67572 Off ch=10 n=41 v=0
67590 On ch=10 n=41 v=35
67671 Off ch=10 n=41 v=0
67688 On ch=10 n=41 v=12
67765 Off ch=10 n=41 v=0
67783 On ch=10 n=41 v=35
67863 Off ch=10 n=41 v=0
67877 On ch=10 n=41 v=12
67957 Off ch=10 n=41 v=0
67971 On ch=10 n=41 v=35
68051 Off ch=10 n=41 v=0
68069 On ch=10 n=41 v=12
68150 Off ch=10 n=41 v=0
68168 On ch=10 n=41 v=35
68244 Off ch=10 n=41 v=0
68262 On ch=10 n=41 v=12
68338 Off ch=10 n=41 v=0
68356 On ch=10 n=41 v=35
68437 Off ch=10 n=41 v=0
68455 On ch=10 n=41 v=12
68531 Off ch=10 n=41 v=0
68549 On ch=10 n=41 v=35
68625 Off ch=10 n=41 v=0
68643 On ch=10 n=41 v=12
68723 Off ch=10 n=41 v=0
68737 On ch=10 n=41 v=35
68817 Off ch=10 n=41 v=0
68835 On ch=10 n=41 v=12
68916 Off ch=10 n=41 v=0
68934 On ch=10 n=41 v=35
69010 Off ch=10 n=41 v=0
69028 On ch=10 n=41 v=12
69109 Off ch=10 n=41 v=0
69127 On ch=10 n=41 v=35
69203 Off ch=10 n=41 v=0
69216 On ch=10 n=41 v=12
69297 Off ch=10 n=41 v=0
69315 On ch=10 n=41 v=45
69395 Off ch=10 n=41 v=0
69409 On ch=10 n=41 v=45
69489 Off ch=10 n=41 v=0
69507 On ch=10 n=41 v=45
69588 Off ch=10 n=41 v=0
69606 On ch=10 n=41 v=45
69682 Off ch=10 n=41 v=0
69704 On ch=10 n=41 v=45
69781 Off ch=10 n=41 v=0
69799 On ch=10 n=41 v=45
69875 Off ch=10 n=41 v=0
69897 On ch=10 n=41 v=35
69969 Off ch=10 n=41 v=0
69987 On ch=10 n=41 v=12
70063 Off ch=10 n=41 v=0
70081 On ch=10 n=41 v=35
70161 Off ch=10 n=41 v=0
70179 On ch=10 n=41 v=12
70256 Off ch=10 n=41 v=0
70273 On ch=10 n=41 v=35
70350 Off ch=10 n=41 v=0
70368 On ch=10 n=41 v=12
70448 Off ch=10 n=41 v=0
70466 On ch=10 n=41 v=35
70547 Off ch=10 n=41 v=0
70560 On ch=10 n=41 v=12
70641 Off ch=10 n=41 v=0
70659 On ch=10 n=41 v=35
70735 Off ch=10 n=41 v=0
70753 On ch=10 n=41 v=12
70833 Off ch=10 n=41 v=0
70851 On ch=10 n=41 v=35
70928 Off ch=10 n=41 v=0
70945 On ch=10 n=41 v=12
71022 Off ch=10 n=41 v=0
71040 On ch=10 n=41 v=35
71120 Off ch=10 n=41 v=0
71138 On ch=10 n=41 v=12
71214 Off ch=10 n=41 v=0
71232 On ch=10 n=41 v=35
71313 Off ch=10 n=41 v=0
71326 On ch=10 n=41 v=12
71407 Off ch=10 n=41 v=0
71425 On ch=10 n=41 v=35
71501 Off ch=10 n=41 v=0
71519 On ch=10 n=41 v=12
71600 Off ch=10 n=41 v=0
71613 On ch=10 n=41 v=35
71694 Off ch=10 n=41 v=0
71712 On ch=10 n=41 v=12
71792 Off ch=10 n=41 v=0
71806 On ch=10 n=41 v=35
71886 Off ch=10 n=41 v=0
71904 On ch=10 n=41 v=12
71980 Off ch=10 n=41 v=0
71998 On ch=10 n=41 v=45
72079 Off ch=10 n=41 v=0
72097 On ch=10 n=41 v=45
72173 Off ch=10 n=41 v=0
72191 On ch=10 n=41 v=45
72272 Off ch=10 n=41 v=0
72285 On ch=10 n=41 v=45
72366 Off ch=10 n=41 v=0
72384 On ch=10 n=41 v=45
72460 Off ch=10 n=41 v=0
72478 On ch=10 n=41 v=45
72554 Off ch=10 n=41 v=0
72572 On ch=10 n=41 v=45
72652 Off ch=10 n=41 v=0
72670 On ch=10 n=41 v=45
72751 Off ch=10 n=41 v=0
72764 On ch=10 n=41 v=45
72845 Off ch=10 n=41 v=0
72863 On ch=10 n=41 v=45
72939 Off ch=10 n=41 v=0
72957 On ch=10 n=41 v=35
73038 Off ch=10 n=41 v=0
73051 On ch=10 n=41 v=12
73132 Off ch=10 n=41 v=0
73150 On ch=10 n=41 v=35
73226 Off ch=10 n=41 v=0
73244 On ch=10 n=41 v=12
73324 Off ch=10 n=41 v=0
73338 On ch=10 n=41 v=35
73418 Off ch=10 n=41 v=0
73436 On ch=10 n=41 v=12
73517 Off ch=10 n=41 v=0
73530 On ch=10 n=41 v=35
73611 Off ch=10 n=41 v=0
73629 On ch=10 n=41 v=12
73705 Off ch=10 n=41 v=0
73723 On ch=10 n=41 v=35
73804 Off ch=10 n=41 v=0
73817 On ch=10 n=41 v=12
73898 Off ch=10 n=41 v=0
73916 On ch=10 n=41 v=35
73996 Off ch=10 n=41 v=0
74010 On ch=10 n=41 v=12
74090 Off ch=10 n=41 v=0
74108 On ch=10 n=41 v=35
74184 Off ch=10 n=41 v=0
74202 On ch=10 n=41 v=12
74283 Off ch=10 n=41 v=0
74301 On ch=10 n=41 v=35
74377 Off ch=10 n=41 v=0
74395 On ch=10 n=41 v=12
74471 Off ch=10 n=41 v=0
74489 On ch=10 n=41 v=35
74570 Off ch=10 n=41 v=0
74588 On ch=10 n=41 v=12
74664 Off ch=10 n=41 v=0
74682 On ch=10 n=41 v=35
74762 Off ch=10 n=41 v=0
74780 On ch=10 n=41 v=12
74856 Off ch=10 n=41 v=0
74874 On ch=10 n=41 v=35
74951 Off ch=10 n=41 v=0
74968 On ch=10 n=41 v=12
75049 Off ch=10 n=41 v=0
75067 On ch=10 n=41 v=35
75143 Off ch=10 n=41 v=0
75161 On ch=10 n=41 v=12
75242 Off ch=10 n=41 v=0
75260 On ch=10 n=41 v=35
75336 Off ch=10 n=41 v=0
75349 On ch=10 n=41 v=12
75430 Off ch=10 n=41 v=0
75448 On ch=10 n=41 v=35
75528 Off ch=10 n=41 v=0
75542 On ch=10 n=41 v=12
75623 Off ch=10 n=41 v=0
75640 On ch=10 n=41 v=35
75721 Off ch=10 n=41 v=0
75739 On ch=10 n=41 v=12
75815 Off ch=10 n=41 v=0
76120 On ch=10 n=41 v=25
76196 Off ch=10 n=41 v=0
76214 On ch=10 n=41 v=25
76295 Off ch=10 n=41 v=0
76312 On ch=10 n=41 v=45
76389 Off ch=10 n=41 v=0
76407 On ch=10 n=41 v=55
76487 Off ch=10 n=41 v=0
76501 On ch=10 n=41 v=65
76581 Off ch=10 n=41 v=0
76792 On ch=10 n=41 v=35
76868 Off ch=10 n=41 v=0
76886 On ch=10 n=41 v=12
76967 Off ch=10 n=41 v=0
76984 On ch=10 n=41 v=35
77061 Off ch=10 n=41 v=0
77079 On ch=10 n=41 v=12
77155 Off ch=10 n=41 v=0
77173 On ch=10 n=41 v=35
77253 Off ch=10 n=41 v=0
77267 On ch=10 n=41 v=12
77347 Off ch=10 n=41 v=0
77365 On ch=10 n=41 v=35
77446 Off ch=10 n=41 v=0
77459 On ch=10 n=41 v=12
77540 Off ch=10 n=41 v=0
77558 On ch=10 n=41 v=35
77634 Off ch=10 n=41 v=0
77634 SeqSpec 24 24 00 08 00 00 00 00 00 01 31 ff 00 00 00 00
77634 SeqSpec 24 24 00 01 05
77634 SeqSpec 24 24 00 06 04 04
77634 SeqSpec 24 24 00 02 09
78336 Meta TrkEnd
TrkEnd
MTrk
0 SeqNr 12
0 Meta TrkName "41 TomLow1"
0 Par ch=10 c=7 v=115
13719 On ch=10 n=48 v=87
13800 Off ch=10 n=48 v=0
14485 On ch=10 n=48 v=87
14566 Off ch=10 n=48 v=0
29066 On ch=10 n=48 v=87
29146 Off ch=10 n=48 v=0
48266 On ch=10 n=48 v=87
48346 Off ch=10 n=48 v=0
62103 On ch=10 n=48 v=87
62184 Off ch=10 n=48 v=0
62869 On ch=10 n=48 v=87
62950 Off ch=10 n=48 v=0
75927 On ch=10 n=48 v=87
76008 Off ch=10 n=48 v=0
76693 On ch=10 n=48 v=87
76774 Off ch=10 n=48 v=0
76774 SeqSpec 24 24 00 08 00 00 00 00 00 01 2b ff 00 00 00 00
76774 SeqSpec 24 24 00 01 05
76774 SeqSpec 24 24 00 06 04 04
76774 SeqSpec 24 24 00 02 09
76800 Meta TrkEnd
TrkEnd
MTrk
0 SeqNr 13
0 Meta TrkName "57 HiHatClose"
785 Par ch=10 c=121 v=0
785 On ch=10 n=42 v=56
862 Off ch=10 n=42 v=0
974 On ch=10 n=42 v=60
1063 Off ch=10 n=42 v=0
1166 On ch=10 n=42 v=54
1247 Off ch=10 n=42 v=0
1352 On ch=10 n=42 v=55
1423 Off ch=10 n=42 v=0
1552 On ch=10 n=42 v=75
1628 Off ch=10 n=42 v=0
1646 On ch=10 n=42 v=25
1726 Off ch=10 n=42 v=0
1744 On ch=10 n=42 v=75
1820 Off ch=10 n=42 v=0
1838 On ch=10 n=42 v=25
1914 Off ch=10 n=42 v=0
1932 On ch=10 n=42 v=75
2013 Off ch=10 n=42 v=0
2026 On ch=10 n=42 v=25
2107 Off ch=10 n=42 v=0
2125 On ch=10 n=42 v=75
2206 Off ch=10 n=42 v=0
2219 On ch=10 n=42 v=25
2300 Off ch=10 n=42 v=0
2318 On ch=10 n=42 v=75
2394 Off ch=10 n=42 v=0
2412 On ch=10 n=42 v=25
2492 Off ch=10 n=42 v=0
2510 On ch=10 n=42 v=75
2586 Off ch=10 n=42 v=0
2604 On ch=10 n=42 v=25
2685 Off ch=10 n=42 v=0
2698 On ch=10 n=42 v=75
2779 Off ch=10 n=42 v=0
2797 On ch=10 n=42 v=25
2873 Off ch=10 n=42 v=0
2891 On ch=10 n=42 v=75
2967 Off ch=10 n=42 v=0
3084 On ch=10 n=42 v=75
3164 Off ch=10 n=42 v=0
3178 On ch=10 n=42 v=25
3258 Off ch=10 n=42 v=0
3276 On ch=10 n=42 v=75
3352 Off ch=10 n=42 v=0
3370 On ch=10 n=42 v=25
3451 Off ch=10 n=42 v=0
3464 On ch=10 n=42 v=75
3545 Off ch=10 n=42 v=0
3563 On ch=10 n=42 v=25
3639 Off ch=10 n=42 v=0
3662 On ch=10 n=42 v=75
3738 Off ch=10 n=42 v=0
3756 On ch=10 n=42 v=25
3832 Off ch=10 n=42 v=0
3850 On ch=10 n=42 v=75
3930 Off ch=10 n=42 v=0
3948 On ch=10 n=42 v=25
4024 Off ch=10 n=42 v=0
4042 On ch=10 n=42 v=75
4119 Off ch=10 n=42 v=0
4136 On ch=10 n=42 v=25
4217 Off ch=10 n=42 v=0
4235 On ch=10 n=42 v=75
4311 Off ch=10 n=42 v=0
4329 On ch=10 n=42 v=25
4410 Off ch=10 n=42 v=0
4428 On ch=10 n=42 v=75
4504 Off ch=10 n=42 v=0
4620 On ch=10 n=42 v=75
4696 Off ch=10 n=42 v=0
4710 On ch=10 n=42 v=25
4791 Off ch=10 n=42 v=0
4808 On ch=10 n=42 v=75
4889 Off ch=10 n=42 v=0
4903 On ch=10 n=42 v=25
4983 Off ch=10 n=42 v=0
5001 On ch=10 n=42 v=75
5077 Off ch=10 n=42 v=0
5095 On ch=10 n=42 v=25
5176 Off ch=10 n=42 v=0
5194 On ch=10 n=42 v=75
5270 Off ch=10 n=42 v=0
5288 On ch=10 n=42 v=25
5364 Off ch=10 n=42 v=0
5386 On ch=10 n=42 v=75
5463 Off ch=10 n=42 v=0
5480 On ch=10 n=42 v=25
5557 Off ch=10 n=42 v=0
5575 On ch=10 n=42 v=75
5655 Off ch=10 n=42 v=0
5673 On ch=10 n=42 v=25
5749 Off ch=10 n=42 v=0
5772 On ch=10 n=42 v=75
5843 Off ch=10 n=42 v=0
5866 On ch=10 n=42 v=25
5942 Off ch=10 n=42 v=0
5960 On ch=10 n=42 v=75
6036 Off ch=10 n=42 v=0
6148 On ch=10 n=42 v=75
6229 Off ch=10 n=42 v=0
6247 On ch=10 n=42 v=25
6323 Off ch=10 n=42 v=0
6341 On ch=10 n=42 v=75
6417 Off ch=10 n=42 v=0
6435 On ch=10 n=42 v=25
6515 Off ch=10 n=42 v=0
6533 On ch=10 n=42 v=75
6614 Off ch=10 n=42 v=0
6627 On ch=10 n=42 v=25
6708 Off ch=10 n=42 v=0
6726 On ch=10 n=42 v=75
6802 Off ch=10 n=42 v=0
6820 On ch=10 n=42 v=25
6901 Off ch=10 n=42 v=0
6919 On ch=10 n=42 v=75
6995 Off ch=10 n=42 v=0
7013 On ch=10 n=42 v=25
7089 Off ch=10 n=42 v=0
7107 On ch=10 n=42 v=55
7187 Off ch=10 n=42 v=0
7201 On ch=10 n=42 v=35
7281 Off ch=10 n=42 v=0
7299 On ch=10 n=42 v=55
7380 Off ch=10 n=42 v=0
7398 On ch=10 n=42 v=85
7474 Off ch=10 n=42 v=0
7488 On ch=10 n=42 v=85
7568 Off ch=10 n=42 v=0
7689 On ch=10 n=42 v=75
7761 Off ch=10 n=42 v=0
7779 On ch=10 n=42 v=25
7859 Off ch=10 n=42 v=0
7873 On ch=10 n=42 v=75
7953 Off ch=10 n=42 v=0
7971 On ch=10 n=42 v=25
8048 Off ch=10 n=42 v=0
8065 On ch=10 n=42 v=75
8142 Off ch=10 n=42 v=0
8164 On ch=10 n=42 v=25
8240 Off ch=10 n=42 v=0
8258 On ch=10 n=42 v=75
8339 Off ch=10 n=42 v=0
8357 On ch=10 n=42 v=25
8433 Off ch=10 n=42 v=0
8451 On ch=10 n=42 v=75
8527 Off ch=10 n=42 v=0
8545 On ch=10 n=42 v=25
8625 Off ch=10 n=42 v=0
8643 On ch=10 n=42 v=75
8720 Off ch=10 n=42 v=0
8737 On ch=10 n=42 v=25
8814 Off ch=10 n=42 v=0
8836 On ch=10 n=42 v=75
8912 Off ch=10 n=42 v=0
8930 On ch=10 n=42 v=25
9006 Off ch=10 n=42 v=0
9024 On ch=10 n=42 v=75
9105 Off ch=10 n=42 v=0
9217 On ch=10 n=42 v=75
9293 Off ch=10 n=42 v=0
9311 On ch=10 n=42 v=25
9392 Off ch=10 n=42 v=0
9405 On ch=10 n=42 v=75
9486 Off ch=10 n=42 v=0
9504 On ch=10 n=42 v=25
9584 Off ch=10 n=42 v=0
9598 On ch=10 n=42 v=75
9678 Off ch=10 n=42 v=0
9696 On ch=10 n=42 v=25
9772 Off ch=10 n=42 v=0
9790 On ch=10 n=42 v=85
9871 Off ch=10 n=42 v=0
9983 On ch=10 n=42 v=55
10064 Off ch=10 n=42 v=0
10077 On ch=10 n=42 v=35
10158 Off ch=10 n=42 v=0
10176 On ch=10 n=42 v=55
10252 Off ch=10 n=42 v=0
10270 On ch=10 n=42 v=35
10346 Off ch=10 n=42 v=0
10368 On ch=10 n=42 v=55
10444 Off ch=10 n=42 v=0
10462 On ch=10 n=42 v=85
10538 Off ch=10 n=42 v=0
10556 On ch=10 n=42 v=85
10637 Off ch=10 n=42 v=0
10758 On ch=10 n=42 v=75
10830 Off ch=10 n=42 v=0
10848 On ch=10 n=42 v=25
10924 Off ch=10 n=42 v=0
10942 On ch=10 n=42 v=75
11018 Off ch=10 n=42 v=0
11040 On ch=10 n=42 v=25
11116 Off ch=10 n=42 v=0
11130 On ch=10 n=42 v=75
11210 Off ch=10 n=42 v=0
11228 On ch=10 n=42 v=25
11309 Off ch=10 n=42 v=0
11322 On ch=10 n=42 v=75
11403 Off ch=10 n=42 v=0
11421 On ch=10 n=42 v=25
11497 Off ch=10 n=42 v=0
11520 On ch=10 n=42 v=75
11596 Off ch=10 n=42 v=0
11609 On ch=10 n=42 v=25
11690 Off ch=10 n=42 v=0
11708 On ch=10 n=42 v=75
11788 Off ch=10 n=42 v=0
11802 On ch=10 n=42 v=25
11882 Off ch=10 n=42 v=0
11900 On ch=10 n=42 v=75
11976 Off ch=10 n=42 v=0
11994 On ch=10 n=42 v=25
12075 Off ch=10 n=42 v=0
12093 On ch=10 n=42 v=75
12169 Off ch=10 n=42 v=0
12281 On ch=10 n=42 v=75
12362 Off ch=10 n=42 v=0
12380 On ch=10 n=42 v=25
12456 Off ch=10 n=42 v=0
12474 On ch=10 n=42 v=75
12554 Off ch=10 n=42 v=0
12572 On ch=10 n=42 v=25
12648 Off ch=10 n=42 v=0
12666 On ch=10 n=42 v=75
12743 Off ch=10 n=42 v=0
12760 On ch=10 n=42 v=25
12841 Off ch=10 n=42 v=0
12859 On ch=10 n=42 v=75
12935 Off ch=10 n=42 v=0
12953 On ch=10 n=42 v=25
13034 Off ch=10 n=42 v=0
13052 On ch=10 n=42 v=75
13128 Off ch=10 n=42 v=0
13146 On ch=10 n=42 v=25
13222 Off ch=10 n=42 v=0
13244 On ch=10 n=42 v=75
13320 Off ch=10 n=42 v=0
13338 On ch=10 n=42 v=25
13415 Off ch=10 n=42 v=0
13432 On ch=10 n=42 v=75
13513 Off ch=10 n=42 v=0
13531 On ch=10 n=42 v=25
13607 Off ch=10 n=42 v=0
13818 On ch=10 n=42 v=105
13894 Off ch=10 n=42 v=0
14342 On ch=10 n=42 v=25
14364 On ch=10 n=42 v=25
14364 Off ch=10 n=42 v=0
14418 Off ch=10 n=42 v=0
14584 On ch=10 n=42 v=75
14660 Off ch=10 n=42 v=0
14678 On ch=10 n=42 v=25
14759 Off ch=10 n=42 v=0
14776 On ch=10 n=42 v=75
14853 Off ch=10 n=42 v=0
14871 On ch=10 n=42 v=25
14947 Off ch=10 n=42 v=0
14965 On ch=10 n=42 v=75
15045 Off ch=10 n=42 v=0
15059 On ch=10 n=42 v=25
15139 Off ch=10 n=42 v=0
15162 On ch=10 n=42 v=75
15238 Off ch=10 n=42 v=0
15251 On ch=10 n=42 v=25
15332 Off ch=10 n=42 v=0
15350 On ch=10 n=42 v=75
15426 Off ch=10 n=42 v=0
15444 On ch=10 n=42 v=25
15525 Off ch=10 n=42 v=0
15543 On ch=10 n=42 v=75
15619 Off ch=10 n=42 v=0
15637 On ch=10 n=42 v=25
15717 Off ch=10 n=42 v=0
15731 On ch=10 n=42 v=75
15811 Off ch=10 n=42 v=0
15829 On ch=10 n=42 v=25
15905 Off ch=10 n=42 v=0
15923 On ch=10 n=42 v=75
16000 Off ch=10 n=42 v=0
16116 On ch=10 n=42 v=75
16136 On ch=10 n=42 v=75
16197 Off ch=10 n=42 v=0
16208 Off ch=10 n=42 v=0
16226 On ch=10 n=42 v=25
16307 Off ch=10 n=42 v=0
16325 On ch=10 n=42 v=75
16401 Off ch=10 n=42 v=0
16419 On ch=10 n=42 v=25
16499 Off ch=10 n=42 v=0
16513 On ch=10 n=42 v=75
16593 Off ch=10 n=42 v=0
16611 On ch=10 n=42 v=25
16688 Off ch=10 n=42 v=0
16710 On ch=10 n=42 v=75
16786 Off ch=10 n=42 v=0
16800 On ch=10 n=42 v=25
16880 Off ch=10 n=42 v=0
16898 On ch=10 n=42 v=75
16974 Off ch=10 n=42 v=0
16992 On ch=10 n=42 v=25
17073 Off ch=10 n=42 v=0
17091 On ch=10 n=42 v=75
17167 Off ch=10 n=42 v=0
17185 On ch=10 n=42 v=25
17265 Off ch=10 n=42 v=0
17283 On ch=10 n=42 v=75
17360 Off ch=10 n=42 v=0
17377 On ch=10 n=42 v=25
17454 Off ch=10 n=42 v=0
17472 On ch=10 n=42 v=75
17548 Off ch=10 n=42 v=0
17664 On ch=10 n=42 v=75
17745 Off ch=10 n=42 v=0
17758 On ch=10 n=42 v=25
17839 Off ch=10 n=42 v=0
17857 On ch=10 n=42 v=75
17933 Off ch=10 n=42 v=0
17951 On ch=10 n=42 v=25
18027 Off ch=10 n=42 v=0
18049 On ch=10 n=42 v=75
18126 Off ch=10 n=42 v=0
18144 On ch=10 n=42 v=25
18220 Off ch=10 n=42 v=0
18242 On ch=10 n=42 v=75
18318 Off ch=10 n=42 v=0
18336 On ch=10 n=42 v=25
18412 Off ch=10 n=42 v=0
18430 On ch=10 n=42 v=75
18511 Off ch=10 n=42 v=0
18529 On ch=10 n=42 v=25
18605 Off ch=10 n=42 v=0
18623 On ch=10 n=42 v=75
18699 Off ch=10 n=42 v=0
18717 On ch=10 n=42 v=25
18798 Off ch=10 n=42 v=0
18816 On ch=10 n=42 v=75
18892 Off ch=10 n=42 v=0
18910 On ch=10 n=42 v=25
18990 Off ch=10 n=42 v=0
19004 On ch=10 n=42 v=75
19084 Off ch=10 n=42 v=0
19196 On ch=10 n=42 v=75
19272 Off ch=10 n=42 v=0
19290 On ch=10 n=42 v=25
19371 Off ch=10 n=42 v=0
19389 On ch=10 n=42 v=75
19470 Off ch=10 n=42 v=0
19483 On ch=10 n=42 v=25
19564 Off ch=10 n=42 v=0
19582 On ch=10 n=42 v=75
19658 Off ch=10 n=42 v=0
19676 On ch=10 n=42 v=25
19756 Off ch=10 n=42 v=0
19774 On ch=10 n=42 v=75
19850 Off ch=10 n=42 v=0
19868 On ch=10 n=42 v=25
19949 Off ch=10 n=42 v=0
19962 On ch=10 n=42 v=75
20043 Off ch=10 n=42 v=0
20061 On ch=10 n=42 v=25
20137 Off ch=10 n=42 v=0
20155 On ch=10 n=42 v=75
20236 Off ch=10 n=42 v=0
20254 On ch=10 n=42 v=25
20330 Off ch=10 n=42 v=0
20348 On ch=10 n=42 v=75
20424 Off ch=10 n=42 v=0
20446 On ch=10 n=42 v=25
20522 Off ch=10 n=42 v=0
20540 On ch=10 n=42 v=75
20616 Off ch=10 n=42 v=0
20733 On ch=10 n=42 v=75
20809 Off ch=10 n=42 v=0
20827 On ch=10 n=42 v=25
20903 Off ch=10 n=42 v=0
20921 On ch=10 n=42 v=75
21002 Off ch=10 n=42 v=0
21020 On ch=10 n=42 v=25
21096 Off ch=10 n=42 v=0
21114 On ch=10 n=42 v=75
21194 Off ch=10 n=42 v=0
21208 On ch=10 n=42 v=25
21288 Off ch=10 n=42 v=0
21306 On ch=10 n=42 v=75
21383 Off ch=10 n=42 v=0
21400 On ch=10 n=42 v=25
21477 Off ch=10 n=42 v=0
21499 On ch=10 n=42 v=75
21575 Off ch=10 n=42 v=0
21593 On ch=10 n=42 v=25
21674 Off ch=10 n=42 v=0
21687 On ch=10 n=42 v=75
21768 Off ch=10 n=42 v=0
21786 On ch=10 n=42 v=25
21862 Off ch=10 n=42 v=0
21880 On ch=10 n=42 v=75
21960 Off ch=10 n=42 v=0
21978 On ch=10 n=42 v=25
22055 Off ch=10 n=42 v=0
22072 On ch=10 n=42 v=75
22153 Off ch=10 n=42 v=0
22265 On ch=10 n=42 v=55
22341 Off ch=10 n=42 v=0
22359 On ch=10 n=42 v=35
22440 Off ch=10 n=42 v=0
22453 On ch=10 n=42 v=55
22534 Off ch=10 n=42 v=0
22552 On ch=10 n=42 v=35
22628 Off ch=10 n=42 v=0
22646 On ch=10 n=42 v=55
22727 Off ch=10 n=42 v=0
22740 On ch=10 n=42 v=85
22821 Off ch=10 n=42 v=0
22839 On ch=10 n=42 v=85
22919 Off ch=10 n=42 v=0
23031 On ch=10 n=42 v=75
23107 Off ch=10 n=42 v=0
23125 On ch=10 n=42 v=25
23201 Off ch=10 n=42 v=0
23224 On ch=10 n=42 v=75
23300 Off ch=10 n=42 v=0
23318 On ch=10 n=42 v=25
23399 Off ch=10 n=42 v=0
23412 On ch=10 n=42 v=75
23493 Off ch=10 n=42 v=0
23511 On ch=10 n=42 v=25
23587 Off ch=10 n=42 v=0
23609 On ch=10 n=42 v=75
23685 Off ch=10 n=42 v=0
23703 On ch=10 n=42 v=25
23779 Off ch=10 n=42 v=0
23797 On ch=10 n=42 v=75
23878 Off ch=10 n=42 v=0
23891 On ch=10 n=42 v=25
23972 Off ch=10 n=42 v=0
23990 On ch=10 n=42 v=75
24066 Off ch=10 n=42 v=0
24084 On ch=10 n=42 v=25
24165 Off ch=10 n=42 v=0
24183 On ch=10 n=42 v=75
24259 Off ch=10 n=42 v=0
24277 On ch=10 n=42 v=25
24353 Off ch=10 n=42 v=0
24375 On ch=10 n=42 v=75
24451 Off ch=10 n=42 v=0
24563 On ch=10 n=42 v=75
24644 Off ch=10 n=42 v=0
24657 On ch=10 n=42 v=25
24738 Off ch=10 n=42 v=0
24756 On ch=10 n=42 v=75
24832 Off ch=10 n=42 v=0
24850 On ch=10 n=42 v=25
24931 Off ch=10 n=42 v=0
24944 On ch=10 n=42 v=75
25025 Off ch=10 n=42 v=0
25043 On ch=10 n=42 v=25
25123 Off ch=10 n=42 v=0
25141 On ch=10 n=42 v=75
25217 Off ch=10 n=42 v=0
25235 On ch=10 n=42 v=25
25312 Off ch=10 n=42 v=0
25329 On ch=10 n=42 v=55
25410 Off ch=10 n=42 v=0
25428 On ch=10 n=42 v=35
25504 Off ch=10 n=42 v=0
25522 On ch=10 n=42 v=55
25603 Off ch=10 n=42 v=0
25621 On ch=10 n=42 v=35
25697 Off ch=10 n=42 v=0
25715 On ch=10 n=42 v=55
25791 Off ch=10 n=42 v=0
25809 On ch=10 n=42 v=85
25889 Off ch=10 n=42 v=0
25907 On ch=10 n=42 v=85
25984 Off ch=10 n=42 v=0
26096 On ch=10 n=42 v=75
26176 Off ch=10 n=42 v=0
26190 On ch=10 n=42 v=25
26270 Off ch=10 n=42 v=0
26288 On ch=10 n=42 v=75
26369 Off ch=10 n=42 v=0
26382 On ch=10 n=42 v=25
26463 Off ch=10 n=42 v=0
26481 On ch=10 n=42 v=75
26557 Off ch=10 n=42 v=0
26575 On ch=10 n=42 v=25
26656 Off ch=10 n=42 v=0
26673 On ch=10 n=42 v=75
26750 Off ch=10 n=42 v=0
26768 On ch=10 n=42 v=25
26848 Off ch=10 n=42 v=0
26862 On ch=10 n=42 v=75
26942 Off ch=10 n=42 v=0
26960 On ch=10 n=42 v=25
27036 Off ch=10 n=42 v=0
27059 On ch=10 n=42 v=75
27130 Off ch=10 n=42 v=0
27148 On ch=10 n=42 v=25
27229 Off ch=10 n=42 v=0
27247 On ch=10 n=42 v=75
27328 Off ch=10 n=42 v=0
27341 On ch=10 n=42 v=25
27422 Off ch=10 n=42 v=0
27440 On ch=10 n=42 v=75
27516 Off ch=10 n=42 v=0
27632 On ch=10 n=42 v=75
27708 Off ch=10 n=42 v=0
27726 On ch=10 n=42 v=25
27807 Off ch=10 n=42 v=0
27825 On ch=10 n=42 v=75
27901 Off ch=10 n=42 v=0
27919 On ch=10 n=42 v=25
27995 Off ch=10 n=42 v=0
28013 On ch=10 n=42 v=75
28094 Off ch=10 n=42 v=0
28112 On ch=10 n=42 v=25
28188 Off ch=10 n=42 v=0
28206 On ch=10 n=42 v=75
28286 Off ch=10 n=42 v=0
28304 On ch=10 n=42 v=25
28380 Off ch=10 n=42 v=0
28398 On ch=10 n=42 v=105
28474 Off ch=10 n=42 v=0
28922 On ch=10 n=42 v=25
28945 On ch=10 n=42 v=25
28945 Off ch=10 n=42 v=0
29003 Off ch=10 n=42 v=0
29164 On ch=10 n=42 v=75
29240 Off ch=10 n=42 v=0
29258 On ch=10 n=42 v=25
29335 Off ch=10 n=42 v=0
29357 On ch=10 n=42 v=75
29433 Off ch=10 n=42 v=0
29451 On ch=10 n=42 v=25
29532 Off ch=10 n=42 v=0
29545 On ch=10 n=42 v=75
29626 Off ch=10 n=42 v=0
29644 On ch=10 n=42 v=25
29720 Off ch=10 n=42 v=0
29742 On ch=10 n=42 v=75
29818 Off ch=10 n=42 v=0
29832 On ch=10 n=42 v=25
29912 Off ch=10 n=42 v=0
29930 On ch=10 n=42 v=75
30007 Off ch=10 n=42 v=0
30024 On ch=10 n=42 v=25
30105 Off ch=10 n=42 v=0
30123 On ch=10 n=42 v=75
30199 Off ch=10 n=42 v=0
30217 On ch=10 n=42 v=25
30298 Off ch=10 n=42 v=0
30316 On ch=10 n=42 v=75
30392 Off ch=10 n=42 v=0
30410 On ch=10 n=42 v=25
30486 Off ch=10 n=42 v=0
30508 On ch=10 n=42 v=75
30580 Off ch=10 n=42 v=0
30696 On ch=10 n=42 v=75
30777 Off ch=10 n=42 v=0
30791 On ch=10 n=42 v=25
30871 Off ch=10 n=42 v=0
30889 On ch=10 n=42 v=75
30965 Off ch=10 n=42 v=0
30983 On ch=10 n=42 v=25
31064 Off ch=10 n=42 v=0
31082 On ch=10 n=42 v=75
31158 Off ch=10 n=42 v=0
31176 On ch=10 n=42 v=25
31252 Off ch=10 n=42 v=0
31274 On ch=10 n=42 v=75
31351 Off ch=10 n=42 v=0
31368 On ch=10 n=42 v=25
31445 Off ch=10 n=42 v=0
31463 On ch=10 n=42 v=75
31539 Off ch=10 n=42 v=0
31561 On ch=10 n=42 v=25
31637 Off ch=10 n=42 v=0
31655 On ch=10 n=42 v=75
31736 Off ch=10 n=42 v=0
31749 On ch=10 n=42 v=25
31830 Off ch=10 n=42 v=0
31848 On ch=10 n=42 v=75
31924 Off ch=10 n=42 v=0
31942 On ch=10 n=42 v=25
32023 Off ch=10 n=42 v=0
32040 On ch=10 n=42 v=75
32117 Off ch=10 n=42 v=0
32233 On ch=10 n=42 v=75
32309 Off ch=10 n=42 v=0
32329 On ch=10 n=42 v=25
32405 Off ch=10 n=42 v=0
32423 On ch=10 n=42 v=75
32504 Off ch=10 n=42 v=0
32517 On ch=10 n=42 v=25
32598 Off ch=10 n=42 v=0
32616 On ch=10 n=42 v=75
32692 Off ch=10 n=42 v=0
32710 On ch=10 n=42 v=25
32791 Off ch=10 n=42 v=0
32808 On ch=10 n=42 v=75
32885 Off ch=10 n=42 v=0
33001 On ch=10 n=42 v=75
33077 Off ch=10 n=42 v=0
33097 On ch=10 n=42 v=25
33173 Off ch=10 n=42 v=0
33191 On ch=10 n=42 v=75
33272 Off ch=10 n=42 v=0
33285 On ch=10 n=42 v=25
33366 Off ch=10 n=42 v=0
33384 On ch=10 n=42 v=75
33460 Off ch=10 n=42 v=0
33478 On ch=10 n=42 v=25
33559 Off ch=10 n=42 v=0
33576 On ch=10 n=42 v=75
33653 Off ch=10 n=42 v=0
33769 On ch=10 n=42 v=75
33845 Off ch=10 n=42 v=0
33865 On ch=10 n=42 v=25
33941 Off ch=10 n=42 v=0
33959 On ch=10 n=42 v=75
34040 Off ch=10 n=42 v=0
34053 On ch=10 n=42 v=25
34134 Off ch=10 n=42 v=0
34152 On ch=10 n=42 v=75
34228 Off ch=10 n=42 v=0
34246 On ch=10 n=42 v=25
34327 Off ch=10 n=42 v=0
34344 On ch=10 n=42 v=75
34421 Off ch=10 n=42 v=0
34537 On ch=10 n=42 v=75
34613 Off ch=10 n=42 v=0
34633 On ch=10 n=42 v=25
34709 Off ch=10 n=42 v=0
34727 On ch=10 n=42 v=75
34808 Off ch=10 n=42 v=0
34821 On ch=10 n=42 v=25
34902 Off ch=10 n=42 v=0
34920 On ch=10 n=42 v=75
34996 Off ch=10 n=42 v=0
35014 On ch=10 n=42 v=25
35095 Off ch=10 n=42 v=0
35112 On ch=10 n=42 v=75
35189 Off ch=10 n=42 v=0
35305 On ch=10 n=42 v=75
35336 On ch=10 n=42 v=75
35381 Off ch=10 n=42 v=0
35408 Off ch=10 n=42 v=0
35426 On ch=10 n=42 v=25
35507 Off ch=10 n=42 v=0
35525 On ch=10 n=42 v=75
35601 Off ch=10 n=42 v=0
35619 On ch=10 n=42 v=25
35699 Off ch=10 n=42 v=0
35713 On ch=10 n=42 v=75
35793 Off ch=10 n=42 v=0
35811 On ch=10 n=42 v=25
35888 Off ch=10 n=42 v=0
35910 On ch=10 n=42 v=75
35986 Off ch=10 n=42 v=0
36000 On ch=10 n=42 v=25
36080 Off ch=10 n=42 v=0
36098 On ch=10 n=42 v=75
36174 Off ch=10 n=42 v=0
36192 On ch=10 n=42 v=25
36273 Off ch=10 n=42 v=0
36291 On ch=10 n=42 v=75
36367 Off ch=10 n=42 v=0
36385 On ch=10 n=42 v=25
36465 Off ch=10 n=42 v=0
36483 On ch=10 n=42 v=75
36560 Off ch=10 n=42 v=0
36577 On ch=10 n=42 v=25
36654 Off ch=10 n=42 v=0
36672 On ch=10 n=42 v=75
36748 Off ch=10 n=42 v=0
36864 On ch=10 n=42 v=75
36945 Off ch=10 n=42 v=0
36958 On ch=10 n=42 v=25
37039 Off ch=10 n=42 v=0
37057 On ch=10 n=42 v=75
37133 Off ch=10 n=42 v=0
37151 On ch=10 n=42 v=25
37227 Off ch=10 n=42 v=0
37249 On ch=10 n=42 v=75
37326 Off ch=10 n=42 v=0
37344 On ch=10 n=42 v=25
37420 Off ch=10 n=42 v=0
37442 On ch=10 n=42 v=75
37518 Off ch=10 n=42 v=0
37536 On ch=10 n=42 v=25
37612 Off ch=10 n=42 v=0
37630 On ch=10 n=42 v=75
37711 Off ch=10 n=42 v=0
37729 On ch=10 n=42 v=25
37805 Off ch=10 n=42 v=0
37823 On ch=10 n=42 v=75
37899 Off ch=10 n=42 v=0
37917 On ch=10 n=42 v=25
37998 Off ch=10 n=42 v=0
38016 On ch=10 n=42 v=75
38092 Off ch=10 n=42 v=0
38110 On ch=10 n=42 v=25
38190 Off ch=10 n=42 v=0
38204 On ch=10 n=42 v=75
38284 Off ch=10 n=42 v=0
38396 On ch=10 n=42 v=75
38472 Off ch=10 n=42 v=0
38490 On ch=10 n=42 v=25
38571 Off ch=10 n=42 v=0
38589 On ch=10 n=42 v=75
38670 Off ch=10 n=42 v=0
38683 On ch=10 n=42 v=25
38764 Off ch=10 n=42 v=0
38782 On ch=10 n=42 v=75
38858 Off ch=10 n=42 v=0
38876 On ch=10 n=42 v=25
38956 Off ch=10 n=42 v=0
38974 On ch=10 n=42 v=75
39050 Off ch=10 n=42 v=0
39068 On ch=10 n=42 v=25
39149 Off ch=10 n=42 v=0
39162 On ch=10 n=42 v=75
39243 Off ch=10 n=42 v=0
39261 On ch=10 n=42 v=25
39337 Off ch=10 n=42 v=0
39360 On ch=10 n=42 v=75
39441 Off ch=10 n=42 v=0
39454 On ch=10 n=42 v=25
39530 Off ch=10 n=42 v=0
39548 On ch=10 n=42 v=75
39624 Off ch=10 n=42 v=0
39646 On ch=10 n=42 v=25
39722 Off ch=10 n=42 v=0
39740 On ch=10 n=42 v=75
39816 Off ch=10 n=42 v=0
39933 On ch=10 n=42 v=75
40009 Off ch=10 n=42 v=0
40027 On ch=10 n=42 v=25
40103 Off ch=10 n=42 v=0
40121 On ch=10 n=42 v=75
40202 Off ch=10 n=42 v=0
40220 On ch=10 n=42 v=25
40296 Off ch=10 n=42 v=0
40314 On ch=10 n=42 v=75
40394 Off ch=10 n=42 v=0
40408 On ch=10 n=42 v=25
40488 Off ch=10 n=42 v=0
40506 On ch=10 n=42 v=75
40583 Off ch=10 n=42 v=0
40600 On ch=10 n=42 v=25
40677 Off ch=10 n=42 v=0
40699 On ch=10 n=42 v=75
40775 Off ch=10 n=42 v=0
40793 On ch=10 n=42 v=25
40874 Off ch=10 n=42 v=0
40887 On ch=10 n=42 v=75
40968 Off ch=10 n=42 v=0
40986 On ch=10 n=42 v=25
41062 Off ch=10 n=42 v=0
41080 On ch=10 n=42 v=75
41160 Off ch=10 n=42 v=0
41178 On ch=10 n=42 v=25
41255 Off ch=10 n=42 v=0
41272 On ch=10 n=42 v=75
41353 Off ch=10 n=42 v=0
41465 On ch=10 n=42 v=55
41541 Off ch=10 n=42 v=0
41559 On ch=10 n=42 v=35
41640 Off ch=10 n=42 v=0
41653 On ch=10 n=42 v=55
41734 Off ch=10 n=42 v=0
41752 On ch=10 n=42 v=35
41828 Off ch=10 n=42 v=0
41846 On ch=10 n=42 v=55
41927 Off ch=10 n=42 v=0
41940 On ch=10 n=42 v=85
42021 Off ch=10 n=42 v=0
42039 On ch=10 n=42 v=85
42119 Off ch=10 n=42 v=0
42231 On ch=10 n=42 v=75
42307 Off ch=10 n=42 v=0
42325 On ch=10 n=42 v=25
42401 Off ch=10 n=42 v=0
42424 On ch=10 n=42 v=75
42500 Off ch=10 n=42 v=0
42518 On ch=10 n=42 v=25
42599 Off ch=10 n=42 v=0
42612 On ch=10 n=42 v=75
42693 Off ch=10 n=42 v=0
42711 On ch=10 n=42 v=25
42787 Off ch=10 n=42 v=0
42809 On ch=10 n=42 v=75
42885 Off ch=10 n=42 v=0
42903 On ch=10 n=42 v=25
42979 Off ch=10 n=42 v=0
42997 On ch=10 n=42 v=75
43078 Off ch=10 n=42 v=0
43091 On ch=10 n=42 v=25
43172 Off ch=10 n=42 v=0
43190 On ch=10 n=42 v=75
43266 Off ch=10 n=42 v=0
43284 On ch=10 n=42 v=25
43365 Off ch=10 n=42 v=0
43383 On ch=10 n=42 v=75
43459 Off ch=10 n=42 v=0
43477 On ch=10 n=42 v=25
43553 Off ch=10 n=42 v=0
43575 On ch=10 n=42 v=75
43651 Off ch=10 n=42 v=0
43763 On ch=10 n=42 v=75
43844 Off ch=10 n=42 v=0
43857 On ch=10 n=42 v=25
43938 Off ch=10 n=42 v=0
43956 On ch=10 n=42 v=75
44032 Off ch=10 n=42 v=0
44050 On ch=10 n=42 v=25
44131 Off ch=10 n=42 v=0
44144 On ch=10 n=42 v=75
44225 Off ch=10 n=42 v=0
44243 On ch=10 n=42 v=25
44323 Off ch=10 n=42 v=0
44341 On ch=10 n=42 v=75
44417 Off ch=10 n=42 v=0
44435 On ch=10 n=42 v=25
44512 Off ch=10 n=42 v=0
44529 On ch=10 n=42 v=55
44610 Off ch=10 n=42 v=0
44628 On ch=10 n=42 v=35
44704 Off ch=10 n=42 v=0
44722 On ch=10 n=42 v=55
44803 Off ch=10 n=42 v=0
44821 On ch=10 n=42 v=35
44897 Off ch=10 n=42 v=0
44915 On ch=10 n=42 v=55
44991 Off ch=10 n=42 v=0
45009 On ch=10 n=42 v=85
45089 Off ch=10 n=42 v=0
45107 On ch=10 n=42 v=85
45184 Off ch=10 n=42 v=0
45296 On ch=10 n=42 v=75
45376 Off ch=10 n=42 v=0
45390 On ch=10 n=42 v=25
45470 Off ch=10 n=42 v=0
45488 On ch=10 n=42 v=75
45569 Off ch=10 n=42 v=0
45582 On ch=10 n=42 v=25
45663 Off ch=10 n=42 v=0
45681 On ch=10 n=42 v=75
45757 Off ch=10 n=42 v=0
45775 On ch=10 n=42 v=25
45856 Off ch=10 n=42 v=0
45873 On ch=10 n=42 v=75
45950 Off ch=10 n=42 v=0
45968 On ch=10 n=42 v=25
46048 Off ch=10 n=42 v=0
46062 On ch=10 n=42 v=75
46142 Off ch=10 n=42 v=0
46160 On ch=10 n=42 v=25
46236 Off ch=10 n=42 v=0
46259 On ch=10 n=42 v=75
46330 Off ch=10 n=42 v=0
46348 On ch=10 n=42 v=25
46429 Off ch=10 n=42 v=0
46447 On ch=10 n=42 v=75
46528 Off ch=10 n=42 v=0
46541 On ch=10 n=42 v=25
46622 Off ch=10 n=42 v=0
46640 On ch=10 n=42 v=75
46716 Off ch=10 n=42 v=0
46832 On ch=10 n=42 v=75
46908 Off ch=10 n=42 v=0
46926 On ch=10 n=42 v=25
47007 Off ch=10 n=42 v=0
47025 On ch=10 n=42 v=75
47101 Off ch=10 n=42 v=0
47119 On ch=10 n=42 v=25
47195 Off ch=10 n=42 v=0
47213 On ch=10 n=42 v=75
47294 Off ch=10 n=42 v=0
47312 On ch=10 n=42 v=25
47388 Off ch=10 n=42 v=0
47406 On ch=10 n=42 v=75
47486 Off ch=10 n=42 v=0
47504 On ch=10 n=42 v=25
47580 Off ch=10 n=42 v=0
47598 On ch=10 n=42 v=105
47674 Off ch=10 n=42 v=0
48122 On ch=10 n=42 v=25
48145 On ch=10 n=42 v=25
48145 Off ch=10 n=42 v=0
48203 Off ch=10 n=42 v=0
48364 On ch=10 n=42 v=75
48440 Off ch=10 n=42 v=0
48458 On ch=10 n=42 v=25
48535 Off ch=10 n=42 v=0
48557 On ch=10 n=42 v=75
48633 Off ch=10 n=42 v=0
48651 On ch=10 n=42 v=25
48732 Off ch=10 n=42 v=0
48745 On ch=10 n=42 v=75
48826 Off ch=10 n=42 v=0
48844 On ch=10 n=42 v=25
48920 Off ch=10 n=42 v=0
48942 On ch=10 n=42 v=75
49018 Off ch=10 n=42 v=0
49032 On ch=10 n=42 v=25
49112 Off ch=10 n=42 v=0
49130 On ch=10 n=42 v=75
49207 Off ch=10 n=42 v=0
49226 On ch=10 n=42 v=25
49303 Off ch=10 n=42 v=0
49325 On ch=10 n=42 v=75
49401 Off ch=10 n=42 v=0
49419 On ch=10 n=42 v=25
49500 Off ch=10 n=42 v=0
49513 On ch=10 n=42 v=75
49594 Off ch=10 n=42 v=0
49612 On ch=10 n=42 v=25
49688 Off ch=10 n=42 v=0
49710 On ch=10 n=42 v=75
49786 Off ch=10 n=42 v=0
49800 On ch=10 n=42 v=25
49880 Off ch=10 n=42 v=0
49898 On ch=10 n=42 v=75
49936 On ch=10 n=42 v=75
49975 Off ch=10 n=42 v=0
50012 Off ch=10 n=42 v=0
50030 On ch=10 n=42 v=25
50110 Off ch=10 n=42 v=0
50128 On ch=10 n=42 v=75
50204 Off ch=10 n=42 v=0
50222 On ch=10 n=42 v=25
50298 Off ch=10 n=42 v=0
50316 On ch=10 n=42 v=75
50397 Off ch=10 n=42 v=0
50410 On ch=10 n=42 v=25
50491 Off ch=10 n=42 v=0
50509 On ch=10 n=42 v=75
50590 Off ch=10 n=42 v=0
50603 On ch=10 n=42 v=25
50684 Off ch=10 n=42 v=0
50702 On ch=10 n=42 v=75
50778 Off ch=10 n=42 v=0
50796 On ch=10 n=42 v=25
50876 Off ch=10 n=42 v=0
50894 On ch=10 n=42 v=75
50970 Off ch=10 n=42 v=0
50988 On ch=10 n=42 v=25
51069 Off ch=10 n=42 v=0
51082 On ch=10 n=42 v=75
51163 Off ch=10 n=42 v=0
51181 On ch=10 n=42 v=25
51257 Off ch=10 n=42 v=0
51275 On ch=10 n=42 v=75
51351 Off ch=10 n=42 v=0
51468 On ch=10 n=42 v=75
51548 Off ch=10 n=42 v=0
51562 On ch=10 n=42 v=25
51642 Off ch=10 n=42 v=0
51660 On ch=10 n=42 v=75
51736 Off ch=10 n=42 v=0
51754 On ch=10 n=42 v=25
51835 Off ch=10 n=42 v=0
51848 On ch=10 n=42 v=75
51929 Off ch=10 n=42 v=0
51947 On ch=10 n=42 v=25
52023 Off ch=10 n=42 v=0
52046 On ch=10 n=42 v=75
52122 Off ch=10 n=42 v=0
52140 On ch=10 n=42 v=25
52216 Off ch=10 n=42 v=0
52234 On ch=10 n=42 v=75
52314 Off ch=10 n=42 v=0
52332 On ch=10 n=42 v=25
52408 Off ch=10 n=42 v=0
52426 On ch=10 n=42 v=75
52503 Off ch=10 n=42 v=0
52520 On ch=10 n=42 v=25
52601 Off ch=10 n=42 v=0
52619 On ch=10 n=42 v=75
52695 Off ch=10 n=42 v=0
52713 On ch=10 n=42 v=25
52794 Off ch=10 n=42 v=0
52812 On ch=10 n=42 v=75
52888 Off ch=10 n=42 v=0
53004 On ch=10 n=42 v=75
53080 Off ch=10 n=42 v=0
53094 On ch=10 n=42 v=25
53175 Off ch=10 n=42 v=0
53192 On ch=10 n=42 v=75
53273 Off ch=10 n=42 v=0
53287 On ch=10 n=42 v=25
53367 Off ch=10 n=42 v=0
53385 On ch=10 n=42 v=75
53461 Off ch=10 n=42 v=0
53479 On ch=10 n=42 v=25
53560 Off ch=10 n=42 v=0
53578 On ch=10 n=42 v=75
53654 Off ch=10 n=42 v=0
53672 On ch=10 n=42 v=25
53748 Off ch=10 n=42 v=0
53770 On ch=10 n=42 v=75
53847 Off ch=10 n=42 v=0
53864 On ch=10 n=42 v=25
53941 Off ch=10 n=42 v=0
53959 On ch=10 n=42 v=75
54039 Off ch=10 n=42 v=0
54057 On ch=10 n=42 v=25
54133 Off ch=10 n=42 v=0
54156 On ch=10 n=42 v=75
54227 Off ch=10 n=42 v=0
54250 On ch=10 n=42 v=25
54326 Off ch=10 n=42 v=0
54344 On ch=10 n=42 v=75
54420 Off ch=10 n=42 v=0
54532 On ch=10 n=42 v=75
54613 Off ch=10 n=42 v=0
54631 On ch=10 n=42 v=25
54707 Off ch=10 n=42 v=0
54725 On ch=10 n=42 v=75
54801 Off ch=10 n=42 v=0
54819 On ch=10 n=42 v=25
54899 Off ch=10 n=42 v=0
54917 On ch=10 n=42 v=75
54998 Off ch=10 n=42 v=0
55011 On ch=10 n=42 v=25
55092 Off ch=10 n=42 v=0
55110 On ch=10 n=42 v=75
55186 Off ch=10 n=42 v=0
55204 On ch=10 n=42 v=25
55285 Off ch=10 n=42 v=0
55303 On ch=10 n=42 v=75
55379 Off ch=10 n=42 v=0
55397 On ch=10 n=42 v=25
55473 Off ch=10 n=42 v=0
55491 On ch=10 n=42 v=55
55571 Off ch=10 n=42 v=0
55585 On ch=10 n=42 v=35
55665 Off ch=10 n=42 v=0
55683 On ch=10 n=42 v=55
55764 Off ch=10 n=42 v=0
55782 On ch=10 n=42 v=85
55858 Off ch=10 n=42 v=0
55872 On ch=10 n=42 v=85
55952 Off ch=10 n=42 v=0
56073 On ch=10 n=42 v=75
56145 Off ch=10 n=42 v=0
56163 On ch=10 n=42 v=25
56243 Off ch=10 n=42 v=0
56257 On ch=10 n=42 v=75
56337 Off ch=10 n=42 v=0
56355 On ch=10 n=42 v=25
56432 Off ch=10 n=42 v=0
56449 On ch=10 n=42 v=75
56526 Off ch=10 n=42 v=0
56548 On ch=10 n=42 v=25
56624 Off ch=10 n=42 v=0
56642 On ch=10 n=42 v=75
56723 Off ch=10 n=42 v=0
56741 On ch=10 n=42 v=25
56817 Off ch=10 n=42 v=0
56835 On ch=10 n=42 v=75
56911 Off ch=10 n=42 v=0
56929 On ch=10 n=42 v=25
57009 Off ch=10 n=42 v=0
57027 On ch=10 n=42 v=75
57104 Off ch=10 n=42 v=0
57121 On ch=10 n=42 v=25
57198 Off ch=10 n=42 v=0
57220 On ch=10 n=42 v=75
57296 Off ch=10 n=42 v=0
57314 On ch=10 n=42 v=25
57390 Off ch=10 n=42 v=0
57408 On ch=10 n=42 v=75
57489 Off ch=10 n=42 v=0
57601 On ch=10 n=42 v=75
57677 Off ch=10 n=42 v=0
57695 On ch=10 n=42 v=25
57776 Off ch=10 n=42 v=0
57789 On ch=10 n=42 v=75
57870 Off ch=10 n=42 v=0
57888 On ch=10 n=42 v=25
57968 Off ch=10 n=42 v=0
57982 On ch=10 n=42 v=75
58062 Off ch=10 n=42 v=0
58080 On ch=10 n=42 v=25
58156 Off ch=10 n=42 v=0
58174 On ch=10 n=42 v=85
58255 Off ch=10 n=42 v=0
58367 On ch=10 n=42 v=55
58448 Off ch=10 n=42 v=0
58461 On ch=10 n=42 v=35
58542 Off ch=10 n=42 v=0
58560 On ch=10 n=42 v=55
58636 Off ch=10 n=42 v=0
58654 On ch=10 n=42 v=35
58730 Off ch=10 n=42 v=0
58752 On ch=10 n=42 v=55
58828 Off ch=10 n=42 v=0
58846 On ch=10 n=42 v=85
58922 Off ch=10 n=42 v=0
58940 On ch=10 n=42 v=85
59021 Off ch=10 n=42 v=0
59142 On ch=10 n=42 v=75
59214 Off ch=10 n=42 v=0
59232 On ch=10 n=42 v=25
59308 Off ch=10 n=42 v=0
59326 On ch=10 n=42 v=75
59402 Off ch=10 n=42 v=0
59424 On ch=10 n=42 v=25
59500 Off ch=10 n=42 v=0
59514 On ch=10 n=42 v=75
59594 Off ch=10 n=42 v=0
59612 On ch=10 n=42 v=25
59693 Off ch=10 n=42 v=0
59706 On ch=10 n=42 v=75
59787 Off ch=10 n=42 v=0
59805 On ch=10 n=42 v=25
59881 Off ch=10 n=42 v=0
59904 On ch=10 n=42 v=75
59980 Off ch=10 n=42 v=0
59993 On ch=10 n=42 v=25
60074 Off ch=10 n=42 v=0
60092 On ch=10 n=42 v=75
60172 Off ch=10 n=42 v=0
60186 On ch=10 n=42 v=25
60266 Off ch=10 n=42 v=0
60284 On ch=10 n=42 v=75
60360 Off ch=10 n=42 v=0
60378 On ch=10 n=42 v=25
60459 Off ch=10 n=42 v=0
60477 On ch=10 n=42 v=75
60553 Off ch=10 n=42 v=0
60665 On ch=10 n=42 v=75
60746 Off ch=10 n=42 v=0
60764 On ch=10 n=42 v=25
60840 Off ch=10 n=42 v=0
60858 On ch=10 n=42 v=75
60938 Off ch=10 n=42 v=0
60956 On ch=10 n=42 v=25
61032 Off ch=10 n=42 v=0
61050 On ch=10 n=42 v=75
61127 Off ch=10 n=42 v=0
61144 On ch=10 n=42 v=25
61225 Off ch=10 n=42 v=0
61243 On ch=10 n=42 v=75
61319 Off ch=10 n=42 v=0
61337 On ch=10 n=42 v=25
61418 Off ch=10 n=42 v=0
61436 On ch=10 n=42 v=75
61512 Off ch=10 n=42 v=0
61530 On ch=10 n=42 v=25
61606 Off ch=10 n=42 v=0
61628 On ch=10 n=42 v=75
61704 Off ch=10 n=42 v=0
61722 On ch=10 n=42 v=25
61799 Off ch=10 n=42 v=0
61816 On ch=10 n=42 v=75
61897 Off ch=10 n=42 v=0
61915 On ch=10 n=42 v=25
61991 Off ch=10 n=42 v=0
62202 On ch=10 n=42 v=105
62278 Off ch=10 n=42 v=0
62726 On ch=10 n=42 v=25
62748 On ch=10 n=42 v=25
62748 Off ch=10 n=42 v=0
62802 Off ch=10 n=42 v=0
62968 On ch=10 n=42 v=75
63044 Off ch=10 n=42 v=0
63062 On ch=10 n=42 v=25
63143 Off ch=10 n=42 v=0
63160 On ch=10 n=42 v=75
63237 Off ch=10 n=42 v=0
63255 On ch=10 n=42 v=25
63331 Off ch=10 n=42 v=0
63349 On ch=10 n=42 v=75
63429 Off ch=10 n=42 v=0
63443 On ch=10 n=42 v=25
63523 Off ch=10 n=42 v=0
63546 On ch=10 n=42 v=75
63622 Off ch=10 n=42 v=0
63635 On ch=10 n=42 v=25
63716 Off ch=10 n=42 v=0
63734 On ch=10 n=42 v=75
63760 On ch=10 n=42 v=75
63810 Off ch=10 n=42 v=0
63836 Off ch=10 n=42 v=0
63854 On ch=10 n=42 v=25
63934 Off ch=10 n=42 v=0
63952 On ch=10 n=42 v=75
64028 Off ch=10 n=42 v=0
64046 On ch=10 n=42 v=25
64122 Off ch=10 n=42 v=0
64140 On ch=10 n=42 v=75
64221 Off ch=10 n=42 v=0
64234 On ch=10 n=42 v=25
64315 Off ch=10 n=42 v=0
64333 On ch=10 n=42 v=75
64414 Off ch=10 n=42 v=0
64427 On ch=10 n=42 v=25
64508 Off ch=10 n=42 v=0
64526 On ch=10 n=42 v=75
64602 Off ch=10 n=42 v=0
64620 On ch=10 n=42 v=25
64700 Off ch=10 n=42 v=0
64718 On ch=10 n=42 v=75
64794 Off ch=10 n=42 v=0
64812 On ch=10 n=42 v=25
64893 Off ch=10 n=42 v=0
64906 On ch=10 n=42 v=75
64987 Off ch=10 n=42 v=0
65005 On ch=10 n=42 v=25
65081 Off ch=10 n=42 v=0
65099 On ch=10 n=42 v=75
65175 Off ch=10 n=42 v=0
65292 On ch=10 n=42 v=75
65372 Off ch=10 n=42 v=0
65386 On ch=10 n=42 v=25
65466 Off ch=10 n=42 v=0
65484 On ch=10 n=42 v=75
65560 Off ch=10 n=42 v=0
65578 On ch=10 n=42 v=25
65659 Off ch=10 n=42 v=0
65672 On ch=10 n=42 v=75
65753 Off ch=10 n=42 v=0
65771 On ch=10 n=42 v=25
65847 Off ch=10 n=42 v=0
65870 On ch=10 n=42 v=75
65946 Off ch=10 n=42 v=0
65964 On ch=10 n=42 v=25
66040 Off ch=10 n=42 v=0
66058 On ch=10 n=42 v=75
66138 Off ch=10 n=42 v=0
66156 On ch=10 n=42 v=25
66232 Off ch=10 n=42 v=0
66250 On ch=10 n=42 v=75
66327 Off ch=10 n=42 v=0
66344 On ch=10 n=42 v=25
66425 Off ch=10 n=42 v=0
66443 On ch=10 n=42 v=75
66519 Off ch=10 n=42 v=0
66537 On ch=10 n=42 v=25
66618 Off ch=10 n=42 v=0
66636 On ch=10 n=42 v=75
66712 Off ch=10 n=42 v=0
66828 On ch=10 n=42 v=75
66904 Off ch=10 n=42 v=0
66918 On ch=10 n=42 v=25
66999 Off ch=10 n=42 v=0
67016 On ch=10 n=42 v=75
67097 Off ch=10 n=42 v=0
67111 On ch=10 n=42 v=25
67191 Off ch=10 n=42 v=0
67209 On ch=10 n=42 v=75
67285 Off ch=10 n=42 v=0
67303 On ch=10 n=42 v=25
67384 Off ch=10 n=42 v=0
67402 On ch=10 n=42 v=75
67478 Off ch=10 n=42 v=0
67496 On ch=10 n=42 v=25
67572 Off ch=10 n=42 v=0
67594 On ch=10 n=42 v=75
67671 Off ch=10 n=42 v=0
67688 On ch=10 n=42 v=25
67765 Off ch=10 n=42 v=0
67783 On ch=10 n=42 v=75
67863 Off ch=10 n=42 v=0
67881 On ch=10 n=42 v=25
67957 Off ch=10 n=42 v=0
67980 On ch=10 n=42 v=75
68051 Off ch=10 n=42 v=0
68074 On ch=10 n=42 v=25
68150 Off ch=10 n=42 v=0
68168 On ch=10 n=42 v=75
68244 Off ch=10 n=42 v=0
68356 On ch=10 n=42 v=75
68437 Off ch=10 n=42 v=0
68455 On ch=10 n=42 v=25
68531 Off ch=10 n=42 v=0
68549 On ch=10 n=42 v=75
68625 Off ch=10 n=42 v=0
68643 On ch=10 n=42 v=25
68723 Off ch=10 n=42 v=0
68741 On ch=10 n=42 v=75
68822 Off ch=10 n=42 v=0
68835 On ch=10 n=42 v=25
68916 Off ch=10 n=42 v=0
68934 On ch=10 n=42 v=75
69010 Off ch=10 n=42 v=0
69028 On ch=10 n=42 v=25
69109 Off ch=10 n=42 v=0
69127 On ch=10 n=42 v=75
69203 Off ch=10 n=42 v=0
69221 On ch=10 n=42 v=25
69297 Off ch=10 n=42 v=0
69315 On ch=10 n=42 v=55
69395 Off ch=10 n=42 v=0
69409 On ch=10 n=42 v=35
69489 Off ch=10 n=42 v=0
69507 On ch=10 n=42 v=55
69588 Off ch=10 n=42 v=0
69606 On ch=10 n=42 v=85
69682 Off ch=10 n=42 v=0
69696 On ch=10 n=42 v=85
69776 Off ch=10 n=42 v=0
69897 On ch=10 n=42 v=75
69969 Off ch=10 n=42 v=0
69987 On ch=10 n=42 v=25
70067 Off ch=10 n=42 v=0
70081 On ch=10 n=42 v=75
70161 Off ch=10 n=42 v=0
70179 On ch=10 n=42 v=25
70256 Off ch=10 n=42 v=0
70273 On ch=10 n=42 v=75
70350 Off ch=10 n=42 v=0
70372 On ch=10 n=42 v=25
70448 Off ch=10 n=42 v=0
70466 On ch=10 n=42 v=75
70547 Off ch=10 n=42 v=0
70565 On ch=10 n=42 v=25
70641 Off ch=10 n=42 v=0
70659 On ch=10 n=42 v=75
70735 Off ch=10 n=42 v=0
70753 On ch=10 n=42 v=25
70833 Off ch=10 n=42 v=0
70851 On ch=10 n=42 v=75
70928 Off ch=10 n=42 v=0
70945 On ch=10 n=42 v=25
71022 Off ch=10 n=42 v=0
71044 On ch=10 n=42 v=75
71120 Off ch=10 n=42 v=0
71138 On ch=10 n=42 v=25
71214 Off ch=10 n=42 v=0
71232 On ch=10 n=42 v=75
71313 Off ch=10 n=42 v=0
71425 On ch=10 n=42 v=75
71501 Off ch=10 n=42 v=0
71519 On ch=10 n=42 v=25
71600 Off ch=10 n=42 v=0
71613 On ch=10 n=42 v=75
71694 Off ch=10 n=42 v=0
71712 On ch=10 n=42 v=25
71792 Off ch=10 n=42 v=0
71806 On ch=10 n=42 v=75
71886 Off ch=10 n=42 v=0
71904 On ch=10 n=42 v=25
71980 Off ch=10 n=42 v=0
71998 On ch=10 n=42 v=85
72079 Off ch=10 n=42 v=0
72191 On ch=10 n=42 v=55
72272 Off ch=10 n=42 v=0
72285 On ch=10 n=42 v=35
72366 Off ch=10 n=42 v=0
72384 On ch=10 n=42 v=55
72460 Off ch=10 n=42 v=0
72478 On ch=10 n=42 v=35
72554 Off ch=10 n=42 v=0
72576 On ch=10 n=42 v=55
72652 Off ch=10 n=42 v=0
72670 On ch=10 n=42 v=85
72746 Off ch=10 n=42 v=0
72764 On ch=10 n=42 v=85
72845 Off ch=10 n=42 v=0
72966 On ch=10 n=42 v=75
73038 Off ch=10 n=42 v=0
73056 On ch=10 n=42 v=25
73132 Off ch=10 n=42 v=0
73150 On ch=10 n=42 v=75
73226 Off ch=10 n=42 v=0
73248 On ch=10 n=42 v=25
73324 Off ch=10 n=42 v=0
73338 On ch=10 n=42 v=75
73418 Off ch=10 n=42 v=0
73436 On ch=10 n=42 v=25
73517 Off ch=10 n=42 v=0
73530 On ch=10 n=42 v=75
73611 Off ch=10 n=42 v=0
73629 On ch=10 n=42 v=25
73705 Off ch=10 n=42 v=0
73728 On ch=10 n=42 v=75
73804 Off ch=10 n=42 v=0
73817 On ch=10 n=42 v=25
73898 Off ch=10 n=42 v=0
73916 On ch=10 n=42 v=75
73996 Off ch=10 n=42 v=0
74010 On ch=10 n=42 v=25
74090 Off ch=10 n=42 v=0
74108 On ch=10 n=42 v=75
74184 Off ch=10 n=42 v=0
74202 On ch=10 n=42 v=25
74283 Off ch=10 n=42 v=0
74301 On ch=10 n=42 v=75
74377 Off ch=10 n=42 v=0
74489 On ch=10 n=42 v=75
74570 Off ch=10 n=42 v=0
74588 On ch=10 n=42 v=25
74664 Off ch=10 n=42 v=0
74682 On ch=10 n=42 v=75
74762 Off ch=10 n=42 v=0
74780 On ch=10 n=42 v=25
74856 Off ch=10 n=42 v=0
74874 On ch=10 n=42 v=75
74951 Off ch=10 n=42 v=0
74968 On ch=10 n=42 v=25
75049 Off ch=10 n=42 v=0
75067 On ch=10 n=42 v=75
75143 Off ch=10 n=42 v=0
75161 On ch=10 n=42 v=25
75242 Off ch=10 n=42 v=0
75260 On ch=10 n=42 v=75
75336 Off ch=10 n=42 v=0
75354 On ch=10 n=42 v=25
75430 Off ch=10 n=42 v=0
75452 On ch=10 n=42 v=75
75528 Off ch=10 n=42 v=0
75546 On ch=10 n=42 v=25
75623 Off ch=10 n=42 v=0
75640 On ch=10 n=42 v=75
75721 Off ch=10 n=42 v=0
75739 On ch=10 n=42 v=25
75815 Off ch=10 n=42 v=0
76026 On ch=10 n=42 v=105
76102 Off ch=10 n=42 v=0
76550 On ch=10 n=42 v=25
76572 On ch=10 n=42 v=25
76572 Off ch=10 n=42 v=0
76626 Off ch=10 n=42 v=0
76792 On ch=10 n=42 v=75
76868 Off ch=10 n=42 v=0
76886 On ch=10 n=42 v=25
76967 Off ch=10 n=42 v=0
76984 On ch=10 n=42 v=75
77061 Off ch=10 n=42 v=0
77079 On ch=10 n=42 v=25
77155 Off ch=10 n=42 v=0
77173 On ch=10 n=42 v=75
77253 Off ch=10 n=42 v=0
77267 On ch=10 n=42 v=25
77347 Off ch=10 n=42 v=0
77370 On ch=10 n=42 v=75
77446 Off ch=10 n=42 v=0
77459 On ch=10 n=42 v=25
77540 Off ch=10 n=42 v=0
77558 On ch=10 n=42 v=75
77634 Off ch=10 n=42 v=0
77634 SeqSpec 24 24 00 08 00 00 00 00 00 01 31 ff 00 01 32 00
77634 SeqSpec 24 24 00 01 05
77634 SeqSpec 24 24 00 06 04 04
77634 SeqSpec 24 24 00 02 09
78336 Meta TrkEnd
TrkEnd
MTrk
0 SeqNr 14
0 Meta TrkName "59 HiHatOpen"
2990 On ch=10 n=44 v=70
3066 Off ch=10 n=44 v=0
4522 On ch=10 n=44 v=70
4598 Off ch=10 n=44 v=0
6054 On ch=10 n=44 v=70
6135 Off ch=10 n=44 v=0
7586 On ch=10 n=44 v=60
7667 Off ch=10 n=44 v=0
9118 On ch=10 n=44 v=70
9199 Off ch=10 n=44 v=0
9884 On ch=10 n=44 v=60
9965 Off ch=10 n=44 v=0
10655 On ch=10 n=44 v=60
10731 Off ch=10 n=44 v=0
12187 On ch=10 n=44 v=70
12263 Off ch=10 n=44 v=0
16022 On ch=10 n=44 v=70
16098 Off ch=10 n=44 v=0
17570 On ch=10 n=44 v=70
17646 Off ch=10 n=44 v=0
19102 On ch=10 n=44 v=70
19178 Off ch=10 n=44 v=0
20634 On ch=10 n=44 v=70
20715 Off ch=10 n=44 v=0
22167 On ch=10 n=44 v=70
22247 Off ch=10 n=44 v=0
22933 On ch=10 n=44 v=60
23013 Off ch=10 n=44 v=0
24465 On ch=10 n=44 v=70
24545 Off ch=10 n=44 v=0
26001 On ch=10 n=44 v=60
26078 Off ch=10 n=44 v=0
27534 On ch=10 n=44 v=70
27614 Off ch=10 n=44 v=0
30602 On ch=10 n=44 v=70
30679 Off ch=10 n=44 v=0
32135 On ch=10 n=44 v=70
32211 Off ch=10 n=44 v=0
32903 On ch=10 n=44 v=70
32979 Off ch=10 n=44 v=0
33671 On ch=10 n=44 v=70
33747 Off ch=10 n=44 v=0
34439 On ch=10 n=44 v=70
34515 Off ch=10 n=44 v=0
35207 On ch=10 n=44 v=70
35283 Off ch=10 n=44 v=0
36770 On ch=10 n=44 v=70
36846 Off ch=10 n=44 v=0
38302 On ch=10 n=44 v=70
38378 Off ch=10 n=44 v=0
39834 On ch=10 n=44 v=70
39915 Off ch=10 n=44 v=0
41367 On ch=10 n=44 v=70
41447 Off ch=10 n=44 v=0
42133 On ch=10 n=44 v=60
42213 Off ch=10 n=44 v=0
43665 On ch=10 n=44 v=70
43745 Off ch=10 n=44 v=0
45201 On ch=10 n=44 v=60
45278 Off ch=10 n=44 v=0
46734 On ch=10 n=44 v=70
46814 Off ch=10 n=44 v=0
51374 On ch=10 n=44 v=70
51450 Off ch=10 n=44 v=0
52906 On ch=10 n=44 v=70
52982 Off ch=10 n=44 v=0
54438 On ch=10 n=44 v=70
54519 Off ch=10 n=44 v=0
55970 On ch=10 n=44 v=60
56051 Off ch=10 n=44 v=0
57502 On ch=10 n=44 v=70
57583 Off ch=10 n=44 v=0
58268 On ch=10 n=44 v=60
58349 Off ch=10 n=44 v=0
59039 On ch=10 n=44 v=60
59115 Off ch=10 n=44 v=0
60571 On ch=10 n=44 v=70
60647 Off ch=10 n=44 v=0
65198 On ch=10 n=44 v=70
65274 Off ch=10 n=44 v=0
66730 On ch=10 n=44 v=70
66806 Off ch=10 n=44 v=0
68262 On ch=10 n=44 v=70
68343 Off ch=10 n=44 v=0
69794 On ch=10 n=44 v=60
69875 Off ch=10 n=44 v=0
71326 On ch=10 n=44 v=70
71407 Off ch=10 n=44 v=0
72092 On ch=10 n=44 v=60
72173 Off ch=10 n=44 v=0
72863 On ch=10 n=44 v=60
72939 Off ch=10 n=44 v=0
74395 On ch=10 n=44 v=70
74471 Off ch=10 n=44 v=0
74471 SeqSpec 24 24 00 08 00 00 00 00 00 01 22 ff 00 01 23 00
74471 SeqSpec 24 24 00 01 05
74471 SeqSpec 24 24 00 06 04 04
74471 SeqSpec 24 24 00 02 09
74496 Meta TrkEnd
TrkEnd
MTrk
0 SeqNr 15
0 Meta TrkName "50 TomMid2"
50688 On ch=5 n=50 v=64
50760 Off ch=5 n=50 v=0
50966 On ch=5 n=50 v=64
51033 Off ch=5 n=50 v=0
51456 On ch=5 n=50 v=64
51514 Off ch=5 n=50 v=0
51736 On ch=5 n=50 v=64
51785 Off ch=5 n=50 v=0
52229 On ch=5 n=50 v=64
52265 Off ch=5 n=50 v=0
52512 On ch=5 n=50 v=64
52556 Off ch=5 n=50 v=0
52992 On ch=5 n=50 v=64
53042 Off ch=5 n=50 v=0
53278 On ch=5 n=50 v=64
53313 Off ch=5 n=50 v=0
53761 On ch=5 n=50 v=64
53802 Off ch=5 n=50 v=0
54039 On ch=5 n=50 v=64
54084 Off ch=5 n=50 v=0
54528 On ch=5 n=50 v=64
54568 Off ch=5 n=50 v=0
54816 On ch=5 n=50 v=64
54866 Off ch=5 n=50 v=0
55296 On ch=5 n=50 v=64
55350 Off ch=5 n=50 v=0
55603 On ch=5 n=50 v=64
55648 Off ch=5 n=50 v=0
56064 On ch=5 n=50 v=64
56109 Off ch=5 n=50 v=0
56352 On ch=5 n=50 v=64
56397 Off ch=5 n=50 v=0
56544 On ch=5 n=50 v=64
56571 Off ch=5 n=50 v=0
56640 On ch=5 n=50 v=64
56676 Off ch=5 n=50 v=0
56784 On ch=5 n=50 v=64
56802 Off ch=5 n=50 v=0
56832 On ch=5 n=50 v=64
56859 Off ch=5 n=50 v=0
57216 On ch=5 n=50 v=64
57248 Off ch=5 n=50 v=0
57608 On ch=5 n=50 v=64
57621 Off ch=5 n=50 v=0
57696 On ch=5 n=50 v=64
57705 Off ch=5 n=50 v=0
57888 On ch=5 n=50 v=64
57901 Off ch=5 n=50 v=0
58380 On ch=5 n=50 v=64
58411 Off ch=5 n=50 v=0
58752 On ch=5 n=50 v=64
58784 Off ch=5 n=50 v=0
59136 On ch=5 n=50 v=64
59163 Off ch=5 n=50 v=0
59232 On ch=5 n=50 v=64
59259 Off ch=5 n=50 v=0
59416 On ch=5 n=50 v=64
59439 Off ch=5 n=50 v=0
59898 On ch=5 n=50 v=64
59934 Off ch=5 n=50 v=0
60288 On ch=5 n=50 v=64
60314 Off ch=5 n=50 v=0
60672 On ch=5 n=50 v=64
60703 Off ch=5 n=50 v=0
60768 On ch=5 n=50 v=64
60790 Off ch=5 n=50 v=0
60960 On ch=5 n=50 v=64
60987 Off ch=5 n=50 v=0
61440 On ch=5 n=50 v=64
61480 Off ch=5 n=50 v=0
61816 On ch=5 n=50 v=64
61856 Off ch=5 n=50 v=0
62210 On ch=5 n=50 v=64
62232 Off ch=5 n=50 v=0
62304 On ch=5 n=50 v=64
62340 Off ch=5 n=50 v=0
62533 On ch=5 n=50 v=64
62568 Off ch=5 n=50 v=0
62568 SeqSpec 24 24 00 08 00 00 00 00 00 00 f5 ff 00 00 00 00
62568 SeqSpec 24 24 00 01 05
62568 SeqSpec 24 24 00 06 04 04
62568 SeqSpec 24 24 00 02 04
62976 Meta TrkEnd
TrkEnd
MTrk
0 SeqNr 30583
0 Meta TrkName "Sequencer24-S"
0 SeqSpec 24 24 00 10
0 SeqSpec 24 24 00 03
0 SeqSpec 24 24 00 05 00 20 00 00 00 00 00 00 00 00 00 00 00 00 00\
	00 00 00 00 00 00 00 00 00 00 00 00 00 00 00 00 00 00 00 00 00 00 00\
	00 00 00 00 00 00 00 00 00 00 00 00 00 00 00 00 00 00 00 00 00 00 00\
	00 00 00 00 00
0 SeqSpec 24 24 00 07 00 00 00 82
0 SeqSpec 24 24 00 09 00 00 04 00 00 00 00 00 00 00 00 00 00 00 00\
	00 00 00 00 00 00 00 00 00 00 00 00 00 00 00 00 00 00 00 00 00 00 00\
	00 00 00 00 00 00 00 00 00 00 00 00 00 00 00 00 00 00 00 00 00 00 00\
	00 00 00 00 00 00 00 00 00 00 00 00 00 00 00 00 00 00 00 00 00 00 00\
	00 00 00 00 00 00 00 00 00 00 00 00 00 00 00 00 00 00 00 00 00 00 00\
	00 00 00 00 00 00 00 00 00 00 00 00 00 00 00 00 00 00 00 00 00 00 00\
	00 00 00 00 00 00 00 00 00 01 00 00 00 00 00 00 00 00 00 00 00 00 00\
	00 00 00 00 00 00 00 00 00 00 00 00 00 00 00 00 00 00 00 00 00 00 00\
	00 00 00 00 00 00 00 00 00 00 00 00 00 00 00 00 00 00 00 00 00 00 00\
	00 00 00 00 00 00 00 00 00 00 00 00 00 00 00 00 00 00 00 00 00 00 00\
	00 00 00 00 00 00 00 00 00 00 00 00 00 00 00 00 00 00 00 00 00 00 00\
	00 00 00 00 00 00 00 00 00 00 00 00 00 00 00 00 00 00 00 00 00 00 00\
	00 00 00 02 00 00 00 00 00 00 00 00 00 00 00 00 00 00 00 00 00 00 00\
	00 00 00 00 00 00 00 00 00 00 00 00 00 00 00 00 00 00 00 00 00 00 00\
	00 00 00 00 00 00 00 00 00 00 00 00 00 00 00 00 00 00 00 00 00 00 00\
	00 00 00 00 00 00 00 00 00 00 00 00 00 00 00 00 00 00 00 00 00 00 00\
	00 00 00 00 00 00 00 00 00 00 00 00 00 00 00 00 00 00 00 00 00 00 00\
	00 00 00 00 00 00 00 00 00 00 00 00 00 00 00 00 00 00 00 00 03 00 00\
	00 00 00 00 00 00 00 00 00 00 00 00 00 00 00 00 00 00 00 00 00 00 00\
	00 00 00 00 00 00 00 00 00 00 00 00 00 00 00 00 00 00 00 00 00 00 00\
	00 00 00 00 00 00 00 00 00 00 00 00 00 00 00 00 00 00 00 00 00 00 00\
	00 00 00 00 00 00 00 00 00 00 00 00 00 00 00 00 00 00 00 00 00 00 00\
	00 00 00 00 00 00 00 00 00 00 00 00 00 00 00 00 00 00 00 00 00 00 00\
	00 00 00 00 00 00 00 00 00 00 00 00 00 00 04 00 00 00 00 00 00 00 00\
	00 00 00 00 00 00 00 00 00 00 00 00 00 00 00 00 00 00 00 00 00 00 00\
	00 00 00 00 00 00 00 00 00 00 00 00 00 00 00 00 00 00 00 00 00 00 00\
	00 00 00 00 00 00 00 00 00 00 00 00 00 00 00 00 00 00 00 00 00 00 00\
	00 00 00 00 00 00 00 00 00 00 00 00 00 00 00 00 00 00 00 00 00 00 00\
	00 00 00 00 00 00 00 00 00 00 00 00 00 00 00 00 00 00 00 00 00 00 00\
	00 00 00 00 00 00 00 00 05 00 00 00 00 00 00 00 00 00 00 00 00 00 00\
	00 00 00 00 00 00 00 00 00 00 00 00 00 00 00 00 00 00 00 00 00 00 00\
	00 00 00 00 00 00 00 00 00 00 00 00 00 00 00 00 00 00 00 00 00 00 00\
	00 00 00 00 00 00 00 00 00 00 00 00 00 00 00 00 00 00 00 00 00 00 00\
	00 00 00 00 00 00 00 00 00 00 00 00 00 00 00 00 00 00 00 00 00 00 00\
	00 00 00 00 00 00 00 00 00 00 00 00 00 00 00 00 00 00 00 00 00 00 00\
	00 00 06 00 00 00 00 00 00 00 00 00 00 00 00 00 00 00 00 00 00 00 00\
	00 00 00 00 00 00 00 00 00 00 00 00 00 00 00 00 00 00 00 00 00 00 00\
	00 00 00 00 00 00 00 00 00 00 00 00 00 00 00 00 00 00 00 00 00 00 00\
	00 00 00 00 00 00 00 00 00 00 00 00 00 00 00 00 00 00 00 00 00 00 00\
	00 00 00 00 00 00 00 00 00 00 00 00 00 00 00 00 00 00 00 00 00 00 00\
	00 00 00 00 00 00 00 00 00 00 00 00 00 00 00 00 00 00 00 07 00 00 00\
	00 00 00 00 00 00 00 00 00 00 00 00 00 00 00 00 00 00 00 00 00 00 00\
	00 00 00 00 00 00 00 00 00 00 00 00 00 00 00 00 00 00 00 00 00 00 00\
	00 00 00 00 00 00 00 00 00 00 00 00 00 00 00 00 00 00 00 00 00 00 00\
	00 00 00 00 00 00 00 00 00 00 00 00 00 00 00 00 00 00 00 00 00 00 00\
	00 00 00 00 00 00 00 00 00 00 00 00 00 00 00 00 00 00 00 00 00 00 00\
	00 00 00 00 00 00 00 00 00 00 00 00 00 08 00 00 00 00 00 00 00 00 00\
	00 00 00 00 00 00 00 00 00 00 00 00 00 00 00 00 00 00 00 00 00 00 00\
	00 00 00 00 00 00 00 00 00 00 00 00 00 00 00 00 00 00 00 00 00 00 00\
	00 00 00 00 00 00 00 00 00 00 00 00 00 00 00 00 00 00 00 00 00 00 00\
	00 00 00 00 00 00 00 00 00 00 00 00 00 00 00 00 00 00 00 00 00 00 00\
	00 00 00 00 00 00 00 00 00 00 00 00 00 00 00 00 00 00 00 00 00 00 00\
	00 00 00 00 00 00 00 09 00 00 00 00 00 00 00 00 00 00 00 00 00 00 00\
	00 00 00 00 00 00 00 00 00 00 00 00 00 00 00 00 00 00 00 00 00 00 00\
	00 00 00 00 00 00 00 00 00 00 00 00 00 00 00 00 00 00 00 00 00 00 00\
	00 00 00 00 00 00 00 00 00 00 00 00 00 00 00 00 00 00 00 00 00 00 00\
	00 00 00 00 00 00 00 00 00 00 00 00 00 00 00 00 00 00 00 00 00 00 00\
	00 00 00 00 00 00 00 00 00 00 00 00 00 00 00 00 00 00 00 00 00 00 00\
	00 0a 00 00 00 00 00 00 00 00 00 00 00 00 00 00 00 00 00 00 00 00 00\
	00 00 00 00 00 00 00 00 00 00 00 00 00 00 00 00 00 00 00 00 00 00 00\
	00 00 00 00 00 00 00 00 00 00 00 00 00 00 00 00 00 00 00 00 00 00 00\
	00 00 00 00 00 00 00 00 00 00 00 00 00 00 00 00 00 00 00 00 00 00 00\
	00 00 00 00 00 00 00 00 00 00 00 00 00 00 00 00 00 00 00 00 00 00 00\
	00 00 00 00 00 00 00 00 00 00 00 00 00 00 00 00 00 00 0b 00 00 00 00\
	00 00 00 00 00 00 00 00 00 00 00 00 00 00 00 00 00 00 00 00 00 00 00\
	00 00 00 00 00 00 00 00 00 00 00 00 00 00 00 00 00 00 00 00 00 00 00\
	00 00 00 00 00 00 00 00 00 00 00 00 00 00 00 00 00 00 00 00 00 00 00\
	00 00 00 00 00 00 00 00 00 00 00 00 00 00 00 00 00 00 00 00 00 00 00\
	00 00 00 00 00 00 00 00 00 00 00 00 00 00 00 00 00 00 00 00 00 00 00\
	00 00 00 00 00 00 00 00 00 00 00 00 0c 00 00 00 00 00 00 00 00 00 00\
	00 00 00 00 00 00 00 00 00 00 00 00 00 00 00 00 00 00 00 00 00 00 00\
	00 00 00 00 00 00 00 00 00 00 00 00 00 00 00 00 00 00 00 00 00 00 00\
	00 00 00 00 00 00 00 00 00 00 00 00 00 00 00 00 00 00 00 00 00 00 00\
	00 00 00 00 00 00 00 00 00 00 00 00 00 00 00 00 00 00 00 00 00 00 00\
	00 00 00 00 00 00 00 00 00 00 00 00 00 00 00 00 00 00 00 00 00 00 00\
	00 00 00 00 00 00 0d 00 00 00 00 00 00 00 00 00 00 00 00 00 00 00 00\
	00 00 00 00 00 00 00 00 00 00 00 00 00 00 00 00 00 00 00 00 00 00 00\
	00 00 00 00 00 00 00 00 00 00 00 00 00 00 00 00 00 00 00 00 00 00 00\
	00 00 00 00 00 00 00 00 00 00 00 00 00 00 00 00 00 00 00 00 00 00 00\
	00 00 00 00 00 00 00 00 00 00 00 00 00 00 00 00 00 00 00 00 00 00 00\
	00 00 00 00 00 00 00 00 00 00 00 00 00 00 00 00 00 00 00 00 00 00 00\
	0e 00 00 00 00 00 00 00 00 00 00 00 00 00 00 00 00 00 00 00 00 00 00\
	00 00 00 00 00 00 00 00 00 00 00 00 00 00 00 00 00 00 00 00 00 00 00\
	00 00 00 00 00 00 00 00 00 00 00 00 00 00 00 00 00 00 00 00 00 00 00\
	00 00 00 00 00 00 00 00 00 00 00 00 00 00 00 00 00 00 00 00 00 00 00\
	00 00 00 00 00 00 00 00 00 00 00 00 00 00 00 00 00 00 00 00 00 00 00\
	00 00 00 00 00 00 00 00 00 00 00 00 00 00 00 00 00 0f 00 00 00 00 00\
	00 00 00 00 00 00 00 00 00 00 00 00 00 00 00 00 00 00 00 00 00 00 00\
	00 00 00 00 00 00 00 00 00 00 00 00 00 00 00 00 00 00 00 00 00 00 00\
	00 00 00 00 00 00 00 00 00 00 00 00 00 00 00 00 00 00 00 00 00 00 00\
	00 00 00 00 00 00 00 00 00 00 00 00 00 00 00 00 00 00 00 00 00 00 00\
	00 00 00 00 00 00 00 00 00 00 00 00 00 00 00 00 00 00 00 00 00 00 00\
	00 00 00 00 00 00 00 00 00 00 00 10 00 00 00 00 00 00 00 00 00 00 00\
	00 00 00 00 00 00 00 00 00 00 00 00 00 00 00 00 00 00 00 00 00 00 00\
	00 00 00 00 00 00 00 00 00 00 00 00 00 00 00 00 00 00 00 00 00 00 00\
	00 00 00 00 00 00 00 00 00 00 00 00 00 00 00 00 00 00 00 00 00 00 00\
	00 00 00 00 00 00 00 00 00 00 00 00 00 00 00 00 00 00 00 00 00 00 00\
	00 00 00 00 00 00 00 00 00 00 00 00 00 00 00 00 00 00 00 00 00 00 00\
	00 00 00 00 00 11 00 00 00 00 00 00 00 00 00 00 00 00 00 00 00 00 00\
	00 00 00 00 00 00 00 00 00 00 00 00 00 00 00 00 00 00 00 00 00 00 00\
	00 00 00 00 00 00 00 00 00 00 00 00 00 00 00 00 00 00 00 00 00 00 00\
	00 00 00 00 00 00 00 00 00 00 00 00 00 00 00 00 00 00 00 00 00 00 00\
	00 00 00 00 00 00 00 00 00 00 00 00 00 00 00 00 00 00 00 00 00 00 00\
	00 00 00 00 00 00 00 00 00 00 00 00 00 00 00 00 00 00 00 00 00 00 12\
	00 00 00 00 00 00 00 00 00 00 00 00 00 00 00 00 00 00 00 00 00 00 00\
	00 00 00 00 00 00 00 00 00 00 00 00 00 00 00 00 00 00 00 00 00 00 00\
	00 00 00 00 00 00 00 00 00 00 00 00 00 00 00 00 00 00 00 00 00 00 00\
	00 00 00 00 00 00 00 00 00 00 00 00 00 00 00 00 00 00 00 00 00 00 00\
	00 00 00 00 00 00 00 00 00 00 00 00 00 00 00 00 00 00 00 00 00 00 00\
	00 00 00 00 00 00 00 00 00 00 00 00 00 00 00 00 13 00 00 00 00 00 00\
	00 00 00 00 00 00 00 00 00 00 00 00 00 00 00 00 00 00 00 00 00 00 00\
	00 00 00 00 00 00 00 00 00 00 00 00 00 00 00 00 00 00 00 00 00 00 00\
	00 00 00 00 00 00 00 00 00 00 00 00 00 00 00 00 00 00 00 00 00 00 00\
	00 00 00 00 00 00 00 00 00 00 00 00 00 00 00 00 00 00 00 00 00 00 00\
	00 00 00 00 00 00 00 00 00 00 00 00 00 00 00 00 00 00 00 00 00 00 00\
	00 00 00 00 00 00 00 00 00 00 14 00 00 00 00 00 00 00 00 00 00 00 00\
	00 00 00 00 00 00 00 00 00 00 00 00 00 00 00 00 00 00 00 00 00 00 00\
	00 00 00 00 00 00 00 00 00 00 00 00 00 00 00 00 00 00 00 00 00 00 00\
	00 00 00 00 00 00 00 00 00 00 00 00 00 00 00 00 00 00 00 00 00 00 00\
	00 00 00 00 00 00 00 00 00 00 00 00 00 00 00 00 00 00 00 00 00 00 00\
	00 00 00 00 00 00 00 00 00 00 00 00 00 00 00 00 00 00 00 00 00 00 00\
	00 00 00 00 15 00 00 00 00 00 00 00 00 00 00 00 00 00 00 00 00 00 00\
	00 00 00 00 00 00 00 00 00 00 00 00 00 00 00 00 00 00 00 00 00 00 00\
	00 00 00 00 00 00 00 00 00 00 00 00 00 00 00 00 00 00 00 00 00 00 00\
	00 00 00 00 00 00 00 00 00 00 00 00 00 00 00 00 00 00 00 00 00 00 00\
	00 00 00 00 00 00 00 00 00 00 00 00 00 00 00 00 00 00 00 00 00 00 00\
	00 00 00 00 00 00 00 00 00 00 00 00 00 00 00 00 00 00 00 00 00 16 00\
	00 00 00 00 00 00 00 00 00 00 00 00 00 00 00 00 00 00 00 00 00 00 00\
	00 00 00 00 00 00 00 00 00 00 00 00 00 00 00 00 00 00 00 00 00 00 00\
	00 00 00 00 00 00 00 00 00 00 00 00 00 00 00 00 00 00 00 00 00 00 00\
	00 00 00 00 00 00 00 00 00 00 00 00 00 00 00 00 00 00 00 00 00 00 00\
	00 00 00 00 00 00 00 00 00 00 00 00 00 00 00 00 00 00 00 00 00 00 00\
	00 00 00 00 00 00 00 00 00 00 00 00 00 00 00 17 00 00 00 00 00 00 00\
	00 00 00 00 00 00 00 00 00 00 00 00 00 00 00 00 00 00 00 00 00 00 00\
	00 00 00 00 00 00 00 00 00 00 00 00 00 00 00 00 00 00 00 00 00 00 00\
	00 00 00 00 00 00 00 00 00 00 00 00 00 00 00 00 00 00 00 00 00 00 00\
	00 00 00 00 00 00 00 00 00 00 00 00 00 00 00 00 00 00 00 00 00 00 00\
	00 00 00 00 00 00 00 00 00 00 00 00 00 00 00 00 00 00 00 00 00 00 00\
	00 00 00 00 00 00 00 00 00 18 00 00 00 00 00 00 00 00 00 00 00 00 00\
	00 00 00 00 00 00 00 00 00 00 00 00 00 00 00 00 00 00 00 00 00 00 00\
	00 00 00 00 00 00 00 00 00 00 00 00 00 00 00 00 00 00 00 00 00 00 00\
	00 00 00 00 00 00 00 00 00 00 00 00 00 00 00 00 00 00 00 00 00 00 00\
	00 00 00 00 00 00 00 00 00 00 00 00 00 00 00 00 00 00 00 00 00 00 00\
	00 00 00 00 00 00 00 00 00 00 00 00 00 00 00 00 00 00 00 00 00 00 00\
	00 00 00 19 00 00 00 00 00 00 00 00 00 00 00 00 00 00 00 00 00 00 00\
	00 00 00 00 00 00 00 00 00 00 00 00 00 00 00 00 00 00 00 00 00 00 00\
	00 00 00 00 00 00 00 00 00 00 00 00 00 00 00 00 00 00 00 00 00 00 00\
	00 00 00 00 00 00 00 00 00 00 00 00 00 00 00 00 00 00 00 00 00 00 00\
	00 00 00 00 00 00 00 00 00 00 00 00 00 00 00 00 00 00 00 00 00 00 00\
	00 00 00 00 00 00 00 00 00 00 00 00 00 00 00 00 00 00 00 00 1a 00 00\
	00 00 00 00 00 00 00 00 00 00 00 00 00 00 00 00 00 00 00 00 00 00 00\
	00 00 00 00 00 00 00 00 00 00 00 00 00 00 00 00 00 00 00 00 00 00 00\
	00 00 00 00 00 00 00 00 00 00 00 00 00 00 00 00 00 00 00 00 00 00 00\
	00 00 00 00 00 00 00 00 00 00 00 00 00 00 00 00 00 00 00 00 00 00 00\
	00 00 00 00 00 00 00 00 00 00 00 00 00 00 00 00 00 00 00 00 00 00 00\
	00 00 00 00 00 00 00 00 00 00 00 00 00 00 1b 00 00 00 00 00 00 00 00\
	00 00 00 00 00 00 00 00 00 00 00 00 00 00 00 00 00 00 00 00 00 00 00\
	00 00 00 00 00 00 00 00 00 00 00 00 00 00 00 00 00 00 00 00 00 00 00\
	00 00 00 00 00 00 00 00 00 00 00 00 00 00 00 00 00 00 00 00 00 00 00\
	00 00 00 00 00 00 00 00 00 00 00 00 00 00 00 00 00 00 00 00 00 00 00\
	00 00 00 00 00 00 00 00 00 00 00 00 00 00 00 00 00 00 00 00 00 00 00\
	00 00 00 00 00 00 00 00 1c 00 00 00 00 00 00 00 00 00 00 00 00 00 00\
	00 00 00 00 00 00 00 00 00 00 00 00 00 00 00 00 00 00 00 00 00 00 00\
	00 00 00 00 00 00 00 00 00 00 00 00 00 00 00 00 00 00 00 00 00 00 00\
	00 00 00 00 00 00 00 00 00 00 00 00 00 00 00 00 00 00 00 00 00 00 00\
	00 00 00 00 00 00 00 00 00 00 00 00 00 00 00 00 00 00 00 00 00 00 00\
	00 00 00 00 00 00 00 00 00 00 00 00 00 00 00 00 00 00 00 00 00 00 00\
	00 00 1d 00 00 00 00 00 00 00 00 00 00 00 00 00 00 00 00 00 00 00 00\
	00 00 00 00 00 00 00 00 00 00 00 00 00 00 00 00 00 00 00 00 00 00 00\
	00 00 00 00 00 00 00 00 00 00 00 00 00 00 00 00 00 00 00 00 00 00 00\
	00 00 00 00 00 00 00 00 00 00 00 00 00 00 00 00 00 00 00 00 00 00 00\
	00 00 00 00 00 00 00 00 00 00 00 00 00 00 00 00 00 00 00 00 00 00 00\
	00 00 00 00 00 00 00 00 00 00 00 00 00 00 00 00 00 00 00 1e 00 00 00\
	00 00 00 00 00 00 00 00 00 00 00 00 00 00 00 00 00 00 00 00 00 00 00\
	00 00 00 00 00 00 00 00 00 00 00 00 00 00 00 00 00 00 00 00 00 00 00\
	00 00 00 00 00 00 00 00 00 00 00 00 00 00 00 00 00 00 00 00 00 00 00\
	00 00 00 00 00 00 00 00 00 00 00 00 00 00 00 00 00 00 00 00 00 00 00\
	00 00 00 00 00 00 00 00 00 00 00 00 00 00 00 00 00 00 00 00 00 00 00\
	00 00 00 00 00 00 00 00 00 00 00 00 00 1f 00 00 00 00 00 00 00 00 00\
	00 00 00 00 00 00 00 00 00 00 00 00 00 00 00 00 00 00 00 00 00 00 00\
	00 00 00 00 00 00 00 00 00 00 00 00 00 00 00 00 00 00 00 00 00 00 00\
	00 00 00 00 00 00 00 00 00 00 00 00 00 00 00 00 00 00 00 00 00 00 00\
	00 00 00 00 00 00 00 00 00 00 00 00 00 00 00 00 00 00 00 00 00 00 00\
	00 00 00 00 00 00 00 00 00 00 00 00 00 00 00 00 00 00 00 00 00 00 00\
	00 00 00
0 Meta TrkEnd
TrkEnd
